<?xml version="1.0" encoding="UTF-8" standalone="no"?>
<svg xmlns:xlink="http://www.w3.org/1999/xlink" height="42.0px" width="41.0px" xmlns="http://www.w3.org/2000/svg">
  <g transform="matrix(1.0, 0.0, 0.0, 1.0, 20.5, 21.0)">
    <path d="M10.5 -14.0 L11.5 -14.0 11.5 -10.0 10.5 -10.0 10.5 -8.0 9.5 -8.0 9.5 -7.0 11.5 -7.0 11.5 -6.0 17.5 -6.0 17.5 -5.0 18.5 -5.0 18.5 -4.0 19.5 -4.0 19.5 -3.0 20.5 -3.0 20.5 7.0 19.5 7.0 19.5 8.0 20.5 8.0 20.5 12.0 19.5 12.0 19.5 13.0 18.5 13.0 18.5 16.0 17.5 16.0 17.5 17.0 16.5 17.0 16.5 18.0 15.5 18.0 15.5 19.0 14.5 19.0 14.5 20.0 12.5 20.0 12.5 21.0 -0.5 21.0 -0.5 20.0 -7.5 20.0 -7.5 19.0 -9.5 19.0 -9.5 20.0 -16.5 20.0 -16.5 19.0 -17.5 19.0 -17.5 18.0 -18.5 18.0 -18.5 13.0 -19.5 13.0 -19.5 5.0 -20.5 5.0 -20.5 0.0 -19.5 0.0 -19.5 -1.0 -18.5 -1.0 -18.5 -2.0 -9.5 -2.0 -9.5 -1.0 -7.5 -1.0 -7.5 -2.0 -6.5 -2.0 -6.5 -4.0 -5.5 -4.0 -5.5 -6.0 -4.5 -6.0 -4.5 -7.0 -3.5 -7.0 -3.5 -8.0 -2.5 -8.0 -2.5 -9.0 -1.5 -9.0 -1.5 -11.0 -0.5 -11.0 -0.5 -12.0 0.5 -12.0 0.5 -15.0 1.5 -15.0 1.5 -18.0 2.5 -18.0 2.5 -19.0 3.5 -19.0 3.5 -20.0 4.5 -20.0 4.5 -21.0 6.5 -21.0 6.5 -20.0 7.5 -20.0 7.5 -19.0 8.5 -19.0 8.5 -18.0 9.5 -18.0 9.5 -17.0 10.5 -17.0 10.5 -14.0 9.5 -14.0 9.5 -17.0 8.5 -17.0 8.5 -18.0 7.5 -18.0 7.5 -19.0 6.5 -19.0 6.5 -20.0 4.5 -20.0 4.5 -19.0 3.5 -19.0 3.5 -18.0 2.5 -18.0 2.5 -15.0 1.5 -15.0 1.5 -12.0 0.5 -12.0 0.5 -11.0 -0.5 -11.0 -0.5 -9.0 -1.5 -9.0 -1.5 -8.0 -2.5 -8.0 -2.5 -7.0 -3.5 -7.0 -3.5 -6.0 -4.5 -6.0 -4.5 -4.0 -5.5 -4.0 -5.5 -2.0 -5.5 -1.0 -7.5 -1.0 -7.5 0.0 -8.5 0.0 -8.5 18.0 -7.5 18.0 -7.5 19.0 -0.5 19.0 -0.5 20.0 12.5 20.0 12.5 19.0 14.5 19.0 14.5 18.0 15.5 18.0 15.5 17.0 16.5 17.0 16.5 16.0 17.5 16.0 17.5 13.0 18.5 13.0 18.5 12.0 19.5 12.0 19.5 8.0 18.5 8.0 18.5 7.0 19.5 7.0 19.5 -3.0 18.5 -3.0 18.5 -4.0 17.5 -4.0 17.5 -5.0 11.5 -5.0 11.5 -6.0 8.5 -6.0 8.5 -8.0 9.5 -8.0 9.5 -10.0 10.5 -10.0 10.5 -14.0 M-9.5 0.0 L-9.5 -1.0 -18.5 -1.0 -18.5 0.0 -19.5 0.0 -19.5 5.0 -18.5 5.0 -18.5 13.0 -17.5 13.0 -17.5 18.0 -16.5 18.0 -16.5 19.0 -9.5 19.0 -9.5 18.0 -9.5 0.0" fill="#000000" fill-rule="evenodd" stroke="none"/>
    <path d="M10.5 -14.0 L10.5 -10.0 9.5 -10.0 9.5 -8.0 8.5 -8.0 8.5 -6.0 11.5 -6.0 11.5 -5.0 17.5 -5.0 17.5 -4.0 18.5 -4.0 18.5 -3.0 19.5 -3.0 19.5 7.0 18.5 7.0 18.5 8.0 19.5 8.0 19.5 12.0 18.5 12.0 18.5 13.0 17.5 13.0 17.5 16.0 16.5 16.0 16.5 17.0 15.5 17.0 15.5 18.0 14.5 18.0 14.5 19.0 12.5 19.0 12.5 20.0 -0.5 20.0 -0.5 19.0 -7.5 19.0 -7.5 18.0 -8.5 18.0 -8.5 0.0 -7.5 0.0 -7.5 -1.0 -5.5 -1.0 -5.5 0.0 -7.5 0.0 -7.5 18.0 -0.5 18.0 -0.5 19.0 12.5 19.0 12.5 18.0 14.5 18.0 14.5 17.0 15.5 17.0 15.5 16.0 16.5 16.0 16.5 14.0 15.5 14.0 15.5 13.0 17.5 13.0 17.5 12.0 18.5 12.0 18.5 8.0 17.5 8.0 17.5 7.0 18.5 7.0 18.5 -3.0 17.5 -3.0 17.5 -4.0 11.5 -4.0 11.5 -5.0 6.5 -5.0 6.5 -6.0 7.5 -6.0 7.5 -8.0 8.5 -8.0 8.5 -10.0 9.5 -10.0 9.5 -14.0 8.5 -14.0 8.5 -17.0 7.5 -17.0 7.5 -18.0 6.5 -18.0 6.5 -19.0 4.5 -19.0 4.5 -18.0 3.5 -18.0 3.5 -15.0 4.5 -15.0 4.5 -18.0 6.5 -18.0 6.5 -17.0 7.5 -17.0 7.5 -14.0 8.5 -14.0 8.5 -10.0 7.5 -10.0 6.5 -10.0 6.5 -9.0 5.5 -9.0 5.5 -7.0 4.5 -7.0 4.5 -6.0 3.5 -6.0 3.5 -5.0 1.5 -5.0 1.5 -4.0 0.5 -4.0 0.5 -3.0 -0.5 -3.0 -0.5 -2.0 1.5 -2.0 1.5 -3.0 4.5 -3.0 4.5 -4.0 5.5 -4.0 11.5 -4.0 11.5 -3.0 16.5 -3.0 16.5 -1.0 15.5 -1.0 15.5 1.0 14.5 1.0 14.5 2.0 6.5 2.0 6.5 3.0 4.5 3.0 4.5 4.0 2.5 4.0 2.5 5.0 -6.5 5.0 -6.5 1.0 -5.5 1.0 -5.5 0.0 -4.5 0.0 -4.5 -2.0 -5.5 -2.0 -5.5 -4.0 -4.5 -4.0 -4.5 -6.0 -3.5 -6.0 -3.5 -7.0 -2.5 -7.0 -2.5 -8.0 -1.5 -8.0 -1.5 -9.0 -0.5 -9.0 -0.5 -11.0 0.5 -11.0 0.5 -12.0 1.5 -12.0 1.5 -15.0 2.5 -15.0 2.5 -18.0 3.5 -18.0 3.5 -19.0 4.5 -19.0 4.5 -20.0 6.5 -20.0 6.5 -19.0 7.5 -19.0 7.5 -18.0 8.5 -18.0 8.5 -17.0 9.5 -17.0 9.5 -14.0 10.5 -14.0 M14.5 14.0 L15.5 14.0 15.5 15.0 14.5 15.0 14.5 14.0 M2.5 -15.0 L2.5 -12.0 1.5 -12.0 1.5 -11.0 0.5 -11.0 0.5 -9.0 -0.5 -9.0 -0.5 -8.0 -1.5 -8.0 -1.5 -7.0 -2.5 -7.0 -2.5 -6.0 -3.5 -6.0 -3.5 -4.0 -4.5 -4.0 -4.5 -2.0 -3.5 -2.0 -3.5 -4.0 -2.5 -4.0 -2.5 -6.0 -1.5 -6.0 -1.5 -7.0 -0.5 -7.0 -0.5 -8.0 0.5 -8.0 0.5 -9.0 1.5 -9.0 1.5 -11.0 2.5 -11.0 2.5 -12.0 3.5 -12.0 3.5 -15.0 2.5 -15.0 M14.5 9.0 L13.5 9.0 13.5 10.0 7.5 10.0 7.5 9.0 9.5 9.0 9.5 8.0 14.5 8.0 14.5 9.0 M-18.5 -1.0 L-9.5 -1.0 -9.5 0.0 -18.5 0.0 -18.5 5.0 -17.5 5.0 -17.5 13.0 -16.5 13.0 -16.5 18.0 -9.5 18.0 -9.5 19.0 -16.5 19.0 -16.5 18.0 -17.5 18.0 -17.5 13.0 -18.5 13.0 -18.5 5.0 -19.5 5.0 -19.5 0.0 -18.5 0.0 -18.5 -1.0" fill="#ffffff" fill-rule="evenodd" stroke="none"/>
    <path d="M-5.5 -1.0 L-5.5 -2.0 -4.5 -2.0 -4.5 0.0 -5.5 0.0 -5.5 1.0 -6.5 1.0 -6.5 5.0 -6.5 17.0 -0.5 17.0 -0.5 18.0 12.5 18.0 12.5 17.0 14.5 17.0 14.5 16.0 15.5 16.0 15.5 15.0 15.5 14.0 14.5 14.0 14.5 13.0 15.5 13.0 15.5 12.0 17.5 12.0 17.5 8.0 16.5 8.0 16.5 7.0 17.5 7.0 17.5 -3.0 16.5 -3.0 11.5 -3.0 11.5 -4.0 5.5 -4.0 5.5 -6.0 6.5 -6.0 6.5 -8.0 7.5 -8.0 7.5 -10.0 8.5 -10.0 8.5 -14.0 7.5 -14.0 7.5 -17.0 6.5 -17.0 6.5 -18.0 4.5 -18.0 4.5 -15.0 3.5 -15.0 3.5 -18.0 4.5 -18.0 4.5 -19.0 6.5 -19.0 6.5 -18.0 7.5 -18.0 7.5 -17.0 8.5 -17.0 8.5 -14.0 9.5 -14.0 9.5 -10.0 8.5 -10.0 8.5 -8.0 7.5 -8.0 7.5 -6.0 6.5 -6.0 6.5 -5.0 11.5 -5.0 11.5 -4.0 17.5 -4.0 17.5 -3.0 18.5 -3.0 18.5 7.0 17.5 7.0 17.5 8.0 18.5 8.0 18.5 12.0 17.5 12.0 17.5 13.0 15.5 13.0 15.5 14.0 16.5 14.0 16.5 16.0 15.5 16.0 15.5 17.0 14.5 17.0 14.5 18.0 12.5 18.0 12.5 19.0 -0.5 19.0 -0.5 18.0 -7.5 18.0 -7.5 0.0 -5.5 0.0 -5.5 -1.0 M2.5 -15.0 L3.5 -15.0 3.5 -12.0 2.5 -12.0 2.5 -11.0 1.5 -11.0 1.5 -9.0 0.5 -9.0 0.5 -8.0 -0.5 -8.0 -0.5 -7.0 -1.5 -7.0 -1.5 -6.0 -2.5 -6.0 -2.5 -4.0 -3.5 -4.0 -3.5 -2.0 -4.5 -2.0 -4.5 -4.0 -3.5 -4.0 -3.5 -6.0 -2.5 -6.0 -2.5 -7.0 -1.5 -7.0 -1.5 -8.0 -0.5 -8.0 -0.5 -9.0 0.5 -9.0 0.5 -11.0 1.5 -11.0 1.5 -12.0 2.5 -12.0 2.5 -15.0 M-9.5 0.0 L-9.5 18.0 -16.5 18.0 -16.5 13.0 -15.5 13.0 -15.5 17.0 -10.5 17.0 -10.5 9.0 -10.5 2.0 -10.5 1.0 -17.5 1.0 -17.5 2.0 -17.5 5.0 -16.5 5.0 -16.5 9.0 -16.5 13.0 -17.5 13.0 -17.5 5.0 -18.5 5.0 -18.5 0.0 -9.5 0.0" fill="#74d110" fill-rule="evenodd" stroke="none"/>
    <path d="M7.5 -10.0 L7.5 -8.0 6.5 -8.0 6.5 -6.0 5.5 -6.0 5.5 -4.0 4.5 -4.0 4.5 -3.0 1.5 -3.0 1.5 -2.0 -0.5 -2.0 -0.5 -3.0 0.5 -3.0 0.5 -4.0 1.5 -4.0 1.5 -5.0 3.5 -5.0 3.5 -6.0 4.5 -6.0 4.5 -7.0 5.5 -7.0 5.5 -9.0 6.5 -9.0 6.5 -10.0 7.5 -10.0 M16.5 -3.0 L17.5 -3.0 17.5 7.0 16.5 7.0 16.5 8.0 17.5 8.0 17.5 12.0 15.5 12.0 15.5 13.0 14.5 13.0 14.5 14.0 14.5 15.0 15.5 15.0 15.5 16.0 14.5 16.0 14.5 17.0 12.5 17.0 12.5 18.0 -0.5 18.0 -0.5 17.0 -6.5 17.0 -6.5 5.0 2.5 5.0 2.5 4.0 4.5 4.0 4.5 3.0 6.5 3.0 6.5 2.0 14.5 2.0 14.5 1.0 15.5 1.0 15.5 -1.0 16.5 -1.0 16.5 -3.0 M14.5 9.0 L14.5 8.0 9.5 8.0 9.5 9.0 7.5 9.0 7.5 10.0 13.5 10.0 13.5 9.0 14.5 9.0" fill="#d7e6db" fill-rule="evenodd" stroke="none"/>
    <path d="M-17.5 2.0 L-17.5 1.0 -10.5 1.0 -10.5 2.0 -17.5 2.0 M-10.5 9.0 L-10.5 17.0 -15.5 17.0 -15.5 13.0 -16.5 13.0 -16.5 9.0 -10.5 9.0" fill="#a2f24d" fill-rule="evenodd" stroke="none"/>
    <path d="M-10.5 2.0 L-10.5 9.0 -16.5 9.0 -16.5 5.0 -17.5 5.0 -17.5 2.0 -10.5 2.0" fill="#e2fdb7" fill-rule="evenodd" stroke="none"/>
  </g>
</svg>
