<?xml version="1.0" encoding="UTF-8" standalone="no"?>
<svg xmlns:xlink="http://www.w3.org/1999/xlink" height="23.0px" width="56.0px" xmlns="http://www.w3.org/2000/svg">
  <g transform="matrix(1.0, 0.0, 0.0, 1.0, 28.0, 11.5)">
    <path d="M7.2 0.5 L7.2 -0.35 9.9 -0.35 9.9 -1.3 6.4 -1.3 6.4 0.5 4.6 0.5 4.6 -1.2 3.75 -1.2 3.75 0.5 1.95 0.5 1.95 -3.05 1.15 -3.05 1.15 0.5 -0.6 0.5 -0.6 -0.3 -1.5 -0.3 -1.5 0.5 -4.2 0.5 -4.2 -0.35 -1.5 -0.35 -1.5 -1.2 -4.2 -1.2 -4.2 -0.35 -5.0 -0.35 -5.0 0.5 -6.75 0.5 -6.75 -0.3 -7.65 -0.3 -7.65 0.5 -10.3 0.5 -10.3 -0.35 -7.65 -0.35 -7.65 -1.2 -10.35 -1.2 -10.35 -0.35 -11.15 -0.35 -11.15 0.5 -12.9 0.5 -12.9 -0.3 -13.75 -0.3 -13.75 0.5 -16.5 0.5 -16.5 -0.35 -13.75 -0.35 -13.75 -1.25 -12.95 -1.25 -12.95 -3.05 -13.75 -3.05 -13.75 -1.25 -16.5 -1.25 -16.5 -0.35 -17.3 -0.35 -17.3 0.5 -25.0 0.5 -25.0 -5.5 -24.0 -5.5 -24.0 -6.5 -23.0 -6.5 -23.0 -7.5 23.0 -7.5 23.0 -6.5 24.0 -6.5 24.0 -5.5 25.0 -5.5 25.0 0.5 16.95 0.5 16.95 -0.3 16.05 -0.3 16.05 0.5 13.4 0.5 13.4 -0.35 16.05 -0.35 16.05 -1.2 13.35 -1.2 13.35 -0.35 12.55 -0.35 12.55 0.5 10.8 0.5 10.8 -0.3 10.0 -0.3 10.0 0.5 7.2 0.5" fill="#9d2630" fill-rule="evenodd" stroke="none"/>
    <path d="M6.4 0.5 L6.4 -1.3 9.9 -1.3 9.9 -0.35 7.2 -0.35 7.2 0.5 7.2 3.2 6.4 3.2 6.4 0.5 M10.0 0.5 L10.0 -0.3 10.8 -0.3 10.8 0.5 10.8 3.2 10.0 3.2 10.0 0.5 M12.55 0.5 L12.55 -0.35 13.35 -0.35 13.35 -1.2 16.05 -1.2 16.05 -0.35 13.4 -0.35 13.4 0.5 13.4 0.6 15.1 0.6 15.1 1.5 13.35 1.5 13.35 2.3 12.55 2.3 12.55 0.5 M16.05 0.5 L16.05 -0.3 16.95 -0.3 16.95 0.5 16.95 0.55 16.05 0.55 16.05 0.5 M-17.3 0.5 L-17.3 -0.35 -16.5 -0.35 -16.5 -1.25 -13.75 -1.25 -13.75 -3.05 -12.95 -3.05 -12.95 -1.25 -13.75 -1.25 -13.75 -0.35 -16.5 -0.35 -16.5 0.5 -16.5 2.3 -17.3 2.3 -17.3 0.5 M-13.75 0.5 L-13.75 -0.3 -12.9 -0.3 -12.9 0.5 -12.9 2.35 -13.75 2.35 -13.75 3.2 -16.45 3.2 -16.45 2.35 -13.75 2.35 -13.75 0.5 M-11.15 0.5 L-11.15 -0.35 -10.35 -0.35 -10.35 -1.2 -7.65 -1.2 -7.65 -0.35 -10.3 -0.35 -10.3 0.5 -10.3 0.6 -8.6 0.6 -8.6 1.5 -10.35 1.5 -10.35 2.3 -11.15 2.3 -11.15 0.5 M-7.65 0.5 L-7.65 -0.3 -6.75 -0.3 -6.75 0.5 -6.75 0.55 -7.65 0.55 -7.65 0.5 M-5.0 0.5 L-5.0 -0.35 -4.2 -0.35 -4.2 -1.2 -1.5 -1.2 -1.5 -0.35 -4.2 -0.35 -4.2 0.5 -4.2 2.3 -5.0 2.3 -5.0 0.5 M-1.5 0.5 L-1.5 -0.3 -0.6 -0.3 -0.6 0.5 -0.6 0.55 -1.5 0.55 -1.5 0.5 M1.15 0.5 L1.15 -3.05 1.95 -3.05 1.95 0.5 1.95 3.2 1.15 3.2 1.15 0.5 M3.75 0.5 L3.75 -1.2 4.6 -1.2 4.6 0.5 4.6 3.2 3.75 3.2 3.75 0.5 M16.95 3.2 L13.4 3.2 13.4 2.35 16.95 2.35 16.95 3.2 M-4.15 3.2 L-4.15 2.4 -1.5 2.4 -1.5 3.2 -4.15 3.2 M-6.75 3.2 L-10.3 3.2 -10.3 2.35 -6.75 2.35 -6.75 3.2" fill="#ffffff" fill-rule="evenodd" stroke="none"/>
    <path d="M25.0 0.5 L25.0 -5.5 25.0 -6.5 24.0 -6.5 24.0 -7.5 23.0 -7.5 23.0 -8.5 24.0 -8.5 24.0 -7.5 25.0 -7.5 25.0 -6.5 26.0 -6.5 26.0 -5.5 26.0 6.5 25.0 6.5 25.0 7.5 24.0 7.5 24.0 8.5 23.0 8.5 23.0 9.5 -23.0 9.5 -23.0 8.5 -24.0 8.5 -24.0 7.5 -25.0 7.5 -25.0 6.5 -26.0 6.5 -26.0 -6.5 -25.0 -6.5 -25.0 -7.5 -24.0 -7.5 -24.0 -8.5 -23.0 -8.5 -23.0 -9.5 23.0 -9.5 23.0 -10.5 -23.0 -10.5 -23.0 -9.5 -24.0 -9.5 -24.0 -8.5 -25.0 -8.5 -25.0 -7.5 -26.0 -7.5 -26.0 -6.5 -27.0 -6.5 -27.0 6.5 -26.0 6.5 -26.0 7.5 -25.0 7.5 -25.0 8.5 -24.0 8.5 -24.0 9.5 -23.0 9.5 -23.0 10.5 23.0 10.5 23.0 9.5 24.0 9.5 24.0 8.5 25.0 8.5 25.0 7.5 26.0 7.5 26.0 6.5 27.0 6.5 27.0 -5.5 27.0 -6.5 26.0 -6.5 26.0 -7.5 25.0 -7.5 25.0 -8.5 24.0 -8.5 24.0 -9.5 23.0 -9.5 23.0 -8.5 -23.0 -8.5 -23.0 -7.5 -24.0 -7.5 -24.0 -6.5 -25.0 -6.5 -25.0 -5.5 -25.0 0.5 -25.0 5.5 -25.0 6.5 -24.0 6.5 -24.0 7.5 -23.0 7.5 -23.0 8.5 23.0 8.5 23.0 7.5 24.0 7.5 24.0 6.5 25.0 6.5 25.0 5.5 25.0 0.5 M26.0 -7.5 L27.0 -7.5 27.0 -6.5 28.0 -6.5 28.0 6.5 27.0 6.5 27.0 7.5 26.0 7.5 26.0 8.5 25.0 8.5 25.0 9.5 24.0 9.5 24.0 10.5 23.0 10.5 23.0 11.5 -23.0 11.5 -23.0 10.5 -24.0 10.5 -24.0 9.5 -25.0 9.5 -25.0 8.5 -26.0 8.5 -26.0 7.5 -27.0 7.5 -27.0 6.5 -28.0 6.5 -28.0 -6.5 -27.0 -6.5 -27.0 -7.5 -26.0 -7.5 -26.0 -8.5 -25.0 -8.5 -25.0 -9.5 -24.0 -9.5 -24.0 -10.5 -23.0 -10.5 -23.0 -11.5 23.0 -11.5 23.0 -10.5 24.0 -10.5 24.0 -9.5 25.0 -9.5 25.0 -8.5 26.0 -8.5 26.0 -7.5" fill="#000000" fill-rule="evenodd" stroke="none"/>
    <path d="M26.0 -7.5 L26.0 -6.5 27.0 -6.5 27.0 -5.5 26.0 -5.5 26.0 -6.5 25.0 -6.5 25.0 -7.5 24.0 -7.5 24.0 -8.5 23.0 -8.5 23.0 -9.5 -23.0 -9.5 -23.0 -10.5 23.0 -10.5 23.0 -9.5 24.0 -9.5 24.0 -8.5 25.0 -8.5 25.0 -7.5 26.0 -7.5" fill="#ffdf93" fill-rule="evenodd" stroke="none"/>
    <path d="M25.0 -5.5 L24.0 -5.5 24.0 -6.5 23.0 -6.5 23.0 -7.5 -23.0 -7.5 -23.0 -6.5 -24.0 -6.5 -24.0 -5.5 -25.0 -5.5 -25.0 -6.5 -24.0 -6.5 -24.0 -7.5 -23.0 -7.5 -23.0 -8.5 23.0 -8.5 23.0 -7.5 24.0 -7.5 24.0 -6.5 25.0 -6.5 25.0 -5.5" fill="#db5b66" fill-rule="evenodd" stroke="none"/>
    <path d="M27.0 -5.5 L27.0 6.5 26.0 6.5 26.0 7.5 25.0 7.5 25.0 8.5 24.0 8.5 24.0 9.5 23.0 9.5 23.0 10.5 -23.0 10.5 -23.0 9.5 -24.0 9.5 -24.0 8.5 -25.0 8.5 -25.0 7.5 -26.0 7.5 -26.0 6.5 -27.0 6.5 -27.0 -6.5 -26.0 -6.5 -26.0 -7.5 -25.0 -7.5 -25.0 -8.5 -24.0 -8.5 -24.0 -9.5 -23.0 -9.5 -23.0 -8.5 -24.0 -8.5 -24.0 -7.5 -25.0 -7.5 -25.0 -6.5 -26.0 -6.5 -26.0 6.5 -25.0 6.5 -25.0 7.5 -24.0 7.5 -24.0 8.5 -23.0 8.5 -23.0 9.5 23.0 9.5 23.0 8.5 24.0 8.5 24.0 7.5 25.0 7.5 25.0 6.5 26.0 6.5 26.0 -5.5 27.0 -5.5" fill="#d8ba77" fill-rule="evenodd" stroke="none"/>
    <path d="M7.2 0.5 L10.0 0.5 10.0 3.2 10.8 3.2 10.8 0.5 12.55 0.5 12.55 2.3 13.35 2.3 13.35 1.5 15.1 1.5 15.1 0.6 13.4 0.6 13.4 0.5 16.05 0.5 16.05 0.55 16.95 0.55 16.95 0.5 25.0 0.5 25.0 5.5 24.0 5.5 24.0 6.5 23.0 6.5 23.0 7.5 -23.0 7.5 -23.0 6.5 -24.0 6.5 -24.0 5.5 -25.0 5.5 -25.0 0.5 -17.3 0.5 -17.3 2.3 -16.5 2.3 -16.5 0.5 -13.75 0.5 -13.75 2.35 -16.45 2.35 -16.45 3.2 -13.75 3.2 -13.75 2.35 -12.9 2.35 -12.9 0.5 -11.15 0.5 -11.15 2.3 -10.35 2.3 -10.35 1.5 -8.6 1.5 -8.6 0.6 -10.3 0.6 -10.3 0.5 -7.65 0.5 -7.65 0.55 -6.75 0.55 -6.75 0.5 -5.0 0.5 -5.0 2.3 -4.2 2.3 -4.2 0.5 -1.5 0.5 -1.5 0.55 -0.6 0.55 -0.6 0.5 1.15 0.5 1.15 3.2 1.95 3.2 1.95 0.5 3.75 0.5 3.75 3.2 4.6 3.2 4.6 0.5 6.4 0.5 6.4 3.2 7.2 3.2 7.2 0.5 M16.95 3.2 L16.95 2.35 13.4 2.35 13.4 3.2 16.95 3.2 M-6.75 3.2 L-6.75 2.35 -10.3 2.35 -10.3 3.2 -6.75 3.2 M-4.15 3.2 L-1.5 3.2 -1.5 2.4 -4.15 2.4 -4.15 3.2" fill="#7f1113" fill-rule="evenodd" stroke="none"/>
    <path d="M-25.0 5.5 L-24.0 5.5 -24.0 6.5 -23.0 6.5 -23.0 7.5 23.0 7.5 23.0 6.5 24.0 6.5 24.0 5.5 25.0 5.5 25.0 6.5 24.0 6.5 24.0 7.5 23.0 7.5 23.0 8.5 -23.0 8.5 -23.0 7.5 -24.0 7.5 -24.0 6.5 -25.0 6.5 -25.0 5.5" fill="#5b0506" fill-rule="evenodd" stroke="none"/>
  </g>
</svg>
