<?xml version="1.0" encoding="UTF-8" standalone="no"?>
<svg xmlns:xlink="http://www.w3.org/1999/xlink" height="23.0px" width="56.0px" xmlns="http://www.w3.org/2000/svg">
  <g transform="matrix(1.0, 0.0, 0.0, 1.0, 0.0, 0.0)">
    <path d="M51.0 1.0 L52.0 1.0 52.0 2.0 53.0 2.0 53.0 3.0 54.0 3.0 54.0 4.0 55.0 4.0 55.0 5.0 56.0 5.0 56.0 18.0 55.0 18.0 55.0 19.0 54.0 19.0 54.0 20.0 53.0 20.0 53.0 21.0 52.0 21.0 52.0 22.0 51.0 22.0 51.0 23.0 5.0 23.0 5.0 22.0 4.0 22.0 4.0 21.0 3.0 21.0 3.0 20.0 2.0 20.0 2.0 19.0 1.0 19.0 1.0 18.0 0.0 18.0 0.0 5.0 1.0 5.0 1.0 4.0 2.0 4.0 2.0 3.0 3.0 3.0 3.0 2.0 4.0 2.0 4.0 1.0 5.0 1.0 5.0 0.0 51.0 0.0 51.0 1.0 5.0 1.0 5.0 2.0 4.0 2.0 4.0 3.0 3.0 3.0 3.0 4.0 2.0 4.0 2.0 5.0 1.0 5.0 1.0 18.0 2.0 18.0 2.0 19.0 3.0 19.0 3.0 20.0 4.0 20.0 4.0 21.0 5.0 21.0 5.0 22.0 51.0 22.0 51.0 21.0 52.0 21.0 52.0 20.0 53.0 20.0 53.0 19.0 54.0 19.0 54.0 18.0 55.0 18.0 55.0 6.0 55.0 5.0 54.0 5.0 54.0 4.0 53.0 4.0 53.0 3.0 52.0 3.0 52.0 2.0 51.0 2.0 51.0 1.0 M51.0 2.0 L51.0 3.0 52.0 3.0 52.0 4.0 53.0 4.0 53.0 5.0 54.0 5.0 54.0 6.0 54.0 18.0 53.0 18.0 53.0 17.0 53.0 12.0 53.0 6.0 53.0 5.0 52.0 5.0 52.0 4.0 51.0 4.0 51.0 3.0 5.0 3.0 5.0 4.0 4.0 4.0 4.0 5.0 3.0 5.0 3.0 6.0 3.0 12.0 3.0 17.0 3.0 18.0 4.0 18.0 4.0 19.0 5.0 19.0 5.0 20.0 51.0 20.0 51.0 19.0 52.0 19.0 52.0 18.0 53.0 18.0 53.0 19.0 52.0 19.0 52.0 20.0 51.0 20.0 51.0 21.0 5.0 21.0 5.0 20.0 4.0 20.0 4.0 19.0 3.0 19.0 3.0 18.0 2.0 18.0 2.0 5.0 3.0 5.0 3.0 4.0 4.0 4.0 4.0 3.0 5.0 3.0 5.0 2.0 51.0 2.0" fill="#000000" fill-rule="evenodd" stroke="none"/>
    <path d="M51.0 1.0 L51.0 2.0 52.0 2.0 52.0 3.0 53.0 3.0 53.0 4.0 54.0 4.0 54.0 5.0 55.0 5.0 55.0 6.0 54.0 6.0 54.0 5.0 53.0 5.0 53.0 4.0 52.0 4.0 52.0 3.0 51.0 3.0 51.0 2.0 5.0 2.0 5.0 1.0 51.0 1.0" fill="#ffdf93" fill-rule="evenodd" stroke="none"/>
    <path d="M53.0 5.0 L53.0 6.0 52.0 6.0 52.0 5.0 53.0 5.0 M52.0 4.0 L52.0 5.0 51.0 5.0 51.0 4.0 52.0 4.0 M51.0 3.0 L51.0 4.0 5.0 4.0 5.0 5.0 4.0 5.0 4.0 6.0 3.0 6.0 3.0 5.0 4.0 5.0 4.0 4.0 5.0 4.0 5.0 3.0 51.0 3.0" fill="#f04655" fill-rule="evenodd" stroke="none"/>
    <path d="M53.0 6.0 L53.0 12.0 48.1 12.0 48.1 10.25 47.25 10.25 47.25 12.0 44.5 12.0 44.5 10.3 43.7 10.3 43.7 12.0 41.95 12.0 41.95 11.25 41.1 11.25 41.1 12.0 38.35 12.0 38.35 11.2 41.05 11.2 41.05 10.25 38.35 10.25 38.35 11.2 37.55 11.2 37.55 12.0 35.75 12.0 35.75 11.25 34.85 11.25 34.85 12.0 33.05 12.0 33.05 11.2 34.85 11.2 34.85 10.25 33.05 10.25 33.05 11.2 32.25 11.2 32.25 12.0 28.7 12.0 28.7 11.2 30.5 11.2 30.5 10.25 28.7 10.25 28.7 11.2 27.85 11.2 27.85 12.0 20.8 12.0 20.8 11.2 23.45 11.2 23.45 10.25 20.75 10.25 20.75 11.2 19.85 11.2 19.85 12.0 18.1 12.0 18.1 11.25 17.2 11.25 17.2 12.0 14.55 12.0 14.55 11.2 17.2 11.2 17.2 10.35 14.5 10.35 14.5 11.2 13.7 11.2 13.7 12.0 11.95 12.0 11.95 9.45 11.1 9.45 11.1 12.0 8.4 12.0 8.4 9.45 11.05 9.45 11.05 8.6 7.55 8.6 7.55 12.0 3.0 12.0 3.0 6.0 4.0 6.0 4.0 5.0 5.0 5.0 5.0 4.0 51.0 4.0 51.0 5.0 52.0 5.0 52.0 6.0 53.0 6.0 M28.65 8.5 L27.85 8.5 27.85 10.25 26.05 10.25 26.05 11.15 27.85 11.15 27.85 10.25 28.65 10.25 28.65 8.5" fill="#b0131f" fill-rule="evenodd" stroke="none"/>
    <path d="M55.0 6.0 L55.0 18.0 54.0 18.0 54.0 19.0 53.0 19.0 53.0 20.0 52.0 20.0 52.0 21.0 51.0 21.0 51.0 22.0 5.0 22.0 5.0 21.0 4.0 21.0 4.0 20.0 3.0 20.0 3.0 19.0 2.0 19.0 2.0 18.0 1.0 18.0 1.0 5.0 2.0 5.0 2.0 4.0 3.0 4.0 3.0 3.0 4.0 3.0 4.0 2.0 5.0 2.0 5.0 3.0 4.0 3.0 4.0 4.0 3.0 4.0 3.0 5.0 2.0 5.0 2.0 18.0 3.0 18.0 3.0 19.0 4.0 19.0 4.0 20.0 5.0 20.0 5.0 21.0 51.0 21.0 51.0 20.0 52.0 20.0 52.0 19.0 53.0 19.0 53.0 18.0 54.0 18.0 54.0 6.0 55.0 6.0" fill="#e7bf67" fill-rule="evenodd" stroke="none"/>
    <path d="M53.0 17.0 L53.0 18.0 52.0 18.0 52.0 17.0 53.0 17.0 M3.0 17.0 L4.0 17.0 4.0 18.0 5.0 18.0 5.0 19.0 51.0 19.0 51.0 18.0 52.0 18.0 52.0 19.0 51.0 19.0 51.0 20.0 5.0 20.0 5.0 19.0 4.0 19.0 4.0 18.0 3.0 18.0 3.0 17.0" fill="#600001" fill-rule="evenodd" stroke="none"/>
    <path d="M53.0 12.0 L53.0 17.0 52.0 17.0 52.0 18.0 51.0 18.0 51.0 19.0 5.0 19.0 5.0 18.0 4.0 18.0 4.0 17.0 3.0 17.0 3.0 12.0 7.55 12.0 7.55 14.75 11.1 14.75 11.1 13.9 11.95 13.9 11.95 12.0 13.7 12.0 13.7 13.85 14.5 13.85 14.5 13.05 16.25 13.05 16.25 12.15 14.55 12.15 14.55 12.0 17.2 12.0 17.2 12.1 18.1 12.1 18.1 12.0 19.85 12.0 19.85 12.95 23.45 12.95 23.45 13.9 20.8 13.9 20.8 14.75 23.45 14.75 23.45 13.9 24.3 13.9 24.3 12.05 20.8 12.05 20.8 12.0 27.85 12.0 27.85 13.85 28.7 13.85 28.7 12.0 32.25 12.0 32.25 14.75 33.05 14.75 33.05 12.0 34.85 12.0 34.85 12.05 35.75 12.05 35.75 12.0 37.55 12.0 37.55 13.8 38.35 13.8 38.35 12.0 41.1 12.0 41.1 13.85 41.95 13.85 41.95 12.0 43.7 12.0 43.7 12.1 44.5 12.1 44.5 12.0 47.25 12.0 47.25 12.05 46.35 12.05 46.35 12.95 45.4 12.95 45.4 14.8 44.5 14.8 44.5 15.65 43.7 15.65 43.7 16.5 44.5 16.5 44.5 15.65 45.4 15.65 45.4 14.8 46.35 14.8 46.35 12.95 47.25 12.95 47.25 12.05 48.1 12.05 48.1 12.0 53.0 12.0 M41.1 13.85 L38.4 13.85 38.4 14.75 41.1 14.75 41.1 13.85 M45.35 12.1 L44.55 12.1 44.55 12.9 45.35 12.9 45.35 12.1 M28.75 13.95 L28.75 14.75 29.55 14.75 29.55 13.95 28.75 13.95 M8.4 12.0 L11.1 12.0 11.1 13.85 8.4 13.85 8.4 12.0 M18.1 14.75 L18.1 13.9 14.55 13.9 14.55 14.75 18.1 14.75" fill="#900004" fill-rule="evenodd" stroke="none"/>
    <path d="M41.1 12.0 L41.1 11.25 41.95 11.25 41.95 12.0 41.95 13.85 41.1 13.85 41.1 12.0 M43.7 12.0 L43.7 10.3 44.5 10.3 44.5 12.0 44.5 12.1 43.7 12.1 43.7 12.0 M47.25 12.0 L47.25 10.25 48.1 10.25 48.1 12.0 48.1 12.05 47.25 12.05 47.25 12.95 46.35 12.95 46.35 14.8 45.4 14.8 45.4 15.65 44.5 15.65 44.5 16.5 43.7 16.5 43.7 15.65 44.5 15.65 44.5 14.8 45.4 14.8 45.4 12.95 46.35 12.95 46.35 12.05 47.25 12.05 47.25 12.0 M37.55 12.0 L37.55 11.2 38.35 11.2 38.35 10.25 41.05 10.25 41.05 11.2 38.35 11.2 38.35 12.0 38.35 13.8 37.55 13.8 37.55 12.0 M45.35 12.1 L45.35 12.9 44.55 12.9 44.55 12.1 45.35 12.1 M41.1 13.85 L41.1 14.75 38.4 14.75 38.4 13.85 41.1 13.85 M27.85 12.0 L27.85 11.2 28.7 11.2 28.7 10.25 30.5 10.25 30.5 11.2 28.7 11.2 28.7 12.0 28.7 13.85 27.85 13.85 27.85 12.0 M32.25 12.0 L32.25 11.2 33.05 11.2 33.05 10.25 34.85 10.25 34.85 11.2 33.05 11.2 33.05 12.0 33.05 14.75 32.25 14.75 32.25 12.0 M34.85 12.0 L34.85 11.25 35.75 11.25 35.75 12.0 35.75 12.05 34.85 12.05 34.85 12.0 M19.85 12.0 L19.85 11.2 20.75 11.2 20.75 10.25 23.45 10.25 23.45 11.2 20.8 11.2 20.8 12.0 20.8 12.05 24.3 12.05 24.3 13.9 23.45 13.9 23.45 14.75 20.8 14.75 20.8 13.9 23.45 13.9 23.45 12.95 19.85 12.95 19.85 12.0 M18.1 12.0 L18.1 12.1 17.2 12.1 17.2 12.0 17.2 11.25 18.1 11.25 18.1 12.0 M14.55 12.0 L14.55 12.15 16.25 12.15 16.25 13.05 14.5 13.05 14.5 13.85 13.7 13.85 13.7 12.0 13.7 11.2 14.5 11.2 14.5 10.35 17.2 10.35 17.2 11.2 14.55 11.2 14.55 12.0 M11.95 12.0 L11.95 13.9 11.1 13.9 11.1 14.75 7.55 14.75 7.55 12.0 7.55 8.6 11.05 8.6 11.05 9.45 8.4 9.45 8.4 12.0 8.4 13.85 11.1 13.85 11.1 12.0 11.1 9.45 11.95 9.45 11.95 12.0 M28.65 8.5 L28.65 10.25 27.85 10.25 27.85 11.15 26.05 11.15 26.05 10.25 27.85 10.25 27.85 8.5 28.65 8.5 M28.75 13.95 L29.55 13.95 29.55 14.75 28.75 14.75 28.75 13.95 M18.1 14.75 L14.55 14.75 14.55 13.9 18.1 13.9 18.1 14.75" fill="#ffffff" fill-rule="evenodd" stroke="none"/>
  </g>
</svg>
