<?xml version="1.0" encoding="UTF-8" standalone="no"?>
<svg xmlns:xlink="http://www.w3.org/1999/xlink" height="23.0px" width="56.0px" xmlns="http://www.w3.org/2000/svg">
  <g transform="matrix(1.0, 0.0, 0.0, 1.0, 0.0, 0.0)">
    <path d="M51.0 1.0 L52.0 1.0 52.0 2.0 53.0 2.0 53.0 3.0 54.0 3.0 54.0 4.0 55.0 4.0 55.0 5.0 56.0 5.0 56.0 18.0 55.0 18.0 55.0 19.0 54.0 19.0 54.0 20.0 53.0 20.0 53.0 21.0 52.0 21.0 52.0 22.0 51.0 22.0 51.0 23.0 5.0 23.0 5.0 22.0 4.0 22.0 4.0 21.0 3.0 21.0 3.0 20.0 2.0 20.0 2.0 19.0 1.0 19.0 1.0 18.0 0.0 18.0 0.0 5.0 1.0 5.0 1.0 4.0 2.0 4.0 2.0 3.0 3.0 3.0 3.0 2.0 4.0 2.0 4.0 1.0 5.0 1.0 5.0 0.0 51.0 0.0 51.0 1.0 5.0 1.0 5.0 2.0 4.0 2.0 4.0 3.0 3.0 3.0 3.0 4.0 2.0 4.0 2.0 5.0 1.0 5.0 1.0 18.0 2.0 18.0 2.0 19.0 3.0 19.0 3.0 20.0 4.0 20.0 4.0 21.0 5.0 21.0 5.0 22.0 51.0 22.0 51.0 21.0 52.0 21.0 52.0 20.0 53.0 20.0 53.0 19.0 54.0 19.0 54.0 18.0 55.0 18.0 55.0 6.0 55.0 5.0 54.0 5.0 54.0 4.0 53.0 4.0 53.0 3.0 52.0 3.0 52.0 2.0 51.0 2.0 51.0 1.0 M51.0 2.0 L51.0 3.0 52.0 3.0 52.0 4.0 53.0 4.0 53.0 5.0 54.0 5.0 54.0 6.0 54.0 18.0 53.0 18.0 53.0 17.0 53.0 12.0 53.0 6.0 53.0 5.0 52.0 5.0 52.0 4.0 51.0 4.0 51.0 3.0 5.0 3.0 5.0 4.0 4.0 4.0 4.0 5.0 3.0 5.0 3.0 6.0 3.0 12.0 3.0 17.0 3.0 18.0 4.0 18.0 4.0 19.0 5.0 19.0 5.0 20.0 51.0 20.0 51.0 19.0 52.0 19.0 52.0 18.0 53.0 18.0 53.0 19.0 52.0 19.0 52.0 20.0 51.0 20.0 51.0 21.0 5.0 21.0 5.0 20.0 4.0 20.0 4.0 19.0 3.0 19.0 3.0 18.0 2.0 18.0 2.0 5.0 3.0 5.0 3.0 4.0 4.0 4.0 4.0 3.0 5.0 3.0 5.0 2.0 51.0 2.0" fill="#000000" fill-rule="evenodd" stroke="none"/>
    <path d="M51.0 1.0 L51.0 2.0 52.0 2.0 52.0 3.0 53.0 3.0 53.0 4.0 54.0 4.0 54.0 5.0 55.0 5.0 55.0 6.0 54.0 6.0 54.0 5.0 53.0 5.0 53.0 4.0 52.0 4.0 52.0 3.0 51.0 3.0 51.0 2.0 5.0 2.0 5.0 1.0 51.0 1.0" fill="#ffdf93" fill-rule="evenodd" stroke="none"/>
    <path d="M53.0 5.0 L53.0 6.0 52.0 6.0 52.0 5.0 53.0 5.0 M52.0 4.0 L52.0 5.0 51.0 5.0 51.0 4.0 52.0 4.0 M51.0 3.0 L51.0 4.0 5.0 4.0 5.0 5.0 4.0 5.0 4.0 6.0 3.0 6.0 3.0 5.0 4.0 5.0 4.0 4.0 5.0 4.0 5.0 3.0 51.0 3.0" fill="#68a163" fill-rule="evenodd" stroke="none"/>
    <path d="M53.0 6.0 L53.0 12.0 47.9 12.0 47.9 11.15 47.0 11.15 47.0 12.0 44.35 12.0 44.35 11.1 47.0 11.1 47.0 10.25 44.3 10.25 44.3 11.1 43.5 11.1 43.5 12.0 41.75 12.0 41.75 11.15 40.9 11.15 40.9 12.0 38.15 12.0 38.15 11.1 40.9 11.1 40.9 10.2 41.7 10.2 41.7 8.4 40.9 8.4 40.9 10.2 38.15 10.2 38.15 11.1 37.35 11.1 37.35 12.0 35.6 12.0 35.6 11.15 34.75 11.15 34.75 12.0 26.65 12.0 26.65 11.1 28.45 11.1 28.45 10.15 26.65 10.15 26.65 11.1 25.85 11.1 25.85 12.0 24.05 12.0 24.05 11.15 23.15 11.15 23.15 12.0 20.55 12.0 20.55 11.1 23.1 11.1 23.1 10.25 20.5 10.25 20.5 11.1 19.6 11.1 19.6 12.0 17.8 12.0 17.8 11.1 16.95 11.1 16.95 12.0 14.25 12.0 14.25 11.15 13.35 11.15 13.35 12.0 11.55 12.0 11.55 8.4 10.65 8.4 10.65 12.0 7.9 12.0 7.9 8.4 7.1 8.4 7.1 12.0 5.05 12.0 5.05 10.0 5.0 10.0 5.0 12.0 3.0 12.0 3.0 6.0 4.0 6.0 4.0 5.0 5.0 5.0 5.0 4.0 51.0 4.0 51.0 5.0 52.0 5.0 52.0 6.0 53.0 6.0 M32.1 10.25 L32.1 11.05 34.75 11.05 34.75 10.25 32.1 10.25 M29.35 11.95 L29.35 11.15 28.45 11.15 28.45 11.95 29.35 11.95 M14.3 11.1 L16.95 11.1 16.95 10.15 14.3 10.15 14.3 11.1" fill="#508e3d" fill-rule="evenodd" stroke="none"/>
    <path d="M55.0 6.0 L55.0 18.0 54.0 18.0 54.0 19.0 53.0 19.0 53.0 20.0 52.0 20.0 52.0 21.0 51.0 21.0 51.0 22.0 5.0 22.0 5.0 21.0 4.0 21.0 4.0 20.0 3.0 20.0 3.0 19.0 2.0 19.0 2.0 18.0 1.0 18.0 1.0 5.0 2.0 5.0 2.0 4.0 3.0 4.0 3.0 3.0 4.0 3.0 4.0 2.0 5.0 2.0 5.0 3.0 4.0 3.0 4.0 4.0 3.0 4.0 3.0 5.0 2.0 5.0 2.0 18.0 3.0 18.0 3.0 19.0 4.0 19.0 4.0 20.0 5.0 20.0 5.0 21.0 51.0 21.0 51.0 20.0 52.0 20.0 52.0 19.0 53.0 19.0 53.0 18.0 54.0 18.0 54.0 6.0 55.0 6.0" fill="#e9c065" fill-rule="evenodd" stroke="none"/>
    <path d="M53.0 12.0 L53.0 17.0 52.0 17.0 52.0 18.0 51.0 18.0 51.0 19.0 5.0 19.0 5.0 18.0 4.0 18.0 4.0 17.0 3.0 17.0 3.0 12.0 5.0 12.0 5.05 12.0 7.1 12.0 7.1 13.75 7.9 13.75 7.9 12.0 10.65 12.0 10.65 13.8 7.95 13.8 7.95 14.65 10.65 14.65 10.65 13.8 11.55 13.8 11.55 12.0 13.35 12.0 13.35 15.55 14.25 15.55 14.25 13.75 15.15 13.75 15.15 14.65 16.85 14.65 16.85 13.75 15.15 13.75 15.15 12.85 14.25 12.85 14.25 12.0 16.95 12.0 16.95 13.7 17.8 13.7 17.8 12.0 19.6 12.0 19.6 13.75 22.25 13.75 22.25 12.95 23.1 12.95 23.1 14.7 20.55 14.7 20.55 15.6 23.15 15.6 23.15 14.7 24.05 14.7 24.05 12.0 25.85 12.0 25.85 14.65 26.65 14.65 26.65 12.0 34.75 12.0 34.75 12.05 32.05 12.05 32.05 12.95 31.15 12.95 31.15 14.65 35.6 14.65 35.6 12.0 37.35 12.0 37.35 13.75 38.15 13.75 38.15 12.0 40.9 12.0 40.9 13.8 38.2 13.8 38.2 14.65 40.9 14.65 40.9 13.8 41.75 13.8 41.75 12.0 43.5 12.0 43.5 13.75 44.3 13.75 44.3 12.95 46.05 12.95 46.05 12.05 44.35 12.05 44.35 12.0 47.0 12.0 47.9 12.0 53.0 12.0 M47.9 14.65 L47.9 13.8 44.35 13.8 44.35 14.65 47.9 14.65 M20.55 12.0 L23.15 12.0 23.15 12.05 22.25 12.05 22.25 12.9 20.55 12.9 20.55 12.0 M32.1 13.75 L32.1 12.95 34.75 12.95 34.75 13.75 32.1 13.75" fill="#2f711a" fill-rule="evenodd" stroke="none"/>
    <path d="M53.0 17.0 L53.0 18.0 52.0 18.0 52.0 17.0 53.0 17.0 M3.0 17.0 L4.0 17.0 4.0 18.0 5.0 18.0 5.0 19.0 51.0 19.0 51.0 18.0 52.0 18.0 52.0 19.0 51.0 19.0 51.0 20.0 5.0 20.0 5.0 19.0 4.0 19.0 4.0 18.0 3.0 18.0 3.0 17.0" fill="#154b0a" fill-rule="evenodd" stroke="none"/>
    <path d="M37.35 12.0 L37.35 11.1 38.15 11.1 38.15 10.2 40.9 10.2 40.9 8.4 41.7 8.4 41.7 10.2 40.9 10.2 40.9 11.1 38.15 11.1 38.15 12.0 38.15 13.75 37.35 13.75 37.35 12.0 M40.9 12.0 L40.9 11.15 41.75 11.15 41.75 12.0 41.75 13.8 40.9 13.8 40.9 14.65 38.2 14.65 38.2 13.8 40.9 13.8 40.9 12.0 M43.5 12.0 L43.5 11.1 44.3 11.1 44.3 10.25 47.0 10.25 47.0 11.1 44.35 11.1 44.35 12.0 44.35 12.05 46.05 12.05 46.05 12.95 44.3 12.95 44.3 13.75 43.5 13.75 43.5 12.0 M47.0 12.0 L47.0 11.15 47.9 11.15 47.9 12.0 47.0 12.0 M47.9 14.65 L44.35 14.65 44.35 13.8 47.9 13.8 47.9 14.65 M32.1 10.25 L34.75 10.25 34.75 11.05 32.1 11.05 32.1 10.25 M35.6 12.0 L35.6 14.65 31.15 14.65 31.15 12.95 32.05 12.95 32.05 12.05 34.75 12.05 34.75 12.0 34.75 11.15 35.6 11.15 35.6 12.0 M26.65 12.0 L26.65 14.65 25.85 14.65 25.85 12.0 25.85 11.1 26.65 11.1 26.65 10.15 28.45 10.15 28.45 11.1 26.65 11.1 26.65 12.0 M24.05 12.0 L24.05 14.7 23.15 14.7 23.15 15.6 20.55 15.6 20.55 14.7 23.1 14.7 23.1 12.95 22.25 12.95 22.25 13.75 19.6 13.75 19.6 12.0 19.6 11.1 20.5 11.1 20.5 10.25 23.1 10.25 23.1 11.1 20.55 11.1 20.55 12.0 20.55 12.9 22.25 12.9 22.25 12.05 23.15 12.05 23.15 12.0 23.15 11.15 24.05 11.15 24.05 12.0 M17.8 12.0 L17.8 13.7 16.95 13.7 16.95 12.0 16.95 11.1 17.8 11.1 17.8 12.0 M14.25 12.0 L14.25 12.85 15.15 12.85 15.15 13.75 16.85 13.75 16.85 14.65 15.15 14.65 15.15 13.75 14.25 13.75 14.25 15.55 13.35 15.55 13.35 12.0 13.35 11.15 14.25 11.15 14.25 12.0 M11.55 12.0 L11.55 13.8 10.65 13.8 10.65 14.65 7.95 14.65 7.95 13.8 10.65 13.8 10.65 12.0 10.65 8.4 11.55 8.4 11.55 12.0 M7.9 12.0 L7.9 13.75 7.1 13.75 7.1 12.0 7.1 8.4 7.9 8.4 7.9 12.0 M29.35 11.95 L28.45 11.95 28.45 11.15 29.35 11.15 29.35 11.95 M32.1 13.75 L34.75 13.75 34.75 12.95 32.1 12.95 32.1 13.75 M14.3 11.1 L14.3 10.15 16.95 10.15 16.95 11.1 14.3 11.1" fill="#ffffff" fill-rule="evenodd" stroke="none"/>
  </g>
</svg>
