<?xml version="1.0" encoding="UTF-8" standalone="no"?>
<svg xmlns:xlink="http://www.w3.org/1999/xlink" height="23.0px" width="56.0px" xmlns="http://www.w3.org/2000/svg">
  <g transform="matrix(1.0, 0.0, 0.0, 1.0, 0.0, 0.0)">
    <path d="M51.0 1.0 L52.0 1.0 52.0 2.0 53.0 2.0 53.0 3.0 54.0 3.0 54.0 4.0 55.0 4.0 55.0 5.0 56.0 5.0 56.0 18.0 55.0 18.0 55.0 19.0 54.0 19.0 54.0 20.0 53.0 20.0 53.0 21.0 52.0 21.0 52.0 22.0 51.0 22.0 51.0 23.0 5.0 23.0 5.0 22.0 4.0 22.0 4.0 21.0 3.0 21.0 3.0 20.0 2.0 20.0 2.0 19.0 1.0 19.0 1.0 18.0 0.0 18.0 0.0 5.0 1.0 5.0 1.0 4.0 2.0 4.0 2.0 3.0 3.0 3.0 3.0 2.0 4.0 2.0 4.0 1.0 5.0 1.0 5.0 0.0 51.0 0.0 51.0 1.0 5.0 1.0 5.0 2.0 4.0 2.0 4.0 3.0 3.0 3.0 3.0 4.0 2.0 4.0 2.0 5.0 1.0 5.0 1.0 18.0 2.0 18.0 2.0 19.0 3.0 19.0 3.0 20.0 4.0 20.0 4.0 21.0 5.0 21.0 5.0 22.0 51.0 22.0 51.0 21.0 52.0 21.0 52.0 20.0 53.0 20.0 53.0 19.0 54.0 19.0 54.0 18.0 55.0 18.0 55.0 6.0 55.0 5.0 54.0 5.0 54.0 4.0 53.0 4.0 53.0 3.0 52.0 3.0 52.0 2.0 51.0 2.0 51.0 1.0 M51.0 2.0 L51.0 3.0 52.0 3.0 52.0 4.0 53.0 4.0 53.0 5.0 54.0 5.0 54.0 6.0 54.0 18.0 53.0 18.0 53.0 19.0 52.0 19.0 52.0 20.0 51.0 20.0 51.0 21.0 5.0 21.0 5.0 20.0 4.0 20.0 4.0 19.0 3.0 19.0 3.0 18.0 2.0 18.0 2.0 5.0 3.0 5.0 3.0 4.0 4.0 4.0 4.0 3.0 5.0 3.0 5.0 2.0 51.0 2.0 M53.0 6.0 L53.0 5.0 52.0 5.0 52.0 4.0 51.0 4.0 51.0 3.0 5.0 3.0 5.0 4.0 4.0 4.0 4.0 5.0 3.0 5.0 3.0 6.0 3.0 12.0 3.0 17.0 3.0 18.0 4.0 18.0 4.0 19.0 5.0 19.0 5.0 20.0 51.0 20.0 51.0 19.0 52.0 19.0 52.0 18.0 53.0 18.0 53.0 17.0 53.0 12.0 53.0 6.0" fill="#000000" fill-rule="evenodd" stroke="none"/>
    <path d="M51.0 1.0 L51.0 2.0 52.0 2.0 52.0 3.0 53.0 3.0 53.0 4.0 54.0 4.0 54.0 5.0 55.0 5.0 55.0 6.0 54.0 6.0 54.0 5.0 53.0 5.0 53.0 4.0 52.0 4.0 52.0 3.0 51.0 3.0 51.0 2.0 5.0 2.0 5.0 1.0 51.0 1.0" fill="#ffdf93" fill-rule="evenodd" stroke="none"/>
    <path d="M53.0 6.0 L52.0 6.0 52.0 5.0 53.0 5.0 53.0 6.0 M51.0 4.0 L52.0 4.0 52.0 5.0 51.0 5.0 51.0 4.0 5.0 4.0 5.0 5.0 4.0 5.0 4.0 6.0 3.0 6.0 3.0 5.0 4.0 5.0 4.0 4.0 5.0 4.0 5.0 3.0 51.0 3.0 51.0 4.0" fill="#68a163" fill-rule="evenodd" stroke="none"/>
    <path d="M52.0 5.0 L52.0 6.0 53.0 6.0 53.0 12.0 3.0 12.0 3.0 6.0 4.0 6.0 4.0 5.0 5.0 5.0 5.0 4.0 51.0 4.0 51.0 5.0 52.0 5.0 M40.55 10.9 L40.55 7.75 39.8 7.75 39.8 8.55 37.35 8.55 37.35 9.35 36.5 9.35 36.5 10.9 40.55 10.9 M44.5 8.45 L45.3 8.45 45.3 7.75 44.5 7.75 44.5 8.45 M44.5 7.7 L44.5 6.85 42.9 6.85 42.9 7.7 42.1 7.7 42.1 10.9 42.9 10.9 42.9 7.7 44.5 7.7 M50.8 6.9 L50.8 5.3 50.05 5.3 50.05 6.9 47.65 6.9 47.65 7.7 46.85 7.7 46.85 10.1 47.65 10.1 47.65 7.7 50.05 7.7 50.05 6.9 50.8 6.9 M50.85 10.15 L50.85 7.75 50.05 7.75 50.05 10.15 47.65 10.15 47.65 10.9 50.05 10.9 50.05 10.15 50.85 10.15 M26.25 10.15 L26.25 10.9 28.55 10.9 28.55 10.15 29.4 10.15 29.4 8.6 27.05 8.6 27.05 9.35 28.55 9.35 28.55 10.15 26.25 10.15 M20.5 10.15 L21.35 10.15 21.35 6.85 20.5 6.85 20.5 10.15 19.75 10.15 19.75 10.9 20.5 10.9 20.5 10.15 M29.4 6.1 L28.55 6.1 28.55 5.35 26.2 5.35 26.2 6.1 25.35 6.1 25.35 10.1 26.2 10.1 26.2 6.1 28.55 6.1 28.55 6.85 29.4 6.85 29.4 6.1 M37.4 10.1 L37.4 9.4 39.75 9.4 39.75 10.1 37.4 10.1 M39.75 7.65 L39.75 6.95 37.4 6.95 37.4 7.65 39.75 7.65 M31.7 6.85 L30.95 6.85 30.95 10.1 31.7 10.1 31.7 6.85 M34.95 6.85 L34.15 6.85 34.15 10.15 31.75 10.15 31.75 10.9 34.15 10.9 34.15 10.15 34.95 10.15 34.95 6.85 M6.2 5.3 L5.4 5.3 5.4 10.9 6.2 10.9 6.2 7.7 6.95 7.7 6.95 8.5 7.85 8.5 7.85 9.3 8.6 9.3 8.6 10.9 9.4 10.9 9.4 5.3 8.6 5.3 8.6 8.5 7.85 8.5 7.85 7.7 6.95 7.7 6.95 6.85 6.2 6.85 6.2 5.3 M17.25 6.85 L16.5 6.85 16.5 10.1 17.25 10.1 17.25 6.85 M19.7 6.85 L18.95 6.85 18.95 10.15 17.3 10.15 17.3 10.9 18.95 10.9 18.95 10.15 19.7 10.15 19.7 6.85 M14.95 8.55 L14.95 7.75 14.15 7.75 14.15 8.55 14.95 8.55 M14.15 7.7 L14.15 6.95 11.75 6.95 11.75 7.7 10.95 7.7 10.95 10.1 11.75 10.1 11.75 10.9 14.95 10.9 14.95 10.1 11.75 10.1 11.75 9.35 13.25 9.35 13.25 8.55 11.75 8.55 11.75 7.7 14.15 7.7" fill="#508e3d" fill-rule="evenodd" stroke="none"/>
    <path d="M55.0 6.0 L55.0 18.0 54.0 18.0 54.0 19.0 53.0 19.0 53.0 20.0 52.0 20.0 52.0 21.0 51.0 21.0 51.0 22.0 5.0 22.0 5.0 21.0 4.0 21.0 4.0 20.0 3.0 20.0 3.0 19.0 2.0 19.0 2.0 18.0 1.0 18.0 1.0 5.0 2.0 5.0 2.0 4.0 3.0 4.0 3.0 3.0 4.0 3.0 4.0 2.0 5.0 2.0 5.0 3.0 4.0 3.0 4.0 4.0 3.0 4.0 3.0 5.0 2.0 5.0 2.0 18.0 3.0 18.0 3.0 19.0 4.0 19.0 4.0 20.0 5.0 20.0 5.0 21.0 51.0 21.0 51.0 20.0 52.0 20.0 52.0 19.0 53.0 19.0 53.0 18.0 54.0 18.0 54.0 6.0 55.0 6.0" fill="#e9c065" fill-rule="evenodd" stroke="none"/>
    <path d="M3.0 12.0 L53.0 12.0 53.0 17.0 52.0 17.0 52.0 18.0 51.0 18.0 51.0 19.0 5.0 19.0 5.0 18.0 4.0 18.0 4.0 17.0 3.0 17.0 3.0 12.0 M36.85 18.1 L36.85 15.7 38.45 15.7 38.45 14.85 36.85 14.85 36.85 15.7 36.1 15.7 36.1 18.1 36.85 18.1 M37.6 18.15 L36.85 18.15 36.85 18.9 37.6 18.9 37.6 18.15 M36.05 14.85 L36.8 14.85 36.8 13.3 36.05 13.3 36.05 14.85 34.4 14.85 34.4 15.65 36.05 15.65 36.05 14.85 M21.75 14.05 L20.95 14.05 20.95 15.7 21.75 15.7 21.75 14.05 M20.95 14.0 L20.95 13.3 17.75 13.3 17.75 18.9 18.55 18.9 18.55 16.5 20.95 16.5 20.95 15.75 18.55 15.75 18.55 14.0 20.95 14.0 M29.7 16.5 L29.7 15.7 32.05 15.7 32.05 14.85 29.65 14.85 29.65 15.7 28.8 15.7 28.8 17.3 32.05 17.3 32.05 18.15 29.7 18.15 29.7 18.9 32.1 18.9 32.1 18.15 32.85 18.15 32.85 16.5 29.7 16.5 M26.5 18.05 L27.3 18.05 27.3 15.75 26.5 15.75 26.5 18.05 24.1 18.05 24.1 15.7 26.5 15.7 26.5 14.85 24.1 14.85 24.1 15.7 23.3 15.7 23.3 18.05 24.1 18.05 24.1 18.9 26.5 18.9 26.5 18.05" fill="#2f711a" fill-rule="evenodd" stroke="none"/>
    <path d="M53.0 17.0 L53.0 18.0 52.0 18.0 52.0 17.0 53.0 17.0 M52.0 18.0 L52.0 19.0 51.0 19.0 51.0 20.0 5.0 20.0 5.0 19.0 4.0 19.0 4.0 18.0 3.0 18.0 3.0 17.0 4.0 17.0 4.0 18.0 5.0 18.0 5.0 19.0 51.0 19.0 51.0 18.0 52.0 18.0" fill="#154b0a" fill-rule="evenodd" stroke="none"/>
    <path d="M50.85 10.15 L50.05 10.15 50.05 10.9 47.65 10.9 47.65 10.15 50.05 10.15 50.05 7.75 50.85 7.75 50.85 10.15 M50.8 6.9 L50.05 6.9 50.05 7.7 47.65 7.7 47.65 10.1 46.85 10.1 46.85 7.7 47.65 7.7 47.65 6.9 50.05 6.9 50.05 5.3 50.8 5.3 50.8 6.9 M44.5 7.7 L42.9 7.7 42.9 10.9 42.1 10.9 42.1 7.7 42.9 7.7 42.9 6.85 44.5 6.85 44.5 7.7 M44.5 8.45 L44.5 7.75 45.3 7.75 45.3 8.45 44.5 8.45 M40.55 10.9 L36.5 10.9 36.5 9.35 37.35 9.35 37.35 8.55 39.8 8.55 39.8 7.75 40.55 7.75 40.55 10.9 M34.95 6.85 L34.95 10.15 34.15 10.15 34.15 10.9 31.75 10.9 31.75 10.15 34.15 10.15 34.15 6.85 34.95 6.85 M31.7 6.85 L31.7 10.1 30.95 10.1 30.95 6.85 31.7 6.85 M39.75 7.65 L37.4 7.65 37.4 6.95 39.75 6.95 39.75 7.65 M37.4 10.1 L39.75 10.1 39.75 9.4 37.4 9.4 37.4 10.1 M29.4 6.1 L29.4 6.85 28.55 6.85 28.55 6.1 26.2 6.1 26.2 10.1 25.35 10.1 25.35 6.1 26.2 6.1 26.2 5.35 28.55 5.35 28.55 6.1 29.4 6.1 M20.5 10.15 L20.5 10.9 19.75 10.9 19.75 10.15 20.5 10.15 20.5 6.85 21.35 6.85 21.35 10.15 20.5 10.15 M26.25 10.15 L28.55 10.15 28.55 9.35 27.05 9.35 27.05 8.6 29.4 8.6 29.4 10.15 28.55 10.15 28.55 10.9 26.25 10.9 26.25 10.15 M26.5 18.05 L26.5 18.9 24.1 18.9 24.1 18.05 23.3 18.05 23.3 15.7 24.1 15.7 24.1 14.85 26.5 14.85 26.5 15.7 24.1 15.7 24.1 18.05 26.5 18.05 26.5 15.75 27.3 15.75 27.3 18.05 26.5 18.05 M29.7 16.5 L32.85 16.5 32.85 18.15 32.1 18.15 32.1 18.9 29.7 18.9 29.7 18.15 32.05 18.15 32.05 17.3 28.8 17.3 28.8 15.7 29.65 15.7 29.65 14.85 32.05 14.85 32.05 15.7 29.7 15.7 29.7 16.5 M20.95 14.0 L18.55 14.0 18.55 15.75 20.95 15.75 20.95 16.5 18.55 16.5 18.55 18.9 17.75 18.9 17.75 13.3 20.95 13.3 20.95 14.0 M21.75 14.05 L21.75 15.7 20.95 15.7 20.95 14.05 21.75 14.05 M36.05 14.85 L36.05 15.65 34.4 15.65 34.4 14.85 36.05 14.85 36.05 13.3 36.8 13.3 36.8 14.85 36.05 14.85 M37.6 18.15 L37.6 18.9 36.85 18.9 36.85 18.15 37.6 18.15 M36.85 18.1 L36.1 18.1 36.1 15.7 36.85 15.7 36.85 14.85 38.45 14.85 38.45 15.7 36.85 15.7 36.85 18.1 M14.15 7.7 L11.75 7.7 11.75 8.55 13.25 8.55 13.25 9.35 11.75 9.35 11.75 10.1 14.95 10.1 14.95 10.9 11.75 10.9 11.75 10.1 10.95 10.1 10.95 7.7 11.75 7.7 11.75 6.95 14.15 6.95 14.15 7.7 M14.95 8.55 L14.15 8.55 14.15 7.75 14.95 7.75 14.95 8.55 M19.7 6.85 L19.7 10.15 18.95 10.15 18.95 10.9 17.3 10.9 17.3 10.15 18.95 10.15 18.95 6.85 19.7 6.85 M17.25 6.85 L17.25 10.1 16.5 10.1 16.5 6.85 17.25 6.85 M6.2 5.3 L6.2 6.85 6.95 6.85 6.95 7.7 7.85 7.7 7.85 8.5 8.6 8.5 8.6 5.3 9.4 5.3 9.4 10.9 8.6 10.9 8.6 9.3 7.85 9.3 7.85 8.5 6.95 8.5 6.95 7.7 6.2 7.7 6.2 10.9 5.4 10.9 5.4 5.3 6.2 5.3" fill="#ffffff" fill-rule="evenodd" stroke="none"/>
  </g>
</svg>
