<?xml version="1.0" encoding="UTF-8" standalone="no"?>
<svg xmlns:xlink="http://www.w3.org/1999/xlink" height="121.15px" width="125.0px" xmlns="http://www.w3.org/2000/svg">
  <g transform="matrix(1.0, 0.0, 0.0, 1.0, 0.0, 0.85)">
    <path d="M68.75 8.15 Q68.05 16.55 63.75 21.55 L60.85 24.15 59.55 24.85 Q59.95 26.5 57.75 19.55 56.2 14.65 57.15 11.95 58.0 9.6 60.1 10.2 61.75 10.65 65.4 9.45 L68.75 8.15" fill="#f8ef95" fill-rule="evenodd" stroke="none"/>
    <path d="M68.75 8.15 L65.4 9.45 Q61.75 10.65 60.1 10.2 58.0 9.6 57.15 11.95 56.2 14.65 57.75 19.55 59.95 26.5 59.55 24.85 L60.85 24.15 63.75 21.55 Q68.05 16.55 68.75 8.15 Z" fill="none" stroke="#1b2b16" stroke-linecap="butt" stroke-linejoin="miter-clip" stroke-miterlimit="4.0" stroke-width="1.7000000000000002"/>
    <path d="M59.2 17.9 Q61.45 19.45 64.45 19.05 62.5 22.35 60.0 23.6 L58.7 19.6 58.1 17.05 59.2 17.9" fill="#e4d378" fill-rule="evenodd" stroke="none"/>
    <path d="M21.5 103.0 Q38.25 100.0 61.85 100.0 85.45 100.0 102.2 103.0 118.9 105.95 118.9 110.15 118.9 114.35 102.2 117.35 85.45 120.3 61.85 120.3 38.25 120.3 21.5 117.35 4.8 114.35 4.8 110.15 4.8 105.95 21.5 103.0" fill="#000000" fill-rule="evenodd" stroke="none"/>
    <path d="M123.75 74.5 Q122.55 77.25 120.65 80.05 116.8 85.55 113.15 85.55 109.45 85.55 103.95 83.0 L99.2 80.4 102.1 73.05 123.75 74.5" fill="#529a4a" fill-rule="evenodd" stroke="none"/>
    <path d="M123.75 74.5 Q122.55 77.25 120.65 80.05 116.8 85.55 113.15 85.55 109.45 85.55 103.95 83.0 L99.2 80.4 102.1 73.05 123.75 74.5 Z" fill="none" stroke="#2f3d27" stroke-linecap="butt" stroke-linejoin="miter-clip" stroke-miterlimit="4.0" stroke-width="1.7000000000000002"/>
    <path d="M23.95 48.85 L16.25 57.1 Q15.0 54.85 14.05 52.35 12.15 47.3 13.5 45.9 14.9 44.55 19.55 46.55 21.9 47.55 23.95 48.85" fill="#f8ef95" fill-rule="evenodd" stroke="none"/>
    <path d="M23.95 48.85 Q21.9 47.55 19.55 46.55 14.9 44.55 13.5 45.9 12.15 47.3 14.05 52.35 15.0 54.85 16.25 57.1 L23.95 48.85 Z" fill="none" stroke="#1b2b16" stroke-linecap="butt" stroke-linejoin="miter-clip" stroke-miterlimit="4.0" stroke-width="1.7000000000000002"/>
    <path d="M14.2 46.45 Q16.35 50.1 20.65 51.45 L16.4 56.0 Q14.9 53.15 14.15 50.6 13.2 47.45 14.05 46.6 L14.2 46.45" fill="#e4d378" fill-rule="evenodd" stroke="none"/>
    <path d="M15.0 62.95 L12.8 72.85 8.6 70.6 Q4.55 68.05 5.25 66.45 5.95 64.85 10.55 63.75 L15.0 62.95" fill="#f8ef95" fill-rule="evenodd" stroke="none"/>
    <path d="M15.0 62.95 L10.55 63.75 Q5.95 64.85 5.25 66.45 4.55 68.05 8.6 70.6 L12.8 72.85 15.0 62.95 Z" fill="none" stroke="#1b2b16" stroke-linecap="butt" stroke-linejoin="miter-clip" stroke-miterlimit="4.0" stroke-width="1.7000000000000002"/>
    <path d="M13.45 66.65 L12.3 71.75 8.4 69.5 Q6.4 68.1 6.15 67.15 9.1 68.25 13.45 66.65" fill="#e4d378" fill-rule="evenodd" stroke="none"/>
    <path d="M89.2 9.3 Q88.45 15.85 89.3 21.05 90.15 26.2 93.1 34.5 L95.9 42.05 98.45 47.85 Q101.2 54.9 102.2 61.95 105.55 84.45 90.9 98.9 88.15 101.9 83.05 105.0 72.85 111.1 61.2 111.35 42.15 111.75 27.9 102.0 11.6 90.85 12.0 71.75 12.35 54.75 30.85 42.0 35.8 38.55 47.2 32.3 57.8 26.45 62.3 23.1 64.35 21.5 67.2 14.5 70.55 6.15 68.4 1.8 76.7 -0.55 85.35 0.2 88.75 0.2 90.9 4.3 L90.1 3.75 89.2 9.3" fill="#6ebd66" fill-rule="evenodd" stroke="none"/>
    <path d="M89.2 9.3 L90.1 3.75 90.9 4.3 Q88.75 0.2 85.35 0.2 76.7 -0.55 68.4 1.8 70.55 6.15 67.2 14.5 64.35 21.5 62.3 23.1 57.8 26.45 47.2 32.3 35.8 38.55 30.85 42.0 12.35 54.75 12.0 71.75 11.6 90.85 27.9 102.0 42.15 111.75 61.2 111.35 72.85 111.1 83.05 105.0 88.15 101.9 90.9 98.9 105.55 84.45 102.2 61.95 101.2 54.9 98.45 47.85 L95.9 42.05 93.1 34.5 Q90.15 26.2 89.3 21.05 88.45 15.85 89.2 9.3 Z" fill="none" stroke="#1b2b16" stroke-linecap="round" stroke-linejoin="round" stroke-width="1.7000000000000002"/>
    <path d="M50.7 37.75 L56.7 38.05 Q51.95 41.9 49.7 44.0 48.45 45.2 47.05 45.8 L39.85 46.05 Q36.25 44.85 33.25 41.45 L41.95 36.2 43.95 34.8 Q45.2 33.85 46.0 33.6 L48.9 33.45 Q47.05 36.6 50.7 37.75" fill="#65af5e" fill-rule="evenodd" stroke="none"/>
    <path d="M12.85 71.75 Q13.05 62.6 18.15 55.15 22.4 48.95 30.7 43.15 21.2 54.15 22.05 64.5 22.9 74.7 33.35 80.4 34.35 80.95 35.55 82.35 L37.5 84.6 45.0 78.85 Q53.7 73.35 59.95 74.65 L45.55 90.2 Q55.15 95.5 67.85 97.0 79.5 98.4 92.1 96.4 L90.3 98.3 Q87.45 101.35 82.45 104.3 72.45 110.25 61.2 110.45 L60.0 110.5 Q49.0 110.5 38.9 106.7 28.8 102.85 22.35 96.25 12.55 86.2 12.85 71.75" fill="#65af5e" fill-rule="evenodd" stroke="none"/>
    <path d="M89.25 3.55 L88.55 7.35 Q87.95 11.65 88.0 15.6 84.65 9.55 79.3 7.2 73.1 4.5 69.45 10.45 70.85 4.95 69.2 1.55 77.3 -0.55 85.35 0.2 87.65 0.2 89.55 2.35 L89.25 3.55" fill="#65af5e" fill-rule="evenodd" stroke="none"/>
    <path d="M88.65 32.65 Q91.15 32.2 92.4 34.3 L95.05 41.55 95.55 42.75 Q101.0 54.15 101.9 65.75 103.4 84.6 91.65 97.35 L90.25 98.75 Q88.55 100.85 84.9 103.25 77.6 108.05 67.75 110.0 65.95 107.55 64.85 104.05 59.85 87.35 65.65 66.75 71.45 45.95 84.45 34.85 86.65 33.0 88.65 32.65" fill="#b5ffae" fill-rule="evenodd" stroke="none"/>
    <path d="M88.65 32.65 Q91.15 32.2 92.4 34.3 L95.05 41.55 95.55 42.75 Q101.0 54.15 101.9 65.75 103.4 84.6 91.65 97.35 L90.25 98.75 Q88.55 100.85 84.9 103.25 77.6 108.05 67.75 110.0 65.95 107.55 64.85 104.05 59.85 87.35 65.65 66.75 71.45 45.95 84.45 34.85 86.65 33.0 88.65 32.65" fill="#b5ffae" fill-rule="evenodd" stroke="none"/>
    <path d="M79.1 57.95 Q85.75 48.3 97.75 50.2 L99.7 55.0 Q101.75 61.05 102.15 67.25 103.55 87.0 88.25 100.65 81.95 106.25 77.35 98.65 73.1 91.55 73.3 79.25 73.5 66.1 79.1 57.95" fill="url(#gradient0)" fill-rule="evenodd" stroke="none"/>
    <path d="M39.4 90.3 L42.2 86.65 Q45.8 82.45 49.9 79.45 63.0 69.8 76.05 76.0 85.95 80.65 86.65 90.25 87.15 97.8 82.25 105.75 83.25 105.9 83.9 106.25 L85.0 106.6 Q86.25 107.15 86.8 108.25 87.8 110.2 86.85 111.75 85.75 113.5 82.3 114.5 77.85 115.5 71.35 115.9 58.3 116.75 48.1 113.85 46.7 113.75 46.15 112.6 45.05 110.3 49.3 105.1 L39.4 90.3" fill="#6ebd66" fill-rule="evenodd" stroke="none"/>
    <path d="M49.3 105.1 Q45.05 110.3 46.15 112.6 46.7 113.75 48.1 113.85 58.3 116.75 71.35 115.9 77.85 115.5 82.3 114.5 85.75 113.5 86.85 111.75 87.8 110.2 86.8 108.25 86.25 107.15 85.0 106.6 L83.9 106.25 Q83.25 105.9 82.25 105.75 87.15 97.8 86.65 90.25 85.95 80.65 76.05 76.0 63.0 69.8 49.9 79.45 45.8 82.45 42.2 86.65 L39.4 90.3" fill="none" stroke="#1b2b16" stroke-linecap="butt" stroke-linejoin="miter-clip" stroke-miterlimit="4.0" stroke-width="1.7000000000000002"/>
    <path d="M72.4 76.15 Q65.2 72.35 56.85 76.3 52.5 78.3 44.7 84.85 50.75 78.55 57.35 75.9 66.65 72.2 75.75 76.5 85.35 81.05 86.0 90.35 86.5 97.7 81.75 105.4 L83.35 105.85 84.45 106.2 Q85.6 106.75 86.15 107.8 88.0 111.5 83.0 113.45 83.15 112.35 82.55 111.2 82.0 110.15 80.85 109.6 L79.8 109.25 Q79.05 108.95 78.15 108.8 83.2 100.6 83.0 92.4 82.75 81.65 72.4 76.15" fill="#7cd371" fill-rule="evenodd" stroke="none"/>
    <path d="M43.55 85.4 Q46.65 82.5 49.05 80.8 L53.65 77.6 Q57.75 75.15 61.4 74.8 62.0 74.75 58.8 79.1 L55.15 84.3 Q53.05 90.85 53.45 97.2 54.0 105.3 58.9 108.4 62.4 110.6 70.25 109.05 76.35 107.9 81.45 105.5 L81.25 105.85 81.8 106.0 83.4 106.4 83.45 106.45 83.5 106.45 84.45 106.75 Q85.5 107.25 86.0 108.2 86.75 109.75 86.25 110.9 85.45 112.7 81.85 113.8 L77.2 114.55 65.8 115.3 Q56.0 115.3 48.45 113.1 47.2 113.0 46.8 112.05 46.55 111.45 47.6 107.95 L48.7 104.6 38.35 90.25 43.55 85.4" fill="#65af5e" fill-rule="evenodd" stroke="none"/>
    <path d="M95.6 112.55 L85.7 110.7 85.6 110.4 Q85.55 110.0 85.75 109.75 86.1 109.3 87.1 109.05 L89.85 109.15 Q93.15 109.8 95.6 112.55" fill="#ffffff" fill-rule="evenodd" stroke="none"/>
    <path d="M95.6 112.55 L85.7 110.7 85.6 110.4 Q85.55 110.0 85.75 109.75 86.1 109.3 87.1 109.05 L89.85 109.15 Q93.15 109.8 95.6 112.55 Z" fill="none" stroke="#102106" stroke-linecap="round" stroke-linejoin="round" stroke-width="1.7000000000000002"/>
    <path d="M82.55 111.15 Q83.0 110.6 84.15 110.25 L87.3 110.25 Q90.95 110.95 93.65 114.45 L82.45 112.45 82.35 112.05 Q82.3 111.55 82.55 111.15" fill="#ffffff" fill-rule="evenodd" stroke="none"/>
    <path d="M82.55 111.15 Q83.0 110.6 84.15 110.25 L87.3 110.25 Q90.95 110.95 93.65 114.45 L82.45 112.45 82.35 112.05 Q82.3 111.55 82.55 111.15 Z" fill="none" stroke="#102106" stroke-linecap="round" stroke-linejoin="round" stroke-width="1.7000000000000002"/>
    <path d="M78.45 113.7 L79.25 112.95 79.85 112.6 83.0 112.2 Q86.75 112.45 89.85 115.55 L78.45 115.0 78.3 114.6 Q78.25 114.1 78.45 113.7" fill="#ffffff" fill-rule="evenodd" stroke="none"/>
    <path d="M78.45 113.7 L79.25 112.95 79.85 112.6 83.0 112.2 Q86.75 112.45 89.85 115.55 L78.45 115.0 78.3 114.6 Q78.25 114.1 78.45 113.7 Z" fill="none" stroke="#102106" stroke-linecap="round" stroke-linejoin="round" stroke-width="1.7000000000000002"/>
    <path d="M6.7 86.85 Q7.8 85.55 9.2 85.55 10.75 85.45 11.5 87.2 L11.8 88.55 Q11.8 89.85 10.85 91.2 10.0 92.45 8.55 93.3 11.5 94.45 14.7 92.85 16.25 92.05 17.25 91.0 L18.4 93.15 Q14.85 95.2 11.55 95.0 9.25 94.8 7.75 93.7 6.4 94.3 5.25 94.3 L4.15 94.15 Q2.2 93.65 1.05 92.3 0.0 91.0 0.0 89.35 0.0 87.4 1.45 85.7 L0.85 87.65 Q0.4 89.8 1.05 90.95 L1.85 92.05 Q2.95 93.15 4.35 93.35 L5.25 93.45 7.0 93.15 5.9 91.6 Q5.5 90.8 5.5 89.85 5.55 88.15 6.7 86.85 M6.3 89.85 Q6.3 90.55 6.65 91.25 L7.85 92.75 9.15 91.85 Q11.0 90.25 11.0 88.55 L10.8 87.55 Q10.2 86.35 9.2 86.35 8.2 86.35 7.3 87.4 6.3 88.5 6.3 89.85" fill="#102106" fill-rule="evenodd" stroke="none"/>
    <path d="M81.95 105.25 L83.8 105.55 Q78.75 109.75 72.0 110.95 L69.0 111.15 Q74.3 110.55 78.35 108.2 80.85 106.7 81.95 105.25" fill="#1b2b16" fill-rule="evenodd" stroke="none"/>
  </g>
  <defs>
    <linearGradient gradientTransform="matrix(0.015, -0.0173, -0.0173, -0.015, 98.1, 62.85)" gradientUnits="userSpaceOnUse" id="gradient0" spreadMethod="pad" x1="-819.2" x2="819.2">
      <stop offset="0.0" stop-color="#b5ffae"/>
      <stop offset="0.13725490196078433" stop-color="#c3ffbd"/>
      <stop offset="0.5019607843137255" stop-color="#e3ffe1"/>
      <stop offset="0.803921568627451" stop-color="#f8fff7"/>
      <stop offset="1.0" stop-color="#ffffff"/>
    </linearGradient>
  </defs>
</svg>
