<?xml version="1.0" encoding="UTF-8" standalone="no"?>
<svg xmlns:xlink="http://www.w3.org/1999/xlink" height="85.2px" width="67.0px" xmlns="http://www.w3.org/2000/svg">
  <g transform="matrix(1.0, 0.0, 0.0, 1.0, -15.5, -22.7)">
    <path d="M18.5 76.8 L18.35 79.05 Q18.55 81.5 20.55 82.6 22.5 83.7 24.2 80.8 25.0 79.35 25.45 77.7 L25.55 81.05 Q24.9 84.45 21.1 84.65 17.3 84.8 17.5 80.8 L18.5 76.8" fill="#5c9f55" fill-rule="evenodd" stroke="none"/>
    <path d="M22.25 83.45 L22.1 85.7 Q22.3 88.2 24.3 89.25 26.3 90.35 27.95 87.45 28.8 86.0 29.2 84.35 L29.3 87.7 Q28.65 91.1 24.85 91.3 21.05 91.5 21.3 87.5 L22.25 83.45" fill="#5c9f55" fill-rule="evenodd" stroke="none"/>
    <path d="M28.05 77.7 L27.9 79.95 Q28.1 82.4 30.1 83.5 32.1 84.55 33.75 81.65 34.6 80.2 35.0 78.55 L35.1 81.9 Q34.45 85.3 30.65 85.5 26.85 85.7 27.1 81.7 L28.05 77.7" fill="#5c9f55" fill-rule="evenodd" stroke="none"/>
    <path d="M28.95 86.95 L28.75 89.2 Q28.95 91.65 30.95 92.75 32.95 93.85 34.65 90.95 L35.9 87.8 36.0 91.2 Q35.35 94.6 31.55 94.75 27.75 94.95 27.95 90.95 L28.95 86.95" fill="#5c9f55" fill-rule="evenodd" stroke="none"/>
    <path d="M32.1 94.5 L31.95 96.75 Q32.15 99.2 34.15 100.3 36.15 101.35 37.8 98.45 38.65 97.0 39.05 95.35 L39.15 98.7 Q38.55 102.1 34.75 102.3 30.95 102.5 31.15 98.5 L32.1 94.5" fill="#5c9f55" fill-rule="evenodd" stroke="none"/>
    <path d="M16.45 67.25 L16.3 69.5 Q16.5 71.95 18.5 73.05 20.5 74.15 22.2 71.25 L23.45 68.1 23.55 71.5 Q22.9 74.9 19.1 75.05 15.3 75.25 15.5 71.25 L16.45 67.25" fill="#5c9f55" fill-rule="evenodd" stroke="none"/>
    <path d="M43.7 41.45 L43.55 43.7 Q43.75 46.2 45.75 47.25 47.7 48.35 49.4 45.45 50.2 44.0 50.65 42.35 L50.75 45.7 Q50.1 49.1 46.3 49.3 42.5 49.5 42.75 45.5 L43.7 41.45" fill="#5c9f55" fill-rule="evenodd" stroke="none"/>
    <path d="M36.15 44.65 L36.0 46.9 Q36.2 49.35 38.2 50.45 40.2 51.55 41.9 48.65 42.7 47.2 43.15 45.55 L43.25 48.9 Q42.6 52.3 38.8 52.5 35.0 52.65 35.2 48.65 L36.15 44.65" fill="#5c9f55" fill-rule="evenodd" stroke="none"/>
    <path d="M66.85 22.7 L66.2 24.05 Q65.7 25.6 66.65 26.7 67.6 27.85 69.35 26.5 L70.85 24.9 Q70.7 26.0 70.1 26.95 68.9 28.9 66.55 28.1 64.2 27.3 65.3 24.9 L66.85 22.7" fill="#5c9f55" fill-rule="evenodd" stroke="none"/>
    <path d="M68.05 28.1 L67.85 29.55 Q67.85 31.15 69.1 31.95 70.35 32.75 71.6 31.0 L72.55 29.05 72.45 31.2 Q71.85 33.35 69.35 33.3 66.9 33.25 67.2 30.65 L68.05 28.1" fill="#5c9f55" fill-rule="evenodd" stroke="none"/>
    <path d="M63.6 94.05 L63.35 95.5 Q63.4 97.15 64.6 97.95 65.85 98.75 67.1 96.95 L68.1 94.95 68.0 97.15 Q67.4 99.35 64.9 99.3 62.4 99.25 62.75 96.65 L63.6 94.05" fill="#5c9f55" fill-rule="evenodd" stroke="none"/>
    <path d="M70.25 99.0 L70.05 100.45 Q70.05 102.05 71.3 102.85 72.55 103.65 73.8 101.85 L74.75 99.9 74.65 102.1 Q74.05 104.3 71.55 104.2 69.05 104.15 69.4 101.55 L70.25 99.0" fill="#5c9f55" fill-rule="evenodd" stroke="none"/>
    <path d="M63.3 25.7 L62.65 27.05 Q62.15 28.6 63.1 29.7 64.05 30.85 65.8 29.5 L67.3 27.95 Q67.15 29.05 66.55 30.0 65.35 31.85 63.0 31.05 60.65 30.25 61.75 27.9 L63.3 25.7" fill="#5c9f55" fill-rule="evenodd" stroke="none"/>
    <path d="M41.2 51.0 L41.3 52.85 Q41.8 54.8 43.5 55.4 45.25 56.05 46.25 53.5 L46.9 50.85 47.4 53.55 Q47.3 56.35 44.25 56.95 41.2 57.55 40.9 54.35 L41.2 51.0" fill="#5c9f55" fill-rule="evenodd" stroke="none"/>
    <path d="M58.95 98.05 L59.05 99.9 Q59.55 101.85 61.25 102.5 62.95 103.15 63.95 100.6 L64.6 97.95 65.1 100.65 Q65.0 103.45 61.95 104.05 58.9 104.65 58.65 101.4 L58.95 98.05" fill="#5c9f55" fill-rule="evenodd" stroke="none"/>
    <path d="M64.45 101.85 L64.55 103.7 Q65.05 105.65 66.75 106.25 68.45 106.9 69.5 104.35 L70.15 101.7 70.6 104.4 Q70.5 107.2 67.45 107.8 64.4 108.4 64.15 105.2 L64.45 101.85" fill="#5c9f55" fill-rule="evenodd" stroke="none"/>
    <path d="M76.3 96.35 L76.45 98.2 Q76.9 100.15 78.65 100.75 80.35 101.4 81.35 98.85 L82.0 96.2 82.5 98.9 Q82.4 101.7 79.35 102.3 76.3 102.9 76.0 99.7 L76.3 96.35" fill="#5c9f55" fill-rule="evenodd" stroke="none"/>
    <path d="M73.35 92.5 Q73.85 94.45 75.55 95.05 77.3 95.7 78.3 93.15 L78.95 90.5 79.45 93.2 Q79.35 96.0 76.3 96.6 73.25 97.25 72.95 94.0 L73.25 90.65 73.35 92.5" fill="#5c9f55" fill-rule="evenodd" stroke="none"/>
    <path d="M66.3 86.6 L66.4 88.45 Q66.9 90.4 68.6 91.0 70.35 91.65 71.35 89.1 L72.0 86.45 72.5 89.15 Q72.4 91.95 69.35 92.55 66.3 93.15 66.0 89.95 L66.3 86.6" fill="#5c9f55" fill-rule="evenodd" stroke="none"/>
    <path d="M36.55 52.95 L35.85 54.65 Q35.4 56.6 36.65 57.95 37.95 59.3 39.95 57.5 L41.7 55.4 Q41.6 56.8 40.95 58.05 39.55 60.5 36.6 59.65 33.65 58.85 34.8 55.8 L36.55 52.95" fill="#5c9f55" fill-rule="evenodd" stroke="none"/>
    <path d="M31.0 51.05 L30.3 52.7 Q29.85 54.65 31.1 56.0 32.4 57.35 34.4 55.55 L36.15 53.45 Q36.05 54.85 35.4 56.1 34.0 58.55 31.05 57.75 28.05 56.9 29.25 53.9 L31.0 51.05" fill="#5c9f55" fill-rule="evenodd" stroke="none"/>
    <path d="M29.5 46.1 L28.8 47.8 Q28.35 49.75 29.6 51.1 30.9 52.45 32.9 50.65 L34.65 48.55 Q34.55 49.95 33.9 51.2 32.5 53.65 29.55 52.8 26.55 52.0 27.75 48.95 L29.5 46.1" fill="#5c9f55" fill-rule="evenodd" stroke="none"/>
    <path d="M29.95 59.6 L29.25 61.25 Q28.75 63.2 30.05 64.55 31.3 65.9 33.35 64.1 L35.1 62.0 Q35.0 63.4 34.35 64.65 32.95 67.1 29.95 66.3 27.0 65.45 28.15 62.45 L29.95 59.6" fill="#5c9f55" fill-rule="evenodd" stroke="none"/>
    <path d="M25.15 91.85 L25.0 94.1 Q25.2 96.6 27.2 97.65 29.2 98.75 30.85 95.85 31.7 94.4 32.1 92.75 L32.2 96.1 Q31.55 99.5 27.75 99.7 23.95 99.9 24.2 95.9 L25.15 91.85" fill="#5c9f55" fill-rule="evenodd" stroke="none"/>
  </g>
</svg>
