<?xml version="1.0" encoding="UTF-8" standalone="no"?>
<svg xmlns:xlink="http://www.w3.org/1999/xlink" height="21.55px" width="23.2px" xmlns="http://www.w3.org/2000/svg">
  <g transform="matrix(1.0, 0.0, 0.0, 1.0, 0.5, -2.05)">
    <path d="M9.2 20.8 Q5.1 22.4 1.95 23.1 0.4 19.25 0.05 14.9 -0.65 6.1 5.5 3.4 11.65 0.65 17.55 6.55 20.5 9.45 22.2 12.95 17.4 17.6 9.2 20.8" fill="#6ebd66" fill-rule="evenodd" stroke="none"/>
    <path d="M9.2 20.8 Q17.4 17.6 22.2 12.95 20.5 9.45 17.55 6.55 11.65 0.65 5.5 3.4 -0.65 6.1 0.05 14.9 0.4 19.25 1.95 23.1 5.1 22.4 9.2 20.8 Z" fill="none" stroke="#1b2b16" stroke-linecap="round" stroke-linejoin="round" stroke-width="1.0"/>
    <path d="M6.0 12.7 Q6.3 16.3 7.65 20.0 L11.8 18.8 Q6.9 21.0 2.4 22.1 0.8 17.7 0.7 13.65 0.55 6.5 5.75 4.2 7.25 3.45 8.85 3.45 5.55 6.4 6.0 12.7" fill="#65af5e" fill-rule="evenodd" stroke="none"/>
  </g>
</svg>
