<?xml version="1.0" encoding="UTF-8" standalone="no"?>
<svg xmlns:xlink="http://www.w3.org/1999/xlink" height="25.2px" width="23.55px" xmlns="http://www.w3.org/2000/svg">
  <g transform="matrix(1.0, 0.0, 0.0, 1.0, 0.2, -4.0)">
    <path d="M22.85 18.25 Q22.85 22.9 19.45 25.85 16.1 28.7 11.0 28.7 6.2 28.7 3.15 25.1 0.3 21.7 0.3 16.75 0.3 4.5 8.55 4.5 13.5 4.5 18.2 9.0 22.85 13.5 22.85 18.25" fill="#6ebd66" fill-rule="evenodd" stroke="none"/>
    <path d="M22.85 18.25 Q22.85 22.9 19.45 25.85 16.1 28.7 11.0 28.7 6.2 28.7 3.15 25.1 0.3 21.7 0.3 16.75 0.3 4.5 8.55 4.5 13.5 4.5 18.2 9.0 22.85 13.5 22.85 18.25 Z" fill="none" stroke="#1b2b16" stroke-linecap="round" stroke-linejoin="round" stroke-width="1.0"/>
    <path d="M12.35 24.8 L16.45 25.1 Q18.65 24.9 20.8 23.25 19.45 25.55 16.9 26.8 14.3 28.1 11.0 28.1 6.3 28.1 3.45 24.55 0.9 21.35 0.9 16.75 0.9 6.55 6.75 5.3 5.6 6.0 5.0 8.85 4.55 11.1 4.55 14.05 4.55 18.85 6.0 21.25 7.8 24.3 12.35 24.8" fill="#65af5e" fill-rule="evenodd" stroke="none"/>
  </g>
</svg>
