<?xml version="1.0" encoding="UTF-8" standalone="no"?>
<svg xmlns:xlink="http://www.w3.org/1999/xlink" height="44.95px" width="82.15px" xmlns="http://www.w3.org/2000/svg">
  <g transform="matrix(1.0, 0.0, 0.0, 1.0, 1.65, 0.85)">
    <path d="M74.35 25.4 Q77.9 25.25 80.5 23.85 78.6 25.8 76.3 26.5 L74.35 26.85 74.35 25.4" fill="#1b2b16" fill-rule="evenodd" stroke="none"/>
    <path d="M10.7 10.05 L9.15 9.5 Q2.6 7.45 0.65 6.05 L0.0 5.1 15.9 5.6 35.4 4.85 Q41.15 4.0 49.5 0.9 56.15 -1.55 58.15 2.75 58.8 4.1 59.95 8.65 61.3 13.85 62.55 17.2 65.95 26.55 74.35 26.1 L71.7 37.15 Q68.55 38.7 64.35 36.4 61.8 34.95 59.95 32.95 59.15 32.05 58.05 32.6 L57.05 33.3 Q54.7 39.4 52.85 41.25 50.8 43.35 48.4 41.2 46.35 39.35 42.6 38.9 L39.25 38.8 37.3 40.7 Q35.0 42.45 33.35 41.4 31.75 40.35 32.4 39.3 32.7 38.8 33.35 38.45 L31.7 37.25 Q29.7 35.5 27.85 32.75 26.05 30.0 22.1 29.3 L18.5 29.1 Q17.3 29.75 16.0 30.0 13.4 30.5 12.8 28.55 12.25 26.6 14.05 25.95 L15.95 25.65 Q18.1 16.95 13.85 12.35 12.5 10.9 10.7 10.05" fill="#6ebd66" fill-rule="evenodd" stroke="none"/>
    <path d="M74.35 26.1 Q65.95 26.55 62.55 17.2 61.3 13.85 59.95 8.65 58.8 4.1 58.15 2.75 56.15 -1.55 49.5 0.9 41.15 4.0 35.4 4.85 L15.9 5.6 0.0 5.1 0.65 6.05 Q2.6 7.45 9.15 9.5 L10.7 10.05 Q12.5 10.9 13.85 12.35 18.1 16.95 15.95 25.65 L14.05 25.95 Q12.25 26.6 12.8 28.55 13.4 30.5 16.0 30.0 17.3 29.75 18.5 29.1 L22.1 29.3 Q26.05 30.0 27.85 32.75 29.7 35.5 31.7 37.25 L33.35 38.45 Q32.7 38.8 32.4 39.3 31.75 40.35 33.35 41.4 35.0 42.45 37.3 40.7 L39.25 38.8 42.6 38.9 Q46.35 39.35 48.4 41.2 50.8 43.35 52.85 41.25 54.7 39.4 57.05 33.3 L58.05 32.6 Q59.15 32.05 59.95 32.95 61.8 34.95 64.35 36.4 68.55 38.7 71.7 37.15" fill="none" stroke="#1b2b16" stroke-linecap="butt" stroke-linejoin="miter-clip" stroke-miterlimit="4.0" stroke-width="1.7000000000000002"/>
    <path d="M22.95 10.95 L35.0 10.6 40.05 10.05 Q43.1 9.95 45.0 10.85 48.75 12.55 48.1 14.75 47.5 16.75 43.65 18.3 36.35 21.25 29.85 23.05 L22.8 24.75 Q16.65 26.25 16.6 26.7 L17.05 23.6 Q17.75 20.35 17.4 18.15 17.05 16.3 15.65 14.0 13.6 10.85 11.75 9.95 13.75 10.85 22.95 10.95 M19.75 28.4 L18.2 28.4 26.1 26.75 36.65 24.15 43.1 22.0 49.25 19.75 Q50.25 22.2 47.65 26.05 L43.05 31.6 39.45 35.05 35.05 38.4 32.8 37.25 Q30.2 35.55 28.15 32.45 26.55 30.0 23.25 29.15 L20.85 28.7 19.75 28.4 M38.95 37.9 L46.5 32.05 Q51.4 28.45 54.45 28.45 56.1 28.45 57.0 29.1 58.05 29.85 58.5 31.55 L55.95 32.95 55.9 33.0 55.9 33.1 Q54.15 37.6 52.8 39.6 51.45 41.6 50.1 41.6 49.25 41.6 48.1 40.6 46.8 39.4 43.5 38.65 L38.95 37.9" fill="#b5ffae" fill-rule="evenodd" stroke="none"/>
    <path d="M13.35 7.45 L2.4 5.95 Q17.2 6.6 26.35 6.2 39.3 5.65 46.15 3.0 53.05 0.35 55.65 1.35 57.35 2.0 58.3 5.4 L62.45 20.4 Q60.75 18.55 58.9 14.45 57.25 10.7 56.35 7.15 55.55 3.95 53.0 3.8 50.65 3.65 39.65 5.85 26.85 8.45 13.35 7.45" fill="url(#gradient0)" fill-rule="evenodd" stroke="none"/>
    <path d="M40.0 37.95 L39.2 37.9 Q44.05 33.55 46.8 31.65 51.55 28.35 54.85 28.35 56.55 28.35 57.45 29.0 58.5 29.75 58.9 31.45 L57.95 31.85 Q57.75 32.45 57.0 32.85 L55.8 33.1 Q55.35 33.05 51.55 35.2 L47.9 37.3 52.25 33.1 Q53.15 32.35 53.3 29.95 50.6 30.1 46.6 32.85 L40.0 37.95 M22.25 28.8 L20.95 28.6 19.8 28.3 18.25 28.3 26.2 26.65 Q34.4 24.85 36.85 24.0 L43.4 21.85 49.6 19.6 Q50.4 21.55 48.75 24.65 L47.65 26.35 46.35 28.05 47.3 26.45 35.15 28.8 45.4 22.25 Q44.65 22.35 43.35 22.9 L41.45 23.65 35.65 25.55 Q33.15 26.45 22.25 28.8 M14.3 11.95 Q12.95 10.25 11.8 9.7 13.8 10.6 23.05 10.7 L35.2 10.35 40.3 9.8 Q43.35 9.7 45.3 10.6 48.1 11.85 48.5 13.45 48.85 14.9 47.15 16.3 L34.45 17.5 27.9 17.75 25.2 17.95 29.95 16.95 35.85 15.25 Q38.45 14.3 39.2 12.9 L32.4 12.7 14.3 11.95" fill="#9ec09a" fill-rule="evenodd" stroke="none"/>
    <path d="M71.3 36.45 Q73.95 35.85 75.15 34.5 74.7 36.15 73.3 37.2 L72.05 37.95 71.3 36.45" fill="#1b2b16" fill-rule="evenodd" stroke="none"/>
  </g>
  <defs>
    <radialGradient cx="0" cy="0" gradientTransform="matrix(0.0588, 0.0, 0.0, -0.0588, 50.6, 3.5)" gradientUnits="userSpaceOnUse" id="gradient0" r="819.2" spreadMethod="pad">
      <stop offset="0.0" stop-color="#b4ffaa"/>
      <stop offset="0.0392156862745098" stop-color="#a8fb9f"/>
      <stop offset="0.12549019607843137" stop-color="#93e48a"/>
      <stop offset="0.23137254901960785" stop-color="#82d27a"/>
      <stop offset="0.3607843137254902" stop-color="#77c66e"/>
      <stop offset="0.5372549019607843" stop-color="#70bf68"/>
      <stop offset="1.0" stop-color="#6ebd66"/>
    </radialGradient>
  </defs>
</svg>
