<?xml version="1.0" encoding="UTF-8" standalone="no"?>
<svg xmlns:xlink="http://www.w3.org/1999/xlink" height="126.55px" width="149.2px" xmlns="http://www.w3.org/2000/svg">
  <g transform="matrix(1.0, 0.0, 0.0, 1.0, 1.4, 0.85)">
    <path d="M64.15 36.55 L51.15 44.25 Q45.2 34.65 37.85 31.75 35.95 31.0 31.85 30.0 28.1 29.15 26.1 28.2 21.15 25.9 19.75 20.25 18.55 15.3 20.15 14.1 21.05 13.4 22.6 13.9 23.4 14.15 24.0 14.55 24.9 16.65 28.9 17.3 L36.5 18.25 Q42.15 19.3 44.95 20.2 50.0 21.75 53.4 24.5 56.6 27.15 60.7 32.1 L64.15 36.55" fill="#f2c962" fill-rule="evenodd" stroke="none"/>
    <path d="M64.15 36.55 L60.7 32.1 Q56.6 27.15 53.4 24.5 50.0 21.75 44.95 20.2 42.15 19.3 36.5 18.25 L28.9 17.3 Q24.9 16.65 24.0 14.55 23.4 14.15 22.6 13.9 21.05 13.4 20.15 14.1 18.55 15.3 19.75 20.25 21.15 25.9 26.1 28.2 28.1 29.15 31.85 30.0 35.95 31.0 37.85 31.75 45.2 34.65 51.15 44.25 L64.15 36.55 Z" fill="none" stroke="#102106" stroke-linecap="butt" stroke-linejoin="miter-clip" stroke-miterlimit="4.0" stroke-width="1.7000000000000002"/>
    <path d="M46.65 32.85 Q50.6 35.1 55.4 42.7 L51.6 43.6 Q47.15 36.25 42.1 33.0 39.1 31.1 33.65 29.75 L29.0 28.4 Q42.1 30.25 46.65 32.85" fill="#deb65a" fill-rule="evenodd" stroke="none"/>
    <path d="M45.4 21.05 Q50.2 22.6 53.45 25.25 58.1 29.0 63.8 36.75 L61.25 38.25 Q56.55 32.35 52.8 29.25 49.55 26.6 44.75 25.05 42.05 24.15 36.65 23.15 L36.15 23.1 31.9 22.55 26.65 21.7 Q24.15 20.95 23.3 19.25 22.2 18.5 21.1 18.5 20.7 18.5 20.3 18.75 20.15 17.2 20.35 16.0 20.55 15.05 20.85 14.8 21.25 14.5 21.8 14.5 22.7 14.5 24.0 15.25 24.8 16.95 27.3 17.7 L32.55 18.55 36.8 19.1 37.3 19.15 Q42.7 20.15 45.4 21.05" fill="#f5db9f" fill-rule="evenodd" stroke="none"/>
    <path d="M69.1 39.3 Q68.0 42.5 59.45 47.8 L51.15 52.45 Q50.8 51.7 50.55 50.3 50.0 47.55 50.5 44.45 51.05 41.1 56.15 38.35 60.65 35.9 62.85 36.25 65.1 36.55 69.1 39.3" fill="#f2c962" fill-rule="evenodd" stroke="none"/>
    <path d="M69.1 39.3 Q65.1 36.55 62.85 36.25 60.65 35.9 56.15 38.35 51.05 41.1 50.5 44.45 50.0 47.55 50.55 50.3 50.8 51.7 51.15 52.45 L59.45 47.8 Q68.0 42.5 69.1 39.3 Z" fill="none" stroke="#102106" stroke-linecap="butt" stroke-linejoin="miter-clip" stroke-miterlimit="4.0" stroke-width="1.7000000000000002"/>
    <path d="M22.4 70.05 L21.5 65.7 Q20.95 62.95 15.45 62.5 L10.1 62.6 Q8.75 61.05 8.3 59.0 7.5 54.8 12.3 52.1 17.1 49.35 37.2 46.85 L56.4 44.85 Q56.95 49.9 51.55 64.0 48.9 71.05 46.1 77.1 44.3 76.3 40.5 77.7 L37.1 79.3 38.4 74.25 32.05 79.75 31.55 77.95 Q30.8 75.9 29.4 74.7 28.05 73.45 25.5 73.5 L23.25 73.8 27.4 68.1 25.0 70.05 22.4 70.05" fill="url(#gradient0)" fill-rule="evenodd" stroke="none"/>
    <path d="M22.4 70.05 L25.0 70.05 27.4 68.1 23.25 73.8 25.5 73.5 Q28.05 73.45 29.4 74.7 30.8 75.9 31.55 77.95 L32.05 79.75 38.4 74.25 37.1 79.3 40.5 77.7 Q44.3 76.3 46.1 77.1 48.9 71.05 51.55 64.0 56.95 49.9 56.4 44.85 L37.2 46.85 Q17.1 49.35 12.3 52.1 7.5 54.8 8.3 59.0 8.75 61.05 10.1 62.6 L15.45 62.5 Q20.95 62.95 21.5 65.7 L22.4 70.05 Z" fill="none" stroke="#1b2b16" stroke-linecap="butt" stroke-linejoin="miter-clip" stroke-miterlimit="4.0" stroke-width="1.7000000000000002"/>
    <path d="M37.65 60.55 Q34.05 58.45 32.25 57.65 25.7 54.75 19.55 62.9 17.3 61.9 13.45 61.9 L10.3 62.1 Q8.3 59.55 8.75 57.05 9.2 54.45 12.55 52.5 19.2 48.7 55.95 45.35 56.15 49.8 52.35 60.35 48.5 62.0 43.55 62.0 40.95 62.25 37.65 60.55" fill="url(#gradient1)" fill-rule="evenodd" stroke="none"/>
    <path d="M58.5 44.85 L51.55 47.7 Q41.25 49.45 35.75 49.65 31.9 49.85 28.1 51.7 24.7 53.4 23.25 55.35 22.15 56.9 20.2 57.5 L18.45 57.8 Q18.2 56.25 17.3 55.05 15.6 52.65 12.7 54.25 9.85 55.9 12.2 58.75 13.4 60.2 15.15 61.3 14.2 62.95 11.7 63.95 L9.45 64.6 8.15 66.8 Q6.45 69.15 4.4 69.85 L0.95 69.7 0.0 68.75 Q4.0 66.8 6.05 61.15 9.3 51.95 10.1 50.55 13.05 45.45 22.5 43.8 31.35 42.3 37.1 44.85 41.5 46.75 50.45 46.0 L58.5 44.85" fill="#6ebd66" fill-rule="evenodd" stroke="none"/>
    <path d="M58.5 44.85 L50.45 46.0 Q41.5 46.75 37.1 44.85 31.35 42.3 22.5 43.8 13.05 45.45 10.1 50.55 9.3 51.95 6.05 61.15 4.0 66.8 0.0 68.75 L0.95 69.7 4.4 69.85 Q6.45 69.15 8.15 66.8 L9.45 64.6 11.7 63.95 Q14.2 62.95 15.15 61.3 13.4 60.2 12.2 58.75 9.85 55.9 12.7 54.25 15.6 52.65 17.3 55.05 18.2 56.25 18.45 57.8 L20.2 57.5 Q22.15 56.9 23.25 55.35 24.7 53.4 28.1 51.7 31.9 49.85 35.75 49.65 41.25 49.45 51.55 47.7 L58.5 44.85 Z" fill="none" stroke="#1b2b16" stroke-linecap="butt" stroke-linejoin="miter-clip" stroke-miterlimit="4.0" stroke-width="1.7000000000000002"/>
    <path d="M12.0 59.4 L12.0 59.3 Q13.15 60.6 14.45 61.45 L13.45 62.4 Q11.95 60.7 12.0 59.4 M45.8 46.7 L54.15 46.1 51.4 47.2 42.45 48.2 40.3 48.25 38.2 48.3 Q34.9 46.85 29.6 46.85 21.75 46.85 17.7 48.2 11.5 50.3 9.45 56.15 L8.45 62.7 Q7.85 67.05 5.75 68.55 L4.2 69.4 2.65 69.65 Q1.45 69.65 0.75 68.95 3.5 67.45 5.15 64.45 L7.4 58.55 Q8.95 53.55 10.5 50.8 12.45 47.4 17.9 45.55 22.65 43.85 28.3 43.85 33.6 43.85 36.9 45.3 40.0 46.7 45.8 46.7" fill="#89e27e" fill-rule="evenodd" stroke="none"/>
    <path d="M129.65 8.35 Q127.6 15.85 119.4 20.0 99.65 30.05 100.1 37.55 L95.25 37.5 Q89.85 36.95 86.95 34.65 87.1 32.85 88.25 30.25 90.55 25.05 95.45 21.15 100.3 17.3 105.45 15.0 108.4 13.7 114.25 11.35 124.6 6.55 127.1 1.4 L127.55 0.4 129.2 0.45 Q129.9 1.1 130.1 3.2 130.4 5.7 129.65 8.35" fill="#f2c962" fill-rule="evenodd" stroke="none"/>
    <path d="M129.65 8.35 Q127.6 15.85 119.4 20.0 99.65 30.05 100.1 37.55 L95.25 37.5 Q89.85 36.95 86.95 34.65 87.1 32.85 88.25 30.25 90.55 25.05 95.45 21.15 100.3 17.3 105.45 15.0 108.4 13.7 114.25 11.35 124.6 6.55 127.1 1.4 L127.55 0.4 129.2 0.45 Q129.9 1.1 130.1 3.2 130.4 5.7 129.65 8.35 Z" fill="none" stroke="#102106" stroke-linecap="butt" stroke-linejoin="miter-clip" stroke-miterlimit="4.0" stroke-width="1.7000000000000002"/>
    <path d="M96.05 36.95 Q99.45 29.05 103.05 25.95 106.9 22.6 114.05 22.0 99.45 30.35 99.3 37.05 L97.85 37.1 Q97.0 37.1 97.25 37.3 L96.05 36.95" fill="#deb65a" fill-rule="evenodd" stroke="none"/>
    <path d="M126.8 2.25 L126.8 2.15 127.45 1.3 Q128.05 0.75 128.25 0.75 128.45 0.75 128.85 1.1 129.15 1.4 129.25 2.65 L129.3 5.7 Q126.45 10.3 116.55 14.85 L111.8 16.85 Q107.8 18.4 105.55 19.6 101.95 21.45 98.25 24.45 92.05 29.35 90.35 35.9 88.65 35.35 87.5 34.45 87.85 32.25 89.15 29.65 91.4 25.2 95.6 21.8 99.35 18.8 102.95 16.95 105.15 15.8 109.2 14.25 L113.95 12.25 Q124.35 7.45 126.8 2.25" fill="#f5db9f" fill-rule="evenodd" stroke="none"/>
    <path d="M84.2 38.5 Q84.35 37.6 84.8 36.65 85.65 34.75 86.95 34.65 L94.4 35.25 Q100.45 36.2 101.7 37.85 103.0 39.55 102.65 41.7 102.35 43.45 101.4 44.1 100.45 44.75 84.2 38.5" fill="#f2c962" fill-rule="evenodd" stroke="none"/>
    <path d="M84.2 38.5 Q84.35 37.6 84.8 36.65 85.65 34.75 86.95 34.65 L94.4 35.25 Q100.45 36.2 101.7 37.85 103.0 39.55 102.65 41.7 102.35 43.45 101.4 44.1 100.45 44.75 84.2 38.5 Z" fill="none" stroke="#102106" stroke-linecap="butt" stroke-linejoin="miter-clip" stroke-miterlimit="4.0" stroke-width="1.7000000000000002"/>
    <path d="M122.0 32.55 Q124.65 29.95 135.55 27.9 L145.95 26.4 Q146.9 29.0 142.0 38.85 L136.95 48.15 131.65 50.3 130.4 49.4 Q129.0 48.6 128.15 49.2 125.9 50.9 124.75 53.45 123.75 55.65 123.75 58.0 123.75 59.8 122.1 60.8 L120.45 61.5 113.9 60.4 101.4 44.1 110.15 39.9 Q119.4 35.15 122.0 32.55" fill="url(#gradient2)" fill-rule="evenodd" stroke="none"/>
    <path d="M122.0 32.55 Q119.4 35.15 110.15 39.9 L101.4 44.1 113.9 60.4 120.45 61.5 122.1 60.8 Q123.75 59.8 123.75 58.0 123.75 55.65 124.75 53.45 125.9 50.9 128.15 49.2 129.0 48.6 130.4 49.4 L131.65 50.3 136.95 48.15 142.0 38.85 Q146.9 29.0 145.95 26.4 L135.55 27.9 Q124.65 29.95 122.0 32.55 Z" fill="none" stroke="#1b2b16" stroke-linecap="butt" stroke-linejoin="miter-clip" stroke-miterlimit="4.0" stroke-width="1.7000000000000002"/>
    <path d="M145.55 26.95 Q145.95 29.1 142.85 35.9 137.0 41.0 125.05 43.3 108.95 46.45 105.0 48.0 L102.15 44.3 Q107.0 42.1 111.95 39.5 119.9 35.35 122.35 32.9 124.7 30.6 134.25 28.65 L145.55 26.95" fill="url(#gradient3)" fill-rule="evenodd" stroke="none"/>
    <path d="M121.5 40.0 Q119.15 41.05 116.5 40.9 107.85 40.4 103.8 44.2 L99.4 45.05 Q94.95 45.35 94.95 42.45 L101.7 40.7 Q108.9 38.55 111.25 36.5 117.3 31.15 118.65 30.2 123.9 26.2 128.15 25.5 134.75 24.45 146.35 25.1 144.45 28.15 141.25 31.3 134.9 37.6 128.6 38.05 128.45 36.55 127.85 35.25 126.7 32.6 124.65 33.4 122.6 34.25 122.75 36.65 122.8 37.85 123.3 38.9 122.65 39.45 121.5 40.0" fill="#6ebd66" fill-rule="evenodd" stroke="none"/>
    <path d="M121.5 40.0 Q119.15 41.05 116.5 40.9 107.85 40.4 103.8 44.2 L99.4 45.05 Q94.95 45.35 94.95 42.45 L101.7 40.7 Q108.9 38.55 111.25 36.5 117.3 31.15 118.65 30.2 123.9 26.2 128.15 25.5 134.75 24.45 146.35 25.1 144.45 28.15 141.25 31.3 134.9 37.6 128.6 38.05 128.45 36.55 127.85 35.25 126.7 32.6 124.65 33.4 122.6 34.25 122.75 36.65 122.8 37.85 123.3 38.9 122.65 39.45 121.5 40.0 Z" fill="none" stroke="#1b2b16" stroke-linecap="butt" stroke-linejoin="miter-clip" stroke-miterlimit="4.0" stroke-width="1.7000000000000002"/>
    <path d="M138.55 25.7 L144.8 25.85 Q141.15 30.85 136.8 33.7 139.35 31.4 141.4 28.5 L135.15 28.4 125.5 28.95 Q121.75 29.55 116.85 33.05 124.0 27.05 128.9 26.3 L138.55 25.7" fill="#89e27e" fill-rule="evenodd" stroke="none"/>
    <path d="M108.25 48.55 Q119.55 60.1 119.55 76.4 119.55 91.75 107.85 99.95 97.55 107.1 80.15 107.7 61.9 108.35 52.25 100.55 42.45 92.55 42.45 76.4 42.45 60.1 53.75 48.55 65.0 37.05 81.0 37.05 97.0 37.05 108.25 48.55" fill="#6ebd66" fill-rule="evenodd" stroke="none"/>
    <path d="M108.25 48.55 Q119.55 60.1 119.55 76.4 119.55 91.75 107.85 99.95 97.55 107.1 80.15 107.7 61.9 108.35 52.25 100.55 42.45 92.55 42.45 76.4 42.45 60.1 53.75 48.55 65.0 37.05 81.0 37.05 97.0 37.05 108.25 48.55 Z" fill="none" stroke="#1b2b16" stroke-linecap="round" stroke-linejoin="round" stroke-width="1.8"/>
    <path d="M81.0 37.55 Q96.25 37.55 107.3 48.35 118.3 59.1 119.0 74.6 116.15 59.5 107.2 50.4 96.75 39.7 80.9 41.2 43.65 44.75 43.65 82.05 L43.7 84.45 Q42.95 80.7 42.95 76.4 42.95 60.35 54.1 48.95 65.3 37.55 81.0 37.55" fill="#7cd371" fill-rule="evenodd" stroke="none"/>
    <path d="M114.75 59.6 Q119.05 69.05 119.05 76.4 119.05 90.45 108.85 98.5 98.65 106.55 80.15 107.2 L77.45 107.25 Q60.55 107.25 51.75 99.4 42.95 91.55 42.95 76.4 42.95 71.65 45.4 63.85 L44.85 66.4 44.45 69.0 Q44.45 85.25 48.3 91.4 53.3 99.45 68.15 99.45 L84.7 100.2 Q101.85 99.6 109.9 92.25 117.55 85.25 117.55 71.6 117.55 69.65 116.4 65.5 L114.75 59.6" fill="#559d4e" fill-rule="evenodd" stroke="none"/>
    <path d="M86.15 45.55 Q87.35 47.35 85.9 50.8 84.5 54.2 82.95 53.6 81.35 53.0 80.4 51.6 79.45 50.15 79.55 48.3 L82.25 46.05 Q85.15 44.05 86.15 45.55" fill="#f8ef95" fill-rule="evenodd" stroke="none"/>
    <path d="M86.15 45.55 Q87.35 47.35 85.9 50.8 84.5 54.2 82.95 53.6 81.35 53.0 80.4 51.6 79.45 50.15 79.55 48.3 L82.25 46.05 Q85.15 44.05 86.15 45.55 Z" fill="none" stroke="#1b2b16" stroke-linecap="butt" stroke-linejoin="miter-clip" stroke-miterlimit="4.0" stroke-width="1.7000000000000002"/>
    <path d="M85.45 46.3 Q85.95 47.05 85.75 48.5 L84.9 51.1 Q84.1 52.65 83.35 52.65 L83.15 52.6 82.9 52.5 Q83.55 51.25 83.7 49.9 83.9 48.45 83.4 47.75 83.2 47.4 82.7 47.4 82.1 47.4 81.35 47.85 83.45 45.95 84.75 45.95 85.15 45.95 85.45 46.3" fill="#ffffff" fill-rule="evenodd" stroke="none"/>
    <path d="M83.25 38.15 L76.5 39.4 Q69.6 40.4 69.1 39.3 68.6 38.2 67.7 37.25 L66.85 36.55 Q67.3 33.7 68.6 29.85 71.25 22.2 75.7 17.15 L76.9 15.65 Q78.3 14.45 79.4 15.85 80.35 17.05 80.7 22.35 81.1 28.25 81.65 29.8 L83.3 34.4 Q83.85 36.6 83.25 38.15" fill="#f8ef95" fill-rule="evenodd" stroke="none"/>
    <path d="M83.25 38.15 L76.5 39.4 Q69.6 40.4 69.1 39.3 68.6 38.2 67.7 37.25 L66.85 36.55 Q67.3 33.7 68.6 29.85 71.25 22.2 75.7 17.15 L76.9 15.65 Q78.3 14.45 79.4 15.85 80.35 17.05 80.7 22.35 81.1 28.25 81.65 29.8 L83.3 34.4 Q83.85 36.6 83.25 38.15 Z" fill="none" stroke="#1b2b16" stroke-linecap="butt" stroke-linejoin="miter-clip" stroke-miterlimit="4.0" stroke-width="1.7000000000000002"/>
    <path d="M81.5 31.4 L82.55 34.55 Q82.85 36.05 82.5 37.2 L80.05 37.65 79.0 34.9 Q78.45 33.35 78.15 28.5 L77.8 24.5 Q77.5 22.5 76.95 21.75 76.5 21.25 76.1 21.25 75.6 21.25 74.95 21.95 L74.25 22.9 74.15 23.0 Q71.25 26.25 69.0 31.25 71.45 23.15 76.05 17.95 L76.1 17.9 76.1 17.85 Q77.15 16.2 78.0 16.2 78.4 16.2 78.85 16.7 79.4 17.4 79.7 19.4 L80.05 23.45 Q80.35 28.25 80.9 29.85 L81.5 31.4" fill="#ffffff" fill-rule="evenodd" stroke="none"/>
    <path d="M111.65 85.2 L111.05 86.35 Q109.7 92.95 112.35 98.85 L114.7 103.4 Q116.15 106.05 116.65 107.85 117.7 111.65 114.4 114.65 L110.25 118.1 Q109.5 119.65 106.3 121.3 102.5 123.25 96.75 124.35 91.55 125.35 86.0 124.3 L81.0 123.05 Q73.3 122.25 69.75 118.25 67.95 116.2 68.25 111.15 68.55 105.8 67.05 103.55 65.15 100.6 61.55 97.5 L58.35 95.0 111.65 85.2" fill="#6ebd66" fill-rule="evenodd" stroke="none"/>
    <path d="M58.35 95.0 L61.55 97.5 Q65.15 100.6 67.05 103.55 68.55 105.8 68.25 111.15 67.95 116.2 69.75 118.25 73.3 122.25 81.0 123.05 L86.0 124.3 Q91.55 125.35 96.75 124.35 102.5 123.25 106.3 121.3 109.5 119.65 110.25 118.1 L114.4 114.65 Q117.7 111.65 116.65 107.85 116.15 106.05 114.7 103.4 L112.35 98.85 Q109.7 92.95 111.05 86.35 L111.65 85.2" fill="none" stroke="#1b2b16" stroke-linecap="round" stroke-linejoin="round" stroke-width="1.7000000000000002"/>
    <path d="M94.15 81.1 Q95.4 81.7 95.85 82.2 L92.55 81.55 86.4 81.8 82.5 82.85 81.45 83.05 82.25 85.55 82.25 85.3 84.25 92.5 Q86.6 100.05 88.2 101.9 90.2 104.2 93.9 104.9 97.75 105.6 99.9 103.8 L97.8 106.2 Q95.3 108.4 93.45 107.65 84.95 104.25 84.0 102.4 83.45 101.2 82.55 95.25 L81.9 90.85 Q80.65 84.8 77.7 83.65 78.5 82.6 80.1 81.6 83.35 79.6 87.45 79.8 91.6 80.0 94.15 81.1" fill="#7cd371" fill-rule="evenodd" stroke="none"/>
  </g>
  <defs>
    <linearGradient gradientTransform="matrix(0.008, -0.0238, -0.0238, -0.008, 29.1, 62.95)" gradientUnits="userSpaceOnUse" id="gradient0" spreadMethod="pad" x1="-819.2" x2="819.2">
      <stop offset="0.0" stop-color="#b5ffae"/>
      <stop offset="0.20392156862745098" stop-color="#b0fba9"/>
      <stop offset="0.45098039215686275" stop-color="#a1ec9a"/>
      <stop offset="0.7137254901960784" stop-color="#89d382"/>
      <stop offset="0.9921568627450981" stop-color="#69b162"/>
      <stop offset="1.0" stop-color="#68b061"/>
    </linearGradient>
    <linearGradient gradientTransform="matrix(0.0059, -0.0177, -0.0177, -0.0059, 31.0, 57.3)" gradientUnits="userSpaceOnUse" id="gradient1" spreadMethod="pad" x1="-819.2" x2="819.2">
      <stop offset="0.0" stop-color="#98e48f"/>
      <stop offset="0.43137254901960786" stop-color="#87c67f"/>
      <stop offset="1.0" stop-color="#6e9968"/>
    </linearGradient>
    <linearGradient gradientTransform="matrix(-0.0134, -0.0134, -0.0134, 0.0134, 129.8, 43.3)" gradientUnits="userSpaceOnUse" id="gradient2" spreadMethod="pad" x1="-819.2" x2="819.2">
      <stop offset="0.0" stop-color="#b5ffae"/>
      <stop offset="0.20392156862745098" stop-color="#b0fba9"/>
      <stop offset="0.45098039215686275" stop-color="#a1ec9a"/>
      <stop offset="0.7137254901960784" stop-color="#89d382"/>
      <stop offset="0.9921568627450981" stop-color="#69b162"/>
      <stop offset="1.0" stop-color="#68b061"/>
    </linearGradient>
    <linearGradient gradientTransform="matrix(-0.0114, -0.0109, -0.0109, 0.0114, 125.4, 37.55)" gradientUnits="userSpaceOnUse" id="gradient3" spreadMethod="pad" x1="-819.2" x2="819.2">
      <stop offset="0.0" stop-color="#98e48f"/>
      <stop offset="0.43137254901960786" stop-color="#87c67f"/>
      <stop offset="1.0" stop-color="#6e9968"/>
    </linearGradient>
  </defs>
</svg>
