<?xml version="1.0" encoding="UTF-8" standalone="no"?>
<svg xmlns:xlink="http://www.w3.org/1999/xlink" height="24.0px" width="46.6px" xmlns="http://www.w3.org/2000/svg">
  <g transform="matrix(1.0, 0.0, 0.0, 1.0, 0.0, 0.0)">
    <path d="M44.45 3.3 L46.35 7.7 Q47.4 11.3 44.2 14.2 40.55 16.65 40.15 17.5 39.5 19.0 36.4 20.6 32.75 22.5 27.25 23.55 22.25 24.5 16.9 23.5 L12.1 22.3 Q4.7 21.5 1.3 17.65 0.4 16.65 0.0 15.05 2.9 9.95 5.55 6.75 9.8 1.65 12.7 2.15 14.95 2.55 20.2 5.5 24.15 7.75 26.4 6.8 28.2 6.05 30.95 3.05 33.3 0.4 35.45 0.05 37.1 -0.2 39.6 0.7 42.15 1.65 44.45 3.3" fill="url(#gradient0)" fill-rule="evenodd" stroke="none"/>
  </g>
  <defs>
    <radialGradient cx="0" cy="0" gradientTransform="matrix(0.0997, 0.0, 0.0, -0.0997, 26.95, 29.05)" gradientUnits="userSpaceOnUse" id="gradient0" r="819.2" spreadMethod="pad">
      <stop offset="0.0" stop-color="#ffffff"/>
      <stop offset="1.0" stop-color="#125200"/>
    </radialGradient>
  </defs>
</svg>
