<?xml version="1.0" encoding="UTF-8" standalone="no"?>
<svg xmlns:xlink="http://www.w3.org/1999/xlink" height="89.75px" width="60.9px" xmlns="http://www.w3.org/2000/svg">
  <g transform="matrix(1.0, 0.0, 0.0, 1.0, -53.1, -29.5)">
    <path d="M54.65 95.35 Q58.15 95.5 58.7 92.25 L58.5 88.95 59.65 90.9 Q60.55 93.15 59.15 94.8 57.75 96.45 56.05 96.05 L54.65 95.35" fill="#282425" fill-rule="evenodd" stroke="none"/>
    <path d="M110.3 82.2 L111.05 83.8 Q112.2 85.15 114.0 83.95 L113.3 85.15 Q112.35 86.2 111.0 85.4 109.65 84.55 109.85 83.3 L110.3 82.2" fill="#282425" fill-rule="evenodd" stroke="none"/>
    <path d="M70.4 79.45 Q73.9 79.65 76.05 75.6 77.1 73.6 77.45 71.55 L77.85 74.4 Q77.85 77.45 75.75 78.7 73.65 79.95 71.8 79.85 L70.4 79.45" fill="#559d4e" fill-rule="evenodd" stroke="none"/>
    <path d="M99.0 76.7 L97.0 76.95 Q94.75 76.95 93.3 75.8 91.85 74.6 91.4 72.4 L91.3 70.45 93.1 73.6 Q95.55 76.7 99.0 76.7" fill="#559d4e" fill-rule="evenodd" stroke="none"/>
    <path d="M98.5 78.5 Q98.3 79.35 96.65 79.3 96.0 79.3 93.7 78.05 91.3 76.75 89.45 76.55 84.25 75.95 81.65 77.3 L78.4 79.5 Q76.0 81.15 74.95 81.45 L73.05 81.3 72.5 80.75 73.15 81.0 Q74.25 80.95 76.35 79.45 L81.25 76.15 Q84.35 74.7 88.95 75.3 91.85 75.7 95.1 77.6 97.6 79.05 98.5 78.5" fill="#559d4e" fill-rule="evenodd" stroke="none"/>
    <path d="M98.85 80.9 Q98.5 81.7 97.05 82.5 95.5 81.7 93.35 80.95 89.0 79.45 86.0 79.75 82.95 80.05 80.15 81.75 L77.9 83.35 76.7 83.95 Q75.4 84.35 74.8 83.55 75.6 83.65 76.75 82.75 L79.8 80.5 Q82.4 79.0 85.95 78.85 89.4 78.65 93.25 79.95 95.2 80.65 96.95 81.45 97.75 81.65 98.85 80.9" fill="#559d4e" fill-rule="evenodd" stroke="none"/>
    <path d="M98.2 87.0 Q97.2 86.55 95.95 84.9 95.2 83.9 95.45 82.65 L95.85 81.6 97.05 82.5 97.05 84.15 Q97.2 86.0 98.2 87.0" fill="#559d4e" fill-rule="evenodd" stroke="none"/>
    <path d="M104.95 108.0 L105.1 107.9 105.85 109.05 106.45 110.35 106.2 112.15 Q105.8 113.3 105.15 113.6 105.15 113.2 105.45 112.5 105.8 111.5 105.5 109.95 104.6 108.45 104.95 108.0" fill="#282425" fill-rule="evenodd" stroke="none"/>
    <path d="M78.75 110.65 L79.85 109.35 80.5 108.9 81.2 108.8 81.25 108.85 80.15 110.85 Q79.7 111.95 79.85 113.15 L80.05 113.95 80.25 114.7 Q79.55 114.5 78.9 113.25 78.2 111.85 78.75 110.65" fill="#282425" fill-rule="evenodd" stroke="none"/>
    <path d="M102.6 114.6 Q101.5 116.6 100.25 117.75 99.1 118.75 98.65 118.75 L98.3 118.65 98.5 118.25 99.15 116.9 Q98.75 111.9 100.3 111.35 L103.25 111.25 Q104.8 111.85 103.55 113.45 L102.6 114.6" fill="#282425" fill-rule="evenodd" stroke="none"/>
    <path d="M68.7 54.25 Q67.9 53.5 66.35 53.05 63.35 52.15 59.9 53.7 56.45 55.25 54.45 58.85 53.45 60.65 53.1 62.15 53.25 60.15 54.05 57.85 55.65 53.25 58.8 51.85 62.15 50.4 65.15 51.55 67.3 52.4 68.7 54.25" fill="#559d4e" fill-rule="evenodd" stroke="none"/>
    <path d="M92.8 53.6 L93.65 52.0 Q94.8 50.2 96.25 49.25 101.0 46.1 107.3 52.3 105.55 50.8 102.85 50.25 97.45 49.05 92.8 53.6" fill="#559d4e" fill-rule="evenodd" stroke="none"/>
    <path d="M82.15 41.9 Q81.0 45.3 79.55 45.1 77.25 44.75 75.4 43.35 72.95 41.5 73.3 38.8 L76.15 35.4 Q79.2 31.85 80.5 31.1 82.4 30.0 83.5 30.55 84.9 31.2 84.05 34.65 L82.15 41.9" fill="#f8ef95" fill-rule="evenodd" stroke="none"/>
    <path d="M82.15 41.9 Q81.0 45.3 79.55 45.1 77.25 44.75 75.4 43.35 72.95 41.5 73.3 38.8 L76.15 35.4 Q79.2 31.85 80.5 31.1 82.4 30.0 83.5 30.55 84.9 31.2 84.05 34.65 L82.15 41.9 Z" fill="none" stroke="#1b2b16" stroke-linecap="butt" stroke-linejoin="miter-clip" stroke-miterlimit="4.0" stroke-width="1.7000000000000002"/>
    <path d="M83.4 31.65 Q84.0 32.35 83.4 34.75 L82.9 36.75 81.55 41.7 Q80.7 44.1 79.85 44.1 L79.75 44.1 79.25 44.0 80.75 38.6 81.25 36.6 Q81.8 34.35 81.25 33.5 80.95 33.2 80.5 33.2 79.75 33.2 78.75 33.75 L80.8 31.95 Q81.85 31.35 82.65 31.35 83.2 31.35 83.4 31.65" fill="#ffffff" fill-rule="evenodd" stroke="none"/>
    <path d="M88.15 116.6 L89.45 117.9 90.15 118.3 90.8 118.8 Q91.1 119.5 89.6 119.15 88.55 118.85 88.25 118.2 87.8 117.35 86.4 116.35 L84.9 115.65 Q83.35 115.15 83.4 113.3 83.5 111.45 85.35 111.1 87.55 110.75 88.15 116.6" fill="#282425" fill-rule="evenodd" stroke="none"/>
  </g>
</svg>
