<?xml version="1.0" encoding="UTF-8" standalone="no"?>
<svg xmlns:xlink="http://www.w3.org/1999/xlink" height="85.3px" width="106.5px" xmlns="http://www.w3.org/2000/svg">
  <g transform="matrix(1.0, 0.0, 0.0, 1.0, -22.3, -5.55)">
    <path d="M54.65 90.05 Q54.65 90.85 53.85 90.85 53.05 90.85 53.05 90.05 53.05 89.25 53.85 89.25 54.65 89.25 54.65 90.05" fill="#ffffff" fill-rule="evenodd" stroke="none"/>
    <path d="M113.95 79.9 L113.65 80.55 113.0 80.8 112.35 80.55 Q112.1 80.3 112.1 79.9 112.1 79.5 112.35 79.25 112.65 78.95 113.0 78.95 113.4 78.95 113.65 79.25 L113.95 79.9" fill="#ffffff" fill-rule="evenodd" stroke="none"/>
    <path d="M45.65 66.75 L45.2 68.75 Q45.05 70.95 46.35 72.15 47.65 73.35 49.3 70.95 L50.65 68.3 50.25 71.3 Q49.3 74.25 46.5 74.0 43.7 73.75 44.4 70.25 L45.65 66.75" fill="#5c9f55" fill-rule="evenodd" stroke="none"/>
    <path d="M48.9 72.5 L48.45 74.5 Q48.3 76.7 49.6 77.9 50.95 79.1 52.55 76.7 L53.9 74.05 53.55 77.05 Q52.6 80.0 49.8 79.75 47.0 79.5 47.65 76.0 L48.9 72.5" fill="#5c9f55" fill-rule="evenodd" stroke="none"/>
    <path d="M43.9 72.6 L43.35 74.15 Q42.95 75.9 43.85 77.1 44.75 78.25 46.3 76.55 L47.65 74.65 47.05 77.0 Q45.95 79.25 43.75 78.6 41.55 77.95 42.5 75.2 L43.9 72.6" fill="#5c9f55" fill-rule="evenodd" stroke="none"/>
    <path d="M46.45 77.2 L45.9 78.75 Q45.5 80.5 46.4 81.65 47.35 82.85 48.9 81.15 L50.25 79.25 49.6 81.6 Q48.55 83.85 46.35 83.2 44.15 82.55 45.05 79.8 L46.45 77.2" fill="#5c9f55" fill-rule="evenodd" stroke="none"/>
    <path d="M49.7 80.25 L49.7 81.9 Q49.9 83.65 51.15 84.25 52.45 84.85 53.3 82.6 L53.9 80.2 54.1 82.65 Q53.9 85.15 51.6 85.65 49.3 86.15 49.3 83.25 L49.7 80.25" fill="#5c9f55" fill-rule="evenodd" stroke="none"/>
    <path d="M48.8 62.5 L48.8 64.1 Q49.05 65.85 50.3 66.45 51.55 67.05 52.45 64.8 L53.05 62.45 53.25 64.85 Q53.05 67.4 50.75 67.85 48.45 68.35 48.4 65.5 L48.8 62.5" fill="#5c9f55" fill-rule="evenodd" stroke="none"/>
    <path d="M52.55 31.85 Q54.0 30.9 56.5 30.55 L58.7 30.45 59.1 30.9 Q56.95 30.65 53.65 32.0 51.6 32.85 49.25 35.35 L47.3 37.65 47.0 37.3 48.9 35.15 Q51.1 32.8 52.55 31.85" fill="#765a25" fill-rule="evenodd" stroke="none"/>
    <path d="M43.0 33.6 Q42.95 32.35 43.6 30.55 44.45 28.25 46.0 26.8 47.45 25.4 49.85 24.65 L51.95 24.15 52.35 24.55 Q49.75 24.85 46.8 26.85 44.95 28.05 43.8 30.95 43.2 32.4 43.0 33.6" fill="#765a25" fill-rule="evenodd" stroke="none"/>
    <path d="M39.85 21.8 Q41.6 20.5 43.3 20.45 39.15 21.3 37.4 26.0 36.55 28.35 36.5 30.55 L35.95 30.45 Q36.3 24.35 39.85 21.8" fill="#765a25" fill-rule="evenodd" stroke="none"/>
    <path d="M29.35 28.65 L28.8 27.05 Q28.25 25.05 28.5 22.75 28.7 20.45 30.35 19.3 31.15 18.7 31.9 18.6 29.1 20.05 28.95 24.5 28.9 26.75 29.35 28.65" fill="#765a25" fill-rule="evenodd" stroke="none"/>
    <path d="M22.3 23.0 Q22.15 19.55 24.05 18.2 25.15 17.45 26.35 17.55 23.3 18.55 22.55 21.3 22.3 22.2 22.3 23.0" fill="#765a25" fill-rule="evenodd" stroke="none"/>
    <path d="M93.25 24.75 Q92.15 24.95 92.15 25.15 L92.15 24.85 Q97.7 22.5 100.65 26.25 102.15 28.15 102.5 30.5 100.05 25.6 95.9 24.8 L93.25 24.75" fill="#765a25" fill-rule="evenodd" stroke="none"/>
    <path d="M101.55 17.75 L102.7 17.7 Q104.05 17.75 105.2 18.3 108.75 19.9 108.5 25.45 108.3 23.65 107.3 21.75 105.35 18.0 101.55 17.75" fill="#765a25" fill-rule="evenodd" stroke="none"/>
    <path d="M110.55 13.65 Q114.7 13.05 116.15 16.75 116.85 18.65 116.75 20.6 L116.3 20.95 Q116.0 16.4 113.25 14.55 L110.55 13.65" fill="#765a25" fill-rule="evenodd" stroke="none"/>
    <path d="M122.3 13.4 Q120.7 11.05 118.55 10.5 L120.85 10.9 Q123.8 12.2 123.6 16.15 123.2 14.8 122.3 13.4" fill="#765a25" fill-rule="evenodd" stroke="none"/>
    <path d="M124.3 5.55 L126.4 5.8 Q128.55 6.5 128.8 8.7 128.35 7.9 127.5 7.2 125.8 5.75 123.85 6.1 L124.3 5.55" fill="#765a25" fill-rule="evenodd" stroke="none"/>
    <path d="M76.25 68.9 Q77.4 73.55 75.1 77.6 72.85 81.65 68.45 82.8 62.95 84.3 59.4 81.6 56.35 79.25 55.05 74.1 53.8 68.95 55.45 63.7 57.3 57.95 61.4 56.95 65.6 55.9 70.45 60.05 75.05 64.0 76.25 68.9" fill="#559d4e" fill-rule="evenodd" stroke="none"/>
    <path d="M75.4 66.9 Q76.4 71.0 74.4 74.6 72.4 78.15 68.5 79.2 63.65 80.5 60.5 78.1 57.75 76.05 56.65 71.5 55.55 66.95 57.0 62.3 58.6 57.15 62.25 56.25 66.0 55.35 70.25 59.05 74.35 62.55 75.4 66.9" fill="#ffffff" fill-rule="evenodd" stroke="none"/>
    <path d="M75.4 66.9 Q76.4 71.0 74.4 74.6 72.4 78.15 68.5 79.2 63.65 80.5 60.5 78.1 57.75 76.05 56.65 71.5 55.55 66.95 57.0 62.3 58.6 57.15 62.25 56.25 66.0 55.35 70.25 59.05 74.35 62.55 75.4 66.9 Z" fill="none" stroke="#282425" stroke-linecap="butt" stroke-linejoin="miter-clip" stroke-miterlimit="4.0" stroke-width="1.0"/>
    <path d="M57.2 71.35 Q56.4 68.1 57.1 64.3 57.85 60.2 60.0 58.15 58.65 62.8 59.7 67.0 61.55 74.7 67.75 74.7 L70.8 74.3 Q73.15 73.65 74.8 72.0 74.2 74.4 72.5 76.15 70.8 78.0 68.35 78.65 L65.3 79.1 Q59.05 79.1 57.2 71.35" fill="#c0cdd6" fill-rule="evenodd" stroke="none"/>
    <path d="M68.35 70.0 Q68.35 71.25 67.55 72.1 66.75 73.0 65.65 73.0 64.55 73.0 63.8 72.1 63.0 71.25 63.0 70.0 63.0 68.75 63.8 67.9 64.55 67.05 65.65 67.05 66.8 67.05 67.55 67.9 68.35 68.75 68.35 70.0" fill="#282425" fill-rule="evenodd" stroke="none"/>
    <path d="M68.0 69.05 L67.7 69.9 Q67.35 70.25 66.9 70.25 66.45 70.25 66.15 69.9 65.8 69.55 65.8 69.05 65.8 68.55 66.15 68.15 66.45 67.8 66.9 67.8 67.35 67.8 67.7 68.15 L68.0 69.05" fill="#ffffff" fill-rule="evenodd" stroke="none"/>
    <path d="M109.95 64.7 Q111.45 69.55 110.25 72.6 108.85 76.2 103.4 78.15 100.35 79.25 97.15 76.8 93.95 74.3 92.6 69.9 91.25 65.6 93.1 60.85 94.85 56.2 98.05 55.25 101.15 54.3 104.9 57.3 108.6 60.3 109.95 64.7" fill="#559d4e" fill-rule="evenodd" stroke="none"/>
    <path d="M110.6 64.95 Q110.6 69.8 108.7 72.25 106.4 75.15 100.9 75.4 97.8 75.55 95.55 72.4 93.35 69.3 93.35 64.9 93.35 60.6 96.3 56.8 99.25 53.05 102.4 53.05 105.5 53.05 108.1 56.85 110.6 60.55 110.6 64.95" fill="#ffffff" fill-rule="evenodd" stroke="none"/>
    <path d="M110.6 64.95 Q110.6 69.8 108.7 72.25 106.4 75.15 100.9 75.4 97.8 75.55 95.55 72.4 93.35 69.3 93.35 64.9 93.35 60.6 96.3 56.8 99.25 53.05 102.4 53.05 105.5 53.05 108.1 56.85 110.6 60.55 110.6 64.95 Z" fill="none" stroke="#282425" stroke-linecap="butt" stroke-linejoin="miter-clip" stroke-miterlimit="4.0" stroke-width="1.0"/>
    <path d="M108.3 58.25 Q110.05 61.35 110.05 64.95 110.05 70.0 107.9 72.3 105.8 74.65 100.9 74.85 L100.65 74.85 Q98.5 74.85 96.75 72.9 95.0 71.05 94.3 68.1 96.4 71.6 99.4 71.6 L99.6 71.6 Q104.45 71.4 106.6 69.05 108.75 66.75 108.75 61.7 108.75 59.9 108.3 58.25" fill="#c0cdd6" fill-rule="evenodd" stroke="none"/>
    <path d="M102.9 66.6 Q102.9 67.8 102.15 68.65 101.35 69.45 100.3 69.45 99.2 69.45 98.45 68.65 97.65 67.8 97.65 66.6 97.65 65.4 98.45 64.55 99.2 63.7 100.3 63.7 101.35 63.7 102.15 64.55 102.9 65.4 102.9 66.6" fill="#282425" fill-rule="evenodd" stroke="none"/>
    <path d="M102.45 65.4 L102.15 66.25 Q101.85 66.6 101.4 66.6 101.0 66.6 100.65 66.25 100.35 65.9 100.35 65.4 100.35 64.9 100.65 64.55 101.0 64.2 101.4 64.2 101.85 64.2 102.15 64.55 102.45 64.9 102.45 65.4" fill="#ffffff" fill-rule="evenodd" stroke="none"/>
    <path d="M81.05 88.1 Q80.45 85.85 78.6 84.2 L76.9 82.95 78.1 83.35 Q79.4 83.85 80.05 84.5 81.15 85.6 81.05 88.1" fill="#559d4e" fill-rule="evenodd" stroke="none"/>
  </g>
</svg>
