<?xml version="1.0" encoding="UTF-8" standalone="no"?>
<svg xmlns:xlink="http://www.w3.org/1999/xlink" height="33.8px" width="46.0px" xmlns="http://www.w3.org/2000/svg">
  <g transform="matrix(1.0, 0.0, 0.0, 1.0, 0.85, -21.4)">
    <path d="M17.35 42.65 L8.25 43.6 4.7 43.65 0.0 33.15 33.05 27.4 43.35 33.75 Q32.25 40.35 17.35 42.65" fill="#bfbfbf" fill-rule="evenodd" stroke="none"/>
    <path d="M17.35 42.65 Q32.25 40.35 43.35 33.75 L33.05 27.4 0.0 33.15 4.7 43.65 8.25 43.6 17.35 42.65 Z" fill="none" stroke="#000000" stroke-linecap="round" stroke-linejoin="round" stroke-width="1.7000000000000002"/>
    <path d="M17.35 31.0 Q21.05 34.45 21.05 39.9 L20.65 41.15 Q12.75 42.75 5.5 42.75 L5.25 42.75 1.25 33.85 17.35 31.0" fill="url(#gradient0)" fill-rule="evenodd" stroke="none"/>
    <path d="M4.7 43.65 L16.65 41.85 Q31.1 39.0 43.5 34.0 L44.3 42.0 Q38.45 44.75 30.65 47.65 15.05 53.5 5.25 54.35 L4.7 43.65" fill="#bfbfbf" fill-rule="evenodd" stroke="none"/>
    <path d="M4.7 43.65 L16.65 41.85 Q31.1 39.0 43.5 34.0 L44.3 42.0 Q38.45 44.75 30.65 47.65 15.05 53.5 5.25 54.35 L4.7 43.65 Z" fill="none" stroke="#000000" stroke-linecap="round" stroke-linejoin="round" stroke-width="1.7000000000000002"/>
    <path d="M0.8 35.8 L4.55 43.75 5.2 54.2 0.5 44.45 0.8 35.8" fill="#8ea389" fill-rule="evenodd" stroke="none"/>
    <path d="M0.8 35.8 L4.55 43.75 5.2 54.2 0.5 44.45 0.8 35.8 Z" fill="none" stroke="#102106" stroke-linecap="round" stroke-linejoin="round" stroke-width="1.7000000000000002"/>
    <path d="M23.55 30.95 L24.65 25.75 33.2 25.0 35.65 30.95 Q35.65 32.55 33.9 33.65 32.1 34.75 29.6 34.75 27.1 34.75 25.3 33.65 23.55 32.55 23.55 30.95" fill="#c96811" fill-rule="evenodd" stroke="none"/>
    <path d="M23.55 30.95 Q23.55 32.55 25.3 33.65 27.1 34.75 29.6 34.75 32.1 34.75 33.9 33.65 35.65 32.55 35.65 30.95 L33.2 25.0 24.65 25.75 23.55 30.95 Z" fill="none" stroke="#2f3d27" stroke-linecap="butt" stroke-linejoin="miter-clip" stroke-miterlimit="4.0" stroke-width="1.7000000000000002"/>
    <path d="M25.4 26.55 L28.1 26.3 Q28.2 29.55 29.1 33.85 27.2 33.75 25.85 32.95 24.5 32.15 24.45 31.05 L25.4 26.55" fill="#9f5108" fill-rule="evenodd" stroke="none"/>
    <path d="M25.95 23.8 Q27.25 23.0 29.05 23.0 30.9 23.0 32.15 23.8 33.45 24.6 33.45 25.75 33.45 26.9 32.15 27.7 30.9 28.5 29.05 28.5 27.25 28.5 25.95 27.7 24.65 26.9 24.65 25.75 24.65 24.6 25.95 23.8" fill="#c96811" fill-rule="evenodd" stroke="none"/>
    <path d="M25.95 23.8 Q27.25 23.0 29.05 23.0 30.9 23.0 32.15 23.8 33.45 24.6 33.45 25.75 33.45 26.9 32.15 27.7 30.9 28.5 29.05 28.5 27.25 28.5 25.95 27.7 24.65 26.9 24.65 25.75 24.65 24.6 25.95 23.8 Z" fill="none" stroke="#2f3d27" stroke-linecap="butt" stroke-linejoin="miter-clip" stroke-miterlimit="4.0" stroke-width="1.7000000000000002"/>
    <path d="M27.05 25.5 L25.55 25.7 Q25.6 25.0 26.55 24.45 27.6 23.85 29.05 23.85 30.55 23.85 31.6 24.45 32.6 25.05 32.6 25.75 32.6 26.25 32.05 26.7 31.45 27.2 30.6 27.4 30.6 26.7 29.6 26.1 28.55 25.5 27.05 25.5" fill="#f18b35" fill-rule="evenodd" stroke="none"/>
    <path d="M5.65 44.7 L20.3 41.85 Q36.2 38.35 42.6 34.95 L43.25 41.65 Q42.7 41.25 41.65 40.9 L37.15 40.6 24.2 43.4 Q12.7 45.5 5.65 44.7" fill="url(#gradient1)" fill-rule="evenodd" stroke="none"/>
  </g>
  <defs>
    <radialGradient cx="0" cy="0" gradientTransform="matrix(0.0536, 0.0, 0.0, -0.0536, -2.5, 42.0)" gradientUnits="userSpaceOnUse" id="gradient0" r="819.2" spreadMethod="pad">
      <stop offset="0.0" stop-color="#6e6f6b"/>
      <stop offset="0.27450980392156865" stop-color="#8e8e8c"/>
      <stop offset="0.5607843137254902" stop-color="#a8a9a7"/>
      <stop offset="0.8117647058823529" stop-color="#b9b9b9"/>
      <stop offset="1.0" stop-color="#bfbfbf"/>
    </radialGradient>
    <linearGradient gradientTransform="matrix(0.0029, -0.0102, -0.0102, -0.0029, 26.0, 37.8)" gradientUnits="userSpaceOnUse" id="gradient1" spreadMethod="pad" x1="-819.2" x2="819.2">
      <stop offset="0.0" stop-color="#bfbfbf"/>
      <stop offset="1.0" stop-color="#ffffff"/>
    </linearGradient>
  </defs>
</svg>
