<?xml version="1.0" encoding="UTF-8" standalone="no"?>
<svg xmlns:xlink="http://www.w3.org/1999/xlink" height="39.6px" width="13.65px" xmlns="http://www.w3.org/2000/svg">
  <g transform="matrix(1.0, 0.0, 0.0, 1.0, 4.15, -0.55)">
    <path d="M-0.45 15.05 L-0.65 6.4 Q-1.2 4.25 -0.4 2.95 0.4 1.7 2.25 1.45 4.35 1.2 5.65 2.25 L6.5 3.35 Q9.3 13.3 8.45 25.65 8.0 31.85 7.0 36.0 L5.65 37.8 Q3.8 39.5 1.45 39.25 -0.95 39.0 -2.35 37.45 L-3.3 35.95 Q-0.7 25.7 -0.45 15.05" fill="#bfbfbf" fill-rule="evenodd" stroke="none"/>
    <path d="M-0.45 15.05 Q-0.7 25.7 -3.3 35.95 L-2.35 37.45 Q-0.95 39.0 1.45 39.25 3.8 39.5 5.65 37.8 L7.0 36.0 Q8.0 31.85 8.45 25.65 9.3 13.3 6.5 3.35 L5.65 2.25 Q4.35 1.2 2.25 1.45 0.4 1.7 -0.4 2.95 -1.2 4.25 -0.65 6.4 L-0.45 15.05 Z" fill="none" stroke="#000000" stroke-linecap="round" stroke-linejoin="round" stroke-width="1.7000000000000002"/>
    <path d="M0.45 15.05 L0.2 6.35 Q-0.3 4.4 0.35 3.45 0.95 2.55 2.35 2.35 L3.55 2.3 4.15 2.5 Q3.55 3.55 4.1 5.3 L4.25 14.05 Q3.95 24.7 1.45 34.85 2.45 36.8 4.95 37.25 3.5 38.55 1.55 38.35 -1.35 38.0 -2.35 35.9 0.15 25.7 0.45 15.05" fill="#aaaaaa" fill-rule="evenodd" stroke="none"/>
    <path d="M5.9 4.6 L5.45 5.3 4.55 5.55 Q4.05 5.5 3.75 5.15 3.45 4.8 3.5 4.35 3.55 3.85 3.95 3.55 4.3 3.2 4.8 3.25 5.3 3.35 5.65 3.7 5.95 4.1 5.9 4.6" fill="#ffffff" fill-rule="evenodd" stroke="none"/>
  </g>
</svg>
