<?xml version="1.0" encoding="UTF-8" standalone="no"?>
<svg xmlns:xlink="http://www.w3.org/1999/xlink" height="32.55px" width="73.4px" xmlns="http://www.w3.org/2000/svg">
  <g transform="matrix(1.0, 0.0, 0.0, 1.0, 0.0, 0.85)">
    <path d="M17.55 7.6 Q20.55 9.4 24.6 10.3 31.55 11.9 42.85 11.75 L47.75 5.65 Q53.3 -0.35 56.4 0.0 58.9 0.3 60.0 3.35 61.1 6.6 63.55 7.15 L67.4 7.75 Q69.7 8.1 70.8 8.7 73.95 10.35 71.45 16.15 69.9 19.7 64.05 23.3 57.75 27.25 49.3 29.2 27.5 34.3 6.9 23.85 L17.55 7.6" fill="#6ebd66" fill-rule="evenodd" stroke="none"/>
    <path d="M17.55 7.6 Q20.55 9.4 24.6 10.3 31.55 11.9 42.85 11.75 L47.75 5.65 Q53.3 -0.35 56.4 0.0 58.9 0.3 60.0 3.35 61.1 6.6 63.55 7.15 L67.4 7.75 Q69.7 8.1 70.8 8.7 73.95 10.35 71.45 16.15 69.9 19.7 64.05 23.3 57.75 27.25 49.3 29.2 27.5 34.3 6.9 23.85" fill="none" stroke="#1b2b16" stroke-linecap="butt" stroke-linejoin="miter-clip" stroke-miterlimit="4.0" stroke-width="1.7000000000000002"/>
    <path d="M32.25 28.4 Q44.3 29.35 56.45 24.6 70.0 19.3 71.45 10.65 72.1 12.35 70.6 16.05 68.45 21.0 58.85 25.35 48.05 30.25 35.5 30.25 21.1 30.25 7.8 23.6 L4.7 21.85 0.0 18.7 Q4.35 20.5 12.3 24.35 20.4 27.5 32.25 28.4" fill="#65af5e" fill-rule="evenodd" stroke="none"/>
    <path d="M7.4 23.35 L6.65 24.7 4.35 23.25 Q1.75 21.3 0.4 18.95 L2.7 20.55 7.4 23.35" fill="#1b2b16" fill-rule="evenodd" stroke="none"/>
    <path d="M18.0 6.85 L17.2 8.25 Q14.35 6.45 12.3 4.85 L18.0 6.85" fill="#1b2b16" fill-rule="evenodd" stroke="none"/>
    <path d="M47.65 8.95 Q51.7 3.45 53.45 1.95 55.15 0.5 56.9 1.05 59.05 1.75 59.2 5.45 59.4 9.15 57.35 10.3 55.65 11.25 51.45 10.2 L47.65 8.95" fill="url(#gradient0)" fill-rule="evenodd" stroke="none"/>
    <path d="M60.05 9.45 Q62.4 8.4 64.95 8.35 L68.35 8.5 Q70.6 8.95 71.65 10.9 72.6 12.7 71.45 15.1 70.6 16.9 68.85 18.55 67.0 20.2 65.15 20.6 L62.9 21.2 60.2 21.65 Q57.85 21.75 56.8 20.15 54.25 16.5 56.5 12.6 57.7 10.5 60.05 9.45" fill="url(#gradient1)" fill-rule="evenodd" stroke="none"/>
    <path d="M28.2 23.1 L27.95 24.55 Q28.0 26.2 29.2 27.0 30.45 27.8 31.7 25.95 L32.7 24.0 32.6 26.2 Q32.0 28.4 29.5 28.35 27.0 28.25 27.35 25.65 L28.2 23.1" fill="#5c9f55" fill-rule="evenodd" stroke="none"/>
    <path d="M24.25 18.7 L24.05 20.15 Q24.05 21.8 25.3 22.6 26.5 23.4 27.75 21.6 L28.75 19.6 28.65 21.8 Q28.05 24.0 25.55 23.95 23.05 23.85 23.4 21.25 L24.25 18.7" fill="#5c9f55" fill-rule="evenodd" stroke="none"/>
    <path d="M33.2 25.05 L33.5 21.7 33.6 23.55 Q34.1 25.5 35.8 26.1 37.55 26.75 38.55 24.2 L39.2 21.55 39.7 24.25 Q39.55 27.05 36.5 27.65 33.45 28.25 33.2 25.05" fill="#5c9f55" fill-rule="evenodd" stroke="none"/>
  </g>
  <defs>
    <radialGradient cx="0" cy="0" gradientTransform="matrix(0.0195, 0.0, 0.0, -0.0195, 54.95, -0.95)" gradientUnits="userSpaceOnUse" id="gradient0" r="819.2" spreadMethod="pad">
      <stop offset="0.0" stop-color="#9dee93"/>
      <stop offset="0.12941176470588237" stop-color="#8dde84"/>
      <stop offset="0.3176470588235294" stop-color="#7ccb73"/>
      <stop offset="0.5215686274509804" stop-color="#71c069"/>
      <stop offset="0.7568627450980392" stop-color="#6ebd66"/>
    </radialGradient>
    <radialGradient cx="0" cy="0" gradientTransform="matrix(0.0161, 0.0158, 0.0158, -0.0161, 70.65, 11.8)" gradientUnits="userSpaceOnUse" id="gradient1" r="819.2" spreadMethod="pad">
      <stop offset="0.0" stop-color="#9dee93"/>
      <stop offset="0.12941176470588237" stop-color="#8dde84"/>
      <stop offset="0.3176470588235294" stop-color="#7ccb73"/>
      <stop offset="0.5215686274509804" stop-color="#71c069"/>
      <stop offset="0.7568627450980392" stop-color="#6ebd66"/>
    </radialGradient>
  </defs>
</svg>
