<?xml version="1.0" encoding="UTF-8" standalone="no"?>
<svg xmlns:xlink="http://www.w3.org/1999/xlink" height="452.0px" width="700.0px" xmlns="http://www.w3.org/2000/svg">
  <g transform="matrix(1.0, 0.0, 0.0, 1.0, 350.0, 452.0)">
    <path d="M350.0 -405.0 L350.0 -23.0 -297.0 -23.0 -297.0 -24.0 -299.0 -24.0 -299.0 -25.0 -301.0 -25.0 -301.0 -26.0 -303.0 -26.0 -303.0 -27.0 -306.0 -27.0 -306.0 -28.0 -311.0 -28.0 -311.0 -29.0 -310.0 -29.0 -310.0 -30.0 -309.0 -30.0 -309.0 -388.0 -310.0 -388.0 -310.0 -389.0 -311.0 -389.0 -311.0 -390.0 -312.0 -390.0 -312.0 -391.0 -350.0 -391.0 -350.0 -397.0 -127.0 -397.0 -127.0 -398.0 -126.0 -398.0 -126.0 -397.0 130.0 -397.0 130.0 -398.0 131.0 -398.0 131.0 -436.0 130.0 -436.0 130.0 -437.0 -126.0 -437.0 -126.0 -441.0 -127.0 -441.0 -127.0 -442.0 -145.0 -442.0 -145.0 -444.0 149.0 -444.0 149.0 -445.0 150.0 -445.0 150.0 -452.0 173.0 -452.0 173.0 -445.0 174.0 -445.0 174.0 -444.0 331.0 -444.0 331.0 -443.0 332.0 -443.0 332.0 -406.0 333.0 -406.0 333.0 -405.0 350.0 -405.0 M33.0 -3.0 L32.0 -3.0 32.0 -2.0 31.0 -2.0 31.0 -1.0 30.0 -1.0 30.0 0.0 -100.0 0.0 -100.0 -1.0 -101.0 -1.0 -101.0 -2.0 -102.0 -2.0 -102.0 -3.0 -103.0 -3.0 -103.0 -4.0 -283.0 -4.0 -283.0 -5.0 350.0 -5.0 350.0 0.0 230.0 0.0 230.0 -1.0 229.0 -1.0 229.0 -2.0 228.0 -2.0 228.0 -3.0 227.0 -3.0 227.0 -4.0 33.0 -4.0 33.0 -3.0 M-239.0 -442.0 L-330.0 -442.0 -330.0 -444.0 -239.0 -444.0 -239.0 -442.0 M-233.0 -444.0 L-151.0 -444.0 -151.0 -442.0 -233.0 -442.0 -233.0 -444.0 M-336.0 -442.0 L-350.0 -442.0 -350.0 -444.0 -336.0 -444.0 -336.0 -442.0" fill="#ff0000" fill-rule="evenodd" stroke="none"/>
  </g>
</svg>
