<?xml version="1.0" encoding="UTF-8" standalone="no"?>
<svg xmlns:xlink="http://www.w3.org/1999/xlink" height="21.0px" width="242.0px" xmlns="http://www.w3.org/2000/svg">
  <g transform="matrix(1.0, 0.0, 0.0, 1.0, 121.0, -4.0)">
    <path d="M68.0 4.0 L120.0 4.0 120.0 5.0 121.0 5.0 121.0 24.0 89.0 24.0 68.0 24.0 68.0 4.0 M-89.0 24.0 L-121.0 24.0 -121.0 5.0 -120.0 5.0 -120.0 4.0 -68.0 4.0 -68.0 24.0 -89.0 24.0" fill="#a7a7a7" fill-rule="evenodd" stroke="none"/>
    <path d="M68.0 4.0 L68.0 24.0 36.0 24.0 -36.0 24.0 -68.0 24.0 -68.0 4.0 68.0 4.0" fill="#a8a8a8" fill-rule="evenodd" stroke="none"/>
    <path d="M68.0 24.0 L89.0 24.0 89.0 25.0 36.0 25.0 36.0 24.0 68.0 24.0 M-36.0 25.0 L-89.0 25.0 -89.0 24.0 -68.0 24.0 -36.0 24.0 -36.0 25.0" fill="#787878" fill-rule="evenodd" stroke="none"/>
    <path d="M36.0 25.0 L-36.0 25.0 -36.0 24.0 36.0 24.0 36.0 25.0" fill="#797979" fill-rule="evenodd" stroke="none"/>
  </g>
</svg>
