<?xml version="1.0" encoding="UTF-8" standalone="no"?>
<svg xmlns:xlink="http://www.w3.org/1999/xlink" height="23.0px" width="56.0px" xmlns="http://www.w3.org/2000/svg">
  <g transform="matrix(1.0, 0.0, 0.0, 1.0, 0.0, 0.0)">
    <path d="M51.0 1.0 L52.0 1.0 52.0 2.0 53.0 2.0 53.0 3.0 54.0 3.0 54.0 4.0 55.0 4.0 55.0 5.0 56.0 5.0 56.0 18.0 55.0 18.0 55.0 19.0 54.0 19.0 54.0 20.0 53.0 20.0 53.0 21.0 52.0 21.0 52.0 22.0 51.0 22.0 51.0 23.0 5.0 23.0 5.0 22.0 4.0 22.0 4.0 21.0 3.0 21.0 3.0 20.0 2.0 20.0 2.0 19.0 1.0 19.0 1.0 18.0 0.0 18.0 0.0 5.0 1.0 5.0 1.0 4.0 2.0 4.0 2.0 3.0 3.0 3.0 3.0 2.0 4.0 2.0 4.0 1.0 5.0 1.0 5.0 0.0 51.0 0.0 51.0 1.0 5.0 1.0 5.0 2.0 4.0 2.0 4.0 3.0 3.0 3.0 3.0 4.0 2.0 4.0 2.0 5.0 1.0 5.0 1.0 18.0 2.0 18.0 2.0 19.0 3.0 19.0 3.0 20.0 4.0 20.0 4.0 21.0 5.0 21.0 5.0 22.0 51.0 22.0 51.0 21.0 52.0 21.0 52.0 20.0 53.0 20.0 53.0 19.0 54.0 19.0 54.0 18.0 55.0 18.0 55.0 6.0 55.0 5.0 54.0 5.0 54.0 4.0 53.0 4.0 53.0 3.0 52.0 3.0 52.0 2.0 51.0 2.0 51.0 1.0 M51.0 2.0 L51.0 3.0 52.0 3.0 52.0 4.0 53.0 4.0 53.0 5.0 54.0 5.0 54.0 6.0 54.0 18.0 53.0 18.0 53.0 17.0 53.0 12.0 53.0 6.0 53.0 5.0 52.0 5.0 52.0 4.0 51.0 4.0 51.0 3.0 5.0 3.0 5.0 4.0 4.0 4.0 4.0 5.0 3.0 5.0 3.0 6.0 3.0 12.0 3.0 17.0 3.0 18.0 4.0 18.0 4.0 19.0 5.0 19.0 5.0 20.0 51.0 20.0 51.0 19.0 52.0 19.0 52.0 18.0 53.0 18.0 53.0 19.0 52.0 19.0 52.0 20.0 51.0 20.0 51.0 21.0 5.0 21.0 5.0 20.0 4.0 20.0 4.0 19.0 3.0 19.0 3.0 18.0 2.0 18.0 2.0 5.0 3.0 5.0 3.0 4.0 4.0 4.0 4.0 3.0 5.0 3.0 5.0 2.0 51.0 2.0" fill="#000000" fill-rule="evenodd" stroke="none"/>
    <path d="M51.0 1.0 L51.0 2.0 52.0 2.0 52.0 3.0 53.0 3.0 53.0 4.0 54.0 4.0 54.0 5.0 55.0 5.0 55.0 6.0 54.0 6.0 54.0 5.0 53.0 5.0 53.0 4.0 52.0 4.0 52.0 3.0 51.0 3.0 51.0 2.0 5.0 2.0 5.0 1.0 51.0 1.0" fill="#ffdf93" fill-rule="evenodd" stroke="none"/>
    <path d="M53.0 5.0 L53.0 6.0 52.0 6.0 52.0 5.0 53.0 5.0 M52.0 4.0 L52.0 5.0 51.0 5.0 51.0 4.0 52.0 4.0 M51.0 3.0 L51.0 4.0 5.0 4.0 5.0 5.0 4.0 5.0 4.0 6.0 3.0 6.0 3.0 5.0 4.0 5.0 4.0 4.0 5.0 4.0 5.0 3.0 51.0 3.0" fill="#787193" fill-rule="evenodd" stroke="none"/>
    <path d="M53.0 6.0 L53.0 12.0 3.0 12.0 3.0 6.0 4.0 6.0 4.0 5.0 5.0 5.0 5.0 4.0 51.0 4.0 51.0 5.0 52.0 5.0 52.0 6.0 53.0 6.0" fill="#5f5a71" fill-rule="evenodd" stroke="none"/>
    <path d="M55.0 6.0 L55.0 18.0 54.0 18.0 54.0 19.0 53.0 19.0 53.0 20.0 52.0 20.0 52.0 21.0 51.0 21.0 51.0 22.0 5.0 22.0 5.0 21.0 4.0 21.0 4.0 20.0 3.0 20.0 3.0 19.0 2.0 19.0 2.0 18.0 1.0 18.0 1.0 5.0 2.0 5.0 2.0 4.0 3.0 4.0 3.0 3.0 4.0 3.0 4.0 2.0 5.0 2.0 5.0 3.0 4.0 3.0 4.0 4.0 3.0 4.0 3.0 5.0 2.0 5.0 2.0 18.0 3.0 18.0 3.0 19.0 4.0 19.0 4.0 20.0 5.0 20.0 5.0 21.0 51.0 21.0 51.0 20.0 52.0 20.0 52.0 19.0 53.0 19.0 53.0 18.0 54.0 18.0 54.0 6.0 55.0 6.0" fill="#d8ba77" fill-rule="evenodd" stroke="none"/>
    <path d="M53.0 12.0 L53.0 17.0 52.0 17.0 52.0 18.0 51.0 18.0 51.0 19.0 5.0 19.0 5.0 18.0 4.0 18.0 4.0 17.0 3.0 17.0 3.0 12.0 53.0 12.0" fill="#3d3a49" fill-rule="evenodd" stroke="none"/>
    <path d="M53.0 17.0 L53.0 18.0 52.0 18.0 52.0 17.0 53.0 17.0 M3.0 17.0 L4.0 17.0 4.0 18.0 5.0 18.0 5.0 19.0 51.0 19.0 51.0 18.0 52.0 18.0 52.0 19.0 51.0 19.0 51.0 20.0 5.0 20.0 5.0 19.0 4.0 19.0 4.0 18.0 3.0 18.0 3.0 17.0" fill="#1f1c29" fill-rule="evenodd" stroke="none"/>
    <path d="M42.1 8.4 L42.1 10.15 41.3 10.15 41.3 11.05 39.5 11.05 39.5 10.15 41.3 10.15 41.3 8.4 42.1 8.4 M42.15 10.15 L43.95 10.15 43.95 11.1 42.15 11.1 42.15 13.75 41.3 13.75 41.3 11.1 42.15 11.1 42.15 10.15 M46.5 10.25 L49.2 10.25 49.2 11.1 46.55 11.1 46.55 12.05 48.25 12.05 48.25 12.95 46.5 12.95 46.5 13.75 45.7 13.75 45.7 11.1 46.5 11.1 46.5 10.25 M50.1 11.15 L50.1 12.0 49.2 12.0 49.2 11.15 50.1 11.15 M50.1 14.65 L46.55 14.65 46.55 13.8 50.1 13.8 50.1 14.65 M43.0 14.65 L42.2 14.65 42.2 13.85 43.0 13.85 43.0 14.65 M31.55 11.15 L31.55 12.0 30.65 12.0 30.65 11.15 31.55 11.15 M34.25 10.25 L36.9 10.25 36.9 11.05 34.25 11.05 34.25 10.25 M30.65 11.1 L27.95 11.1 27.95 13.75 27.15 13.75 27.15 11.1 27.95 11.1 27.95 10.25 30.65 10.25 30.65 11.1 M36.9 11.15 L37.75 11.15 37.75 14.65 33.3 14.65 33.3 12.95 34.2 12.95 34.2 12.05 36.9 12.05 36.9 11.15 M21.8 11.1 L21.8 10.15 24.5 10.15 24.5 11.1 21.8 11.1 21.8 13.7 21.0 13.7 21.0 11.1 21.8 11.1 M25.4 11.15 L25.4 13.75 24.55 13.75 24.55 14.65 21.85 14.65 21.85 13.75 24.55 13.75 24.55 11.15 25.4 11.15 M28.0 13.85 L30.65 13.85 30.65 14.65 28.0 14.65 28.0 13.85 M34.25 12.95 L34.25 13.75 36.9 13.75 36.9 12.95 34.25 12.95 M10.45 11.1 L9.55 11.1 9.55 11.95 8.65 11.95 8.65 12.8 7.8 12.8 7.8 12.0 6.8 12.0 6.8 14.65 6.0 14.65 6.0 8.4 9.5 8.4 9.5 9.25 6.85 9.25 6.85 11.05 9.55 11.05 9.55 9.3 10.45 9.3 10.45 11.1 M13.05 10.25 L15.75 10.25 15.75 11.1 13.1 11.1 13.1 12.05 14.8 12.05 14.8 12.95 13.05 12.95 13.05 13.75 12.25 13.75 12.25 11.1 13.05 11.1 13.05 10.25 M16.65 12.0 L15.75 12.0 15.75 11.15 16.65 11.15 16.65 12.0 M19.2 8.4 L19.2 14.65 18.4 14.65 18.4 8.4 19.2 8.4 M9.6 13.75 L10.45 13.75 10.45 14.65 9.6 14.65 9.6 13.75 M8.7 12.8 L9.55 12.8 9.55 13.75 8.7 13.75 8.7 12.8 M16.65 14.65 L13.1 14.65 13.1 13.8 16.65 13.8 16.65 14.65" fill="#ffffff" fill-rule="evenodd" stroke="none"/>
  </g>
</svg>
