<?xml version="1.0" encoding="UTF-8" standalone="no"?>
<svg xmlns:xlink="http://www.w3.org/1999/xlink" height="15.0px" width="15.0px" xmlns="http://www.w3.org/2000/svg">
  <g transform="matrix(1.0, 0.0, 0.0, 1.0, 7.5, 7.5)">
    <path d="M2.25 -6.75 L3.75 -6.75 3.75 -6.0 5.25 -6.0 5.25 -5.25 6.0 -5.25 6.0 -3.75 6.75 -3.75 6.75 -2.25 7.5 -2.25 7.5 2.25 6.75 2.25 6.75 3.75 6.0 3.75 6.0 5.25 5.25 5.25 5.25 6.0 3.75 6.0 3.75 6.75 2.25 6.75 2.25 7.5 -2.25 7.5 -2.25 6.75 -3.75 6.75 -3.75 6.0 -5.25 6.0 -5.25 5.25 -6.0 5.25 -6.0 3.75 -6.75 3.75 -6.75 2.25 -7.5 2.25 -7.5 -2.25 -6.75 -2.25 -6.75 -3.75 -6.0 -3.75 -6.0 -5.25 -5.25 -5.25 -5.25 -6.0 -3.75 -6.0 -3.75 -6.75 -2.25 -6.75 -2.25 -7.5 2.25 -7.5 2.25 -6.75 M4.5 -3.0 L4.5 -2.25 3.75 -2.25 3.75 -1.5 3.0 -1.5 3.0 -0.75 2.25 -0.75 2.25 0.0 1.5 0.0 1.5 0.75 0.75 0.75 0.75 1.5 0.0 1.5 0.0 2.25 -0.75 2.25 -0.75 3.0 -1.5 3.0 -1.5 3.75 -2.25 3.75 -2.25 4.5 -3.0 4.5 -3.0 5.25 -1.5 5.25 -1.5 6.0 1.5 6.0 1.5 5.25 3.0 5.25 3.0 4.5 3.75 4.5 3.75 3.75 4.5 3.75 4.5 2.25 5.25 2.25 5.25 -3.0 4.5 -3.0 M3.0 -3.75 L3.0 -5.25 -2.25 -5.25 -2.25 -4.5 -3.75 -4.5 -3.75 -3.75 -4.5 -3.75 -4.5 -2.25 -5.25 -2.25 -5.25 3.0 -3.75 3.0 -3.75 2.25 -3.0 2.25 -3.0 1.5 -2.25 1.5 -2.25 0.75 -1.5 0.75 -1.5 0.0 -0.75 0.0 -0.75 -0.75 0.0 -0.75 0.0 -1.5 0.75 -1.5 0.75 -2.25 1.5 -2.25 1.5 -3.0 2.25 -3.0 2.25 -3.75 3.0 -3.75" fill="#258507" fill-rule="evenodd" stroke="none"/>
  </g>
</svg>
