<?xml version="1.0" encoding="UTF-8" standalone="no"?>
<svg xmlns:xlink="http://www.w3.org/1999/xlink" height="49.0px" width="183.0px" xmlns="http://www.w3.org/2000/svg">
  <g transform="matrix(1.0, 0.0, 0.0, 1.0, 0.0, 0.0)">
    <path d="M3.95 3.2 L2.65 3.2 2.65 45.8 3.95 45.8 3.95 46.9 179.05 46.9 179.05 45.8 180.35 45.8 180.35 3.2 179.05 3.2 179.05 2.15 3.95 2.15 3.95 3.2 M2.65 1.1 L2.65 0.0 180.35 0.0 180.35 1.1 181.7 1.1 181.7 2.15 183.0 2.15 183.0 46.9 181.7 46.9 181.7 47.95 180.35 47.95 180.35 49.0 2.65 49.0 2.65 47.95 1.3 47.95 1.3 46.9 0.0 46.9 0.0 2.15 1.3 2.15 1.3 1.1 2.65 1.1" fill="#252525" fill-rule="evenodd" stroke="none"/>
    <path d="M3.95 3.2 L3.95 2.15 179.05 2.15 179.05 3.2 180.35 3.2 180.35 45.8 179.05 45.8 179.05 46.9 3.95 46.9 3.95 45.8 2.65 45.8 2.65 3.2 3.95 3.2" fill="#3e2616" fill-rule="evenodd" stroke="none"/>
  </g>
</svg>
