<?xml version="1.0" encoding="UTF-8" standalone="no"?>
<svg xmlns:xlink="http://www.w3.org/1999/xlink" height="12.0px" width="12.0px" xmlns="http://www.w3.org/2000/svg">
  <g transform="matrix(1.0, 0.0, 0.0, 1.0, 0.0, 0.0)">
    <path d="M11.0 8.0 L10.0 8.0 10.0 10.0 8.0 10.0 8.0 9.0 9.0 9.0 9.0 8.0 10.0 8.0 10.0 7.0 10.0 4.0 11.0 4.0 11.0 8.0 M8.0 3.0 L8.0 2.0 4.0 2.0 4.0 3.0 3.0 3.0 3.0 4.0 2.0 4.0 2.0 2.0 4.0 2.0 4.0 1.0 8.0 1.0 8.0 2.0 10.0 2.0 10.0 4.0 9.0 4.0 9.0 3.0 8.0 3.0 M2.0 8.0 L1.0 8.0 1.0 4.0 2.0 4.0 2.0 7.0 2.0 8.0 3.0 8.0 3.0 9.0 4.0 9.0 4.0 10.0 2.0 10.0 2.0 8.0 M4.0 10.0 L8.0 10.0 8.0 11.0 4.0 11.0 4.0 10.0" fill="#000000" fill-rule="evenodd" stroke="none"/>
    <path d="M11.0 8.0 L11.0 10.0 10.0 10.0 10.0 8.0 11.0 8.0 11.0 4.0 10.0 4.0 10.0 2.0 8.0 2.0 8.0 1.0 4.0 1.0 4.0 2.0 2.0 2.0 2.0 4.0 1.0 4.0 1.0 8.0 2.0 8.0 2.0 10.0 4.0 10.0 4.0 11.0 8.0 11.0 8.0 10.0 10.0 10.0 10.0 11.0 8.0 11.0 8.0 12.0 4.0 12.0 4.0 11.0 2.0 11.0 2.0 10.0 1.0 10.0 1.0 8.0 0.0 8.0 0.0 4.0 1.0 4.0 1.0 2.0 2.0 2.0 2.0 1.0 4.0 1.0 4.0 0.0 8.0 0.0 8.0 1.0 10.0 1.0 10.0 2.0 11.0 2.0 11.0 4.0 12.0 4.0 12.0 8.0 11.0 8.0 M4.0 3.0 L4.0 2.0 8.0 2.0 8.0 3.0 8.0 4.0 4.0 4.0 4.0 3.0" fill="#ffffff" fill-rule="evenodd" stroke="none"/>
    <path d="M10.0 4.0 L10.0 7.0 9.0 7.0 9.0 8.0 8.0 8.0 8.0 9.0 4.0 9.0 4.0 8.0 3.0 8.0 3.0 7.0 2.0 7.0 2.0 4.0 3.0 4.0 3.0 3.0 4.0 3.0 4.0 4.0 8.0 4.0 8.0 3.0 9.0 3.0 9.0 4.0 10.0 4.0" fill="#defd4a" fill-rule="evenodd" stroke="none"/>
    <path d="M10.0 7.0 L10.0 8.0 9.0 8.0 9.0 9.0 8.0 9.0 8.0 10.0 4.0 10.0 4.0 9.0 3.0 9.0 3.0 8.0 2.0 8.0 2.0 7.0 3.0 7.0 3.0 8.0 4.0 8.0 4.0 9.0 8.0 9.0 8.0 8.0 9.0 8.0 9.0 7.0 10.0 7.0" fill="#62d410" fill-rule="evenodd" stroke="none"/>
  </g>
</svg>
