<?xml version="1.0" encoding="UTF-8" standalone="no"?>
<svg xmlns:xlink="http://www.w3.org/1999/xlink" height="10.0px" width="14.0px" xmlns="http://www.w3.org/2000/svg">
  <g transform="matrix(1.0, 0.0, 0.0, 1.0, 0.0, 0.0)">
    <path d="M13.0 2.0 L12.0 2.0 12.0 3.0 11.0 3.0 11.0 5.0 10.0 5.0 10.0 6.0 9.0 6.0 9.0 7.0 8.0 7.0 8.0 8.0 7.0 8.0 7.0 9.0 6.0 9.0 6.0 10.0 5.0 10.0 5.0 9.0 4.0 9.0 4.0 8.0 3.0 8.0 3.0 6.0 2.0 6.0 2.0 5.0 1.0 5.0 1.0 3.0 0.0 3.0 0.0 2.0 1.0 2.0 1.0 3.0 2.0 3.0 2.0 4.0 4.0 4.0 4.0 5.0 5.0 5.0 5.0 6.0 6.0 6.0 6.0 5.0 7.0 5.0 7.0 4.0 8.0 4.0 8.0 3.0 10.0 3.0 10.0 2.0 11.0 2.0 11.0 1.0 13.0 1.0 13.0 0.0 14.0 0.0 14.0 1.0 13.0 1.0 13.0 2.0" fill="#211891" fill-rule="evenodd" stroke="none"/>
  </g>
</svg>
