<?xml version="1.0" encoding="UTF-8" standalone="no"?>
<svg xmlns:xlink="http://www.w3.org/1999/xlink" height="13.0px" width="13.0px" xmlns="http://www.w3.org/2000/svg">
  <g transform="matrix(1.0, 0.0, 0.0, 1.0, 6.5, 6.5)">
    <path d="M1.5 -1.5 L1.5 -3.5 2.5 -3.5 2.5 -2.5 3.5 -2.5 3.5 -1.5 2.5 -1.5 1.5 -1.5 M-2.5 -1.5 L-3.5 -1.5 -3.5 -2.5 -2.5 -2.5 -2.5 -3.5 -1.5 -3.5 -1.5 -1.5 -2.5 -1.5 M2.5 1.5 L2.5 2.5 -2.5 2.5 -2.5 1.5 2.5 1.5 M2.5 2.5 L3.5 2.5 3.5 3.5 2.5 3.5 2.5 2.5 M-2.5 2.5 L-2.5 3.5 -3.5 3.5 -3.5 2.5 -2.5 2.5" fill="#000000" fill-rule="evenodd" stroke="none"/>
    <path d="M2.5 -1.5 L2.5 -0.5 3.5 -0.5 3.5 0.5 2.5 0.5 2.5 -0.5 -2.5 -0.5 -2.5 0.5 -3.5 0.5 -3.5 -0.5 -2.5 -0.5 -2.5 -1.5 -1.5 -1.5 1.5 -1.5 2.5 -1.5" fill="#ff3300" fill-rule="evenodd" stroke="none"/>
    <path d="M4.5 -4.5 L4.5 -3.5 5.5 -3.5 5.5 -0.5 3.5 -0.5 2.5 -0.5 2.5 -1.5 3.5 -1.5 3.5 -2.5 2.5 -2.5 2.5 -3.5 1.5 -3.5 1.5 -1.5 -1.5 -1.5 -1.5 -3.5 -2.5 -3.5 -2.5 -2.5 -3.5 -2.5 -3.5 -1.5 -2.5 -1.5 -2.5 -0.5 -3.5 -0.5 -5.5 -0.5 -5.5 -2.5 -4.5 -2.5 -4.5 -3.5 -3.5 -3.5 -3.5 -4.5 -3.5 -5.5 3.5 -5.5 3.5 -4.5 4.5 -4.5 M5.5 1.5 L5.5 3.5 4.5 3.5 4.5 4.5 3.5 4.5 3.5 5.5 -3.5 5.5 -3.5 4.5 -4.5 4.5 -4.5 3.5 -5.5 3.5 -5.5 1.5 -3.5 1.5 -3.5 0.5 -2.5 0.5 -2.5 -0.5 2.5 -0.5 2.5 0.5 3.5 0.5 3.5 1.5 5.5 1.5 M2.5 1.5 L-2.5 1.5 -2.5 2.5 2.5 2.5 2.5 1.5 M2.5 2.5 L2.5 3.5 3.5 3.5 3.5 2.5 2.5 2.5 M-2.5 2.5 L-3.5 2.5 -3.5 3.5 -2.5 3.5 -2.5 2.5" fill="#ff9d9d" fill-rule="evenodd" stroke="none"/>
    <path d="M3.5 -0.5 L5.5 -0.5 5.5 1.5 3.5 1.5 3.5 0.5 3.5 -0.5 M-3.5 -4.5 L-3.5 -3.5 -4.5 -3.5 -4.5 -2.5 -5.5 -2.5 -5.5 -3.5 -4.5 -3.5 -4.5 -4.5 -3.5 -4.5 M-5.5 -0.5 L-3.5 -0.5 -3.5 0.5 -3.5 1.5 -5.5 1.5 -5.5 -0.5" fill="#ff8080" fill-rule="evenodd" stroke="none"/>
    <path d="M5.5 -3.5 L4.5 -3.5 4.5 -4.5 5.5 -4.5 5.5 -3.5 6.5 -3.5 6.5 3.5 5.5 3.5 5.5 4.5 4.5 4.5 4.5 5.5 3.5 5.5 3.5 6.5 -3.5 6.5 -3.5 5.5 -4.5 5.5 -4.5 4.5 -5.5 4.5 -5.5 3.5 -6.5 3.5 -6.5 -3.5 -5.5 -3.5 -5.5 -4.5 -4.5 -4.5 -4.5 -5.5 -3.5 -5.5 -3.5 -6.5 3.5 -6.5 3.5 -5.5 -3.5 -5.5 -3.5 -4.5 -4.5 -4.5 -4.5 -3.5 -5.5 -3.5 -5.5 -2.5 -5.5 -0.5 -5.5 1.5 -5.5 3.5 -4.5 3.5 -4.5 4.5 -3.5 4.5 -3.5 5.5 3.5 5.5 3.5 4.5 4.5 4.5 4.5 3.5 5.5 3.5 5.5 1.5 5.5 -0.5 5.5 -3.5 M3.5 -5.5 L4.5 -5.5 4.5 -4.5 3.5 -4.5 3.5 -5.5" fill="#ff5959" fill-rule="evenodd" stroke="none"/>
  </g>
</svg>
