<?xml version="1.0" encoding="UTF-8" standalone="no"?>
<svg xmlns:xlink="http://www.w3.org/1999/xlink" height="12.0px" width="5.0px" xmlns="http://www.w3.org/2000/svg">
  <g transform="matrix(1.0, 0.0, 0.0, 1.0, 2.5, 2.0)">
    <path d="M1.5 0.0 L1.5 -1.0 0.5 -1.0 -1.5 -1.0 -1.5 0.0 -2.5 0.0 -2.5 -2.0 2.5 -2.0 2.5 0.0 1.5 0.0 1.5 8.0 0.5 8.0 0.5 10.0 -0.5 10.0 -0.5 8.0 -1.5 8.0 -1.5 0.0 -0.5 0.0 -0.5 4.0 -0.5 5.0 -0.5 6.0 -0.5 7.0 -0.5 8.0 0.5 8.0 0.5 7.0 0.5 6.0 0.5 5.0 0.5 4.0 0.5 0.0 1.5 0.0" fill="#2d200d" fill-rule="evenodd" stroke="none"/>
    <path d="M0.5 -1.0 L1.5 -1.0 1.5 0.0 0.5 0.0 0.5 -1.0 M-0.5 0.0 L0.5 0.0 0.5 4.0 -0.5 4.0 -0.5 0.0 M0.5 5.0 L0.5 6.0 -0.5 6.0 -0.5 5.0 0.5 5.0 M0.5 7.0 L0.5 8.0 -0.5 8.0 -0.5 7.0 0.5 7.0" fill="#c3853c" fill-rule="evenodd" stroke="none"/>
    <path d="M-1.5 0.0 L-1.5 -1.0 0.5 -1.0 0.5 0.0 -0.5 0.0 -1.5 0.0 M0.5 4.0 L0.5 5.0 -0.5 5.0 -0.5 4.0 0.5 4.0 M0.5 6.0 L0.5 7.0 -0.5 7.0 -0.5 6.0 0.5 6.0" fill="#a06a2a" fill-rule="evenodd" stroke="none"/>
  </g>
</svg>
