<?xml version="1.0" encoding="UTF-8" standalone="no"?>
<svg xmlns:xlink="http://www.w3.org/1999/xlink" height="6.0px" width="5.0px" xmlns="http://www.w3.org/2000/svg">
  <g transform="matrix(1.0, 0.0, 0.0, 1.0, 2.5, 0.5)">
    <path d="M1.5 2.5 L2.5 2.5 2.5 3.5 1.5 3.5 1.5 4.5 0.5 4.5 0.5 5.5 -0.5 5.5 -0.5 4.5 -1.5 4.5 -1.5 3.5 -2.5 3.5 -2.5 2.5 -0.5 2.5 1.5 2.5" fill="#2d200d" fill-rule="evenodd" stroke="none"/>
    <path d="M0.5 0.5 L1.5 0.5 1.5 2.5 -0.5 2.5 -0.5 0.5 0.5 0.5" fill="#ffffff" fill-rule="evenodd" stroke="none"/>
    <path d="M-0.5 0.5 L-0.5 -0.5 0.5 -0.5 0.5 0.5 -0.5 0.5" fill="#fef1c2" fill-rule="evenodd" stroke="none"/>
  </g>
</svg>
