<?xml version="1.0" encoding="UTF-8" standalone="no"?>
<svg xmlns:xlink="http://www.w3.org/1999/xlink" height="19.0px" width="155.0px" xmlns="http://www.w3.org/2000/svg">
  <g transform="matrix(1.0, 0.0, 0.0, 1.0, -7.0, -9.0)">
    <path d="M162.0 18.0 L161.0 18.0 161.0 22.0 160.0 22.0 160.0 24.0 159.0 24.0 159.0 25.0 158.0 25.0 158.0 26.0 156.0 26.0 156.0 27.0 153.0 27.0 153.0 28.0 150.0 28.0 150.0 27.0 147.0 27.0 147.0 26.0 142.0 26.0 142.0 27.0 141.0 27.0 141.0 28.0 140.0 28.0 140.0 27.0 139.0 27.0 139.0 26.0 134.0 26.0 134.0 27.0 133.0 27.0 133.0 26.0 132.0 26.0 132.0 25.0 128.0 25.0 128.0 26.0 127.0 26.0 127.0 27.0 126.0 27.0 126.0 26.0 120.0 26.0 120.0 27.0 118.0 27.0 118.0 26.0 114.0 26.0 114.0 27.0 113.0 27.0 113.0 26.0 111.0 26.0 111.0 25.0 107.0 25.0 107.0 26.0 106.0 26.0 106.0 27.0 105.0 27.0 105.0 26.0 99.0 26.0 99.0 27.0 97.0 27.0 97.0 26.0 93.0 26.0 93.0 27.0 92.0 27.0 92.0 26.0 90.0 26.0 90.0 25.0 86.0 25.0 86.0 26.0 85.0 26.0 85.0 27.0 84.0 27.0 84.0 26.0 78.0 26.0 78.0 27.0 76.0 27.0 76.0 26.0 72.0 26.0 72.0 27.0 71.0 27.0 71.0 26.0 69.0 26.0 69.0 25.0 65.0 25.0 65.0 26.0 64.0 26.0 64.0 27.0 63.0 27.0 63.0 26.0 57.0 26.0 57.0 27.0 55.0 27.0 55.0 26.0 51.0 26.0 51.0 27.0 50.0 27.0 50.0 26.0 48.0 26.0 48.0 25.0 44.0 25.0 44.0 26.0 43.0 26.0 43.0 27.0 42.0 27.0 42.0 26.0 36.0 26.0 36.0 27.0 35.0 27.0 35.0 26.0 30.0 26.0 30.0 27.0 29.0 27.0 29.0 28.0 28.0 28.0 28.0 27.0 27.0 27.0 27.0 26.0 22.0 26.0 22.0 27.0 19.0 27.0 19.0 28.0 16.0 28.0 16.0 27.0 13.0 27.0 13.0 26.0 11.0 26.0 11.0 25.0 10.0 25.0 10.0 24.0 9.0 24.0 9.0 22.0 8.0 22.0 8.0 18.0 7.0 18.0 7.0 17.0 9.0 17.0 9.0 13.0 10.0 13.0 10.0 12.0 12.0 12.0 12.0 11.0 14.0 11.0 14.0 10.0 16.0 10.0 16.0 9.0 19.0 9.0 19.0 10.0 22.0 10.0 22.0 11.0 27.0 11.0 27.0 10.0 28.0 10.0 28.0 9.0 29.0 9.0 29.0 10.0 30.0 10.0 30.0 11.0 35.0 11.0 35.0 10.0 37.0 10.0 37.0 11.0 44.0 11.0 44.0 10.0 46.0 10.0 46.0 11.0 51.0 11.0 51.0 12.0 54.0 12.0 54.0 11.0 57.0 11.0 57.0 10.0 58.0 10.0 58.0 11.0 65.0 11.0 65.0 10.0 67.0 10.0 67.0 11.0 72.0 11.0 72.0 12.0 75.0 12.0 75.0 11.0 78.0 11.0 78.0 10.0 79.0 10.0 79.0 11.0 86.0 11.0 86.0 10.0 88.0 10.0 88.0 11.0 93.0 11.0 93.0 12.0 96.0 12.0 96.0 11.0 99.0 11.0 99.0 10.0 100.0 10.0 100.0 11.0 107.0 11.0 107.0 10.0 109.0 10.0 109.0 11.0 114.0 11.0 114.0 12.0 117.0 12.0 117.0 11.0 120.0 11.0 120.0 10.0 121.0 10.0 121.0 11.0 128.0 11.0 128.0 10.0 130.0 10.0 130.0 11.0 139.0 11.0 139.0 10.0 140.0 10.0 140.0 9.0 141.0 9.0 141.0 10.0 142.0 10.0 142.0 11.0 147.0 11.0 147.0 10.0 150.0 10.0 150.0 9.0 153.0 9.0 153.0 10.0 155.0 10.0 155.0 11.0 157.0 11.0 157.0 12.0 159.0 12.0 159.0 13.0 160.0 13.0 160.0 17.0 162.0 17.0 162.0 18.0" fill="#ffffff" fill-rule="evenodd" stroke="none"/>
  </g>
</svg>
