<?xml version="1.0" encoding="UTF-8" standalone="no"?>
<svg xmlns:xlink="http://www.w3.org/1999/xlink" height="15.0px" width="23.0px" xmlns="http://www.w3.org/2000/svg">
  <g transform="matrix(1.0, 0.0, 0.0, 1.0, 11.5, 0.0)">
    <path d="M10.5 6.0 L11.5 6.0 11.5 7.0 10.5 7.0 10.5 6.0 M-0.5 7.0 L-1.5 7.0 -1.5 6.0 -0.5 6.0 -0.5 7.0 M9.5 7.0 L8.5 7.0 8.5 6.0 9.5 6.0 9.5 7.0" fill="#7d6e39" fill-opacity="0.5058824" fill-rule="evenodd" stroke="none"/>
    <path d="M10.5 8.0 L11.5 8.0 11.5 9.0 10.5 9.0 10.5 10.0 9.5 10.0 9.5 9.0 8.5 9.0 8.5 8.0 9.5 8.0 10.5 8.0 M10.5 11.0 L10.5 13.0 9.5 13.0 9.5 14.0 8.5 14.0 8.5 13.0 5.5 13.0 5.5 12.0 7.5 12.0 7.5 11.0 8.5 11.0 8.5 13.0 9.5 13.0 9.5 11.0 10.5 11.0 M2.5 14.0 L2.5 15.0 -1.5 15.0 -1.5 14.0 -2.5 14.0 -2.5 13.0 -3.5 13.0 -3.5 14.0 -4.5 14.0 -4.5 13.0 -7.5 13.0 -7.5 14.0 -8.5 14.0 -8.5 13.0 -9.5 13.0 -9.5 11.0 -10.5 11.0 -10.5 10.0 -9.5 10.0 -9.5 11.0 -8.5 11.0 -8.5 13.0 -7.5 13.0 -7.5 11.0 -6.5 11.0 -6.5 12.0 -3.5 12.0 -2.5 12.0 -1.5 12.0 -1.5 13.0 -0.5 13.0 -0.5 12.0 0.5 12.0 0.5 11.0 -2.5 11.0 -3.5 11.0 -6.5 11.0 -6.5 10.0 -0.5 10.0 -0.5 9.0 -1.5 9.0 -1.5 8.0 -0.5 8.0 -0.5 9.0 0.5 9.0 0.5 8.0 1.5 8.0 1.5 9.0 0.5 9.0 0.5 10.0 1.5 10.0 1.5 11.0 1.5 12.0 2.5 12.0 2.5 13.0 0.5 13.0 0.5 14.0 2.5 14.0 M-10.5 9.0 L-11.5 9.0 -11.5 8.0 -10.5 8.0 -9.5 8.0 -8.5 8.0 -8.5 9.0 -9.5 9.0 -10.5 9.0 M-0.5 6.0 L-0.5 0.0 0.5 0.0 0.5 6.0 -0.5 6.0" fill="#2c1f0d" fill-rule="evenodd" stroke="none"/>
    <path d="M10.5 10.0 L10.5 11.0 9.5 11.0 8.5 11.0 7.5 11.0 5.5 11.0 5.5 12.0 4.5 12.0 4.5 11.0 1.5 11.0 1.5 10.0 9.5 10.0 10.5 10.0 M5.5 13.0 L5.5 14.0 2.5 14.0 0.5 14.0 0.5 13.0 2.5 13.0 5.5 13.0 M-2.5 14.0 L-3.5 14.0 -3.5 13.0 -2.5 13.0 -2.5 14.0 M-9.5 10.0 L-6.5 10.0 -6.5 11.0 -7.5 11.0 -8.5 11.0 -9.5 11.0 -9.5 10.0 M-0.5 12.0 L-0.5 13.0 -1.5 13.0 -1.5 12.0 -0.5 12.0" fill="#655136" fill-rule="evenodd" stroke="none"/>
    <path d="M10.5 7.0 L10.5 8.0 9.5 8.0 9.5 7.0 9.5 6.0 10.5 6.0 10.5 7.0 M-10.5 8.0 L-10.5 6.0 -9.5 6.0 -9.5 8.0 -10.5 8.0 M-0.5 8.0 L-0.5 7.0 -0.5 6.0 0.5 6.0 0.5 8.0 -0.5 8.0" fill="#ffffff" fill-rule="evenodd" stroke="none"/>
    <path d="M-10.5 10.0 L-10.5 9.0 -9.5 9.0 -9.5 10.0 -10.5 10.0 M0.5 8.0 L0.5 9.0 -0.5 9.0 -0.5 8.0 0.5 8.0 M-2.5 12.0 L-3.5 12.0 -3.5 11.0 -2.5 11.0 -2.5 12.0" fill="#71614b" fill-rule="evenodd" stroke="none"/>
    <path d="M2.5 12.0 L4.5 12.0 5.5 12.0 5.5 13.0 2.5 13.0 2.5 12.0" fill="#8d7759" fill-rule="evenodd" stroke="none"/>
  </g>
</svg>
