<?xml version="1.0" encoding="UTF-8" standalone="no"?>
<svg xmlns:xlink="http://www.w3.org/1999/xlink" height="30.0px" width="134.0px" xmlns="http://www.w3.org/2000/svg">
  <g transform="matrix(1.0, 0.0, 0.0, 1.0, 84.0, 48.0)">
    <path d="M1.0 -48.0 L50.0 -48.0 50.0 -22.0 1.0 -22.0 1.0 -48.0 M-82.0 -20.0 L-81.0 -20.0 -81.0 -19.0 -80.0 -19.0 -80.0 -18.0 -84.0 -18.0 -84.0 -44.0 -35.0 -44.0 -35.0 -18.0 -75.0 -18.0 -75.0 -19.0 -74.0 -19.0 -74.0 -20.0 -73.0 -20.0 -73.0 -25.0 -74.0 -25.0 -74.0 -26.0 -75.0 -26.0 -75.0 -27.0 -76.0 -27.0 -76.0 -28.0 -75.0 -28.0 -75.0 -31.0 -80.0 -31.0 -80.0 -28.0 -79.0 -28.0 -79.0 -27.0 -80.0 -27.0 -80.0 -26.0 -81.0 -26.0 -81.0 -25.0 -82.0 -25.0 -82.0 -20.0" fill="#cc3300" fill-rule="evenodd" stroke="none"/>
  </g>
</svg>
