<?xml version="1.0" encoding="UTF-8" standalone="no"?>
<svg xmlns:xlink="http://www.w3.org/1999/xlink" height="49.0px" width="169.0px" xmlns="http://www.w3.org/2000/svg">
  <g transform="matrix(1.0, 0.0, 0.0, 1.0, 84.0, 54.0)">
    <path d="M84.0 -6.0 L79.0 -6.0 79.0 -5.0 75.0 -5.0 75.0 -6.0 69.0 -6.0 69.0 -54.0 85.0 -54.0 85.0 -48.0 84.0 -48.0 84.0 -45.0 85.0 -45.0 85.0 -37.0 83.0 -37.0 83.0 -35.0 85.0 -35.0 85.0 -34.0 84.0 -34.0 84.0 -33.0 83.0 -33.0 83.0 -29.0 84.0 -29.0 84.0 -28.0 85.0 -28.0 85.0 -25.0 84.0 -25.0 84.0 -20.0 85.0 -20.0 85.0 -13.0 84.0 -13.0 84.0 -11.0 83.0 -11.0 83.0 -7.0 84.0 -7.0 84.0 -6.0 85.0 -6.0 85.0 -5.0 84.0 -5.0 84.0 -6.0 M84.0 -45.0 L82.0 -45.0 82.0 -43.0 84.0 -43.0 84.0 -45.0 M81.0 -29.0 L81.0 -27.0 83.0 -27.0 83.0 -29.0 81.0 -29.0 M84.0 -15.0 L81.0 -15.0 81.0 -13.0 84.0 -13.0 84.0 -15.0 M-82.0 -20.0 L-81.0 -20.0 -81.0 -19.0 -80.0 -19.0 -80.0 -18.0 -84.0 -18.0 -84.0 -53.9 -54.0 -53.9 -54.0 -47.0 -53.0 -47.0 -53.0 -46.0 -49.0 -46.0 -49.0 -18.0 -50.0 -18.0 -50.0 -28.0 -67.0 -28.0 -67.0 -18.0 -75.0 -18.0 -75.0 -19.0 -74.0 -19.0 -74.0 -20.0 -73.0 -20.0 -73.0 -25.0 -74.0 -25.0 -74.0 -26.0 -75.0 -26.0 -75.0 -27.0 -76.0 -27.0 -76.0 -28.0 -75.0 -28.0 -75.0 -31.0 -80.0 -31.0 -80.0 -28.0 -79.0 -28.0 -79.0 -27.0 -80.0 -27.0 -80.0 -26.0 -81.0 -26.0 -81.0 -25.0 -82.0 -25.0 -82.0 -20.0" fill="#cc3300" fill-rule="evenodd" stroke="none"/>
  </g>
</svg>
