<?xml version="1.0" encoding="UTF-8" standalone="no"?>
<svg xmlns:xlink="http://www.w3.org/1999/xlink" height="14.0px" width="20.0px" xmlns="http://www.w3.org/2000/svg">
  <g transform="matrix(1.0, 0.0, 0.0, 1.0, 10.0, 6.0)">
    <path d="M4.0 -5.0 L3.0 -5.0 2.0 -5.0 -2.0 -5.0 -7.0 -5.0 -7.0 -4.0 -8.0 -4.0 -8.0 -6.0 8.0 -6.0 8.0 -4.0 7.0 -4.0 7.0 -5.0 6.0 -5.0 5.0 -5.0 4.0 -5.0 M-6.0 -4.0 L-6.0 -3.0 -5.0 -3.0 -5.0 -2.0 -6.0 -2.0 -6.0 0.0 -7.0 0.0 -7.0 -1.0 -7.0 -2.0 -8.0 -2.0 -8.0 -1.0 -9.0 -1.0 -9.0 0.0 -9.0 1.0 -8.0 1.0 -8.0 2.0 -8.0 3.0 -7.0 3.0 -7.0 4.0 -6.0 4.0 -6.0 5.0 -4.0 5.0 -4.0 6.0 4.0 6.0 4.0 5.0 6.0 5.0 6.0 4.0 7.0 4.0 7.0 3.0 8.0 3.0 8.0 2.0 8.0 1.0 9.0 1.0 9.0 0.0 9.0 -1.0 8.0 -1.0 8.0 -2.0 9.0 -2.0 9.0 -1.0 10.0 -1.0 10.0 1.0 9.0 1.0 9.0 3.0 8.0 3.0 8.0 4.0 7.0 4.0 7.0 5.0 6.0 5.0 6.0 6.0 7.0 6.0 7.0 8.0 4.0 8.0 4.0 7.0 -4.0 7.0 -4.0 8.0 -7.0 8.0 -7.0 6.0 -6.0 6.0 -6.0 5.0 -7.0 5.0 -7.0 4.0 -8.0 4.0 -8.0 3.0 -9.0 3.0 -9.0 1.0 -10.0 1.0 -10.0 -1.0 -9.0 -1.0 -9.0 -2.0 -8.0 -2.0 -8.0 -3.0 -7.0 -3.0 -7.0 -4.0 -6.0 -4.0 M5.0 -3.0 L6.0 -3.0 6.0 -4.0 7.0 -4.0 7.0 -3.0 8.0 -3.0 8.0 -2.0 7.0 -2.0 7.0 0.0 6.0 0.0 6.0 -1.0 6.0 -2.0 5.0 -2.0 5.0 -3.0 M4.0 6.0 L4.0 7.0 6.0 7.0 6.0 6.0 4.0 6.0 M-4.0 6.0 L-6.0 6.0 -6.0 7.0 -4.0 7.0 -4.0 6.0 M8.0 0.0 L8.0 1.0 7.0 1.0 7.0 0.0 8.0 0.0 M-7.0 0.0 L-7.0 1.0 -8.0 1.0 -8.0 0.0 -7.0 0.0" fill="#141111" fill-rule="evenodd" stroke="none"/>
    <path d="M4.0 -5.0 L4.0 -4.0 3.0 -4.0 3.0 -5.0 4.0 -5.0 M2.0 -5.0 L2.0 -4.0 -2.0 -4.0 -2.0 -5.0 2.0 -5.0 M-5.0 -2.0 L-4.0 -2.0 -4.0 -1.0 -5.0 -1.0 -5.0 -2.0 M-3.0 -2.0 L-2.0 -2.0 1.0 -2.0 1.0 -1.0 2.0 -1.0 2.0 -2.0 3.0 -2.0 3.0 -1.0 4.0 -1.0 4.0 -2.0 5.0 -2.0 5.0 -1.0 4.0 -1.0 4.0 0.0 3.0 0.0 3.0 -1.0 2.0 -1.0 2.0 0.0 1.0 0.0 1.0 -1.0 -3.0 -1.0 -3.0 -2.0 M6.0 -4.0 L5.0 -4.0 5.0 -5.0 6.0 -5.0 6.0 -4.0 M6.0 -1.0 L6.0 0.0 7.0 0.0 7.0 -2.0 8.0 -2.0 8.0 -1.0 9.0 -1.0 9.0 0.0 8.0 0.0 7.0 0.0 7.0 1.0 6.0 1.0 6.0 2.0 5.0 2.0 5.0 1.0 6.0 1.0 6.0 0.0 5.0 0.0 5.0 -1.0 6.0 -1.0 M8.0 1.0 L8.0 2.0 7.0 2.0 7.0 1.0 8.0 1.0 M-9.0 0.0 L-9.0 -1.0 -8.0 -1.0 -7.0 -1.0 -7.0 0.0 -8.0 0.0 -9.0 0.0 M-5.0 4.0 L-6.0 4.0 -6.0 3.0 -7.0 3.0 -7.0 2.0 -6.0 2.0 -6.0 3.0 -5.0 3.0 -5.0 4.0 M-4.0 -1.0 L-3.0 -1.0 -3.0 0.0 -4.0 0.0 -4.0 -1.0" fill="#84709d" fill-rule="evenodd" stroke="none"/>
    <path d="M3.0 -5.0 L3.0 -4.0 4.0 -4.0 4.0 -5.0 5.0 -5.0 5.0 -4.0 6.0 -4.0 6.0 -3.0 5.0 -3.0 -2.0 -3.0 -2.0 -2.0 -3.0 -2.0 -3.0 -3.0 -4.0 -3.0 -4.0 -2.0 -5.0 -2.0 -5.0 -3.0 -6.0 -3.0 -6.0 -4.0 -2.0 -4.0 2.0 -4.0 2.0 -5.0 3.0 -5.0 M7.0 -4.0 L6.0 -4.0 6.0 -5.0 7.0 -5.0 7.0 -4.0 M2.0 -1.0 L3.0 -1.0 3.0 0.0 4.0 0.0 5.0 0.0 6.0 0.0 6.0 1.0 5.0 1.0 5.0 2.0 6.0 2.0 6.0 3.0 5.0 3.0 5.0 4.0 4.0 4.0 4.0 3.0 3.0 3.0 3.0 4.0 2.0 4.0 2.0 5.0 1.0 5.0 1.0 4.0 0.0 4.0 0.0 5.0 -1.0 5.0 -1.0 4.0 -2.0 4.0 -2.0 5.0 -3.0 5.0 -3.0 4.0 -4.0 4.0 -4.0 3.0 -5.0 3.0 -5.0 2.0 -6.0 2.0 -6.0 1.0 -5.0 1.0 -5.0 0.0 -4.0 0.0 -3.0 0.0 -3.0 -1.0 1.0 -1.0 1.0 0.0 2.0 0.0 2.0 -1.0 M9.0 0.0 L9.0 1.0 8.0 1.0 8.0 0.0 9.0 0.0 M8.0 2.0 L8.0 3.0 7.0 3.0 7.0 2.0 6.0 2.0 6.0 1.0 7.0 1.0 7.0 2.0 8.0 2.0 M4.0 6.0 L6.0 6.0 6.0 7.0 4.0 7.0 4.0 6.0 M-4.0 6.0 L-4.0 7.0 -6.0 7.0 -6.0 6.0 -4.0 6.0 M-8.0 1.0 L-9.0 1.0 -9.0 0.0 -8.0 0.0 -8.0 1.0 M5.0 3.0 L5.0 2.0 4.0 2.0 4.0 3.0 5.0 3.0 M1.0 4.0 L2.0 4.0 2.0 3.0 1.0 3.0 1.0 4.0 M-4.0 3.0 L-3.0 3.0 -3.0 4.0 -2.0 4.0 -2.0 3.0 -3.0 3.0 -3.0 2.0 -4.0 2.0 -4.0 3.0" fill="#57446f" fill-rule="evenodd" stroke="none"/>
    <path d="M-4.0 -2.0 L-4.0 -3.0 -3.0 -3.0 -3.0 -2.0 -4.0 -2.0 M-2.0 -2.0 L-2.0 -3.0 5.0 -3.0 5.0 -2.0 4.0 -2.0 4.0 -1.0 3.0 -1.0 3.0 -2.0 2.0 -2.0 2.0 -1.0 1.0 -1.0 1.0 -2.0 -2.0 -2.0 M4.0 -1.0 L5.0 -1.0 5.0 -2.0 6.0 -2.0 6.0 -1.0 5.0 -1.0 5.0 0.0 4.0 0.0 4.0 -1.0 M7.0 3.0 L7.0 4.0 6.0 4.0 6.0 5.0 4.0 5.0 4.0 6.0 -4.0 6.0 -4.0 5.0 -6.0 5.0 -6.0 4.0 -7.0 4.0 -7.0 3.0 -8.0 3.0 -8.0 2.0 -7.0 2.0 -7.0 3.0 -6.0 3.0 -6.0 4.0 -5.0 4.0 -4.0 4.0 -3.0 4.0 -3.0 5.0 -2.0 5.0 -2.0 4.0 -1.0 4.0 -1.0 5.0 0.0 5.0 0.0 4.0 1.0 4.0 1.0 5.0 2.0 5.0 2.0 4.0 3.0 4.0 3.0 3.0 4.0 3.0 4.0 4.0 5.0 4.0 5.0 3.0 6.0 3.0 6.0 2.0 7.0 2.0 7.0 3.0 M5.0 3.0 L4.0 3.0 4.0 2.0 5.0 2.0 5.0 3.0 M1.0 4.0 L1.0 3.0 2.0 3.0 2.0 4.0 1.0 4.0 M-4.0 3.0 L-4.0 2.0 -3.0 2.0 -3.0 3.0 -2.0 3.0 -2.0 4.0 -3.0 4.0 -3.0 3.0 -4.0 3.0" fill="#423059" fill-rule="evenodd" stroke="none"/>
    <path d="M-2.0 -4.0 L-6.0 -4.0 -7.0 -4.0 -7.0 -5.0 -2.0 -5.0 -2.0 -4.0 M-8.0 2.0 L-8.0 1.0 -7.0 1.0 -7.0 0.0 -6.0 0.0 -6.0 -2.0 -5.0 -2.0 -5.0 -1.0 -4.0 -1.0 -4.0 -2.0 -3.0 -2.0 -3.0 -1.0 -4.0 -1.0 -4.0 0.0 -5.0 0.0 -5.0 1.0 -6.0 1.0 -7.0 1.0 -7.0 2.0 -8.0 2.0 M-8.0 -1.0 L-8.0 -2.0 -7.0 -2.0 -7.0 -1.0 -8.0 -1.0" fill="#c4b5d6" fill-rule="evenodd" stroke="none"/>
    <path d="M-4.0 4.0 L-5.0 4.0 -5.0 3.0 -4.0 3.0 -4.0 4.0 M-6.0 1.0 L-6.0 2.0 -5.0 2.0 -5.0 3.0 -6.0 3.0 -6.0 2.0 -7.0 2.0 -7.0 1.0 -6.0 1.0" fill="#4e3d66" fill-rule="evenodd" stroke="none"/>
  </g>
</svg>
