<?xml version="1.0" encoding="UTF-8" standalone="no"?>
<svg xmlns:xlink="http://www.w3.org/1999/xlink" height="12.0px" width="9.0px" xmlns="http://www.w3.org/2000/svg">
  <g transform="matrix(1.0, 0.0, 0.0, 1.0, 0.0, 0.0)">
    <path d="M7.0 2.0 L8.0 2.0 8.0 3.0 9.0 3.0 9.0 4.0 8.0 4.0 8.0 9.0 7.0 9.0 7.0 10.0 6.0 10.0 5.0 10.0 5.0 9.0 7.0 9.0 7.0 4.0 7.0 2.0 M5.0 11.0 L5.0 12.0 4.0 12.0 4.0 11.0 3.0 11.0 3.0 10.0 2.0 10.0 2.0 9.0 1.0 9.0 1.0 4.0 0.0 4.0 0.0 3.0 1.0 3.0 1.0 2.0 3.0 2.0 3.0 1.0 4.0 1.0 4.0 0.0 5.0 0.0 5.0 1.0 5.0 2.0 3.0 2.0 3.0 3.0 3.0 4.0 2.0 4.0 2.0 9.0 4.0 9.0 4.0 11.0 5.0 11.0" fill="#2d200d" fill-rule="evenodd" stroke="none"/>
    <path d="M6.0 10.0 L6.0 11.0 5.0 11.0 4.0 11.0 4.0 9.0 4.0 4.0 5.0 4.0 5.0 9.0 5.0 10.0 6.0 10.0 M5.0 1.0 L6.0 1.0 6.0 2.0 7.0 2.0 7.0 4.0 6.0 4.0 6.0 3.0 3.0 3.0 3.0 2.0 5.0 2.0 5.0 1.0" fill="#7a7164" fill-rule="evenodd" stroke="none"/>
    <path d="M7.0 4.0 L7.0 9.0 5.0 9.0 5.0 4.0 6.0 4.0 7.0 4.0 M3.0 4.0 L4.0 4.0 4.0 9.0 2.0 9.0 2.0 4.0 3.0 4.0" fill="#999999" fill-rule="evenodd" stroke="none"/>
    <path d="M6.0 4.0 L5.0 4.0 4.0 4.0 3.0 4.0 3.0 3.0 6.0 3.0 6.0 4.0" fill="#5e513e" fill-rule="evenodd" stroke="none"/>
  </g>
</svg>
