<?xml version="1.0" encoding="UTF-8" standalone="no"?>
<svg xmlns:xlink="http://www.w3.org/1999/xlink" height="42.0px" width="23.0px" xmlns="http://www.w3.org/2000/svg">
  <g transform="matrix(1.0, 0.0, 0.0, 1.0, 11.5, 42.0)">
    <path d="M10.5 -41.0 L10.5 -42.0 11.5 -42.0 11.5 -41.0 10.5 -41.0 M9.5 -42.0 L9.5 -41.0 8.5 -41.0 8.5 -42.0 9.5 -42.0 M-0.5 -41.0 L-1.5 -41.0 -1.5 -42.0 -0.5 -42.0 -0.5 -41.0" fill="#fadc74" fill-rule="evenodd" stroke="none"/>
    <path d="M10.5 -42.0 L10.5 -41.0 10.5 -40.0 9.5 -40.0 9.5 -41.0 9.5 -42.0 10.5 -42.0 M-10.5 -40.0 L-10.5 -42.0 -9.5 -42.0 -9.5 -40.0 -10.5 -40.0 M-0.5 -40.0 L-0.5 -41.0 -0.5 -42.0 0.5 -42.0 0.5 -40.0 -0.5 -40.0" fill="#ffffff" fill-rule="evenodd" stroke="none"/>
    <path d="M9.5 -40.0 L10.5 -40.0 11.5 -40.0 11.5 -39.0 10.5 -39.0 10.5 -38.0 9.5 -38.0 9.5 -39.0 8.5 -39.0 8.5 -40.0 9.5 -40.0 M10.5 -37.0 L10.5 -35.0 9.5 -35.0 9.5 -34.0 8.5 -34.0 8.5 -35.0 5.5 -35.0 5.5 -36.0 7.5 -36.0 7.5 -37.0 8.5 -37.0 8.5 -35.0 9.5 -35.0 9.5 -37.0 10.5 -37.0 M2.5 -34.0 L2.5 -33.0 1.5 -33.0 0.5 -33.0 0.5 -7.0 0.5 -3.0 -0.5 -3.0 -0.5 -2.0 -0.5 -1.0 0.5 -1.0 2.5 -1.0 2.5 -2.0 0.5 -2.0 0.5 -3.0 1.5 -3.0 2.5 -3.0 2.5 -2.0 3.5 -2.0 3.5 -1.0 2.5 -1.0 2.5 0.0 -5.5 0.0 -5.5 -1.0 -2.5 -1.0 -2.5 -2.0 -1.5 -2.0 -1.5 -3.0 -0.5 -3.0 -0.5 -33.0 -1.5 -33.0 -1.5 -34.0 -2.5 -34.0 -2.5 -35.0 -3.5 -35.0 -3.5 -34.0 -4.5 -34.0 -4.5 -35.0 -7.5 -35.0 -7.5 -34.0 -8.5 -34.0 -8.5 -35.0 -9.5 -35.0 -9.5 -37.0 -10.5 -37.0 -10.5 -38.0 -9.5 -38.0 -9.5 -37.0 -8.5 -37.0 -8.5 -35.0 -7.5 -35.0 -7.5 -37.0 -6.5 -37.0 -6.5 -36.0 -3.5 -36.0 -2.5 -36.0 -1.5 -36.0 -1.5 -35.0 -0.5 -35.0 -0.5 -36.0 0.5 -36.0 0.5 -37.0 -2.5 -37.0 -3.5 -37.0 -6.5 -37.0 -6.5 -38.0 -0.5 -38.0 -0.5 -39.0 -1.5 -39.0 -1.5 -40.0 -0.5 -40.0 -0.5 -39.0 0.5 -39.0 0.5 -40.0 1.5 -40.0 1.5 -39.0 0.5 -39.0 0.5 -38.0 1.5 -38.0 1.5 -37.0 1.5 -36.0 2.5 -36.0 2.5 -35.0 0.5 -35.0 0.5 -34.0 2.5 -34.0 M4.5 -1.0 L6.5 -1.0 6.5 0.0 4.5 0.0 4.5 -1.0 M-10.5 -39.0 L-11.5 -39.0 -11.5 -40.0 -10.5 -40.0 -9.5 -40.0 -8.5 -40.0 -8.5 -39.0 -9.5 -39.0 -10.5 -39.0" fill="#2d200d" fill-rule="evenodd" stroke="none"/>
    <path d="M-10.5 -38.0 L-10.5 -39.0 -9.5 -39.0 -9.5 -38.0 -10.5 -38.0 M0.5 -40.0 L0.5 -39.0 -0.5 -39.0 -0.5 -40.0 0.5 -40.0 M-2.5 -36.0 L-3.5 -36.0 -3.5 -37.0 -2.5 -37.0 -2.5 -36.0" fill="#72624c" fill-rule="evenodd" stroke="none"/>
    <path d="M10.5 -38.0 L10.5 -37.0 9.5 -37.0 8.5 -37.0 7.5 -37.0 5.5 -37.0 5.5 -36.0 4.5 -36.0 4.5 -37.0 1.5 -37.0 1.5 -38.0 9.5 -38.0 10.5 -38.0 M5.5 -35.0 L5.5 -34.0 2.5 -34.0 0.5 -34.0 0.5 -35.0 2.5 -35.0 5.5 -35.0 M1.5 -33.0 L1.5 -7.0 0.5 -7.0 0.5 -33.0 1.5 -33.0 M-2.5 -34.0 L-3.5 -34.0 -3.5 -35.0 -2.5 -35.0 -2.5 -34.0 M-9.5 -38.0 L-6.5 -38.0 -6.5 -37.0 -7.5 -37.0 -8.5 -37.0 -9.5 -37.0 -9.5 -38.0 M-0.5 -36.0 L-0.5 -35.0 -1.5 -35.0 -1.5 -36.0 -0.5 -36.0 M0.5 -2.0 L0.5 -1.0 -0.5 -1.0 -0.5 -2.0 0.5 -2.0" fill="#665237" fill-rule="evenodd" stroke="none"/>
    <path d="M1.5 -7.0 L1.5 -3.0 0.5 -3.0 0.5 -2.0 -0.5 -2.0 -0.5 -3.0 0.5 -3.0 0.5 -7.0 1.5 -7.0 M3.5 -1.0 L4.5 -1.0 4.5 0.0 2.5 0.0 2.5 -1.0 0.5 -1.0 0.5 -2.0 2.5 -2.0 2.5 -1.0 3.5 -1.0 M5.5 -36.0 L5.5 -35.0 2.5 -35.0 2.5 -36.0 4.5 -36.0 5.5 -36.0" fill="#8e785a" fill-rule="evenodd" stroke="none"/>
  </g>
</svg>
