<?xml version="1.0" encoding="UTF-8" standalone="no"?>
<svg xmlns:xlink="http://www.w3.org/1999/xlink" height="20.0px" width="23.0px" xmlns="http://www.w3.org/2000/svg">
  <g transform="matrix(1.0, 0.0, 0.0, 1.0, 11.5, 0.0)">
    <path d="M10.5 12.0 L10.5 11.0 11.5 11.0 11.5 12.0 10.5 12.0 M9.5 11.0 L9.5 12.0 8.5 12.0 8.5 11.0 9.5 11.0 M-0.5 12.0 L-1.5 12.0 -1.5 11.0 -0.5 11.0 -0.5 12.0" fill="#7d6e39" fill-opacity="0.5058824" fill-rule="evenodd" stroke="none"/>
    <path d="M10.5 11.0 L10.5 12.0 10.5 13.0 9.5 13.0 9.5 12.0 9.5 11.0 10.5 11.0 M0.5 11.0 L0.5 13.0 -0.5 13.0 -0.5 12.0 -0.5 11.0 0.5 11.0 M-10.5 13.0 L-10.5 11.0 -9.5 11.0 -9.5 13.0 -10.5 13.0" fill="#ffffff" fill-rule="evenodd" stroke="none"/>
    <path d="M0.5 0.0 L2.5 0.0 2.5 1.0 1.5 1.0 1.5 2.0 0.5 2.0 0.5 0.0 M0.5 13.0 L0.5 14.0 -0.5 14.0 -0.5 13.0 0.5 13.0 M-3.5 16.0 L-2.5 16.0 -2.5 17.0 -3.5 17.0 -3.5 16.0 M-9.5 15.0 L-10.5 15.0 -10.5 14.0 -9.5 14.0 -9.5 15.0" fill="#71614b" fill-rule="evenodd" stroke="none"/>
    <path d="M0.5 0.0 L0.5 2.0 -0.5 2.0 -0.5 0.0 0.5 0.0 M5.5 17.0 L5.5 18.0 2.5 18.0 2.5 17.0 4.5 17.0 5.5 17.0" fill="#8d7759" fill-rule="evenodd" stroke="none"/>
    <path d="M9.5 13.0 L10.5 13.0 11.5 13.0 11.5 14.0 10.5 14.0 10.5 15.0 9.5 15.0 9.5 14.0 8.5 14.0 8.5 13.0 9.5 13.0 M0.5 2.0 L0.5 11.0 -0.5 11.0 -0.5 2.0 0.5 2.0 M0.5 13.0 L1.5 13.0 1.5 14.0 0.5 14.0 0.5 15.0 1.5 15.0 1.5 16.0 1.5 17.0 2.5 17.0 2.5 18.0 0.5 18.0 0.5 19.0 2.5 19.0 2.5 20.0 -1.5 20.0 -1.5 19.0 -2.5 19.0 -2.5 18.0 -3.5 18.0 -3.5 19.0 -4.5 19.0 -4.5 18.0 -7.5 18.0 -7.5 16.0 -6.5 16.0 -6.5 15.0 -0.5 15.0 -0.5 14.0 0.5 14.0 0.5 13.0 M5.5 17.0 L7.5 17.0 7.5 16.0 8.5 16.0 8.5 18.0 5.5 18.0 5.5 17.0 M8.5 18.0 L9.5 18.0 9.5 16.0 10.5 16.0 10.5 18.0 9.5 18.0 9.5 19.0 8.5 19.0 8.5 18.0 M-3.5 16.0 L-6.5 16.0 -6.5 17.0 -3.5 17.0 -2.5 17.0 -1.5 17.0 -1.5 18.0 -0.5 18.0 -0.5 17.0 0.5 17.0 0.5 16.0 -2.5 16.0 -3.5 16.0 M-0.5 2.0 L-1.5 2.0 -1.5 1.0 -2.5 1.0 -2.5 0.0 -0.5 0.0 -0.5 2.0 M-9.5 16.0 L-10.5 16.0 -10.5 15.0 -9.5 15.0 -9.5 16.0 -8.5 16.0 -8.5 18.0 -9.5 18.0 -9.5 16.0 M-10.5 14.0 L-11.5 14.0 -11.5 13.0 -10.5 13.0 -9.5 13.0 -8.5 13.0 -8.5 14.0 -9.5 14.0 -10.5 14.0 M-0.5 13.0 L-0.5 14.0 -1.5 14.0 -1.5 13.0 -0.5 13.0 M-8.5 18.0 L-7.5 18.0 -7.5 19.0 -8.5 19.0 -8.5 18.0" fill="#2c1f0d" fill-rule="evenodd" stroke="none"/>
    <path d="M1.5 15.0 L9.5 15.0 10.5 15.0 10.5 16.0 9.5 16.0 8.5 16.0 7.5 16.0 5.5 16.0 5.5 17.0 4.5 17.0 4.5 16.0 1.5 16.0 1.5 15.0 M-6.5 15.0 L-6.5 16.0 -7.5 16.0 -8.5 16.0 -9.5 16.0 -9.5 15.0 -6.5 15.0 M-0.5 17.0 L-0.5 18.0 -1.5 18.0 -1.5 17.0 -0.5 17.0 M-3.5 19.0 L-3.5 18.0 -2.5 18.0 -2.5 19.0 -3.5 19.0 M2.5 19.0 L0.5 19.0 0.5 18.0 2.5 18.0 5.5 18.0 5.5 19.0 2.5 19.0" fill="#655136" fill-rule="evenodd" stroke="none"/>
  </g>
</svg>
