<?xml version="1.0" encoding="UTF-8" standalone="no"?>
<svg xmlns:xlink="http://www.w3.org/1999/xlink" height="37.7px" width="29.85px" xmlns="http://www.w3.org/2000/svg">
  <g transform="matrix(1.0, 0.0, 0.0, 1.0, -1.2, -1.0)">
    <path d="M21.6 6.35 L22.2 6.55 Q22.75 7.1 22.5 8.2 L23.85 7.8 24.45 7.95 Q25.25 8.6 24.15 10.25 L25.25 12.2 25.3 12.25 25.3 12.35 25.35 12.4 25.45 12.45 25.9 12.9 26.45 13.1 26.7 13.35 27.0 13.5 27.45 13.65 27.5 13.65 27.9 13.5 Q28.25 13.15 28.7 13.15 L29.35 13.4 29.6 13.6 30.4 15.1 30.4 15.3 30.6 16.05 30.7 16.2 Q31.5 17.65 30.45 18.45 L29.6 19.25 29.35 19.5 Q28.95 20.55 27.95 20.8 L27.65 20.9 Q27.25 21.2 26.85 21.3 L25.1 21.8 25.95 20.25 24.95 20.45 24.35 20.45 23.65 20.6 23.05 20.8 21.05 21.35 20.85 21.4 19.9 21.2 19.9 22.6 20.6 25.0 Q21.25 24.15 22.0 23.8 L22.1 23.35 23.0 22.7 23.4 22.65 Q24.25 22.65 24.55 23.3 L25.05 24.9 25.95 25.55 26.15 26.4 Q26.85 26.55 27.0 27.2 L27.1 27.4 28.0 27.95 28.55 27.75 28.65 28.35 29.35 28.8 28.7 29.2 28.85 30.55 28.35 30.8 25.05 32.1 Q24.1 33.75 22.95 33.75 L21.75 33.55 21.75 33.75 21.6 33.45 21.5 33.4 Q20.95 34.7 19.95 35.65 L20.35 35.75 19.8 36.1 20.75 36.75 22.25 38.45 21.35 38.3 21.65 38.7 21.2 38.6 17.6 38.45 15.45 38.6 12.45 38.25 11.7 37.75 11.55 37.45 Q9.05 36.65 7.7 35.15 7.0 34.35 6.55 33.2 L6.25 32.2 6.15 31.4 Q4.7 30.55 5.1 29.65 5.4 29.05 6.55 28.75 L6.7 28.45 Q5.95 26.8 6.55 26.2 L6.55 26.15 5.95 25.45 Q5.8 25.2 5.3 25.2 L4.55 25.35 Q3.65 25.35 3.5 24.55 3.3 24.1 3.65 23.55 L4.05 23.25 Q4.15 22.25 3.45 22.05 1.55 21.45 1.4 20.8 L1.2 19.85 4.75 19.9 5.6 19.95 Q7.7 19.95 9.8 19.2 L10.75 19.0 Q11.35 19.0 11.8 19.4 L11.95 19.4 12.25 19.45 12.8 18.65 13.25 18.25 Q12.6 18.1 12.15 17.7 L11.7 17.85 11.6 18.0 11.35 18.05 11.25 18.05 9.65 18.7 8.85 18.9 Q7.8 18.9 7.8 17.75 L7.8 17.2 8.3 17.05 Q9.8 16.5 10.4 12.85 10.45 11.95 10.65 11.65 10.9 11.25 11.7 10.95 11.4 10.1 11.4 9.35 L11.35 9.15 10.45 8.45 10.25 8.3 9.65 8.4 9.6 7.85 9.3 7.65 8.65 7.05 8.0 7.0 8.1 6.4 Q7.55 5.65 7.5 4.85 7.5 4.15 7.85 3.75 8.3 3.3 8.75 3.3 9.3 3.3 9.65 3.85 L9.65 4.0 9.7 4.1 Q9.7 4.35 10.05 4.65 10.6 5.0 11.25 5.15 L11.4 5.15 11.95 5.2 13.5 5.45 Q14.5 5.85 14.95 7.1 L15.4 7.9 Q15.6 6.25 15.35 4.95 15.25 4.35 15.55 3.2 15.85 2.05 16.3 1.45 16.7 1.0 17.2 1.0 L17.3 1.0 17.5 1.05 Q18.55 1.35 18.25 2.75 L18.15 4.0 18.5 5.4 18.8 6.15 Q19.3 6.55 19.7 7.85 20.85 6.35 21.6 6.35" fill="#282425" fill-rule="evenodd" stroke="none"/>
    <path d="M26.7 19.35 L27.65 19.25 Q27.6 20.35 26.65 20.6 L26.8 19.75 26.7 19.35" fill="#ffffff" fill-rule="evenodd" stroke="none"/>
    <path d="M26.7 19.35 L26.8 19.75 26.65 20.6 Q27.6 20.35 27.65 19.25 L26.7 19.35 Z" fill="none" stroke="#282425" stroke-linecap="round" stroke-linejoin="round" stroke-width="0.25"/>
    <path d="M27.8 18.85 L28.75 18.75 Q28.7 19.85 27.75 20.1 L27.85 19.25 27.8 18.85" fill="#ffffff" fill-rule="evenodd" stroke="none"/>
    <path d="M27.8 18.85 L27.85 19.25 27.75 20.1 Q28.7 19.85 28.75 18.75 L27.8 18.85 Z" fill="none" stroke="#282425" stroke-linecap="round" stroke-linejoin="round" stroke-width="0.25"/>
    <path d="M27.9 28.8 Q25.05 30.45 21.75 30.35 L21.0 28.7 26.25 27.8 27.9 28.8" fill="#bfbfbf" fill-rule="evenodd" stroke="none"/>
    <path d="M27.9 28.8 L26.25 27.8 21.0 28.7 21.75 30.35 Q25.05 30.45 27.9 28.8 Z" fill="none" stroke="#000000" stroke-linecap="round" stroke-linejoin="round" stroke-width="0.25"/>
    <path d="M23.75 28.35 Q24.35 28.95 24.35 29.75 L24.3 29.95 21.85 30.2 21.2 28.8 23.75 28.35" fill="url(#gradient0)" fill-rule="evenodd" stroke="none"/>
    <path d="M24.65 31.25 Q23.9 33.0 22.95 33.0 22.35 33.0 21.5 32.6 L20.75 32.15 21.2 31.0 24.65 31.25" fill="#529a4a" fill-rule="evenodd" stroke="none"/>
    <path d="M24.65 31.25 Q23.9 33.0 22.95 33.0 22.35 33.0 21.5 32.6 L20.75 32.15 21.2 31.0 24.65 31.25 Z" fill="none" stroke="#2f3d27" stroke-linecap="butt" stroke-linejoin="miter-clip" stroke-miterlimit="4.0" stroke-width="0.25"/>
    <path d="M8.8 27.15 L7.55 28.45 7.2 27.7 Q6.95 26.9 7.15 26.7 L8.1 26.8 8.8 27.15" fill="#f8ef95" fill-rule="evenodd" stroke="none"/>
    <path d="M8.8 27.15 L8.1 26.8 7.15 26.7 Q6.95 26.9 7.2 27.7 L7.55 28.45 8.8 27.15 Z" fill="none" stroke="#1b2b16" stroke-linecap="butt" stroke-linejoin="miter-clip" stroke-miterlimit="4.0" stroke-width="0.25"/>
    <path d="M7.25 26.8 L8.25 27.6 7.6 28.3 Q6.9 27.1 7.2 26.8 L7.25 26.8" fill="#e4d378" fill-rule="evenodd" stroke="none"/>
    <path d="M7.35 29.4 L7.0 31.0 Q5.65 30.35 5.8 29.95 5.95 29.7 6.65 29.55 L7.35 29.4" fill="#f8ef95" fill-rule="evenodd" stroke="none"/>
    <path d="M7.35 29.4 L6.65 29.55 Q5.95 29.7 5.8 29.95 5.65 30.35 7.0 31.0 L7.35 29.4 Z" fill="none" stroke="#1b2b16" stroke-linecap="butt" stroke-linejoin="miter-clip" stroke-miterlimit="4.0" stroke-width="0.25"/>
    <path d="M5.95 30.05 L7.1 30.0 6.95 30.8 Q6.0 30.4 5.95 30.05" fill="#e4d378" fill-rule="evenodd" stroke="none"/>
    <path d="M21.75 30.35 L23.65 30.05 Q25.95 29.6 27.9 28.8 L28.05 30.1 Q24.3 31.85 21.85 32.05 L21.75 30.35" fill="#bfbfbf" fill-rule="evenodd" stroke="none"/>
    <path d="M21.75 30.35 L23.65 30.05 Q25.95 29.6 27.9 28.8 L28.05 30.1 Q24.3 31.85 21.85 32.05 L21.75 30.35 Z" fill="none" stroke="#000000" stroke-linecap="round" stroke-linejoin="round" stroke-width="0.25"/>
    <path d="M10.95 20.45 Q12.35 19.85 12.55 20.7 L12.9 22.5 Q13.7 23.6 15.0 23.3 L14.8 24.2 11.35 24.35 9.85 23.15 Q9.55 22.7 9.55 22.15 9.5 21.05 10.95 20.45" fill="#5da555" fill-rule="evenodd" stroke="none"/>
    <path d="M15.0 23.3 Q13.7 23.6 12.9 22.5 L12.55 20.7 Q12.35 19.85 10.95 20.45 9.5 21.05 9.55 22.15 9.55 22.7 9.85 23.15 L11.35 24.35 14.8 24.2" fill="none" stroke="#1b2b16" stroke-linecap="butt" stroke-linejoin="miter-clip" stroke-miterlimit="4.0" stroke-width="0.25"/>
    <path d="M16.4 2.95 Q16.85 1.65 17.25 1.75 17.65 1.85 17.55 2.4 L17.4 4.0 Q17.45 4.8 17.75 5.6 L18.1 6.7 18.25 9.05 16.7 9.65 16.55 9.45 Q16.0 9.1 16.15 8.2 L16.1 4.8 Q16.0 4.2 16.4 2.95" fill="#f2c962" fill-rule="evenodd" stroke="none"/>
    <path d="M16.4 2.95 Q16.85 1.65 17.25 1.75 17.65 1.85 17.55 2.4 L17.4 4.0 Q17.45 4.8 17.75 5.6 L18.1 6.7 18.25 9.05 16.7 9.65 16.55 9.45 Q16.0 9.1 16.15 8.2 L16.1 4.8 Q16.0 4.2 16.4 2.95 Z" fill="none" stroke="#102106" stroke-linecap="butt" stroke-linejoin="miter-clip" stroke-miterlimit="4.0" stroke-width="0.25"/>
    <path d="M17.25 4.0 Q17.3 4.95 17.7 5.75 L17.95 6.7 18.1 9.0 17.6 9.15 17.5 6.95 17.2 6.0 16.8 4.25 16.9 2.85 16.9 2.2 17.0 2.05 17.2 1.9 Q17.45 1.95 17.35 2.6 L17.25 4.0" fill="#f5db9f" fill-rule="evenodd" stroke="none"/>
    <path d="M17.1 1.95 Q16.45 3.5 16.5 5.5 16.55 6.8 17.05 9.15 L17.2 9.4 16.7 9.55 16.65 9.45 16.6 9.4 Q16.1 9.05 16.2 8.2 16.5 6.45 16.15 4.85 16.05 4.45 16.35 3.5 16.6 2.5 16.95 2.1 L17.1 1.95" fill="#deb65a" fill-rule="evenodd" stroke="none"/>
    <path d="M17.4 3.0 L17.4 3.05 Q17.0 2.75 16.5 2.8 L16.55 2.7 Q17.0 2.6 17.4 3.0" fill="#765a25" fill-rule="evenodd" stroke="none"/>
    <path d="M11.3 5.95 L12.9 6.05 Q13.85 6.25 14.25 7.35 14.9 9.1 16.55 10.0 L14.45 12.75 Q12.3 11.65 12.15 9.2 12.1 8.7 11.5 8.25 L9.75 7.0 Q8.7 6.2 8.4 5.35 8.15 4.6 8.45 4.25 8.65 4.0 8.8 4.05 L8.9 4.15 Q9.05 5.6 11.3 5.95" fill="#f2c962" fill-rule="evenodd" stroke="none"/>
    <path d="M11.3 5.95 Q9.05 5.6 8.9 4.15 L8.8 4.05 Q8.65 4.0 8.45 4.25 8.15 4.6 8.4 5.35 8.7 6.2 9.75 7.0 L11.5 8.25 Q12.1 8.7 12.15 9.2 12.3 11.65 14.45 12.75 L16.55 10.0 Q14.9 9.1 14.25 7.35 13.85 6.25 12.9 6.05 L11.3 5.95 Z" fill="none" stroke="#102106" stroke-linecap="butt" stroke-linejoin="miter-clip" stroke-miterlimit="4.0" stroke-width="0.25"/>
    <path d="M11.3 6.05 L11.95 6.1 13.2 6.25 Q13.8 6.55 14.1 7.4 14.65 8.8 16.35 10.05 L16.05 10.45 Q14.45 9.35 13.85 7.85 13.5 7.0 12.9 6.7 L11.65 6.55 11.0 6.5 9.5 6.0 Q8.6 5.45 8.5 4.65 L8.4 4.65 8.55 4.35 8.75 4.2 8.8 4.2 Q8.9 5.0 9.8 5.55 L11.3 6.05" fill="#f5db9f" fill-rule="evenodd" stroke="none"/>
    <path d="M11.9 8.5 L10.95 7.8 9.8 7.0 Q8.55 6.05 8.35 4.95 8.35 4.5 8.5 4.35 L8.55 4.3 Q8.6 5.75 10.05 6.65 L12.7 8.25 Q13.35 8.95 14.05 11.25 L14.85 12.15 14.45 12.65 Q12.25 11.5 12.25 9.2 L11.9 8.5" fill="#deb65a" fill-rule="evenodd" stroke="none"/>
    <path d="M10.3 7.2 Q10.3 6.15 11.15 5.9 L10.8 6.25 Q10.4 6.65 10.4 7.2 L10.45 7.5 10.3 7.5 10.3 7.2" fill="#765a25" fill-rule="evenodd" stroke="none"/>
    <path d="M12.95 6.35 L12.55 6.65 12.05 7.05 11.65 7.55 11.35 8.15 11.35 8.1 Q11.3 7.45 11.95 6.95 12.85 6.25 13.2 6.2 L13.35 6.25 13.2 6.25 12.95 6.35" fill="#765a25" fill-rule="evenodd" stroke="none"/>
    <path d="M13.1 8.05 L12.4 8.7 12.1 9.1 12.2 8.7 12.4 8.45 13.05 7.9 13.85 7.75 14.2 7.8 14.35 7.8 14.45 7.9 14.35 7.9 13.9 7.85 13.1 8.05" fill="#765a25" fill-rule="evenodd" stroke="none"/>
    <path d="M12.7 11.1 L12.95 10.4 Q13.2 9.95 13.75 9.6 L14.65 9.15 Q15.2 8.9 15.4 9.15 L15.2 9.15 14.8 9.2 13.85 9.7 Q13.45 9.9 13.1 10.35 L12.7 11.1" fill="#765a25" fill-rule="evenodd" stroke="none"/>
    <path d="M21.15 29.1 L21.7 30.35 21.85 32.05 21.1 30.5 21.15 29.1" fill="#8ea389" fill-rule="evenodd" stroke="none"/>
    <path d="M21.15 29.1 L21.7 30.35 21.85 32.05 21.1 30.5 21.15 29.1 Z" fill="none" stroke="#102106" stroke-linecap="round" stroke-linejoin="round" stroke-width="0.25"/>
    <path d="M29.65 15.3 L29.9 16.35 30.25 17.05 Q30.4 17.55 30.0 17.85 L28.75 19.0 Q28.4 19.35 27.75 19.35 27.6 19.35 27.3 19.55 L26.85 19.7 Q26.05 19.4 25.95 19.45 L24.85 19.7 23.4 19.85 20.95 20.6 19.85 20.35 19.3 20.0 19.15 20.9 19.15 22.75 Q19.4 24.05 20.2 26.1 L21.25 29.25 Q21.75 32.8 19.4 35.1 L18.15 36.1 Q16.55 37.05 14.7 37.1 11.65 37.15 9.4 35.6 6.85 33.85 6.9 30.8 6.95 28.1 9.9 26.1 L14.9 23.05 15.7 21.65 Q16.2 20.3 15.8 19.6 L14.4 17.7 Q13.6 16.2 14.0 13.85 14.45 11.3 16.2 9.95 17.6 8.85 19.55 8.85 22.2 8.9 23.25 10.25 L24.6 12.55 24.7 13.0 25.0 13.1 25.35 13.65 26.0 13.75 26.25 14.25 26.35 14.15 26.6 14.15 27.7 14.35 28.35 14.2 28.5 14.0 Q28.7 13.85 28.85 14.0 L29.2 14.65 29.65 15.3" fill="#6ebd66" fill-rule="evenodd" stroke="none"/>
    <path d="M29.65 15.3 L29.9 16.35 30.25 17.05 Q30.4 17.55 30.0 17.85 L28.75 19.0 Q28.4 19.35 27.75 19.35 27.6 19.35 27.3 19.55 L26.85 19.7 Q26.05 19.4 25.95 19.45 L24.85 19.7 23.4 19.85 20.95 20.6 19.85 20.35 19.3 20.0 19.15 20.9 19.15 22.75 Q19.4 24.05 20.2 26.1 L21.25 29.25 Q21.75 32.8 19.4 35.1 L18.15 36.1 Q16.55 37.05 14.7 37.1 11.65 37.15 9.4 35.6 6.85 33.85 6.9 30.8 6.95 28.1 9.9 26.1 L14.9 23.05 15.7 21.65 Q16.2 20.3 15.8 19.6 L14.4 17.7 Q13.6 16.2 14.0 13.85 14.45 11.3 16.2 9.95 17.6 8.85 19.55 8.85 22.2 8.9 23.25 10.25 L24.6 12.55 24.7 13.0 25.0 13.1 25.35 13.65 26.0 13.75 26.25 14.25 26.35 14.15 26.6 14.15 27.7 14.35 28.35 14.2 28.5 14.0 Q28.7 13.85 28.85 14.0 L29.2 14.65 29.65 15.3 Z" fill="none" stroke="#1b2b16" stroke-linecap="round" stroke-linejoin="round" stroke-width="0.25"/>
    <path d="M28.7 14.45 L28.6 14.4 28.3 14.7 27.35 14.9 26.4 14.65 26.3 14.65 26.15 14.8 Q26.0 14.85 26.0 14.5 L25.85 14.25 25.35 14.15 25.15 14.15 25.1 14.0 24.85 13.6 24.5 13.45 24.5 13.4 24.35 12.95 23.05 10.7 Q22.05 9.4 19.45 9.35 L19.4 9.35 Q17.25 9.35 15.75 10.8 L15.55 10.75 Q17.0 9.0 19.45 9.0 L19.55 9.0 Q22.15 9.05 23.15 10.35 L24.45 12.6 24.6 13.05 24.6 13.1 24.65 13.1 24.95 13.2 25.2 13.65 25.2 13.8 25.45 13.8 25.9 13.85 26.1 14.2 Q26.1 14.45 26.3 14.35 L26.4 14.25 26.5 14.25 27.45 14.55 27.75 14.5 28.4 14.3 28.45 14.3 28.45 14.25 28.7 14.05 28.8 14.1 29.1 14.7 29.1 14.75 29.5 15.35 29.5 15.45 29.8 16.4 29.9 16.65 Q30.25 17.3 30.05 17.55 L29.8 17.0 29.7 16.8 29.45 15.8 29.05 15.1 29.0 15.1 29.0 15.05 28.7 14.45" fill="#7cd371" fill-rule="evenodd" stroke="none"/>
    <path d="M14.0 25.45 L12.45 26.7 Q11.35 27.2 10.25 26.0 L11.65 25.15 12.3 24.75 12.75 24.7 Q12.45 25.25 13.05 25.4 L14.0 25.45" fill="#65af5e" fill-rule="evenodd" stroke="none"/>
    <path d="M19.6 34.7 L19.3 35.0 Q17.55 36.9 14.7 36.95 L14.5 36.95 Q10.7 36.95 8.55 34.7 7.0 33.15 7.0 30.8 7.05 28.25 9.85 26.25 8.35 28.0 8.5 29.65 8.65 31.3 10.3 32.15 L10.95 32.85 12.15 31.95 Q13.5 31.05 14.5 31.25 L12.2 33.75 Q15.25 35.4 19.6 34.7 M21.2 19.5 L22.0 19.4 Q22.45 19.1 22.3 18.85 23.35 18.7 24.6 18.85 26.2 19.0 26.85 19.55 L26.6 19.45 26.05 19.3 25.9 19.3 24.85 19.55 24.3 19.55 23.35 19.7 22.75 19.95 20.95 20.45 20.85 20.45 19.9 20.2 19.35 19.9 19.2 19.75 19.15 19.95 18.95 21.9 Q18.4 20.9 17.55 20.55 16.6 20.1 16.0 21.05 16.25 20.1 15.9 19.55 L15.4 18.9 14.5 17.55 Q14.0 16.55 14.0 15.25 14.5 15.35 15.75 16.2 L18.2 18.45 Q19.65 19.65 21.2 19.5" fill="#65af5e" fill-rule="evenodd" stroke="none"/>
  </g>
  <defs>
    <radialGradient cx="0" cy="0" gradientTransform="matrix(0.0085, 0.0, 0.0, -0.0085, 20.6, 30.1)" gradientUnits="userSpaceOnUse" id="gradient0" r="819.2" spreadMethod="pad">
      <stop offset="0.0" stop-color="#6e6f6b"/>
      <stop offset="0.27450980392156865" stop-color="#8e8e8c"/>
      <stop offset="0.5607843137254902" stop-color="#a8a9a7"/>
      <stop offset="0.8117647058823529" stop-color="#b9b9b9"/>
      <stop offset="1.0" stop-color="#bfbfbf"/>
    </radialGradient>
  </defs>
</svg>
