<?xml version="1.0" encoding="UTF-8" standalone="no"?>
<svg xmlns:xlink="http://www.w3.org/1999/xlink" height="12.35px" width="14.35px" xmlns="http://www.w3.org/2000/svg">
  <g transform="matrix(1.0, 0.0, 0.0, 1.0, -13.5, -18.15)">
    <path d="M21.25 18.3 L21.15 18.4 21.05 18.3 21.15 18.15 21.25 18.3" fill="#ffffff" fill-rule="evenodd" stroke="none"/>
    <path d="M14.0 23.85 L14.95 23.6 Q14.5 24.1 14.0 24.05 L14.0 23.85" fill="#1b2b16" fill-rule="evenodd" stroke="none"/>
    <path d="M13.5 25.6 L14.1 25.3 13.6 25.85 13.5 25.6" fill="#1b2b16" fill-rule="evenodd" stroke="none"/>
    <path d="M15.0 28.05 L14.9 28.25 13.9 27.35 15.0 28.05" fill="#1b2b16" fill-rule="evenodd" stroke="none"/>
    <path d="M16.7 25.45 L16.55 25.65 15.8 25.1 16.7 25.45" fill="#1b2b16" fill-rule="evenodd" stroke="none"/>
    <path d="M21.9 30.5 Q26.15 29.85 27.75 28.95 L27.85 30.05 26.9 29.85 24.85 30.3 21.9 30.5" fill="url(#gradient0)" fill-rule="evenodd" stroke="none"/>
  </g>
  <defs>
    <linearGradient gradientTransform="matrix(4.0E-4, -0.0016, -0.0016, -4.0E-4, 25.1, 29.45)" gradientUnits="userSpaceOnUse" id="gradient0" spreadMethod="pad" x1="-819.2" x2="819.2">
      <stop offset="0.0" stop-color="#bfbfbf"/>
      <stop offset="1.0" stop-color="#ffffff"/>
    </linearGradient>
  </defs>
</svg>
