<?xml version="1.0" encoding="UTF-8" standalone="no"?>
<svg xmlns:xlink="http://www.w3.org/1999/xlink" height="5.5px" width="28.1px" xmlns="http://www.w3.org/2000/svg">
  <g transform="matrix(1.0, 0.0, 0.0, 1.0, -0.25, -0.45)">
    <path d="M25.55 5.35 L27.7 5.35 27.7 1.05 19.1 1.05 19.1 5.35 21.25 5.35 21.25 2.05 22.4 2.05 22.4 5.35 24.5 5.35 24.5 2.05 25.55 2.05 25.55 5.35 M28.35 0.45 L28.35 5.95 0.25 5.95 0.25 2.6 3.25 2.6 3.25 0.45 28.35 0.45 M10.55 2.05 L10.55 1.05 4.05 1.05 4.05 5.35 10.55 5.35 10.55 4.3 6.3 4.3 6.3 2.05 10.55 2.05 M18.0 5.35 L18.0 1.05 11.6 1.05 11.6 5.35 18.0 5.35 M15.9 2.05 L15.9 4.3 13.7 4.3 13.7 2.05 15.9 2.05 M14.95 3.35 L14.95 3.1 14.75 3.1 14.75 3.35 14.95 3.35 M10.7 3.35 L10.7 3.1 7.2 3.1 7.2 3.35 10.7 3.35 M3.0 3.15 L0.9 3.15 0.9 5.35 3.0 5.35 3.0 3.15" fill="#000000" fill-rule="evenodd" stroke="none"/>
    <path d="M25.55 5.35 L25.55 2.05 24.5 2.05 24.5 5.35 22.4 5.35 22.4 2.05 21.25 2.05 21.25 5.35 19.1 5.35 19.1 1.05 27.7 1.05 27.7 5.35 25.55 5.35 M15.9 2.05 L13.7 2.05 13.7 4.3 15.9 4.3 15.9 2.05 M18.0 5.35 L11.6 5.35 11.6 1.05 18.0 1.05 18.0 5.35 M10.55 2.05 L6.3 2.05 6.3 4.3 10.55 4.3 10.55 5.35 4.05 5.35 4.05 1.05 10.55 1.05 10.55 2.05 M3.0 3.15 L3.0 5.35 0.9 5.35 0.9 3.15 3.0 3.15" fill="#e5cf21" fill-rule="evenodd" stroke="none"/>
  </g>
</svg>
