<?xml version="1.0" encoding="UTF-8" standalone="no"?>
<svg xmlns:xlink="http://www.w3.org/1999/xlink" height="42.05px" width="225.7px" xmlns="http://www.w3.org/2000/svg">
  <g transform="matrix(1.0, 0.0, 0.0, 1.0, 0.2, -0.2)">
    <path d="M225.0 22.45 L225.0 23.85 225.5 23.85 225.5 29.55 172.7 29.55 172.7 29.35 172.25 29.35 172.25 29.55 163.1 29.55 163.1 22.8 152.05 22.8 152.05 29.55 94.95 29.55 94.95 29.3 94.45 29.3 94.45 29.55 85.6 29.55 85.6 29.35 85.2 29.35 85.2 29.55 76.9 29.55 76.9 29.25 70.0 29.25 70.0 29.2 68.2 29.2 68.2 22.95 65.45 22.95 65.45 29.25 35.55 29.25 35.55 28.65 33.85 28.65 33.85 28.3 35.55 28.3 35.55 9.75 225.5 9.75 225.5 15.4 225.25 15.4 225.25 16.8 225.5 16.8 225.5 22.45 225.0 22.45 M33.15 38.6 L33.15 38.9 36.95 38.9 36.95 38.6 33.15 38.6 M21.8 36.9 L21.5 36.25 21.3 36.35 21.8 36.9 M23.4 21.85 L23.85 21.95 23.95 21.65 23.75 21.75 23.4 21.85 M20.9 23.35 L20.95 23.35 21.0 23.1 21.55 22.45 20.95 22.55 20.7 22.55 20.7 22.65 20.9 23.35 M22.65 6.0 L23.3 7.0 23.65 7.0 Q24.4 7.0 24.9 7.4 26.25 8.4 25.1 10.45 L25.95 11.95 26.25 12.25 26.8 12.5 27.05 12.7 27.25 12.8 Q27.8 12.35 28.5 12.35 29.2 12.35 29.8 12.8 L30.2 13.2 31.15 15.1 31.3 15.8 31.35 15.9 Q32.6 18.05 30.85 19.45 L30.0 20.25 Q29.4 21.55 28.0 22.0 L27.9 22.0 26.95 22.5 25.2 22.95 25.25 23.05 25.7 24.35 26.65 25.25 26.9 25.95 27.7 26.95 27.9 27.05 28.0 27.0 28.15 26.95 28.15 26.6 29.3 27.2 29.4 27.85 Q29.6 28.35 30.65 29.35 29.95 29.8 29.8 30.45 L29.75 30.95 Q28.55 31.15 27.85 31.9 L27.55 32.35 25.55 33.1 Q24.35 34.95 22.75 34.95 L22.45 34.95 22.4 35.3 22.8 35.35 22.35 35.65 22.2 37.35 24.7 40.15 23.55 39.95 23.85 40.3 20.95 39.8 17.45 39.65 15.25 39.8 12.05 39.4 Q11.15 39.25 10.65 38.45 L10.6 38.45 Q8.2 37.6 6.75 36.0 L6.5 35.7 5.9 35.55 5.65 35.6 5.2 35.5 Q3.8 35.15 3.8 33.8 3.8 33.1 4.25 32.55 L4.9 32.95 5.1 32.75 5.05 32.6 5.0 32.2 Q3.4 31.0 4.0 29.45 4.35 28.65 5.25 28.25 4.95 27.2 5.15 26.5 L5.1 26.45 4.35 26.55 Q2.8 26.55 2.3 25.05 2.0 24.05 2.6 23.2 L2.7 23.1 Q0.5 22.4 0.25 21.2 L-0.2 19.0 5.4 19.15 6.9 19.05 Q6.6 18.6 6.6 17.95 L6.6 16.7 7.8 16.3 Q8.7 15.95 9.2 12.9 9.35 11.7 9.6 11.3 L10.35 10.6 10.2 9.8 9.8 9.55 9.65 9.6 8.6 9.75 8.45 8.75 8.45 8.6 8.0 8.25 6.7 8.1 6.8 7.05 6.85 6.85 Q6.25 5.85 6.3 4.8 6.35 3.9 6.9 3.3 7.65 2.5 8.55 2.5 9.85 2.5 10.35 3.7 L10.4 3.75 10.45 3.9 10.45 4.05 11.4 4.4 11.75 4.4 Q13.25 4.4 14.1 4.9 14.05 4.05 14.4 2.85 14.8 1.7 15.3 1.05 16.0 0.2 17.0 0.2 L17.35 0.2 17.5 0.25 Q19.45 0.75 19.05 3.1 L18.95 4.15 19.5 5.85 19.8 6.25 Q20.55 5.55 21.4 5.55 22.15 5.55 22.65 6.0 M41.2 38.9 L41.4 38.9 41.4 38.6 41.2 38.6 41.2 38.9 M55.6 35.3 L55.6 42.25 25.85 42.25 25.85 37.95 28.95 37.95 28.95 35.3 55.6 35.3" fill="#ffffff" fill-rule="evenodd" stroke="none"/>
  </g>
</svg>
