<?xml version="1.0" encoding="UTF-8" standalone="no"?>
<svg xmlns:xlink="http://www.w3.org/1999/xlink" height="17.25px" width="189.6px" xmlns="http://www.w3.org/2000/svg">
  <g transform="matrix(1.0, 0.0, 0.0, 1.0, -34.9, -11.2)">
    <path d="M39.55 28.2 L36.55 28.2 36.55 27.7 34.9 27.7 34.9 27.4 36.55 27.4 36.55 11.2 224.5 11.2 224.5 16.15 212.2 16.15 212.2 17.35 224.5 17.35 224.5 22.3 212.2 22.3 212.2 23.5 224.5 23.5 224.5 28.45 173.05 28.45 173.05 22.3 171.85 22.3 171.85 28.45 163.8 28.45 163.8 22.3 151.65 22.3 151.65 28.45 95.35 28.45 95.35 16.15 94.15 16.15 94.15 28.45 86.1 28.45 86.1 27.7 84.9 27.7 84.9 28.45 77.5 28.45 77.5 28.2 69.0 28.2 69.0 27.7 64.75 27.7 64.75 28.05 39.55 28.05 39.55 28.2 M223.5 12.15 L205.15 12.15 205.15 27.45 223.5 27.45 223.5 24.4 211.3 24.4 211.3 21.3 223.5 21.3 223.5 18.3 211.3 18.3 211.3 15.25 223.5 15.25 223.5 12.15 M203.35 18.3 L191.1 18.3 191.1 15.25 203.35 15.25 203.35 12.15 184.95 12.15 184.95 27.45 203.35 27.45 203.35 24.4 191.1 24.4 191.1 21.3 203.35 21.3 203.35 18.3 M204.15 16.15 L192.0 16.15 192.0 17.35 204.15 17.35 204.15 16.15 M204.15 22.3 L192.0 22.3 192.0 23.5 204.15 23.5 204.15 22.3 M184.0 22.3 L181.05 22.3 181.05 23.5 184.0 23.5 184.0 22.3 M183.15 12.15 L164.8 12.15 164.8 27.45 170.85 27.45 170.85 21.3 173.95 21.3 173.95 27.45 183.15 27.45 183.15 24.4 180.1 24.4 180.1 21.3 183.15 21.3 183.15 12.15 M170.85 15.25 L177.0 15.25 177.0 18.3 170.85 18.3 170.85 15.25 M163.8 16.15 L151.65 16.15 151.65 17.35 163.8 17.35 163.8 16.15 M171.85 17.35 L176.05 17.35 176.05 16.15 171.85 16.15 171.85 17.35 M163.0 18.3 L150.7 18.3 150.7 15.25 163.0 15.25 163.0 12.15 144.55 12.15 144.55 27.45 150.7 27.45 150.7 21.3 163.0 21.3 163.0 18.3 M142.75 12.15 L124.35 12.15 124.35 21.3 136.65 21.3 136.65 24.4 124.35 24.4 124.35 27.45 142.75 27.45 142.75 18.3 130.5 18.3 130.5 15.25 142.75 15.25 142.75 12.15 M143.65 16.15 L131.5 16.15 131.5 17.35 143.65 17.35 143.65 16.15 M123.4 16.15 L111.25 16.15 111.25 17.35 123.4 17.35 123.4 16.15 M122.55 18.3 L110.35 18.3 110.35 15.25 122.55 15.25 122.55 12.15 104.2 12.15 104.2 27.45 122.55 27.45 122.55 24.4 110.35 24.4 110.35 21.3 122.55 21.3 122.55 18.3 M135.7 22.3 L111.25 22.3 111.25 23.5 135.7 23.5 135.7 22.3 M96.25 15.25 L96.25 27.45 102.4 27.45 102.4 12.15 77.85 12.15 77.85 27.45 84.0 27.45 84.0 15.25 87.1 15.25 87.1 27.45 93.15 27.45 93.15 15.25 96.25 15.25 M84.9 16.15 L84.9 27.4 86.1 27.4 86.1 16.15 84.9 16.15 M69.0 16.15 L64.75 16.15 64.75 17.35 69.0 17.35 69.0 16.15 M69.9 18.3 L63.85 18.3 63.85 15.25 69.9 15.25 69.9 18.3 M69.9 21.3 L69.9 27.45 76.05 27.45 76.05 12.15 57.7 12.15 57.7 27.45 63.85 27.45 63.85 21.3 69.9 21.3 M64.75 22.3 L64.75 27.4 69.0 27.4 69.0 22.3 64.75 22.3 M48.75 22.3 L45.75 22.3 45.75 17.35 56.7 17.35 56.7 16.15 44.55 16.15 44.55 23.5 48.75 23.5 48.75 22.3 M49.75 21.3 L49.75 24.4 43.6 24.4 43.6 15.25 55.9 15.25 55.9 12.15 37.5 12.15 37.5 27.45 55.9 27.45 55.9 18.3 46.65 18.3 46.65 21.3 49.75 21.3" fill="#282425" fill-rule="evenodd" stroke="none"/>
    <path d="M203.35 18.3 L203.35 21.3 191.1 21.3 191.1 24.4 203.35 24.4 203.35 27.45 184.95 27.45 184.95 12.15 203.35 12.15 203.35 15.25 191.1 15.25 191.1 18.3 203.35 18.3 M223.5 12.15 L223.5 15.25 211.3 15.25 211.3 18.3 223.5 18.3 223.5 21.3 211.3 21.3 211.3 24.4 223.5 24.4 223.5 27.45 205.15 27.45 205.15 12.15 223.5 12.15 M170.85 15.25 L170.85 18.3 177.0 18.3 177.0 15.25 170.85 15.25 M183.15 12.15 L183.15 21.3 180.1 21.3 180.1 24.4 183.15 24.4 183.15 27.45 173.95 27.45 173.95 21.3 170.85 21.3 170.85 27.45 164.8 27.45 164.8 12.15 183.15 12.15 M142.75 12.15 L142.75 15.25 130.5 15.25 130.5 18.3 142.75 18.3 142.75 27.45 124.35 27.45 124.35 24.4 136.65 24.4 136.65 21.3 124.35 21.3 124.35 12.15 142.75 12.15 M163.0 18.3 L163.0 21.3 150.7 21.3 150.7 27.45 144.55 27.45 144.55 12.15 163.0 12.15 163.0 15.25 150.7 15.25 150.7 18.3 163.0 18.3 M122.55 18.3 L122.55 21.3 110.35 21.3 110.35 24.4 122.55 24.4 122.55 27.45 104.2 27.45 104.2 12.15 122.55 12.15 122.55 15.25 110.35 15.25 110.35 18.3 122.55 18.3 M96.25 15.25 L93.15 15.25 93.15 27.45 87.1 27.45 87.1 15.25 84.0 15.25 84.0 27.45 77.85 27.45 77.85 12.15 102.4 12.15 102.4 27.45 96.25 27.45 96.25 15.25 M69.9 21.3 L63.85 21.3 63.85 27.45 57.7 27.45 57.7 12.15 76.05 12.15 76.05 27.45 69.9 27.45 69.9 21.3 M69.9 18.3 L69.9 15.25 63.85 15.25 63.85 18.3 69.9 18.3 M49.75 21.3 L46.65 21.3 46.65 18.3 55.9 18.3 55.9 27.45 37.5 27.45 37.5 12.15 55.9 12.15 55.9 15.25 43.6 15.25 43.6 24.4 49.75 24.4 49.75 21.3" fill="#ffffff" fill-rule="evenodd" stroke="none"/>
    <path d="M64.75 28.05 L66.85 28.05 66.85 28.2 39.55 28.2 39.55 28.05 64.75 28.05" fill="#000000" fill-rule="evenodd" stroke="none"/>
  </g>
</svg>
