<?xml version="1.0" encoding="UTF-8" standalone="no"?>
<svg xmlns:xlink="http://www.w3.org/1999/xlink" height="52.0px" width="21.0px" xmlns="http://www.w3.org/2000/svg">
  <g transform="matrix(1.0, 0.0, 0.0, 1.0, -27.0, 52.0)">
    <path d="M47.0 -50.0 L47.0 -51.0 47.0 -52.0 48.0 -52.0 48.0 0.0 47.0 0.0 47.0 -1.0 47.0 -2.0 47.0 -3.0 47.0 -4.0 29.0 -4.0 29.0 -5.0 32.0 -5.0 32.0 -6.0 32.0 -47.0 31.0 -47.0 29.0 -47.0 29.0 -48.0 30.0 -48.0 31.0 -48.0 32.0 -48.0 33.0 -48.0 34.0 -48.0 35.0 -48.0 36.0 -48.0 37.0 -48.0 47.0 -48.0 47.0 -49.0 47.0 -50.0 M28.0 0.0 L27.0 0.0 27.0 -52.0 28.0 -52.0 28.0 -51.0 28.0 -50.0 28.0 -49.0 28.0 -48.0 28.0 -47.0 28.0 -5.0 28.0 -4.0 28.0 -3.0 28.0 -2.0 28.0 -1.0 28.0 0.0 M39.0 -47.0 L38.0 -47.0 38.0 -5.0 39.0 -5.0 42.0 -5.0 42.0 -6.0 42.0 -47.0 41.0 -47.0 39.0 -47.0 M37.0 -6.0 L37.0 -47.0 36.0 -47.0 34.0 -47.0 33.0 -47.0 33.0 -5.0 34.0 -5.0 37.0 -5.0 37.0 -6.0 M47.0 -6.0 L47.0 -47.0 46.0 -47.0 44.0 -47.0 43.0 -47.0 43.0 -5.0 44.0 -5.0 47.0 -5.0 47.0 -6.0" fill="#341a09" fill-rule="evenodd" stroke="none"/>
    <path d="M45.0 -50.0 L47.0 -50.0 47.0 -49.0 45.0 -49.0 45.0 -50.0 M47.0 -51.0 L34.0 -51.0 33.0 -51.0 32.0 -51.0 31.0 -51.0 30.0 -51.0 29.0 -51.0 28.0 -51.0 28.0 -52.0 47.0 -52.0 47.0 -51.0 M28.0 -50.0 L29.0 -50.0 29.0 -49.0 28.0 -49.0 28.0 -50.0 M39.0 -5.0 L38.0 -5.0 38.0 -47.0 39.0 -47.0 39.0 -5.0 M34.0 -5.0 L33.0 -5.0 33.0 -47.0 34.0 -47.0 34.0 -5.0 M36.0 -36.0 L36.0 -32.0 35.0 -32.0 35.0 -36.0 36.0 -36.0 M36.0 -30.0 L36.0 -29.0 35.0 -29.0 35.0 -30.0 36.0 -30.0 M36.0 -20.0 L36.0 -14.0 35.0 -14.0 35.0 -20.0 36.0 -20.0 M36.0 -11.0 L36.0 -10.0 35.0 -10.0 35.0 -11.0 36.0 -11.0 M29.0 -4.0 L47.0 -4.0 47.0 -3.0 34.0 -3.0 33.0 -3.0 32.0 -3.0 31.0 -3.0 30.0 -3.0 29.0 -3.0 28.0 -3.0 28.0 -4.0 29.0 -4.0 M47.0 -2.0 L47.0 -1.0 45.0 -1.0 45.0 -2.0 47.0 -2.0 M31.0 -36.0 L31.0 -32.0 30.0 -32.0 30.0 -36.0 31.0 -36.0 M31.0 -30.0 L31.0 -29.0 30.0 -29.0 30.0 -30.0 31.0 -30.0 M31.0 -20.0 L31.0 -14.0 30.0 -14.0 30.0 -20.0 31.0 -20.0 M31.0 -11.0 L31.0 -10.0 30.0 -10.0 30.0 -11.0 31.0 -11.0 M28.0 -47.0 L29.0 -47.0 29.0 -5.0 28.0 -5.0 28.0 -47.0 M41.0 -32.0 L40.0 -32.0 40.0 -36.0 41.0 -36.0 41.0 -32.0 M41.0 -29.0 L40.0 -29.0 40.0 -30.0 41.0 -30.0 41.0 -29.0 M41.0 -14.0 L40.0 -14.0 40.0 -20.0 41.0 -20.0 41.0 -14.0 M28.0 -2.0 L29.0 -2.0 29.0 -1.0 28.0 -1.0 28.0 -2.0 M41.0 -10.0 L40.0 -10.0 40.0 -11.0 41.0 -11.0 41.0 -10.0 M44.0 -5.0 L43.0 -5.0 43.0 -47.0 44.0 -47.0 44.0 -5.0 M46.0 -36.0 L46.0 -32.0 45.0 -32.0 45.0 -36.0 46.0 -36.0 M46.0 -30.0 L46.0 -29.0 45.0 -29.0 45.0 -30.0 46.0 -30.0 M46.0 -20.0 L46.0 -14.0 45.0 -14.0 45.0 -20.0 46.0 -20.0 M46.0 -11.0 L46.0 -10.0 45.0 -10.0 45.0 -11.0 46.0 -11.0" fill="#7e5a22" fill-rule="evenodd" stroke="none"/>
    <path d="M42.0 -50.0 L41.0 -50.0 40.0 -50.0 39.0 -50.0 38.0 -50.0 37.0 -50.0 37.0 -49.0 36.0 -49.0 35.0 -49.0 35.0 -50.0 34.0 -50.0 34.0 -51.0 47.0 -51.0 47.0 -50.0 45.0 -50.0 44.0 -50.0 43.0 -50.0 42.0 -50.0 M34.0 0.0 L33.0 0.0 33.0 -1.0 34.0 -1.0 34.0 0.0 M33.0 -49.0 L34.0 -49.0 34.0 -48.0 33.0 -48.0 33.0 -49.0 M39.0 -47.0 L41.0 -47.0 41.0 -36.0 40.0 -36.0 40.0 -32.0 41.0 -32.0 41.0 -30.0 40.0 -30.0 40.0 -29.0 41.0 -29.0 41.0 -20.0 40.0 -20.0 40.0 -14.0 41.0 -14.0 41.0 -11.0 40.0 -11.0 40.0 -10.0 41.0 -10.0 41.0 -6.0 42.0 -6.0 42.0 -5.0 39.0 -5.0 39.0 -47.0 M37.0 -6.0 L37.0 -5.0 34.0 -5.0 34.0 -47.0 36.0 -47.0 36.0 -36.0 35.0 -36.0 35.0 -32.0 36.0 -32.0 36.0 -30.0 35.0 -30.0 35.0 -29.0 36.0 -29.0 36.0 -20.0 35.0 -20.0 35.0 -14.0 36.0 -14.0 36.0 -11.0 35.0 -11.0 35.0 -10.0 36.0 -10.0 36.0 -6.0 37.0 -6.0 M32.0 -6.0 L32.0 -5.0 29.0 -5.0 29.0 -47.0 31.0 -47.0 31.0 -36.0 30.0 -36.0 30.0 -32.0 31.0 -32.0 31.0 -30.0 30.0 -30.0 30.0 -29.0 31.0 -29.0 31.0 -20.0 30.0 -20.0 30.0 -14.0 31.0 -14.0 31.0 -11.0 30.0 -11.0 30.0 -10.0 31.0 -10.0 31.0 -6.0 32.0 -6.0 M47.0 -3.0 L47.0 -2.0 45.0 -2.0 44.0 -2.0 43.0 -2.0 42.0 -2.0 41.0 -2.0 40.0 -2.0 39.0 -2.0 38.0 -2.0 37.0 -2.0 37.0 -1.0 36.0 -1.0 35.0 -1.0 35.0 -2.0 34.0 -2.0 34.0 -3.0 47.0 -3.0 M47.0 -6.0 L47.0 -5.0 44.0 -5.0 44.0 -47.0 46.0 -47.0 46.0 -36.0 45.0 -36.0 45.0 -32.0 46.0 -32.0 46.0 -30.0 45.0 -30.0 45.0 -29.0 46.0 -29.0 46.0 -20.0 45.0 -20.0 45.0 -14.0 46.0 -14.0 46.0 -11.0 45.0 -11.0 45.0 -10.0 46.0 -10.0 46.0 -6.0 47.0 -6.0" fill="#a67b41" fill-rule="evenodd" stroke="none"/>
    <path d="M41.0 -50.0 L42.0 -50.0 42.0 -49.0 41.0 -49.0 41.0 -50.0 M41.0 -2.0 L42.0 -2.0 42.0 -1.0 41.0 -1.0 41.0 -2.0" fill="#a97c43" fill-rule="evenodd" stroke="none"/>
    <path d="M42.0 -50.0 L43.0 -50.0 43.0 -49.0 42.0 -49.0 42.0 -50.0 M42.0 -2.0 L43.0 -2.0 43.0 -1.0 42.0 -1.0 42.0 -2.0" fill="#a27840" fill-rule="evenodd" stroke="none"/>
    <path d="M44.0 -50.0 L45.0 -50.0 45.0 -49.0 44.0 -49.0 44.0 -50.0 M29.0 0.0 L28.0 0.0 28.0 -1.0 29.0 -1.0 29.0 0.0 M29.0 -51.0 L29.0 -50.0 30.0 -50.0 30.0 -49.0 29.0 -49.0 29.0 -50.0 28.0 -50.0 28.0 -51.0 29.0 -51.0 M28.0 -49.0 L29.0 -49.0 29.0 -48.0 28.0 -48.0 28.0 -49.0 M29.0 -3.0 L29.0 -2.0 30.0 -2.0 30.0 -1.0 29.0 -1.0 29.0 -2.0 28.0 -2.0 28.0 -3.0 29.0 -3.0 M44.0 -2.0 L45.0 -2.0 45.0 -1.0 44.0 -1.0 44.0 -2.0" fill="#7d5921" fill-rule="evenodd" stroke="none"/>
    <path d="M43.0 -50.0 L44.0 -50.0 44.0 -49.0 43.0 -49.0 43.0 -50.0 M43.0 -2.0 L44.0 -2.0 44.0 -1.0 43.0 -1.0 43.0 -2.0" fill="#805c25" fill-rule="evenodd" stroke="none"/>
    <path d="M30.0 0.0 L29.0 0.0 29.0 -1.0 30.0 -1.0 30.0 0.0 M30.0 -51.0 L30.0 -50.0 29.0 -50.0 29.0 -51.0 30.0 -51.0 M30.0 -50.0 L31.0 -50.0 31.0 -49.0 30.0 -49.0 30.0 -48.0 29.0 -48.0 29.0 -49.0 30.0 -49.0 30.0 -50.0 M30.0 -3.0 L30.0 -2.0 31.0 -2.0 31.0 -1.0 30.0 -1.0 30.0 -2.0 29.0 -2.0 29.0 -3.0 30.0 -3.0" fill="#815d26" fill-rule="evenodd" stroke="none"/>
    <path d="M31.0 0.0 L30.0 0.0 30.0 -1.0 31.0 -1.0 31.0 -2.0 32.0 -2.0 32.0 -1.0 31.0 -1.0 31.0 0.0 M30.0 -50.0 L30.0 -51.0 31.0 -51.0 31.0 -50.0 30.0 -50.0 M30.0 -48.0 L30.0 -49.0 31.0 -49.0 31.0 -50.0 32.0 -50.0 32.0 -49.0 31.0 -49.0 31.0 -48.0 30.0 -48.0 M31.0 -2.0 L30.0 -2.0 30.0 -3.0 31.0 -3.0 31.0 -2.0" fill="#9e763d" fill-rule="evenodd" stroke="none"/>
    <path d="M32.0 0.0 L31.0 0.0 31.0 -1.0 32.0 -1.0 32.0 -2.0 33.0 -2.0 33.0 -1.0 32.0 -1.0 32.0 0.0 M31.0 -50.0 L31.0 -51.0 32.0 -51.0 32.0 -50.0 33.0 -50.0 33.0 -49.0 32.0 -49.0 32.0 -48.0 31.0 -48.0 31.0 -49.0 32.0 -49.0 32.0 -50.0 31.0 -50.0 M31.0 -2.0 L31.0 -3.0 32.0 -3.0 32.0 -2.0 31.0 -2.0" fill="#836028" fill-rule="evenodd" stroke="none"/>
    <path d="M38.0 -50.0 L39.0 -50.0 39.0 -49.0 38.0 -49.0 38.0 -50.0 M40.0 -50.0 L41.0 -50.0 41.0 -49.0 40.0 -49.0 40.0 -50.0 M33.0 0.0 L32.0 0.0 32.0 -1.0 33.0 -1.0 33.0 -2.0 32.0 -2.0 32.0 -3.0 33.0 -3.0 33.0 -2.0 34.0 -2.0 34.0 -1.0 33.0 -1.0 33.0 0.0 M32.0 -50.0 L32.0 -51.0 33.0 -51.0 33.0 -50.0 34.0 -50.0 34.0 -49.0 33.0 -49.0 33.0 -50.0 32.0 -50.0 M33.0 -48.0 L32.0 -48.0 32.0 -49.0 33.0 -49.0 33.0 -48.0 M38.0 -2.0 L39.0 -2.0 39.0 -1.0 38.0 -1.0 38.0 -2.0 M40.0 -2.0 L41.0 -2.0 41.0 -1.0 40.0 -1.0 40.0 -2.0" fill="#a1783f" fill-rule="evenodd" stroke="none"/>
    <path d="M34.0 -51.0 L34.0 -50.0 35.0 -50.0 35.0 -49.0 34.0 -49.0 34.0 -50.0 33.0 -50.0 33.0 -51.0 34.0 -51.0 M37.0 -49.0 L37.0 -50.0 38.0 -50.0 38.0 -49.0 37.0 -49.0 M33.0 -2.0 L33.0 -3.0 34.0 -3.0 34.0 -2.0 35.0 -2.0 35.0 -1.0 34.0 -1.0 34.0 -2.0 33.0 -2.0 M37.0 -1.0 L37.0 -2.0 38.0 -2.0 38.0 -1.0 37.0 -1.0" fill="#a77b42" fill-rule="evenodd" stroke="none"/>
    <path d="M39.0 -50.0 L40.0 -50.0 40.0 -49.0 39.0 -49.0 39.0 -50.0 M39.0 -2.0 L40.0 -2.0 40.0 -1.0 39.0 -1.0 39.0 -2.0" fill="#825f27" fill-rule="evenodd" stroke="none"/>
    <path d="M41.0 -49.0 L42.0 -49.0 43.0 -49.0 44.0 -49.0 45.0 -49.0 47.0 -49.0 47.0 -48.0 37.0 -48.0 37.0 -49.0 38.0 -49.0 39.0 -49.0 40.0 -49.0 41.0 -49.0 M47.0 0.0 L37.0 0.0 37.0 -1.0 38.0 -1.0 39.0 -1.0 40.0 -1.0 41.0 -1.0 42.0 -1.0 43.0 -1.0 44.0 -1.0 45.0 -1.0 47.0 -1.0 47.0 0.0 M41.0 -47.0 L42.0 -47.0 42.0 -6.0 41.0 -6.0 41.0 -10.0 41.0 -11.0 41.0 -14.0 41.0 -20.0 41.0 -29.0 41.0 -30.0 41.0 -32.0 41.0 -36.0 41.0 -47.0 M36.0 -47.0 L37.0 -47.0 37.0 -6.0 36.0 -6.0 36.0 -10.0 36.0 -11.0 36.0 -14.0 36.0 -20.0 36.0 -29.0 36.0 -30.0 36.0 -32.0 36.0 -36.0 36.0 -47.0 M31.0 -47.0 L32.0 -47.0 32.0 -6.0 31.0 -6.0 31.0 -10.0 31.0 -11.0 31.0 -14.0 31.0 -20.0 31.0 -29.0 31.0 -30.0 31.0 -32.0 31.0 -36.0 31.0 -47.0 M46.0 -47.0 L47.0 -47.0 47.0 -6.0 46.0 -6.0 46.0 -10.0 46.0 -11.0 46.0 -14.0 46.0 -20.0 46.0 -29.0 46.0 -30.0 46.0 -32.0 46.0 -36.0 46.0 -47.0" fill="#da9856" fill-rule="evenodd" stroke="none"/>
    <path d="M36.0 -49.0 L37.0 -49.0 37.0 -48.0 36.0 -48.0 36.0 -49.0 M37.0 0.0 L36.0 0.0 36.0 -1.0 37.0 -1.0 37.0 0.0" fill="#db9a56" fill-rule="evenodd" stroke="none"/>
    <path d="M35.0 -49.0 L36.0 -49.0 36.0 -48.0 35.0 -48.0 35.0 -49.0 M36.0 0.0 L35.0 0.0 35.0 -1.0 36.0 -1.0 36.0 0.0" fill="#d69655" fill-rule="evenodd" stroke="none"/>
    <path d="M35.0 0.0 L34.0 0.0 34.0 -1.0 35.0 -1.0 35.0 0.0 M34.0 -49.0 L35.0 -49.0 35.0 -48.0 34.0 -48.0 34.0 -49.0" fill="#a97c42" fill-rule="evenodd" stroke="none"/>
    <path d="M29.0 -5.0 L29.0 -4.0 28.0 -4.0 28.0 -5.0 29.0 -5.0 M28.0 -48.0 L29.0 -48.0 29.0 -47.0 28.0 -47.0 28.0 -48.0" fill="#391f0a" fill-rule="evenodd" stroke="none"/>
  </g>
</svg>
