<?xml version="1.0" encoding="UTF-8" standalone="no"?>
<svg xmlns:xlink="http://www.w3.org/1999/xlink" height="107.0px" width="108.0px" xmlns="http://www.w3.org/2000/svg">
  <g transform="matrix(1.0, 0.0, 0.0, 1.0, 54.0, 107.0)">
    <path d="M1.0 -65.0 L0.0 -65.0 0.0 -66.0 1.0 -66.0 1.0 -65.0 2.0 -65.0 2.0 -64.0 3.0 -64.0 3.0 -63.0 4.0 -63.0 4.0 -62.0 5.0 -62.0 5.0 -61.0 6.0 -61.0 6.0 -60.0 7.0 -60.0 7.0 -59.0 8.0 -59.0 8.0 -58.0 9.0 -58.0 9.0 -57.0 10.0 -57.0 10.0 -56.0 11.0 -56.0 11.0 -55.0 12.0 -55.0 12.0 -54.0 13.0 -54.0 13.0 -53.0 14.0 -53.0 14.0 -52.0 15.0 -52.0 15.0 -51.0 16.0 -51.0 16.0 -50.0 17.0 -50.0 17.0 -49.0 18.0 -49.0 18.0 -48.0 19.0 -48.0 19.0 -47.0 20.0 -47.0 20.0 -46.0 21.0 -46.0 21.0 -45.0 22.0 -45.0 22.0 -44.0 23.0 -44.0 23.0 -43.0 24.0 -43.0 24.0 -42.0 25.0 -42.0 25.0 -41.0 26.0 -41.0 26.0 -40.0 27.0 -40.0 27.0 -39.0 28.0 -39.0 28.0 -38.0 29.0 -38.0 29.0 -37.0 30.0 -37.0 30.0 -36.0 31.0 -36.0 31.0 -35.0 32.0 -35.0 32.0 -34.0 33.0 -34.0 33.0 -33.0 34.0 -33.0 34.0 -32.0 35.0 -32.0 35.0 -31.0 36.0 -31.0 36.0 -30.0 37.0 -30.0 37.0 -29.0 38.0 -29.0 38.0 -28.0 39.0 -28.0 39.0 -27.0 40.0 -27.0 40.0 -26.0 41.0 -26.0 41.0 -25.0 42.0 -25.0 42.0 -24.0 43.0 -24.0 43.0 -23.0 52.0 -23.0 52.0 -22.0 53.0 -22.0 53.0 -21.0 54.0 -21.0 54.0 -19.0 52.0 -19.0 51.0 -19.0 50.0 -19.0 49.0 -19.0 49.0 -11.0 49.0 -8.0 50.0 -8.0 51.0 -8.0 51.0 -11.0 52.0 -11.0 52.0 -8.0 53.0 -8.0 53.0 0.0 41.0 0.0 41.0 -1.0 40.0 -1.0 40.0 -2.0 39.0 -2.0 39.0 -3.0 38.0 -3.0 38.0 -4.0 34.0 -4.0 34.0 -5.0 33.0 -5.0 33.0 -6.0 32.0 -6.0 32.0 -7.0 31.0 -7.0 31.0 -8.0 30.0 -8.0 30.0 -9.0 29.0 -9.0 29.0 -10.0 28.0 -10.0 28.0 -11.0 27.0 -11.0 27.0 -12.0 26.0 -12.0 26.0 -13.0 25.0 -13.0 25.0 -14.0 24.0 -14.0 24.0 -15.0 23.0 -15.0 23.0 -16.0 22.0 -16.0 22.0 -17.0 21.0 -17.0 21.0 -18.0 20.0 -18.0 20.0 -19.0 19.0 -19.0 19.0 -20.0 18.0 -20.0 18.0 -21.0 17.0 -21.0 17.0 -22.0 16.0 -22.0 16.0 -23.0 15.0 -23.0 15.0 -24.0 14.0 -24.0 14.0 -25.0 13.0 -25.0 13.0 -26.0 12.0 -26.0 12.0 -27.0 11.0 -27.0 11.0 -28.0 10.0 -28.0 10.0 -29.0 9.0 -29.0 9.0 -30.0 8.0 -30.0 8.0 -31.0 7.0 -31.0 7.0 -32.0 6.0 -32.0 6.0 -33.0 5.0 -33.0 5.0 -34.0 4.0 -34.0 4.0 -35.0 3.0 -35.0 3.0 -36.0 2.0 -36.0 2.0 -37.0 1.0 -37.0 1.0 -38.0 0.0 -38.0 0.0 -39.0 -1.0 -39.0 -1.0 -40.0 -2.0 -40.0 -2.0 -41.0 -3.0 -41.0 -3.0 -42.0 -4.0 -42.0 -4.0 -43.0 -5.0 -43.0 -5.0 -44.0 -6.0 -44.0 -6.0 -45.0 -7.0 -45.0 -7.0 -46.0 -8.0 -46.0 -8.0 -47.0 -9.0 -47.0 -9.0 -48.0 -10.0 -48.0 -10.0 -49.0 -11.0 -49.0 -11.0 -50.0 -12.0 -50.0 -12.0 -51.0 -13.0 -51.0 -13.0 -52.0 -14.0 -52.0 -14.0 -53.0 -15.0 -53.0 -15.0 -54.0 -16.0 -54.0 -16.0 -55.0 -17.0 -55.0 -17.0 -56.0 -18.0 -56.0 -18.0 -57.0 -19.0 -57.0 -19.0 -58.0 -20.0 -58.0 -20.0 -59.0 -21.0 -59.0 -21.0 -60.0 -22.0 -60.0 -22.0 -61.0 -23.0 -61.0 -23.0 -62.0 -24.0 -62.0 -24.0 -63.0 -25.0 -63.0 -25.0 -64.0 -26.0 -64.0 -26.0 -65.0 -27.0 -65.0 -27.0 -66.0 -28.0 -66.0 -28.0 -67.0 -29.0 -67.0 -29.0 -68.0 -30.0 -68.0 -30.0 -69.0 -31.0 -69.0 -31.0 -70.0 -32.0 -70.0 -32.0 -71.0 -33.0 -71.0 -33.0 -72.0 -34.0 -72.0 -34.0 -73.0 -35.0 -73.0 -35.0 -74.0 -36.0 -74.0 -36.0 -75.0 -37.0 -75.0 -37.0 -76.0 -38.0 -76.0 -38.0 -77.0 -39.0 -77.0 -39.0 -78.0 -40.0 -78.0 -40.0 -79.0 -41.0 -79.0 -41.0 -80.0 -42.0 -80.0 -42.0 -81.0 -43.0 -81.0 -43.0 -84.0 -53.0 -84.0 -53.0 -92.0 -52.0 -92.0 -52.0 -103.0 -54.0 -103.0 -54.0 -107.0 -40.0 -107.0 -40.0 -106.0 -39.0 -106.0 -39.0 -105.0 -38.0 -105.0 -38.0 -104.0 -37.0 -104.0 -37.0 -103.0 -36.0 -103.0 -36.0 -102.0 -35.0 -102.0 -35.0 -101.0 -34.0 -101.0 -34.0 -100.0 -33.0 -100.0 -33.0 -99.0 -32.0 -99.0 -32.0 -98.0 -31.0 -98.0 -31.0 -97.0 -30.0 -97.0 -30.0 -96.0 -29.0 -96.0 -29.0 -95.0 -28.0 -95.0 -28.0 -94.0 -27.0 -94.0 -27.0 -93.0 -26.0 -93.0 -26.0 -92.0 -25.0 -92.0 -25.0 -91.0 -24.0 -91.0 -24.0 -90.0 -23.0 -90.0 -23.0 -89.0 -22.0 -89.0 -22.0 -88.0 -21.0 -88.0 -21.0 -87.0 -20.0 -87.0 -20.0 -86.0 -19.0 -86.0 -19.0 -85.0 -18.0 -85.0 -18.0 -84.0 -17.0 -84.0 -17.0 -83.0 -16.0 -83.0 -16.0 -82.0 -15.0 -82.0 -15.0 -81.0 -14.0 -81.0 -14.0 -80.0 -13.0 -80.0 -13.0 -79.0 -12.0 -79.0 -12.0 -78.0 -11.0 -78.0 -11.0 -77.0 -10.0 -77.0 -10.0 -76.0 -9.0 -76.0 -9.0 -75.0 -8.0 -75.0 -8.0 -74.0 -7.0 -74.0 -7.0 -73.0 -6.0 -73.0 -6.0 -72.0 -5.0 -72.0 -5.0 -71.0 -4.0 -71.0 -4.0 -70.0 -3.0 -70.0 -3.0 -69.0 -2.0 -69.0 -2.0 -68.0 -1.0 -68.0 -1.0 -67.0 -2.0 -67.0 -2.0 -68.0 -3.0 -68.0 -3.0 -69.0 -4.0 -69.0 -4.0 -70.0 -5.0 -70.0 -5.0 -71.0 -6.0 -71.0 -6.0 -72.0 -7.0 -72.0 -7.0 -73.0 -8.0 -73.0 -8.0 -74.0 -9.0 -74.0 -9.0 -75.0 -10.0 -75.0 -10.0 -76.0 -11.0 -76.0 -11.0 -77.0 -12.0 -77.0 -12.0 -78.0 -13.0 -78.0 -13.0 -79.0 -14.0 -79.0 -14.0 -80.0 -15.0 -80.0 -15.0 -81.0 -16.0 -81.0 -16.0 -82.0 -17.0 -82.0 -17.0 -83.0 -18.0 -83.0 -18.0 -84.0 -19.0 -84.0 -19.0 -85.0 -20.0 -85.0 -20.0 -86.0 -21.0 -86.0 -21.0 -87.0 -22.0 -87.0 -22.0 -88.0 -23.0 -88.0 -23.0 -89.0 -24.0 -89.0 -24.0 -90.0 -25.0 -90.0 -25.0 -91.0 -26.0 -91.0 -26.0 -92.0 -27.0 -92.0 -27.0 -93.0 -28.0 -93.0 -28.0 -94.0 -29.0 -94.0 -29.0 -95.0 -30.0 -95.0 -30.0 -96.0 -31.0 -96.0 -31.0 -97.0 -32.0 -97.0 -32.0 -98.0 -33.0 -98.0 -33.0 -99.0 -34.0 -99.0 -34.0 -100.0 -35.0 -100.0 -35.0 -101.0 -36.0 -101.0 -36.0 -102.0 -37.0 -102.0 -37.0 -103.0 -38.0 -103.0 -38.0 -104.0 -39.0 -104.0 -39.0 -105.0 -40.0 -105.0 -40.0 -106.0 -53.0 -106.0 -53.0 -105.0 -53.0 -104.0 -42.0 -104.0 -42.0 -103.0 -43.0 -103.0 -43.0 -95.0 -43.0 -92.0 -42.0 -92.0 -41.0 -92.0 -41.0 -95.0 -40.0 -95.0 -40.0 -91.0 -42.0 -91.0 -43.0 -91.0 -52.0 -91.0 -52.0 -90.0 -52.0 -89.0 -52.0 -88.0 -52.0 -85.0 -43.0 -85.0 -42.0 -85.0 -42.0 -84.0 -41.0 -84.0 -41.0 -83.0 -42.0 -83.0 -42.0 -81.0 -41.0 -81.0 -41.0 -80.0 -40.0 -80.0 -40.0 -79.0 -39.0 -79.0 -39.0 -78.0 -38.0 -78.0 -38.0 -77.0 -37.0 -77.0 -37.0 -76.0 -36.0 -76.0 -36.0 -75.0 -35.0 -75.0 -35.0 -74.0 -34.0 -74.0 -34.0 -73.0 -33.0 -73.0 -33.0 -72.0 -32.0 -72.0 -32.0 -71.0 -31.0 -71.0 -31.0 -70.0 -30.0 -70.0 -30.0 -69.0 -29.0 -69.0 -29.0 -68.0 -28.0 -68.0 -28.0 -67.0 -27.0 -67.0 -27.0 -66.0 -26.0 -66.0 -26.0 -65.0 -25.0 -65.0 -25.0 -64.0 -24.0 -64.0 -24.0 -63.0 -23.0 -63.0 -23.0 -62.0 -22.0 -62.0 -22.0 -61.0 -21.0 -61.0 -21.0 -60.0 -20.0 -60.0 -20.0 -59.0 -19.0 -59.0 -19.0 -58.0 -18.0 -58.0 -18.0 -57.0 -17.0 -57.0 -17.0 -56.0 -16.0 -56.0 -16.0 -55.0 -15.0 -55.0 -15.0 -54.0 -14.0 -54.0 -14.0 -53.0 -13.0 -53.0 -13.0 -52.0 -12.0 -52.0 -12.0 -51.0 -11.0 -51.0 -11.0 -50.0 -10.0 -50.0 -10.0 -49.0 -9.0 -49.0 -9.0 -48.0 -8.0 -48.0 -8.0 -47.0 -7.0 -47.0 -7.0 -46.0 -6.0 -46.0 -6.0 -45.0 -5.0 -45.0 -5.0 -44.0 -4.0 -44.0 -4.0 -43.0 -3.0 -43.0 -3.0 -42.0 -2.0 -42.0 -2.0 -41.0 -1.0 -41.0 -1.0 -40.0 0.0 -40.0 0.0 -39.0 1.0 -39.0 1.0 -38.0 2.0 -38.0 2.0 -37.0 3.0 -37.0 3.0 -36.0 4.0 -36.0 4.0 -35.0 5.0 -35.0 5.0 -34.0 6.0 -34.0 6.0 -33.0 7.0 -33.0 7.0 -32.0 8.0 -32.0 8.0 -31.0 9.0 -31.0 9.0 -30.0 10.0 -30.0 10.0 -29.0 11.0 -29.0 11.0 -28.0 12.0 -28.0 12.0 -27.0 13.0 -27.0 13.0 -26.0 14.0 -26.0 14.0 -25.0 15.0 -25.0 15.0 -24.0 16.0 -24.0 16.0 -23.0 17.0 -23.0 17.0 -22.0 18.0 -22.0 18.0 -21.0 19.0 -21.0 19.0 -20.0 20.0 -20.0 20.0 -19.0 21.0 -19.0 21.0 -18.0 22.0 -18.0 22.0 -17.0 23.0 -17.0 23.0 -16.0 24.0 -16.0 24.0 -15.0 25.0 -15.0 25.0 -14.0 26.0 -14.0 26.0 -13.0 27.0 -13.0 27.0 -12.0 28.0 -12.0 28.0 -11.0 29.0 -11.0 29.0 -10.0 30.0 -10.0 30.0 -9.0 31.0 -9.0 31.0 -8.0 32.0 -8.0 32.0 -7.0 33.0 -7.0 33.0 -6.0 34.0 -6.0 34.0 -5.0 36.0 -5.0 36.0 -6.0 37.0 -6.0 37.0 -5.0 38.0 -5.0 38.0 -4.0 39.0 -4.0 39.0 -3.0 40.0 -3.0 40.0 -2.0 41.0 -2.0 41.0 -1.0 42.0 -1.0 43.0 -1.0 52.0 -1.0 52.0 -4.0 52.0 -5.0 52.0 -6.0 52.0 -7.0 43.0 -7.0 43.0 -8.0 48.0 -8.0 48.0 -19.0 41.0 -19.0 41.0 -20.0 52.0 -20.0 53.0 -20.0 53.0 -21.0 52.0 -21.0 52.0 -22.0 43.0 -22.0 43.0 -23.0 42.0 -23.0 42.0 -24.0 41.0 -24.0 41.0 -25.0 40.0 -25.0 40.0 -26.0 39.0 -26.0 39.0 -27.0 38.0 -27.0 38.0 -28.0 37.0 -28.0 37.0 -29.0 36.0 -29.0 36.0 -30.0 35.0 -30.0 35.0 -31.0 34.0 -31.0 34.0 -32.0 33.0 -32.0 33.0 -33.0 32.0 -33.0 32.0 -34.0 31.0 -34.0 31.0 -35.0 30.0 -35.0 30.0 -36.0 29.0 -36.0 29.0 -37.0 28.0 -37.0 28.0 -38.0 27.0 -38.0 27.0 -39.0 26.0 -39.0 26.0 -40.0 25.0 -40.0 25.0 -41.0 24.0 -41.0 24.0 -42.0 23.0 -42.0 23.0 -43.0 22.0 -43.0 22.0 -44.0 21.0 -44.0 21.0 -45.0 20.0 -45.0 20.0 -46.0 19.0 -46.0 19.0 -47.0 18.0 -47.0 18.0 -48.0 17.0 -48.0 17.0 -49.0 16.0 -49.0 16.0 -50.0 15.0 -50.0 15.0 -51.0 14.0 -51.0 14.0 -52.0 13.0 -52.0 13.0 -53.0 12.0 -53.0 12.0 -54.0 11.0 -54.0 11.0 -55.0 10.0 -55.0 10.0 -56.0 9.0 -56.0 9.0 -57.0 8.0 -57.0 8.0 -58.0 7.0 -58.0 7.0 -59.0 6.0 -59.0 6.0 -60.0 5.0 -60.0 5.0 -61.0 4.0 -61.0 4.0 -62.0 3.0 -62.0 3.0 -63.0 2.0 -63.0 2.0 -64.0 1.0 -64.0 1.0 -65.0 M-1.0 -67.0 L0.0 -67.0 0.0 -66.0 -1.0 -66.0 -1.0 -67.0 M1.0 -60.0 L0.0 -60.0 0.0 -61.0 1.0 -61.0 1.0 -60.0 2.0 -60.0 2.0 -59.0 3.0 -59.0 3.0 -58.0 4.0 -58.0 4.0 -57.0 5.0 -57.0 5.0 -56.0 6.0 -56.0 6.0 -55.0 7.0 -55.0 7.0 -54.0 8.0 -54.0 8.0 -53.0 9.0 -53.0 9.0 -52.0 10.0 -52.0 10.0 -51.0 11.0 -51.0 11.0 -50.0 12.0 -50.0 12.0 -49.0 13.0 -49.0 13.0 -48.0 14.0 -48.0 14.0 -47.0 15.0 -47.0 15.0 -46.0 16.0 -46.0 16.0 -45.0 17.0 -45.0 17.0 -44.0 18.0 -44.0 18.0 -43.0 19.0 -43.0 19.0 -42.0 20.0 -42.0 20.0 -41.0 21.0 -41.0 21.0 -40.0 22.0 -40.0 22.0 -39.0 23.0 -39.0 23.0 -38.0 24.0 -38.0 24.0 -37.0 25.0 -37.0 25.0 -36.0 26.0 -36.0 26.0 -35.0 27.0 -35.0 27.0 -34.0 28.0 -34.0 28.0 -33.0 29.0 -33.0 29.0 -32.0 30.0 -32.0 30.0 -31.0 31.0 -31.0 31.0 -30.0 32.0 -30.0 32.0 -29.0 33.0 -29.0 33.0 -28.0 34.0 -28.0 34.0 -27.0 35.0 -27.0 35.0 -26.0 36.0 -26.0 36.0 -25.0 37.0 -25.0 37.0 -24.0 38.0 -24.0 38.0 -23.0 39.0 -23.0 39.0 -22.0 40.0 -22.0 40.0 -21.0 41.0 -21.0 41.0 -20.0 40.0 -20.0 40.0 -21.0 39.0 -21.0 39.0 -22.0 38.0 -22.0 38.0 -14.0 38.0 -13.0 37.0 -13.0 37.0 -14.0 36.0 -14.0 36.0 -15.0 37.0 -15.0 37.0 -24.0 36.0 -24.0 36.0 -25.0 35.0 -25.0 35.0 -26.0 34.0 -26.0 34.0 -27.0 33.0 -27.0 33.0 -28.0 32.0 -28.0 32.0 -29.0 31.0 -29.0 31.0 -30.0 30.0 -30.0 30.0 -31.0 29.0 -31.0 29.0 -23.0 29.0 -22.0 28.0 -22.0 28.0 -23.0 27.0 -23.0 27.0 -24.0 28.0 -24.0 28.0 -33.0 27.0 -33.0 27.0 -34.0 26.0 -34.0 26.0 -35.0 25.0 -35.0 25.0 -36.0 24.0 -36.0 24.0 -37.0 23.0 -37.0 23.0 -38.0 22.0 -38.0 22.0 -39.0 21.0 -39.0 21.0 -40.0 20.0 -40.0 20.0 -32.0 20.0 -31.0 19.0 -31.0 19.0 -32.0 18.0 -32.0 18.0 -33.0 19.0 -33.0 19.0 -42.0 18.0 -42.0 18.0 -43.0 17.0 -43.0 17.0 -44.0 16.0 -44.0 16.0 -45.0 15.0 -45.0 15.0 -46.0 14.0 -46.0 14.0 -47.0 13.0 -47.0 13.0 -48.0 12.0 -48.0 12.0 -49.0 11.0 -49.0 11.0 -41.0 11.0 -40.0 10.0 -40.0 10.0 -41.0 9.0 -41.0 9.0 -42.0 10.0 -42.0 10.0 -51.0 9.0 -51.0 9.0 -52.0 8.0 -52.0 8.0 -53.0 7.0 -53.0 7.0 -54.0 6.0 -54.0 6.0 -55.0 5.0 -55.0 5.0 -56.0 4.0 -56.0 4.0 -57.0 3.0 -57.0 3.0 -58.0 2.0 -58.0 2.0 -50.0 2.0 -49.0 1.0 -49.0 1.0 -50.0 0.0 -50.0 0.0 -51.0 -1.0 -51.0 -1.0 -52.0 0.0 -52.0 0.0 -51.0 1.0 -51.0 1.0 -60.0 M-1.0 -62.0 L0.0 -62.0 0.0 -61.0 -1.0 -61.0 -1.0 -62.0 -2.0 -62.0 -2.0 -63.0 -3.0 -63.0 -3.0 -64.0 -4.0 -64.0 -4.0 -65.0 -5.0 -65.0 -5.0 -66.0 -6.0 -66.0 -6.0 -67.0 -7.0 -67.0 -7.0 -59.0 -7.0 -58.0 -6.0 -58.0 -6.0 -57.0 -7.0 -57.0 -8.0 -57.0 -8.0 -58.0 -8.0 -59.0 -9.0 -59.0 -9.0 -60.0 -8.0 -60.0 -8.0 -69.0 -9.0 -69.0 -9.0 -70.0 -10.0 -70.0 -10.0 -71.0 -11.0 -71.0 -11.0 -72.0 -12.0 -72.0 -12.0 -73.0 -13.0 -73.0 -13.0 -74.0 -14.0 -74.0 -14.0 -75.0 -15.0 -75.0 -15.0 -76.0 -16.0 -76.0 -16.0 -68.0 -16.0 -67.0 -17.0 -67.0 -17.0 -68.0 -18.0 -68.0 -18.0 -69.0 -17.0 -69.0 -17.0 -78.0 -18.0 -78.0 -18.0 -79.0 -19.0 -79.0 -19.0 -80.0 -20.0 -80.0 -20.0 -81.0 -21.0 -81.0 -21.0 -82.0 -22.0 -82.0 -22.0 -83.0 -23.0 -83.0 -23.0 -84.0 -24.0 -84.0 -24.0 -85.0 -25.0 -85.0 -25.0 -77.0 -25.0 -76.0 -26.0 -76.0 -26.0 -77.0 -27.0 -77.0 -27.0 -78.0 -26.0 -78.0 -26.0 -87.0 -27.0 -87.0 -27.0 -88.0 -28.0 -88.0 -28.0 -89.0 -29.0 -89.0 -29.0 -90.0 -30.0 -90.0 -30.0 -91.0 -31.0 -91.0 -31.0 -92.0 -32.0 -92.0 -32.0 -93.0 -33.0 -93.0 -33.0 -94.0 -34.0 -94.0 -34.0 -86.0 -34.0 -85.0 -35.0 -85.0 -35.0 -86.0 -36.0 -86.0 -36.0 -87.0 -35.0 -87.0 -35.0 -96.0 -36.0 -96.0 -36.0 -97.0 -37.0 -97.0 -37.0 -98.0 -38.0 -98.0 -38.0 -99.0 -39.0 -99.0 -39.0 -100.0 -40.0 -100.0 -40.0 -101.0 -41.0 -101.0 -41.0 -102.0 -40.0 -102.0 -40.0 -101.0 -39.0 -101.0 -39.0 -100.0 -38.0 -100.0 -38.0 -99.0 -37.0 -99.0 -37.0 -98.0 -36.0 -98.0 -36.0 -97.0 -35.0 -97.0 -35.0 -96.0 -34.0 -96.0 -34.0 -95.0 -33.0 -95.0 -33.0 -94.0 -32.0 -94.0 -32.0 -93.0 -31.0 -93.0 -31.0 -92.0 -30.0 -92.0 -30.0 -91.0 -29.0 -91.0 -29.0 -90.0 -28.0 -90.0 -28.0 -89.0 -27.0 -89.0 -27.0 -88.0 -26.0 -88.0 -26.0 -87.0 -25.0 -87.0 -25.0 -86.0 -24.0 -86.0 -24.0 -85.0 -23.0 -85.0 -23.0 -84.0 -22.0 -84.0 -22.0 -83.0 -21.0 -83.0 -21.0 -82.0 -20.0 -82.0 -20.0 -81.0 -19.0 -81.0 -19.0 -80.0 -18.0 -80.0 -18.0 -79.0 -17.0 -79.0 -17.0 -78.0 -16.0 -78.0 -16.0 -77.0 -15.0 -77.0 -15.0 -76.0 -14.0 -76.0 -14.0 -75.0 -13.0 -75.0 -13.0 -74.0 -12.0 -74.0 -12.0 -73.0 -11.0 -73.0 -11.0 -72.0 -10.0 -72.0 -10.0 -71.0 -9.0 -71.0 -9.0 -70.0 -8.0 -70.0 -8.0 -69.0 -7.0 -69.0 -7.0 -68.0 -6.0 -68.0 -6.0 -67.0 -5.0 -67.0 -5.0 -66.0 -4.0 -66.0 -4.0 -65.0 -3.0 -65.0 -3.0 -64.0 -2.0 -64.0 -2.0 -63.0 -1.0 -63.0 -1.0 -62.0 M40.0 -14.0 L41.0 -14.0 41.0 -10.0 40.0 -10.0 40.0 -11.0 39.0 -11.0 39.0 -12.0 40.0 -12.0 40.0 -14.0 M4.0 -50.0 L5.0 -50.0 5.0 -46.0 4.0 -46.0 4.0 -47.0 3.0 -47.0 3.0 -48.0 4.0 -48.0 4.0 -50.0 M21.0 -31.0 L21.0 -30.0 22.0 -30.0 22.0 -32.0 23.0 -32.0 23.0 -28.0 24.0 -28.0 24.0 -27.0 25.0 -27.0 25.0 -26.0 26.0 -26.0 26.0 -25.0 27.0 -25.0 27.0 -24.0 26.0 -24.0 26.0 -25.0 25.0 -25.0 25.0 -26.0 24.0 -26.0 24.0 -27.0 23.0 -27.0 23.0 -28.0 22.0 -28.0 22.0 -29.0 21.0 -29.0 21.0 -30.0 20.0 -30.0 20.0 -31.0 21.0 -31.0 M29.0 -21.0 L29.0 -22.0 30.0 -22.0 30.0 -21.0 31.0 -21.0 31.0 -23.0 32.0 -23.0 32.0 -19.0 31.0 -19.0 31.0 -20.0 30.0 -20.0 29.0 -20.0 29.0 -19.0 28.0 -19.0 28.0 -20.0 29.0 -20.0 29.0 -21.0 M13.0 -41.0 L14.0 -41.0 14.0 -37.0 13.0 -37.0 13.0 -38.0 12.0 -38.0 11.0 -38.0 11.0 -39.0 11.0 -40.0 12.0 -40.0 12.0 -39.0 13.0 -39.0 13.0 -41.0 M5.0 -46.0 L6.0 -46.0 6.0 -45.0 7.0 -45.0 7.0 -44.0 8.0 -44.0 8.0 -43.0 9.0 -43.0 9.0 -42.0 8.0 -42.0 8.0 -43.0 7.0 -43.0 7.0 -44.0 6.0 -44.0 6.0 -45.0 5.0 -45.0 5.0 -46.0 M10.0 -38.0 L11.0 -38.0 11.0 -37.0 10.0 -37.0 10.0 -38.0 M3.0 -49.0 L3.0 -48.0 2.0 -48.0 2.0 -49.0 3.0 -49.0 M14.0 -36.0 L14.0 -37.0 15.0 -37.0 15.0 -36.0 16.0 -36.0 16.0 -35.0 17.0 -35.0 17.0 -34.0 18.0 -34.0 18.0 -33.0 17.0 -33.0 17.0 -34.0 16.0 -34.0 16.0 -35.0 15.0 -35.0 15.0 -36.0 14.0 -36.0 M-10.0 -53.0 L-10.0 -52.0 -9.0 -52.0 -9.0 -51.0 -8.0 -51.0 -8.0 -50.0 -7.0 -50.0 -7.0 -49.0 -6.0 -49.0 -6.0 -48.0 -5.0 -48.0 -5.0 -47.0 -4.0 -47.0 -4.0 -46.0 -3.0 -46.0 -3.0 -45.0 -2.0 -45.0 -2.0 -44.0 -1.0 -44.0 -1.0 -43.0 0.0 -43.0 0.0 -42.0 1.0 -42.0 1.0 -41.0 2.0 -41.0 2.0 -40.0 3.0 -40.0 3.0 -39.0 4.0 -39.0 4.0 -38.0 5.0 -38.0 5.0 -37.0 6.0 -37.0 6.0 -36.0 7.0 -36.0 7.0 -35.0 8.0 -35.0 8.0 -36.0 9.0 -36.0 9.0 -37.0 10.0 -37.0 10.0 -36.0 9.0 -36.0 9.0 -35.0 8.0 -35.0 8.0 -34.0 7.0 -34.0 7.0 -35.0 6.0 -35.0 6.0 -36.0 5.0 -36.0 5.0 -37.0 4.0 -37.0 4.0 -38.0 3.0 -38.0 3.0 -39.0 2.0 -39.0 2.0 -40.0 1.0 -40.0 1.0 -41.0 0.0 -41.0 0.0 -42.0 -1.0 -42.0 -1.0 -43.0 -2.0 -43.0 -2.0 -44.0 -3.0 -44.0 -3.0 -45.0 -4.0 -45.0 -4.0 -46.0 -5.0 -46.0 -5.0 -47.0 -6.0 -47.0 -6.0 -48.0 -7.0 -48.0 -7.0 -49.0 -8.0 -49.0 -8.0 -50.0 -9.0 -50.0 -9.0 -51.0 -10.0 -51.0 -10.0 -52.0 -11.0 -52.0 -11.0 -53.0 -12.0 -53.0 -12.0 -54.0 -13.0 -54.0 -13.0 -55.0 -14.0 -55.0 -14.0 -56.0 -15.0 -56.0 -15.0 -57.0 -16.0 -57.0 -16.0 -58.0 -17.0 -58.0 -17.0 -59.0 -18.0 -59.0 -18.0 -60.0 -19.0 -60.0 -19.0 -61.0 -20.0 -61.0 -20.0 -62.0 -21.0 -62.0 -21.0 -63.0 -22.0 -63.0 -22.0 -64.0 -23.0 -64.0 -23.0 -65.0 -24.0 -65.0 -24.0 -66.0 -25.0 -66.0 -25.0 -67.0 -26.0 -67.0 -26.0 -68.0 -27.0 -68.0 -27.0 -69.0 -28.0 -69.0 -28.0 -70.0 -29.0 -70.0 -29.0 -71.0 -30.0 -71.0 -30.0 -72.0 -31.0 -72.0 -31.0 -73.0 -32.0 -73.0 -32.0 -74.0 -33.0 -74.0 -33.0 -75.0 -34.0 -75.0 -34.0 -76.0 -35.0 -76.0 -35.0 -77.0 -36.0 -77.0 -36.0 -78.0 -37.0 -78.0 -37.0 -79.0 -38.0 -79.0 -38.0 -80.0 -39.0 -80.0 -39.0 -81.0 -40.0 -81.0 -40.0 -82.0 -41.0 -82.0 -41.0 -83.0 -40.0 -83.0 -40.0 -82.0 -39.0 -82.0 -39.0 -81.0 -38.0 -81.0 -38.0 -80.0 -37.0 -80.0 -37.0 -79.0 -36.0 -79.0 -36.0 -78.0 -35.0 -78.0 -35.0 -77.0 -34.0 -77.0 -34.0 -76.0 -33.0 -76.0 -33.0 -75.0 -32.0 -75.0 -32.0 -74.0 -31.0 -74.0 -31.0 -75.0 -30.0 -75.0 -30.0 -76.0 -29.0 -76.0 -29.0 -77.0 -28.0 -77.0 -28.0 -76.0 -29.0 -76.0 -29.0 -75.0 -30.0 -75.0 -30.0 -74.0 -31.0 -74.0 -31.0 -73.0 -30.0 -73.0 -30.0 -72.0 -29.0 -72.0 -29.0 -71.0 -28.0 -71.0 -28.0 -70.0 -27.0 -70.0 -27.0 -69.0 -26.0 -69.0 -26.0 -68.0 -25.0 -68.0 -25.0 -67.0 -24.0 -67.0 -24.0 -66.0 -23.0 -66.0 -23.0 -65.0 -22.0 -65.0 -22.0 -64.0 -21.0 -64.0 -21.0 -63.0 -20.0 -63.0 -20.0 -62.0 -19.0 -62.0 -19.0 -61.0 -18.0 -61.0 -18.0 -60.0 -17.0 -60.0 -17.0 -59.0 -16.0 -59.0 -16.0 -58.0 -15.0 -58.0 -15.0 -57.0 -14.0 -57.0 -14.0 -56.0 -13.0 -56.0 -13.0 -55.0 -12.0 -55.0 -12.0 -54.0 -11.0 -54.0 -11.0 -55.0 -10.0 -55.0 -10.0 -56.0 -9.0 -56.0 -9.0 -57.0 -8.0 -57.0 -8.0 -56.0 -9.0 -56.0 -9.0 -55.0 -10.0 -55.0 -10.0 -54.0 -11.0 -54.0 -11.0 -53.0 -10.0 -53.0 M9.0 -34.0 L9.0 -33.0 10.0 -33.0 10.0 -32.0 11.0 -32.0 11.0 -31.0 12.0 -31.0 12.0 -30.0 13.0 -30.0 13.0 -29.0 14.0 -29.0 14.0 -28.0 15.0 -28.0 15.0 -27.0 16.0 -27.0 16.0 -26.0 17.0 -26.0 17.0 -25.0 18.0 -25.0 18.0 -24.0 19.0 -24.0 19.0 -23.0 20.0 -23.0 20.0 -22.0 21.0 -22.0 21.0 -21.0 22.0 -21.0 22.0 -20.0 23.0 -20.0 23.0 -19.0 24.0 -19.0 24.0 -18.0 25.0 -18.0 25.0 -17.0 26.0 -17.0 26.0 -18.0 27.0 -18.0 27.0 -19.0 28.0 -19.0 28.0 -18.0 27.0 -18.0 27.0 -17.0 26.0 -17.0 26.0 -16.0 27.0 -16.0 27.0 -15.0 28.0 -15.0 28.0 -14.0 29.0 -14.0 29.0 -13.0 30.0 -13.0 30.0 -12.0 31.0 -12.0 31.0 -11.0 32.0 -11.0 32.0 -10.0 33.0 -10.0 33.0 -9.0 34.0 -9.0 34.0 -8.0 35.0 -8.0 35.0 -7.0 36.0 -7.0 36.0 -6.0 35.0 -6.0 35.0 -7.0 34.0 -7.0 34.0 -8.0 33.0 -8.0 33.0 -9.0 32.0 -9.0 32.0 -10.0 31.0 -10.0 31.0 -11.0 30.0 -11.0 30.0 -12.0 29.0 -12.0 29.0 -13.0 28.0 -13.0 28.0 -14.0 27.0 -14.0 27.0 -15.0 26.0 -15.0 26.0 -16.0 25.0 -16.0 25.0 -17.0 24.0 -17.0 24.0 -18.0 23.0 -18.0 23.0 -19.0 22.0 -19.0 22.0 -20.0 21.0 -20.0 21.0 -21.0 20.0 -21.0 20.0 -22.0 19.0 -22.0 19.0 -23.0 18.0 -23.0 18.0 -24.0 17.0 -24.0 17.0 -25.0 16.0 -25.0 16.0 -26.0 15.0 -26.0 15.0 -27.0 14.0 -27.0 14.0 -28.0 13.0 -28.0 13.0 -29.0 12.0 -29.0 12.0 -30.0 11.0 -30.0 11.0 -31.0 10.0 -31.0 10.0 -32.0 9.0 -32.0 9.0 -33.0 8.0 -33.0 8.0 -34.0 9.0 -34.0 M32.0 -19.0 L33.0 -19.0 33.0 -18.0 32.0 -18.0 32.0 -19.0 M33.0 -18.0 L34.0 -18.0 34.0 -17.0 35.0 -17.0 35.0 -16.0 36.0 -16.0 36.0 -15.0 35.0 -15.0 35.0 -16.0 34.0 -16.0 34.0 -17.0 33.0 -17.0 33.0 -18.0 M38.0 -12.0 L38.0 -13.0 39.0 -13.0 39.0 -12.0 38.0 -12.0 M41.0 -9.0 L41.0 -10.0 42.0 -10.0 42.0 -9.0 43.0 -9.0 43.0 -8.0 42.0 -8.0 42.0 -9.0 41.0 -9.0 M-49.0 -103.0 L-50.0 -103.0 -51.0 -103.0 -51.0 -95.0 -51.0 -92.0 -50.0 -92.0 -49.0 -92.0 -49.0 -95.0 -48.0 -95.0 -48.0 -92.0 -44.0 -92.0 -44.0 -103.0 -48.0 -103.0 -49.0 -103.0 M-42.0 -103.0 L-41.0 -103.0 -41.0 -102.0 -42.0 -102.0 -42.0 -103.0 M-4.0 -59.0 L-4.0 -55.0 -3.0 -55.0 -3.0 -54.0 -2.0 -54.0 -2.0 -53.0 -1.0 -53.0 -1.0 -52.0 -2.0 -52.0 -2.0 -53.0 -3.0 -53.0 -3.0 -54.0 -4.0 -54.0 -4.0 -55.0 -5.0 -55.0 -5.0 -56.0 -6.0 -56.0 -6.0 -57.0 -5.0 -57.0 -5.0 -59.0 -4.0 -59.0 M-39.0 -90.0 L-40.0 -90.0 -40.0 -91.0 -39.0 -91.0 -39.0 -90.0 -38.0 -90.0 -38.0 -89.0 -37.0 -89.0 -37.0 -88.0 -36.0 -88.0 -36.0 -87.0 -37.0 -87.0 -37.0 -88.0 -38.0 -88.0 -38.0 -89.0 -39.0 -89.0 -39.0 -90.0 M-34.0 -84.0 L-34.0 -85.0 -33.0 -85.0 -33.0 -84.0 -32.0 -84.0 -32.0 -86.0 -31.0 -86.0 -31.0 -82.0 -32.0 -82.0 -32.0 -83.0 -33.0 -83.0 -33.0 -84.0 -34.0 -84.0 M-31.0 -81.0 L-31.0 -82.0 -30.0 -82.0 -30.0 -81.0 -29.0 -81.0 -29.0 -80.0 -28.0 -80.0 -28.0 -79.0 -27.0 -79.0 -27.0 -78.0 -28.0 -78.0 -28.0 -79.0 -29.0 -79.0 -29.0 -80.0 -30.0 -80.0 -30.0 -81.0 -31.0 -81.0 M-25.0 -75.0 L-25.0 -76.0 -24.0 -76.0 -24.0 -75.0 -25.0 -75.0 M-24.0 -74.0 L-24.0 -75.0 -23.0 -75.0 -23.0 -77.0 -22.0 -77.0 -22.0 -73.0 -21.0 -73.0 -21.0 -72.0 -20.0 -72.0 -20.0 -71.0 -19.0 -71.0 -19.0 -70.0 -18.0 -70.0 -18.0 -69.0 -19.0 -69.0 -19.0 -70.0 -20.0 -70.0 -20.0 -71.0 -21.0 -71.0 -21.0 -72.0 -22.0 -72.0 -22.0 -73.0 -23.0 -73.0 -23.0 -74.0 -24.0 -74.0 M-16.0 -66.0 L-16.0 -67.0 -15.0 -67.0 -15.0 -66.0 -16.0 -66.0 M-15.0 -65.0 L-15.0 -66.0 -14.0 -66.0 -14.0 -68.0 -13.0 -68.0 -13.0 -64.0 -14.0 -64.0 -14.0 -65.0 -15.0 -65.0 M-13.0 -63.0 L-13.0 -64.0 -12.0 -64.0 -12.0 -63.0 -11.0 -63.0 -11.0 -62.0 -10.0 -62.0 -10.0 -61.0 -9.0 -61.0 -9.0 -60.0 -10.0 -60.0 -10.0 -61.0 -11.0 -61.0 -11.0 -62.0 -12.0 -62.0 -12.0 -63.0 -13.0 -63.0" fill="#1c1107" fill-rule="evenodd" stroke="none"/>
    <path d="M0.0 -66.0 L0.0 -65.0 1.0 -65.0 1.0 -64.0 0.0 -64.0 0.0 -65.0 -1.0 -65.0 -1.0 -66.0 -2.0 -66.0 -2.0 -67.0 -1.0 -67.0 -1.0 -66.0 0.0 -66.0 M1.0 -64.0 L2.0 -64.0 2.0 -63.0 1.0 -63.0 1.0 -64.0 M2.0 -63.0 L3.0 -63.0 3.0 -62.0 4.0 -62.0 4.0 -61.0 5.0 -61.0 5.0 -60.0 6.0 -60.0 6.0 -59.0 7.0 -59.0 7.0 -58.0 8.0 -58.0 8.0 -57.0 9.0 -57.0 9.0 -56.0 10.0 -56.0 10.0 -55.0 11.0 -55.0 11.0 -54.0 12.0 -54.0 12.0 -53.0 13.0 -53.0 13.0 -52.0 14.0 -52.0 14.0 -51.0 15.0 -51.0 15.0 -50.0 16.0 -50.0 16.0 -49.0 17.0 -49.0 17.0 -48.0 18.0 -48.0 18.0 -47.0 19.0 -47.0 19.0 -46.0 20.0 -46.0 20.0 -45.0 21.0 -45.0 21.0 -44.0 22.0 -44.0 22.0 -43.0 23.0 -43.0 23.0 -42.0 24.0 -42.0 24.0 -41.0 25.0 -41.0 25.0 -40.0 26.0 -40.0 26.0 -39.0 27.0 -39.0 27.0 -38.0 28.0 -38.0 28.0 -37.0 29.0 -37.0 29.0 -36.0 30.0 -36.0 30.0 -35.0 31.0 -35.0 31.0 -34.0 32.0 -34.0 32.0 -33.0 33.0 -33.0 33.0 -32.0 34.0 -32.0 34.0 -31.0 35.0 -31.0 35.0 -30.0 36.0 -30.0 36.0 -29.0 37.0 -29.0 37.0 -28.0 38.0 -28.0 38.0 -27.0 39.0 -27.0 39.0 -26.0 40.0 -26.0 40.0 -25.0 41.0 -25.0 41.0 -24.0 42.0 -24.0 42.0 -23.0 43.0 -23.0 43.0 -22.0 52.0 -22.0 52.0 -21.0 53.0 -21.0 53.0 -20.0 52.0 -20.0 52.0 -21.0 43.0 -21.0 43.0 -22.0 42.0 -22.0 42.0 -23.0 41.0 -23.0 41.0 -24.0 40.0 -24.0 40.0 -25.0 39.0 -25.0 39.0 -26.0 38.0 -26.0 38.0 -27.0 37.0 -27.0 37.0 -28.0 36.0 -28.0 36.0 -29.0 35.0 -29.0 35.0 -30.0 34.0 -30.0 34.0 -31.0 33.0 -31.0 33.0 -32.0 32.0 -32.0 32.0 -33.0 31.0 -33.0 31.0 -34.0 30.0 -34.0 30.0 -35.0 29.0 -35.0 29.0 -36.0 28.0 -36.0 28.0 -37.0 27.0 -37.0 27.0 -38.0 26.0 -38.0 26.0 -39.0 25.0 -39.0 25.0 -40.0 24.0 -40.0 24.0 -41.0 23.0 -41.0 23.0 -42.0 22.0 -42.0 22.0 -43.0 21.0 -43.0 21.0 -44.0 20.0 -44.0 20.0 -45.0 19.0 -45.0 19.0 -46.0 18.0 -46.0 18.0 -47.0 17.0 -47.0 17.0 -48.0 16.0 -48.0 16.0 -49.0 15.0 -49.0 15.0 -50.0 14.0 -50.0 14.0 -51.0 13.0 -51.0 13.0 -52.0 12.0 -52.0 12.0 -53.0 11.0 -53.0 11.0 -54.0 10.0 -54.0 10.0 -55.0 9.0 -55.0 9.0 -56.0 8.0 -56.0 8.0 -57.0 7.0 -57.0 7.0 -58.0 6.0 -58.0 6.0 -59.0 5.0 -59.0 5.0 -60.0 4.0 -60.0 4.0 -61.0 3.0 -61.0 3.0 -62.0 2.0 -62.0 2.0 -63.0 M-41.0 -95.0 L-41.0 -92.0 -42.0 -92.0 -42.0 -95.0 -42.0 -102.0 -41.0 -102.0 -41.0 -101.0 -41.0 -95.0 M-53.0 -105.0 L-53.0 -106.0 -40.0 -106.0 -40.0 -105.0 -39.0 -105.0 -39.0 -104.0 -38.0 -104.0 -38.0 -103.0 -37.0 -103.0 -37.0 -102.0 -36.0 -102.0 -36.0 -101.0 -35.0 -101.0 -35.0 -100.0 -34.0 -100.0 -34.0 -99.0 -33.0 -99.0 -33.0 -98.0 -32.0 -98.0 -32.0 -97.0 -31.0 -97.0 -31.0 -96.0 -30.0 -96.0 -30.0 -95.0 -29.0 -95.0 -29.0 -94.0 -28.0 -94.0 -28.0 -93.0 -27.0 -93.0 -27.0 -92.0 -26.0 -92.0 -26.0 -91.0 -25.0 -91.0 -25.0 -90.0 -24.0 -90.0 -24.0 -89.0 -23.0 -89.0 -23.0 -88.0 -22.0 -88.0 -22.0 -87.0 -21.0 -87.0 -21.0 -86.0 -20.0 -86.0 -20.0 -85.0 -19.0 -85.0 -19.0 -84.0 -18.0 -84.0 -18.0 -83.0 -17.0 -83.0 -17.0 -82.0 -16.0 -82.0 -16.0 -81.0 -15.0 -81.0 -15.0 -80.0 -14.0 -80.0 -14.0 -79.0 -13.0 -79.0 -13.0 -78.0 -12.0 -78.0 -12.0 -77.0 -11.0 -77.0 -11.0 -76.0 -10.0 -76.0 -10.0 -75.0 -9.0 -75.0 -9.0 -74.0 -8.0 -74.0 -8.0 -73.0 -7.0 -73.0 -7.0 -72.0 -6.0 -72.0 -6.0 -71.0 -5.0 -71.0 -5.0 -70.0 -4.0 -70.0 -4.0 -69.0 -3.0 -69.0 -3.0 -68.0 -2.0 -68.0 -2.0 -67.0 -3.0 -67.0 -3.0 -68.0 -4.0 -68.0 -4.0 -69.0 -5.0 -69.0 -5.0 -70.0 -6.0 -70.0 -6.0 -71.0 -7.0 -71.0 -7.0 -72.0 -8.0 -72.0 -8.0 -73.0 -9.0 -73.0 -9.0 -74.0 -10.0 -74.0 -10.0 -75.0 -11.0 -75.0 -11.0 -76.0 -12.0 -76.0 -12.0 -77.0 -13.0 -77.0 -13.0 -78.0 -14.0 -78.0 -14.0 -79.0 -15.0 -79.0 -15.0 -80.0 -16.0 -80.0 -16.0 -81.0 -17.0 -81.0 -17.0 -82.0 -18.0 -82.0 -18.0 -83.0 -19.0 -83.0 -19.0 -84.0 -20.0 -84.0 -20.0 -85.0 -21.0 -85.0 -21.0 -86.0 -22.0 -86.0 -22.0 -87.0 -23.0 -87.0 -23.0 -88.0 -24.0 -88.0 -24.0 -89.0 -25.0 -89.0 -25.0 -90.0 -26.0 -90.0 -26.0 -91.0 -27.0 -91.0 -27.0 -92.0 -28.0 -92.0 -28.0 -93.0 -29.0 -93.0 -29.0 -94.0 -30.0 -94.0 -30.0 -95.0 -31.0 -95.0 -31.0 -96.0 -32.0 -96.0 -32.0 -97.0 -33.0 -97.0 -33.0 -98.0 -34.0 -98.0 -34.0 -99.0 -35.0 -99.0 -35.0 -100.0 -36.0 -100.0 -36.0 -101.0 -37.0 -101.0 -37.0 -102.0 -38.0 -102.0 -38.0 -103.0 -39.0 -103.0 -39.0 -104.0 -40.0 -104.0 -40.0 -105.0 -53.0 -105.0 M40.0 -20.0 L40.0 -14.0 40.0 -12.0 39.0 -12.0 39.0 -13.0 39.0 -14.0 39.0 -21.0 40.0 -21.0 40.0 -20.0 M3.0 -57.0 L4.0 -57.0 4.0 -56.0 4.0 -50.0 4.0 -48.0 3.0 -48.0 3.0 -49.0 3.0 -50.0 3.0 -57.0 M12.0 -48.0 L13.0 -48.0 13.0 -47.0 13.0 -41.0 13.0 -39.0 12.0 -39.0 12.0 -40.0 12.0 -41.0 12.0 -48.0 M21.0 -39.0 L22.0 -39.0 22.0 -38.0 22.0 -32.0 22.0 -30.0 21.0 -30.0 21.0 -31.0 21.0 -32.0 21.0 -39.0 M30.0 -30.0 L31.0 -30.0 31.0 -29.0 31.0 -23.0 31.0 -21.0 30.0 -21.0 30.0 -22.0 30.0 -23.0 30.0 -30.0 M50.0 -19.0 L51.0 -19.0 51.0 -11.0 51.0 -8.0 50.0 -8.0 50.0 -11.0 50.0 -19.0 M-50.0 -103.0 L-49.0 -103.0 -49.0 -95.0 -49.0 -92.0 -50.0 -92.0 -50.0 -95.0 -50.0 -103.0 M-33.0 -93.0 L-32.0 -93.0 -32.0 -92.0 -32.0 -86.0 -32.0 -84.0 -33.0 -84.0 -33.0 -85.0 -33.0 -86.0 -33.0 -93.0 M-24.0 -84.0 L-23.0 -84.0 -23.0 -83.0 -23.0 -77.0 -23.0 -75.0 -24.0 -75.0 -24.0 -76.0 -24.0 -77.0 -24.0 -84.0 M-15.0 -75.0 L-14.0 -75.0 -14.0 -74.0 -14.0 -68.0 -14.0 -66.0 -15.0 -66.0 -15.0 -67.0 -15.0 -68.0 -15.0 -75.0 M-6.0 -57.0 L-6.0 -58.0 -6.0 -59.0 -6.0 -66.0 -5.0 -66.0 -5.0 -65.0 -5.0 -59.0 -5.0 -57.0 -6.0 -57.0" fill="#d3731c" fill-rule="evenodd" stroke="none"/>
    <path d="M-2.0 -67.0 L-2.0 -66.0 -1.0 -66.0 -1.0 -65.0 0.0 -65.0 0.0 -64.0 1.0 -64.0 1.0 -63.0 2.0 -63.0 2.0 -62.0 3.0 -62.0 3.0 -61.0 4.0 -61.0 4.0 -60.0 5.0 -60.0 5.0 -59.0 6.0 -59.0 6.0 -58.0 7.0 -58.0 7.0 -57.0 8.0 -57.0 8.0 -56.0 9.0 -56.0 9.0 -55.0 10.0 -55.0 10.0 -54.0 11.0 -54.0 11.0 -53.0 12.0 -53.0 12.0 -52.0 13.0 -52.0 13.0 -51.0 14.0 -51.0 14.0 -50.0 15.0 -50.0 15.0 -49.0 16.0 -49.0 16.0 -48.0 17.0 -48.0 17.0 -47.0 18.0 -47.0 18.0 -46.0 19.0 -46.0 19.0 -45.0 20.0 -45.0 20.0 -44.0 21.0 -44.0 21.0 -43.0 22.0 -43.0 22.0 -42.0 23.0 -42.0 23.0 -41.0 24.0 -41.0 24.0 -40.0 25.0 -40.0 25.0 -39.0 26.0 -39.0 26.0 -38.0 27.0 -38.0 27.0 -37.0 28.0 -37.0 28.0 -36.0 29.0 -36.0 29.0 -35.0 30.0 -35.0 30.0 -34.0 31.0 -34.0 31.0 -33.0 32.0 -33.0 32.0 -32.0 33.0 -32.0 33.0 -31.0 34.0 -31.0 34.0 -30.0 35.0 -30.0 35.0 -29.0 36.0 -29.0 36.0 -28.0 37.0 -28.0 37.0 -27.0 38.0 -27.0 38.0 -26.0 39.0 -26.0 39.0 -25.0 40.0 -25.0 40.0 -24.0 41.0 -24.0 41.0 -23.0 42.0 -23.0 42.0 -22.0 43.0 -22.0 43.0 -21.0 52.0 -21.0 52.0 -20.0 41.0 -20.0 41.0 -21.0 40.0 -21.0 40.0 -22.0 39.0 -22.0 39.0 -23.0 38.0 -23.0 38.0 -24.0 37.0 -24.0 37.0 -25.0 36.0 -25.0 36.0 -26.0 35.0 -26.0 35.0 -27.0 34.0 -27.0 34.0 -28.0 33.0 -28.0 33.0 -29.0 32.0 -29.0 32.0 -30.0 31.0 -30.0 31.0 -31.0 30.0 -31.0 30.0 -32.0 29.0 -32.0 29.0 -33.0 28.0 -33.0 28.0 -34.0 27.0 -34.0 27.0 -35.0 26.0 -35.0 26.0 -36.0 25.0 -36.0 25.0 -37.0 24.0 -37.0 24.0 -38.0 23.0 -38.0 23.0 -39.0 22.0 -39.0 22.0 -40.0 21.0 -40.0 21.0 -41.0 20.0 -41.0 20.0 -42.0 19.0 -42.0 19.0 -43.0 18.0 -43.0 18.0 -44.0 17.0 -44.0 17.0 -45.0 16.0 -45.0 16.0 -46.0 15.0 -46.0 15.0 -47.0 14.0 -47.0 14.0 -48.0 13.0 -48.0 13.0 -49.0 12.0 -49.0 12.0 -50.0 11.0 -50.0 11.0 -51.0 10.0 -51.0 10.0 -52.0 9.0 -52.0 9.0 -53.0 8.0 -53.0 8.0 -54.0 7.0 -54.0 7.0 -55.0 6.0 -55.0 6.0 -56.0 5.0 -56.0 5.0 -57.0 4.0 -57.0 4.0 -58.0 3.0 -58.0 3.0 -59.0 2.0 -59.0 2.0 -60.0 1.0 -60.0 1.0 -61.0 0.0 -61.0 0.0 -62.0 -1.0 -62.0 -1.0 -63.0 -2.0 -63.0 -2.0 -64.0 -3.0 -64.0 -3.0 -65.0 -4.0 -65.0 -4.0 -66.0 -5.0 -66.0 -5.0 -67.0 -6.0 -67.0 -6.0 -68.0 -7.0 -68.0 -7.0 -69.0 -8.0 -69.0 -8.0 -70.0 -9.0 -70.0 -9.0 -71.0 -10.0 -71.0 -10.0 -72.0 -11.0 -72.0 -11.0 -73.0 -12.0 -73.0 -12.0 -74.0 -13.0 -74.0 -13.0 -75.0 -14.0 -75.0 -14.0 -76.0 -15.0 -76.0 -15.0 -77.0 -16.0 -77.0 -16.0 -78.0 -17.0 -78.0 -17.0 -79.0 -18.0 -79.0 -18.0 -80.0 -19.0 -80.0 -19.0 -81.0 -20.0 -81.0 -20.0 -82.0 -21.0 -82.0 -21.0 -83.0 -22.0 -83.0 -22.0 -84.0 -23.0 -84.0 -23.0 -85.0 -24.0 -85.0 -24.0 -86.0 -25.0 -86.0 -25.0 -87.0 -26.0 -87.0 -26.0 -88.0 -27.0 -88.0 -27.0 -89.0 -28.0 -89.0 -28.0 -90.0 -29.0 -90.0 -29.0 -91.0 -30.0 -91.0 -30.0 -92.0 -31.0 -92.0 -31.0 -93.0 -32.0 -93.0 -32.0 -94.0 -33.0 -94.0 -33.0 -95.0 -34.0 -95.0 -34.0 -96.0 -35.0 -96.0 -35.0 -97.0 -36.0 -97.0 -36.0 -98.0 -37.0 -98.0 -37.0 -99.0 -38.0 -99.0 -38.0 -100.0 -39.0 -100.0 -39.0 -101.0 -40.0 -101.0 -40.0 -102.0 -41.0 -102.0 -41.0 -103.0 -42.0 -103.0 -42.0 -104.0 -53.0 -104.0 -53.0 -105.0 -40.0 -105.0 -40.0 -104.0 -39.0 -104.0 -39.0 -103.0 -38.0 -103.0 -38.0 -102.0 -37.0 -102.0 -37.0 -101.0 -36.0 -101.0 -36.0 -100.0 -35.0 -100.0 -35.0 -99.0 -34.0 -99.0 -34.0 -98.0 -33.0 -98.0 -33.0 -97.0 -32.0 -97.0 -32.0 -96.0 -31.0 -96.0 -31.0 -95.0 -30.0 -95.0 -30.0 -94.0 -29.0 -94.0 -29.0 -93.0 -28.0 -93.0 -28.0 -92.0 -27.0 -92.0 -27.0 -91.0 -26.0 -91.0 -26.0 -90.0 -25.0 -90.0 -25.0 -89.0 -24.0 -89.0 -24.0 -88.0 -23.0 -88.0 -23.0 -87.0 -22.0 -87.0 -22.0 -86.0 -21.0 -86.0 -21.0 -85.0 -20.0 -85.0 -20.0 -84.0 -19.0 -84.0 -19.0 -83.0 -18.0 -83.0 -18.0 -82.0 -17.0 -82.0 -17.0 -81.0 -16.0 -81.0 -16.0 -80.0 -15.0 -80.0 -15.0 -79.0 -14.0 -79.0 -14.0 -78.0 -13.0 -78.0 -13.0 -77.0 -12.0 -77.0 -12.0 -76.0 -11.0 -76.0 -11.0 -75.0 -10.0 -75.0 -10.0 -74.0 -9.0 -74.0 -9.0 -73.0 -8.0 -73.0 -8.0 -72.0 -7.0 -72.0 -7.0 -71.0 -6.0 -71.0 -6.0 -70.0 -5.0 -70.0 -5.0 -69.0 -4.0 -69.0 -4.0 -68.0 -3.0 -68.0 -3.0 -67.0 -2.0 -67.0 M-43.0 -95.0 L-43.0 -103.0 -42.0 -103.0 -42.0 -102.0 -42.0 -95.0 -43.0 -95.0 M3.0 -58.0 L3.0 -57.0 3.0 -50.0 2.0 -50.0 2.0 -58.0 3.0 -58.0 M11.0 -41.0 L11.0 -49.0 12.0 -49.0 12.0 -48.0 12.0 -41.0 11.0 -41.0 M20.0 -32.0 L20.0 -40.0 21.0 -40.0 21.0 -39.0 21.0 -32.0 20.0 -32.0 M29.0 -23.0 L29.0 -31.0 30.0 -31.0 30.0 -30.0 30.0 -23.0 29.0 -23.0 M38.0 -14.0 L38.0 -22.0 39.0 -22.0 39.0 -21.0 39.0 -14.0 38.0 -14.0 M49.0 -11.0 L49.0 -19.0 50.0 -19.0 50.0 -11.0 49.0 -11.0 M-51.0 -95.0 L-51.0 -103.0 -50.0 -103.0 -50.0 -95.0 -51.0 -95.0 M-34.0 -86.0 L-34.0 -94.0 -33.0 -94.0 -33.0 -93.0 -33.0 -86.0 -34.0 -86.0 M-25.0 -77.0 L-25.0 -85.0 -24.0 -85.0 -24.0 -84.0 -24.0 -77.0 -25.0 -77.0 M-16.0 -68.0 L-16.0 -76.0 -15.0 -76.0 -15.0 -75.0 -15.0 -68.0 -16.0 -68.0 M-7.0 -59.0 L-7.0 -67.0 -6.0 -67.0 -6.0 -66.0 -6.0 -59.0 -7.0 -59.0" fill="#984415" fill-rule="evenodd" stroke="none"/>
    <path d="M52.0 -19.0 L52.0 -11.0 51.0 -11.0 51.0 -19.0 52.0 -19.0 M41.0 -20.0 L41.0 -19.0 41.0 -14.0 40.0 -14.0 40.0 -20.0 41.0 -20.0 M-40.0 -95.0 L-41.0 -95.0 -41.0 -101.0 -40.0 -101.0 -40.0 -100.0 -40.0 -95.0 M4.0 -56.0 L5.0 -56.0 5.0 -55.0 5.0 -50.0 4.0 -50.0 4.0 -56.0 M13.0 -47.0 L14.0 -47.0 14.0 -46.0 14.0 -41.0 13.0 -41.0 13.0 -47.0 M22.0 -38.0 L23.0 -38.0 23.0 -37.0 23.0 -32.0 22.0 -32.0 22.0 -38.0 M31.0 -29.0 L32.0 -29.0 32.0 -28.0 32.0 -23.0 31.0 -23.0 31.0 -29.0 M-49.0 -103.0 L-48.0 -103.0 -48.0 -95.0 -49.0 -95.0 -49.0 -103.0 M-4.0 -64.0 L-4.0 -59.0 -5.0 -59.0 -5.0 -65.0 -4.0 -65.0 -4.0 -64.0 M-32.0 -92.0 L-31.0 -92.0 -31.0 -91.0 -31.0 -86.0 -32.0 -86.0 -32.0 -92.0 M-23.0 -83.0 L-22.0 -83.0 -22.0 -82.0 -22.0 -77.0 -23.0 -77.0 -23.0 -83.0 M-14.0 -74.0 L-13.0 -74.0 -13.0 -73.0 -13.0 -68.0 -14.0 -68.0 -14.0 -74.0" fill="#131313" fill-rule="evenodd" stroke="none"/>
    <path d="M43.0 -7.0 L52.0 -7.0 52.0 -6.0 43.0 -6.0 43.0 -7.0 M-52.0 -90.0 L-52.0 -91.0 -43.0 -91.0 -43.0 -90.0 -52.0 -90.0 M-42.0 -91.0 L-40.0 -91.0 -40.0 -90.0 -39.0 -90.0 -39.0 -89.0 -38.0 -89.0 -38.0 -88.0 -37.0 -88.0 -37.0 -87.0 -38.0 -87.0 -38.0 -88.0 -39.0 -88.0 -39.0 -89.0 -40.0 -89.0 -40.0 -90.0 -42.0 -90.0 -42.0 -91.0 M9.0 -42.0 L9.0 -41.0 10.0 -41.0 10.0 -40.0 11.0 -40.0 11.0 -39.0 10.0 -39.0 10.0 -40.0 9.0 -40.0 9.0 -41.0 8.0 -41.0 8.0 -42.0 9.0 -42.0 M18.0 -33.0 L18.0 -32.0 19.0 -32.0 19.0 -31.0 20.0 -31.0 20.0 -30.0 21.0 -30.0 21.0 -29.0 22.0 -29.0 22.0 -28.0 21.0 -28.0 21.0 -29.0 20.0 -29.0 20.0 -30.0 19.0 -30.0 19.0 -31.0 18.0 -31.0 18.0 -32.0 17.0 -32.0 17.0 -33.0 18.0 -33.0 M27.0 -24.0 L27.0 -23.0 28.0 -23.0 28.0 -22.0 29.0 -22.0 29.0 -21.0 28.0 -21.0 28.0 -22.0 27.0 -22.0 27.0 -23.0 26.0 -23.0 26.0 -24.0 27.0 -24.0 M36.0 -15.0 L36.0 -14.0 37.0 -14.0 37.0 -13.0 38.0 -13.0 38.0 -12.0 37.0 -12.0 37.0 -13.0 36.0 -13.0 36.0 -14.0 35.0 -14.0 35.0 -15.0 36.0 -15.0 M-1.0 -52.0 L-1.0 -51.0 0.0 -51.0 0.0 -50.0 1.0 -50.0 1.0 -49.0 2.0 -49.0 2.0 -48.0 1.0 -48.0 1.0 -49.0 0.0 -49.0 0.0 -50.0 -1.0 -50.0 -1.0 -51.0 -2.0 -51.0 -2.0 -52.0 -1.0 -52.0 M3.0 -48.0 L3.0 -47.0 4.0 -47.0 4.0 -46.0 5.0 -46.0 5.0 -45.0 4.0 -45.0 4.0 -46.0 3.0 -46.0 3.0 -47.0 2.0 -47.0 2.0 -48.0 3.0 -48.0 M23.0 -28.0 L23.0 -27.0 24.0 -27.0 24.0 -26.0 25.0 -26.0 25.0 -25.0 26.0 -25.0 26.0 -24.0 25.0 -24.0 25.0 -25.0 24.0 -25.0 24.0 -26.0 23.0 -26.0 23.0 -27.0 22.0 -27.0 22.0 -28.0 23.0 -28.0 M30.0 -20.0 L31.0 -20.0 31.0 -19.0 32.0 -19.0 32.0 -18.0 33.0 -18.0 33.0 -17.0 34.0 -17.0 34.0 -16.0 35.0 -16.0 35.0 -15.0 34.0 -15.0 34.0 -16.0 33.0 -16.0 33.0 -17.0 32.0 -17.0 32.0 -18.0 31.0 -18.0 31.0 -19.0 30.0 -19.0 30.0 -20.0 M12.0 -38.0 L13.0 -38.0 13.0 -37.0 14.0 -37.0 14.0 -36.0 13.0 -36.0 13.0 -37.0 12.0 -37.0 12.0 -38.0 M6.0 -45.0 L6.0 -44.0 7.0 -44.0 7.0 -43.0 8.0 -43.0 8.0 -42.0 7.0 -42.0 7.0 -43.0 6.0 -43.0 6.0 -44.0 5.0 -44.0 5.0 -45.0 6.0 -45.0 M17.0 -34.0 L17.0 -33.0 16.0 -33.0 16.0 -34.0 15.0 -34.0 15.0 -35.0 14.0 -35.0 14.0 -36.0 15.0 -36.0 15.0 -35.0 16.0 -35.0 16.0 -34.0 17.0 -34.0 M38.0 -11.0 L38.0 -12.0 39.0 -12.0 39.0 -11.0 38.0 -11.0 M39.0 -10.0 L39.0 -11.0 40.0 -11.0 40.0 -10.0 41.0 -10.0 41.0 -9.0 40.0 -9.0 40.0 -10.0 39.0 -10.0 M41.0 -8.0 L41.0 -9.0 42.0 -9.0 42.0 -8.0 41.0 -8.0 M-36.0 -87.0 L-36.0 -86.0 -35.0 -86.0 -35.0 -85.0 -34.0 -85.0 -34.0 -84.0 -35.0 -84.0 -35.0 -85.0 -36.0 -85.0 -36.0 -86.0 -37.0 -86.0 -37.0 -87.0 -36.0 -87.0 M-27.0 -78.0 L-27.0 -77.0 -26.0 -77.0 -26.0 -76.0 -25.0 -76.0 -25.0 -75.0 -26.0 -75.0 -26.0 -76.0 -27.0 -76.0 -27.0 -77.0 -28.0 -77.0 -28.0 -78.0 -27.0 -78.0 M-18.0 -69.0 L-18.0 -68.0 -17.0 -68.0 -17.0 -67.0 -16.0 -67.0 -16.0 -66.0 -17.0 -66.0 -17.0 -67.0 -18.0 -67.0 -18.0 -68.0 -19.0 -68.0 -19.0 -69.0 -18.0 -69.0 M-9.0 -60.0 L-9.0 -59.0 -8.0 -59.0 -8.0 -58.0 -9.0 -58.0 -9.0 -59.0 -10.0 -59.0 -10.0 -60.0 -9.0 -60.0 M-7.0 -57.0 L-6.0 -57.0 -6.0 -56.0 -7.0 -56.0 -7.0 -57.0 M-34.0 -83.0 L-34.0 -84.0 -33.0 -84.0 -33.0 -83.0 -34.0 -83.0 M-33.0 -82.0 L-33.0 -83.0 -32.0 -83.0 -32.0 -82.0 -31.0 -82.0 -31.0 -81.0 -32.0 -81.0 -32.0 -82.0 -33.0 -82.0 M-31.0 -80.0 L-31.0 -81.0 -30.0 -81.0 -30.0 -80.0 -29.0 -80.0 -29.0 -79.0 -28.0 -79.0 -28.0 -78.0 -29.0 -78.0 -29.0 -79.0 -30.0 -79.0 -30.0 -80.0 -31.0 -80.0 M-25.0 -74.0 L-25.0 -75.0 -24.0 -75.0 -24.0 -74.0 -25.0 -74.0 M-22.0 -73.0 L-22.0 -72.0 -21.0 -72.0 -21.0 -71.0 -20.0 -71.0 -20.0 -70.0 -19.0 -70.0 -19.0 -69.0 -20.0 -69.0 -20.0 -70.0 -21.0 -70.0 -21.0 -71.0 -22.0 -71.0 -22.0 -72.0 -23.0 -72.0 -23.0 -73.0 -22.0 -73.0 M-16.0 -65.0 L-16.0 -66.0 -15.0 -66.0 -15.0 -65.0 -16.0 -65.0 M-23.0 -73.0 L-24.0 -73.0 -24.0 -74.0 -23.0 -74.0 -23.0 -73.0 M-15.0 -64.0 L-15.0 -65.0 -14.0 -65.0 -14.0 -64.0 -13.0 -64.0 -13.0 -63.0 -14.0 -63.0 -14.0 -64.0 -15.0 -64.0 M-13.0 -62.0 L-13.0 -63.0 -12.0 -63.0 -12.0 -62.0 -11.0 -62.0 -11.0 -61.0 -10.0 -61.0 -10.0 -60.0 -11.0 -60.0 -11.0 -61.0 -12.0 -61.0 -12.0 -62.0 -13.0 -62.0 M-6.0 -56.0 L-5.0 -56.0 -5.0 -55.0 -4.0 -55.0 -4.0 -54.0 -3.0 -54.0 -3.0 -53.0 -2.0 -53.0 -2.0 -52.0 -3.0 -52.0 -3.0 -53.0 -4.0 -53.0 -4.0 -54.0 -5.0 -54.0 -5.0 -55.0 -6.0 -55.0 -6.0 -56.0" fill="#c57826" fill-rule="evenodd" stroke="none"/>
    <path d="M-42.0 -92.0 L-43.0 -92.0 -43.0 -95.0 -42.0 -95.0 -42.0 -92.0 M11.0 -40.0 L11.0 -41.0 12.0 -41.0 12.0 -40.0 11.0 -40.0 M20.0 -31.0 L20.0 -32.0 21.0 -32.0 21.0 -31.0 20.0 -31.0 M29.0 -22.0 L29.0 -23.0 30.0 -23.0 30.0 -22.0 29.0 -22.0 M38.0 -13.0 L38.0 -14.0 39.0 -14.0 39.0 -13.0 38.0 -13.0 M2.0 -49.0 L2.0 -50.0 3.0 -50.0 3.0 -49.0 2.0 -49.0 M50.0 -11.0 L50.0 -8.0 49.0 -8.0 49.0 -11.0 50.0 -11.0 M-50.0 -92.0 L-51.0 -92.0 -51.0 -95.0 -50.0 -95.0 -50.0 -92.0 M-34.0 -85.0 L-34.0 -86.0 -33.0 -86.0 -33.0 -85.0 -34.0 -85.0 M-25.0 -76.0 L-25.0 -77.0 -24.0 -77.0 -24.0 -76.0 -25.0 -76.0 M-16.0 -67.0 L-16.0 -68.0 -15.0 -68.0 -15.0 -67.0 -16.0 -67.0 M-6.0 -58.0 L-7.0 -58.0 -7.0 -59.0 -6.0 -59.0 -6.0 -58.0" fill="#683417" fill-rule="evenodd" stroke="none"/>
    <path d="M52.0 -6.0 L52.0 -5.0 43.0 -5.0 43.0 -6.0 52.0 -6.0 M52.0 -4.0 L52.0 -1.0 43.0 -1.0 43.0 -4.0 52.0 -4.0 M42.0 -1.0 L41.0 -1.0 41.0 -2.0 40.0 -2.0 40.0 -3.0 39.0 -3.0 39.0 -4.0 38.0 -4.0 38.0 -5.0 37.0 -5.0 37.0 -6.0 36.0 -6.0 36.0 -7.0 35.0 -7.0 35.0 -8.0 34.0 -8.0 34.0 -9.0 33.0 -9.0 33.0 -10.0 32.0 -10.0 32.0 -11.0 31.0 -11.0 31.0 -12.0 30.0 -12.0 30.0 -13.0 29.0 -13.0 29.0 -14.0 28.0 -14.0 28.0 -15.0 27.0 -15.0 27.0 -16.0 27.0 -17.0 28.0 -17.0 28.0 -18.0 29.0 -18.0 30.0 -18.0 30.0 -17.0 31.0 -17.0 31.0 -18.0 32.0 -18.0 32.0 -17.0 31.0 -17.0 31.0 -16.0 32.0 -16.0 32.0 -17.0 33.0 -17.0 33.0 -16.0 34.0 -16.0 34.0 -15.0 35.0 -15.0 35.0 -14.0 36.0 -14.0 36.0 -13.0 37.0 -13.0 37.0 -12.0 38.0 -12.0 38.0 -11.0 37.0 -11.0 37.0 -12.0 36.0 -12.0 36.0 -13.0 35.0 -13.0 35.0 -14.0 34.0 -14.0 34.0 -15.0 33.0 -15.0 33.0 -14.0 34.0 -14.0 34.0 -13.0 35.0 -13.0 35.0 -12.0 36.0 -12.0 36.0 -11.0 37.0 -11.0 37.0 -10.0 38.0 -10.0 38.0 -11.0 39.0 -11.0 39.0 -10.0 40.0 -10.0 40.0 -9.0 41.0 -9.0 41.0 -8.0 42.0 -8.0 42.0 -7.0 41.0 -7.0 41.0 -8.0 40.0 -8.0 40.0 -9.0 39.0 -9.0 39.0 -10.0 38.0 -10.0 38.0 -9.0 39.0 -9.0 39.0 -8.0 40.0 -8.0 40.0 -7.0 41.0 -7.0 41.0 -6.0 42.0 -6.0 42.0 -1.0 M-41.0 -83.0 L-41.0 -84.0 -42.0 -84.0 -42.0 -85.0 -42.0 -88.0 -40.0 -88.0 -40.0 -89.0 -39.0 -89.0 -39.0 -88.0 -38.0 -88.0 -38.0 -87.0 -37.0 -87.0 -37.0 -86.0 -36.0 -86.0 -36.0 -85.0 -35.0 -85.0 -35.0 -84.0 -34.0 -84.0 -34.0 -83.0 -35.0 -83.0 -35.0 -84.0 -36.0 -84.0 -36.0 -85.0 -37.0 -85.0 -37.0 -86.0 -38.0 -86.0 -38.0 -87.0 -39.0 -87.0 -39.0 -88.0 -40.0 -88.0 -40.0 -87.0 -39.0 -87.0 -39.0 -86.0 -38.0 -86.0 -38.0 -85.0 -37.0 -85.0 -37.0 -84.0 -36.0 -84.0 -36.0 -83.0 -35.0 -83.0 -35.0 -82.0 -34.0 -82.0 -34.0 -81.0 -33.0 -81.0 -33.0 -82.0 -34.0 -82.0 -34.0 -83.0 -33.0 -83.0 -33.0 -82.0 -32.0 -82.0 -32.0 -81.0 -31.0 -81.0 -31.0 -80.0 -32.0 -80.0 -32.0 -81.0 -33.0 -81.0 -33.0 -80.0 -32.0 -80.0 -32.0 -79.0 -31.0 -79.0 -31.0 -78.0 -30.0 -78.0 -30.0 -77.0 -29.0 -77.0 -29.0 -78.0 -28.0 -78.0 -28.0 -77.0 -29.0 -77.0 -29.0 -76.0 -30.0 -76.0 -30.0 -75.0 -31.0 -75.0 -31.0 -74.0 -32.0 -74.0 -32.0 -75.0 -33.0 -75.0 -33.0 -76.0 -34.0 -76.0 -34.0 -77.0 -35.0 -77.0 -35.0 -78.0 -36.0 -78.0 -36.0 -79.0 -37.0 -79.0 -37.0 -80.0 -38.0 -80.0 -38.0 -81.0 -39.0 -81.0 -39.0 -82.0 -40.0 -82.0 -40.0 -83.0 -41.0 -83.0 M-43.0 -85.0 L-52.0 -85.0 -52.0 -88.0 -43.0 -88.0 -43.0 -85.0 M-52.0 -89.0 L-52.0 -90.0 -43.0 -90.0 -43.0 -89.0 -52.0 -89.0 M26.0 -24.0 L26.0 -23.0 27.0 -23.0 27.0 -22.0 28.0 -22.0 28.0 -21.0 29.0 -21.0 29.0 -20.0 28.0 -20.0 28.0 -21.0 27.0 -21.0 27.0 -22.0 26.0 -22.0 26.0 -23.0 25.0 -23.0 25.0 -24.0 26.0 -24.0 M21.0 -29.0 L21.0 -28.0 22.0 -28.0 22.0 -27.0 23.0 -27.0 23.0 -26.0 24.0 -26.0 24.0 -25.0 25.0 -25.0 25.0 -24.0 24.0 -24.0 24.0 -23.0 25.0 -23.0 25.0 -22.0 26.0 -22.0 26.0 -21.0 27.0 -21.0 27.0 -20.0 28.0 -20.0 28.0 -19.0 27.0 -19.0 27.0 -18.0 26.0 -18.0 26.0 -17.0 25.0 -17.0 25.0 -18.0 24.0 -18.0 24.0 -19.0 23.0 -19.0 23.0 -20.0 22.0 -20.0 22.0 -21.0 21.0 -21.0 21.0 -22.0 20.0 -22.0 20.0 -23.0 19.0 -23.0 19.0 -24.0 18.0 -24.0 18.0 -25.0 17.0 -25.0 17.0 -26.0 16.0 -26.0 16.0 -27.0 15.0 -27.0 15.0 -28.0 14.0 -28.0 14.0 -29.0 13.0 -29.0 13.0 -30.0 12.0 -30.0 12.0 -31.0 11.0 -31.0 11.0 -32.0 10.0 -32.0 10.0 -33.0 9.0 -33.0 9.0 -34.0 9.0 -35.0 10.0 -35.0 10.0 -36.0 11.0 -36.0 12.0 -36.0 12.0 -37.0 13.0 -37.0 13.0 -36.0 14.0 -36.0 14.0 -35.0 13.0 -35.0 13.0 -36.0 12.0 -36.0 12.0 -35.0 13.0 -35.0 13.0 -34.0 14.0 -34.0 14.0 -33.0 15.0 -33.0 15.0 -32.0 16.0 -32.0 16.0 -31.0 17.0 -31.0 17.0 -30.0 18.0 -30.0 18.0 -29.0 19.0 -29.0 19.0 -28.0 20.0 -28.0 20.0 -29.0 19.0 -29.0 19.0 -30.0 18.0 -30.0 18.0 -31.0 17.0 -31.0 17.0 -32.0 16.0 -32.0 16.0 -33.0 17.0 -33.0 17.0 -32.0 18.0 -32.0 18.0 -31.0 19.0 -31.0 19.0 -30.0 20.0 -30.0 20.0 -29.0 21.0 -29.0 M21.0 -27.0 L21.0 -26.0 22.0 -26.0 22.0 -27.0 21.0 -27.0 21.0 -28.0 20.0 -28.0 20.0 -27.0 21.0 -27.0 M22.0 -25.0 L23.0 -25.0 23.0 -26.0 22.0 -26.0 22.0 -25.0 M23.0 -25.0 L23.0 -24.0 24.0 -24.0 24.0 -25.0 23.0 -25.0 M11.0 -39.0 L11.0 -38.0 10.0 -38.0 10.0 -39.0 9.0 -39.0 9.0 -40.0 8.0 -40.0 8.0 -41.0 7.0 -41.0 7.0 -42.0 8.0 -42.0 8.0 -41.0 9.0 -41.0 9.0 -40.0 10.0 -40.0 10.0 -39.0 11.0 -39.0 M2.0 -48.0 L2.0 -47.0 3.0 -47.0 3.0 -46.0 4.0 -46.0 4.0 -45.0 5.0 -45.0 5.0 -44.0 4.0 -44.0 4.0 -45.0 3.0 -45.0 3.0 -46.0 2.0 -46.0 2.0 -47.0 1.0 -47.0 1.0 -48.0 2.0 -48.0 M0.0 -50.0 L0.0 -49.0 1.0 -49.0 1.0 -48.0 0.0 -48.0 0.0 -47.0 1.0 -47.0 1.0 -46.0 2.0 -46.0 2.0 -45.0 3.0 -45.0 3.0 -44.0 4.0 -44.0 4.0 -43.0 5.0 -43.0 5.0 -44.0 6.0 -44.0 6.0 -43.0 7.0 -43.0 7.0 -42.0 6.0 -42.0 6.0 -41.0 7.0 -41.0 7.0 -40.0 8.0 -40.0 8.0 -39.0 9.0 -39.0 9.0 -38.0 10.0 -38.0 10.0 -37.0 9.0 -37.0 9.0 -36.0 8.0 -36.0 8.0 -35.0 7.0 -35.0 7.0 -36.0 6.0 -36.0 6.0 -37.0 5.0 -37.0 5.0 -38.0 4.0 -38.0 4.0 -39.0 3.0 -39.0 3.0 -40.0 2.0 -40.0 2.0 -41.0 1.0 -41.0 1.0 -42.0 0.0 -42.0 0.0 -43.0 -1.0 -43.0 -1.0 -44.0 -2.0 -44.0 -2.0 -45.0 -3.0 -45.0 -3.0 -46.0 -4.0 -46.0 -4.0 -47.0 -5.0 -47.0 -5.0 -48.0 -6.0 -48.0 -6.0 -49.0 -7.0 -49.0 -7.0 -50.0 -8.0 -50.0 -8.0 -51.0 -9.0 -51.0 -9.0 -52.0 -10.0 -52.0 -10.0 -53.0 -10.0 -54.0 -9.0 -54.0 -9.0 -55.0 -8.0 -55.0 -7.0 -55.0 -7.0 -54.0 -6.0 -54.0 -6.0 -53.0 -5.0 -53.0 -5.0 -52.0 -4.0 -52.0 -4.0 -51.0 -3.0 -51.0 -3.0 -50.0 -2.0 -50.0 -2.0 -49.0 -1.0 -49.0 -1.0 -48.0 0.0 -48.0 0.0 -49.0 -1.0 -49.0 -1.0 -50.0 -2.0 -50.0 -2.0 -51.0 -3.0 -51.0 -3.0 -52.0 -2.0 -52.0 -2.0 -51.0 -1.0 -51.0 -1.0 -50.0 0.0 -50.0 M5.0 -42.0 L6.0 -42.0 6.0 -43.0 5.0 -43.0 5.0 -42.0 M16.0 -34.0 L16.0 -33.0 15.0 -33.0 15.0 -34.0 14.0 -34.0 14.0 -35.0 15.0 -35.0 15.0 -34.0 16.0 -34.0 M33.0 -15.0 L33.0 -16.0 32.0 -16.0 32.0 -15.0 33.0 -15.0 M31.0 -19.0 L31.0 -18.0 30.0 -18.0 30.0 -19.0 31.0 -19.0 M-8.0 -58.0 L-8.0 -57.0 -9.0 -57.0 -9.0 -56.0 -10.0 -56.0 -10.0 -55.0 -11.0 -55.0 -11.0 -54.0 -12.0 -54.0 -12.0 -55.0 -13.0 -55.0 -13.0 -56.0 -14.0 -56.0 -14.0 -57.0 -15.0 -57.0 -15.0 -58.0 -16.0 -58.0 -16.0 -59.0 -17.0 -59.0 -17.0 -60.0 -18.0 -60.0 -18.0 -61.0 -19.0 -61.0 -19.0 -62.0 -20.0 -62.0 -20.0 -63.0 -21.0 -63.0 -21.0 -64.0 -22.0 -64.0 -22.0 -65.0 -23.0 -65.0 -23.0 -66.0 -24.0 -66.0 -24.0 -67.0 -25.0 -67.0 -25.0 -68.0 -26.0 -68.0 -26.0 -69.0 -27.0 -69.0 -27.0 -70.0 -28.0 -70.0 -28.0 -71.0 -29.0 -71.0 -29.0 -72.0 -30.0 -72.0 -30.0 -73.0 -30.0 -74.0 -29.0 -74.0 -29.0 -75.0 -28.0 -75.0 -27.0 -75.0 -27.0 -74.0 -26.0 -74.0 -26.0 -73.0 -25.0 -73.0 -25.0 -74.0 -24.0 -74.0 -24.0 -73.0 -23.0 -73.0 -23.0 -72.0 -24.0 -72.0 -24.0 -73.0 -25.0 -73.0 -25.0 -72.0 -24.0 -72.0 -24.0 -71.0 -23.0 -71.0 -23.0 -72.0 -22.0 -72.0 -22.0 -71.0 -21.0 -71.0 -21.0 -70.0 -20.0 -70.0 -20.0 -69.0 -21.0 -69.0 -21.0 -68.0 -20.0 -68.0 -20.0 -67.0 -19.0 -67.0 -19.0 -66.0 -18.0 -66.0 -18.0 -65.0 -17.0 -65.0 -17.0 -64.0 -16.0 -64.0 -16.0 -65.0 -15.0 -65.0 -15.0 -64.0 -14.0 -64.0 -14.0 -63.0 -13.0 -63.0 -13.0 -62.0 -14.0 -62.0 -14.0 -63.0 -15.0 -63.0 -15.0 -64.0 -16.0 -64.0 -16.0 -63.0 -15.0 -63.0 -15.0 -62.0 -14.0 -62.0 -14.0 -61.0 -13.0 -61.0 -13.0 -60.0 -12.0 -60.0 -12.0 -59.0 -11.0 -59.0 -11.0 -58.0 -10.0 -58.0 -10.0 -57.0 -9.0 -57.0 -9.0 -58.0 -10.0 -58.0 -10.0 -59.0 -11.0 -59.0 -11.0 -60.0 -10.0 -60.0 -10.0 -59.0 -9.0 -59.0 -9.0 -58.0 -8.0 -58.0 M-40.0 -90.0 L-40.0 -89.0 -42.0 -89.0 -42.0 -90.0 -40.0 -90.0 M-27.0 -76.0 L-26.0 -76.0 -26.0 -75.0 -25.0 -75.0 -25.0 -74.0 -26.0 -74.0 -26.0 -75.0 -27.0 -75.0 -27.0 -76.0 M-30.0 -79.0 L-31.0 -79.0 -31.0 -80.0 -30.0 -80.0 -30.0 -79.0 -29.0 -79.0 -29.0 -78.0 -30.0 -78.0 -30.0 -79.0 M-19.0 -69.0 L-19.0 -68.0 -18.0 -68.0 -18.0 -67.0 -17.0 -67.0 -17.0 -66.0 -16.0 -66.0 -16.0 -65.0 -17.0 -65.0 -17.0 -66.0 -18.0 -66.0 -18.0 -67.0 -19.0 -67.0 -19.0 -68.0 -20.0 -68.0 -20.0 -69.0 -19.0 -69.0 M-23.0 -70.0 L-22.0 -70.0 -22.0 -71.0 -23.0 -71.0 -23.0 -70.0 M-22.0 -69.0 L-21.0 -69.0 -21.0 -70.0 -22.0 -70.0 -22.0 -69.0 M-13.0 -62.0 L-12.0 -62.0 -12.0 -61.0 -11.0 -61.0 -11.0 -60.0 -12.0 -60.0 -12.0 -61.0 -13.0 -61.0 -13.0 -62.0 M-7.0 -56.0 L-6.0 -56.0 -6.0 -55.0 -5.0 -55.0 -5.0 -54.0 -4.0 -54.0 -4.0 -53.0 -5.0 -53.0 -5.0 -54.0 -6.0 -54.0 -6.0 -55.0 -7.0 -55.0 -7.0 -56.0 M-4.0 -53.0 L-3.0 -53.0 -3.0 -52.0 -4.0 -52.0 -4.0 -53.0" fill="#824e17" fill-rule="evenodd" stroke="none"/>
    <path d="M52.0 -5.0 L52.0 -4.0 43.0 -4.0 43.0 -5.0 52.0 -5.0 M-52.0 -88.0 L-52.0 -89.0 -43.0 -89.0 -43.0 -88.0 -52.0 -88.0 M22.0 -25.0 L22.0 -26.0 23.0 -26.0 23.0 -25.0 22.0 -25.0 M21.0 -27.0 L20.0 -27.0 20.0 -28.0 21.0 -28.0 21.0 -27.0 22.0 -27.0 22.0 -26.0 21.0 -26.0 21.0 -27.0 M25.0 -24.0 L25.0 -23.0 26.0 -23.0 26.0 -22.0 27.0 -22.0 27.0 -21.0 28.0 -21.0 28.0 -20.0 27.0 -20.0 27.0 -21.0 26.0 -21.0 26.0 -22.0 25.0 -22.0 25.0 -23.0 24.0 -23.0 24.0 -24.0 25.0 -24.0 M23.0 -25.0 L24.0 -25.0 24.0 -24.0 23.0 -24.0 23.0 -25.0 M7.0 -42.0 L7.0 -41.0 8.0 -41.0 8.0 -40.0 9.0 -40.0 9.0 -39.0 10.0 -39.0 10.0 -38.0 9.0 -38.0 9.0 -39.0 8.0 -39.0 8.0 -40.0 7.0 -40.0 7.0 -41.0 6.0 -41.0 6.0 -42.0 7.0 -42.0 M11.0 -37.0 L12.0 -37.0 12.0 -36.0 11.0 -36.0 11.0 -37.0 M1.0 -48.0 L1.0 -47.0 2.0 -47.0 2.0 -46.0 3.0 -46.0 3.0 -45.0 4.0 -45.0 4.0 -44.0 5.0 -44.0 5.0 -43.0 4.0 -43.0 4.0 -44.0 3.0 -44.0 3.0 -45.0 2.0 -45.0 2.0 -46.0 1.0 -46.0 1.0 -47.0 0.0 -47.0 0.0 -48.0 1.0 -48.0 M0.0 -49.0 L0.0 -48.0 -1.0 -48.0 -1.0 -49.0 -2.0 -49.0 -2.0 -50.0 -3.0 -50.0 -3.0 -51.0 -4.0 -51.0 -4.0 -52.0 -5.0 -52.0 -5.0 -53.0 -6.0 -53.0 -6.0 -54.0 -7.0 -54.0 -7.0 -55.0 -8.0 -55.0 -8.0 -56.0 -7.0 -56.0 -7.0 -55.0 -6.0 -55.0 -6.0 -54.0 -5.0 -54.0 -5.0 -53.0 -4.0 -53.0 -4.0 -52.0 -3.0 -52.0 -3.0 -51.0 -2.0 -51.0 -2.0 -50.0 -1.0 -50.0 -1.0 -49.0 0.0 -49.0 M5.0 -42.0 L5.0 -43.0 6.0 -43.0 6.0 -42.0 5.0 -42.0 M29.0 -18.0 L29.0 -19.0 30.0 -19.0 30.0 -18.0 31.0 -18.0 31.0 -17.0 30.0 -17.0 30.0 -18.0 29.0 -18.0 M16.0 -33.0 L16.0 -32.0 17.0 -32.0 17.0 -31.0 18.0 -31.0 18.0 -30.0 19.0 -30.0 19.0 -29.0 20.0 -29.0 20.0 -28.0 19.0 -28.0 19.0 -29.0 18.0 -29.0 18.0 -30.0 17.0 -30.0 17.0 -31.0 16.0 -31.0 16.0 -32.0 15.0 -32.0 15.0 -33.0 14.0 -33.0 14.0 -34.0 13.0 -34.0 13.0 -35.0 12.0 -35.0 12.0 -36.0 13.0 -36.0 13.0 -35.0 14.0 -35.0 14.0 -34.0 15.0 -34.0 15.0 -33.0 16.0 -33.0 M34.0 -15.0 L34.0 -14.0 35.0 -14.0 35.0 -13.0 36.0 -13.0 36.0 -12.0 37.0 -12.0 37.0 -11.0 38.0 -11.0 38.0 -10.0 37.0 -10.0 37.0 -11.0 36.0 -11.0 36.0 -12.0 35.0 -12.0 35.0 -13.0 34.0 -13.0 34.0 -14.0 33.0 -14.0 33.0 -15.0 34.0 -15.0 M32.0 -17.0 L32.0 -16.0 31.0 -16.0 31.0 -17.0 32.0 -17.0 M33.0 -15.0 L32.0 -15.0 32.0 -16.0 33.0 -16.0 33.0 -15.0 M38.0 -10.0 L39.0 -10.0 39.0 -9.0 40.0 -9.0 40.0 -8.0 41.0 -8.0 41.0 -7.0 42.0 -7.0 42.0 -6.0 41.0 -6.0 41.0 -7.0 40.0 -7.0 40.0 -8.0 39.0 -8.0 39.0 -9.0 38.0 -9.0 38.0 -10.0 M-38.0 -87.0 L-38.0 -86.0 -37.0 -86.0 -37.0 -85.0 -36.0 -85.0 -36.0 -84.0 -35.0 -84.0 -35.0 -83.0 -34.0 -83.0 -34.0 -82.0 -33.0 -82.0 -33.0 -81.0 -34.0 -81.0 -34.0 -82.0 -35.0 -82.0 -35.0 -83.0 -36.0 -83.0 -36.0 -84.0 -37.0 -84.0 -37.0 -85.0 -38.0 -85.0 -38.0 -86.0 -39.0 -86.0 -39.0 -87.0 -40.0 -87.0 -40.0 -88.0 -39.0 -88.0 -39.0 -87.0 -38.0 -87.0 M-40.0 -89.0 L-40.0 -88.0 -42.0 -88.0 -42.0 -89.0 -40.0 -89.0 M-33.0 -81.0 L-32.0 -81.0 -32.0 -80.0 -31.0 -80.0 -31.0 -79.0 -30.0 -79.0 -30.0 -78.0 -29.0 -78.0 -29.0 -77.0 -30.0 -77.0 -30.0 -78.0 -31.0 -78.0 -31.0 -79.0 -32.0 -79.0 -32.0 -80.0 -33.0 -80.0 -33.0 -81.0 M-28.0 -76.0 L-27.0 -76.0 -27.0 -75.0 -26.0 -75.0 -26.0 -74.0 -25.0 -74.0 -25.0 -73.0 -26.0 -73.0 -26.0 -74.0 -27.0 -74.0 -27.0 -75.0 -28.0 -75.0 -28.0 -76.0 M-20.0 -69.0 L-20.0 -68.0 -19.0 -68.0 -19.0 -67.0 -18.0 -67.0 -18.0 -66.0 -17.0 -66.0 -17.0 -65.0 -16.0 -65.0 -16.0 -64.0 -17.0 -64.0 -17.0 -65.0 -18.0 -65.0 -18.0 -66.0 -19.0 -66.0 -19.0 -67.0 -20.0 -67.0 -20.0 -68.0 -21.0 -68.0 -21.0 -69.0 -20.0 -69.0 M-24.0 -73.0 L-24.0 -72.0 -23.0 -72.0 -23.0 -71.0 -24.0 -71.0 -24.0 -72.0 -25.0 -72.0 -25.0 -73.0 -24.0 -73.0 M-22.0 -69.0 L-22.0 -70.0 -21.0 -70.0 -21.0 -69.0 -22.0 -69.0 M-23.0 -70.0 L-23.0 -71.0 -22.0 -71.0 -22.0 -70.0 -23.0 -70.0 M-9.0 -57.0 L-10.0 -57.0 -10.0 -58.0 -11.0 -58.0 -11.0 -59.0 -12.0 -59.0 -12.0 -60.0 -13.0 -60.0 -13.0 -61.0 -14.0 -61.0 -14.0 -62.0 -15.0 -62.0 -15.0 -63.0 -16.0 -63.0 -16.0 -64.0 -15.0 -64.0 -15.0 -63.0 -14.0 -63.0 -14.0 -62.0 -13.0 -62.0 -13.0 -61.0 -12.0 -61.0 -12.0 -60.0 -11.0 -60.0 -11.0 -59.0 -10.0 -59.0 -10.0 -58.0 -9.0 -58.0 -9.0 -57.0" fill="#d6b490" fill-rule="evenodd" stroke="none"/>
    <path d="M43.0 -8.0 L43.0 -7.0 43.0 -6.0 43.0 -5.0 43.0 -4.0 43.0 -1.0 42.0 -1.0 42.0 -6.0 42.0 -7.0 42.0 -8.0 43.0 -8.0 M36.0 -6.0 L36.0 -5.0 34.0 -5.0 34.0 -6.0 33.0 -6.0 33.0 -7.0 32.0 -7.0 32.0 -8.0 31.0 -8.0 31.0 -9.0 30.0 -9.0 30.0 -10.0 29.0 -10.0 29.0 -11.0 28.0 -11.0 28.0 -12.0 27.0 -12.0 27.0 -13.0 26.0 -13.0 26.0 -14.0 25.0 -14.0 25.0 -15.0 24.0 -15.0 24.0 -16.0 23.0 -16.0 23.0 -17.0 22.0 -17.0 22.0 -18.0 21.0 -18.0 21.0 -19.0 20.0 -19.0 20.0 -20.0 19.0 -20.0 19.0 -21.0 18.0 -21.0 18.0 -22.0 17.0 -22.0 17.0 -23.0 16.0 -23.0 16.0 -24.0 15.0 -24.0 15.0 -25.0 14.0 -25.0 14.0 -26.0 13.0 -26.0 13.0 -27.0 12.0 -27.0 12.0 -28.0 11.0 -28.0 11.0 -29.0 10.0 -29.0 10.0 -30.0 9.0 -30.0 9.0 -31.0 8.0 -31.0 8.0 -32.0 7.0 -32.0 7.0 -33.0 6.0 -33.0 6.0 -34.0 5.0 -34.0 5.0 -35.0 4.0 -35.0 4.0 -36.0 3.0 -36.0 3.0 -37.0 2.0 -37.0 2.0 -38.0 1.0 -38.0 1.0 -39.0 0.0 -39.0 0.0 -40.0 -1.0 -40.0 -1.0 -41.0 -2.0 -41.0 -2.0 -42.0 -3.0 -42.0 -3.0 -43.0 -4.0 -43.0 -4.0 -44.0 -5.0 -44.0 -5.0 -45.0 -6.0 -45.0 -6.0 -46.0 -7.0 -46.0 -7.0 -47.0 -8.0 -47.0 -8.0 -48.0 -9.0 -48.0 -9.0 -49.0 -10.0 -49.0 -10.0 -50.0 -11.0 -50.0 -11.0 -51.0 -12.0 -51.0 -12.0 -52.0 -13.0 -52.0 -13.0 -53.0 -14.0 -53.0 -14.0 -54.0 -15.0 -54.0 -15.0 -55.0 -16.0 -55.0 -16.0 -56.0 -17.0 -56.0 -17.0 -57.0 -18.0 -57.0 -18.0 -58.0 -19.0 -58.0 -19.0 -59.0 -20.0 -59.0 -20.0 -60.0 -21.0 -60.0 -21.0 -61.0 -22.0 -61.0 -22.0 -62.0 -23.0 -62.0 -23.0 -63.0 -24.0 -63.0 -24.0 -64.0 -25.0 -64.0 -25.0 -65.0 -26.0 -65.0 -26.0 -66.0 -27.0 -66.0 -27.0 -67.0 -28.0 -67.0 -28.0 -68.0 -29.0 -68.0 -29.0 -69.0 -30.0 -69.0 -30.0 -70.0 -31.0 -70.0 -31.0 -71.0 -32.0 -71.0 -32.0 -72.0 -33.0 -72.0 -33.0 -73.0 -34.0 -73.0 -34.0 -74.0 -35.0 -74.0 -35.0 -75.0 -36.0 -75.0 -36.0 -76.0 -37.0 -76.0 -37.0 -77.0 -38.0 -77.0 -38.0 -78.0 -39.0 -78.0 -39.0 -79.0 -40.0 -79.0 -40.0 -80.0 -41.0 -80.0 -41.0 -81.0 -42.0 -81.0 -42.0 -83.0 -41.0 -83.0 -41.0 -82.0 -40.0 -82.0 -40.0 -81.0 -39.0 -81.0 -39.0 -80.0 -38.0 -80.0 -38.0 -79.0 -37.0 -79.0 -37.0 -78.0 -36.0 -78.0 -36.0 -77.0 -35.0 -77.0 -35.0 -76.0 -34.0 -76.0 -34.0 -75.0 -33.0 -75.0 -33.0 -74.0 -32.0 -74.0 -32.0 -73.0 -31.0 -73.0 -31.0 -72.0 -30.0 -72.0 -30.0 -71.0 -29.0 -71.0 -29.0 -70.0 -28.0 -70.0 -28.0 -69.0 -27.0 -69.0 -27.0 -68.0 -26.0 -68.0 -26.0 -67.0 -25.0 -67.0 -25.0 -66.0 -24.0 -66.0 -24.0 -65.0 -23.0 -65.0 -23.0 -64.0 -22.0 -64.0 -22.0 -63.0 -21.0 -63.0 -21.0 -62.0 -20.0 -62.0 -20.0 -61.0 -19.0 -61.0 -19.0 -60.0 -18.0 -60.0 -18.0 -59.0 -17.0 -59.0 -17.0 -58.0 -16.0 -58.0 -16.0 -57.0 -15.0 -57.0 -15.0 -56.0 -14.0 -56.0 -14.0 -55.0 -13.0 -55.0 -13.0 -54.0 -12.0 -54.0 -12.0 -53.0 -11.0 -53.0 -11.0 -52.0 -10.0 -52.0 -10.0 -51.0 -9.0 -51.0 -9.0 -50.0 -8.0 -50.0 -8.0 -49.0 -7.0 -49.0 -7.0 -48.0 -6.0 -48.0 -6.0 -47.0 -5.0 -47.0 -5.0 -46.0 -4.0 -46.0 -4.0 -45.0 -3.0 -45.0 -3.0 -44.0 -2.0 -44.0 -2.0 -43.0 -1.0 -43.0 -1.0 -42.0 0.0 -42.0 0.0 -41.0 1.0 -41.0 1.0 -40.0 2.0 -40.0 2.0 -39.0 3.0 -39.0 3.0 -38.0 4.0 -38.0 4.0 -37.0 5.0 -37.0 5.0 -36.0 6.0 -36.0 6.0 -35.0 7.0 -35.0 7.0 -34.0 8.0 -34.0 8.0 -35.0 9.0 -35.0 9.0 -36.0 10.0 -36.0 10.0 -35.0 9.0 -35.0 9.0 -34.0 8.0 -34.0 8.0 -33.0 9.0 -33.0 9.0 -32.0 10.0 -32.0 10.0 -31.0 11.0 -31.0 11.0 -30.0 12.0 -30.0 12.0 -29.0 13.0 -29.0 13.0 -28.0 14.0 -28.0 14.0 -27.0 15.0 -27.0 15.0 -26.0 16.0 -26.0 16.0 -25.0 17.0 -25.0 17.0 -24.0 18.0 -24.0 18.0 -23.0 19.0 -23.0 19.0 -22.0 20.0 -22.0 20.0 -21.0 21.0 -21.0 21.0 -20.0 22.0 -20.0 22.0 -19.0 23.0 -19.0 23.0 -18.0 24.0 -18.0 24.0 -17.0 25.0 -17.0 25.0 -16.0 26.0 -16.0 26.0 -15.0 27.0 -15.0 27.0 -14.0 28.0 -14.0 28.0 -13.0 29.0 -13.0 29.0 -12.0 30.0 -12.0 30.0 -11.0 31.0 -11.0 31.0 -10.0 32.0 -10.0 32.0 -9.0 33.0 -9.0 33.0 -8.0 34.0 -8.0 34.0 -7.0 35.0 -7.0 35.0 -6.0 36.0 -6.0 M-42.0 -85.0 L-43.0 -85.0 -43.0 -88.0 -43.0 -89.0 -43.0 -90.0 -43.0 -91.0 -42.0 -91.0 -42.0 -90.0 -42.0 -89.0 -42.0 -88.0 -42.0 -85.0 M28.0 -19.0 L29.0 -19.0 29.0 -20.0 30.0 -20.0 30.0 -19.0 29.0 -19.0 29.0 -18.0 28.0 -18.0 28.0 -17.0 27.0 -17.0 27.0 -18.0 28.0 -18.0 28.0 -19.0 M11.0 -38.0 L12.0 -38.0 12.0 -37.0 11.0 -37.0 11.0 -38.0 M10.0 -37.0 L11.0 -37.0 11.0 -36.0 10.0 -36.0 10.0 -37.0 M-8.0 -55.0 L-9.0 -55.0 -9.0 -54.0 -10.0 -54.0 -10.0 -53.0 -11.0 -53.0 -11.0 -54.0 -10.0 -54.0 -10.0 -55.0 -9.0 -55.0 -9.0 -56.0 -8.0 -56.0 -8.0 -55.0 M27.0 -17.0 L27.0 -16.0 26.0 -16.0 26.0 -17.0 27.0 -17.0 M-8.0 -57.0 L-7.0 -57.0 -7.0 -56.0 -8.0 -56.0 -8.0 -57.0 M-28.0 -77.0 L-27.0 -77.0 -27.0 -76.0 -28.0 -76.0 -28.0 -77.0 M-29.0 -76.0 L-28.0 -76.0 -28.0 -75.0 -29.0 -75.0 -29.0 -76.0 M-30.0 -75.0 L-29.0 -75.0 -29.0 -74.0 -30.0 -74.0 -30.0 -73.0 -31.0 -73.0 -31.0 -74.0 -30.0 -74.0 -30.0 -75.0" fill="#42220c" fill-rule="evenodd" stroke="none"/>
  </g>
</svg>
