<?xml version="1.0" encoding="UTF-8" standalone="no"?>
<svg xmlns:xlink="http://www.w3.org/1999/xlink" height="28.0px" width="16.0px" xmlns="http://www.w3.org/2000/svg">
  <g transform="matrix(1.0, 0.0, 0.0, 1.0, 8.0, 28.0)">
    <path d="M0.0 -25.0 L0.0 -26.0 1.0 -26.0 1.0 -25.0 0.0 -25.0 0.0 -24.0 1.0 -24.0 1.0 -23.0 1.0 -22.0 2.0 -22.0 2.0 -21.0 0.0 -21.0 0.0 -20.0 2.0 -20.0 2.0 -19.0 4.0 -19.0 4.0 -20.0 5.0 -20.0 5.0 -18.0 6.0 -18.0 6.0 -20.0 7.0 -20.0 7.0 -18.0 6.0 -18.0 6.0 -17.0 5.0 -17.0 5.0 -18.0 2.0 -18.0 2.0 -19.0 1.0 -19.0 0.0 -19.0 0.0 -7.0 0.0 -3.0 -1.0 -3.0 -1.0 -2.0 -1.0 -1.0 0.0 -1.0 2.0 -1.0 2.0 0.0 -6.0 0.0 -6.0 -1.0 -3.0 -1.0 -3.0 -2.0 -2.0 -2.0 -2.0 -3.0 -1.0 -3.0 -1.0 -19.0 -2.0 -19.0 -2.0 -18.0 -4.0 -18.0 -4.0 -17.0 -5.0 -17.0 -5.0 -18.0 -6.0 -18.0 -6.0 -20.0 -7.0 -20.0 -7.0 -21.0 -6.0 -21.0 -6.0 -22.0 -7.0 -22.0 -8.0 -22.0 -8.0 -23.0 -7.0 -23.0 -6.0 -23.0 -5.0 -23.0 -5.0 -22.0 -4.0 -22.0 -3.0 -22.0 -2.0 -22.0 -2.0 -21.0 -1.0 -21.0 -1.0 -22.0 0.0 -22.0 0.0 -23.0 -3.0 -23.0 -4.0 -23.0 -4.0 -24.0 -1.0 -24.0 -1.0 -25.0 -2.0 -25.0 -2.0 -26.0 -1.0 -26.0 -1.0 -25.0 0.0 -25.0 M7.0 -23.0 L8.0 -23.0 8.0 -22.0 7.0 -22.0 7.0 -21.0 6.0 -21.0 6.0 -22.0 5.0 -22.0 5.0 -23.0 6.0 -23.0 7.0 -23.0 M1.0 -3.0 L2.0 -3.0 2.0 -2.0 3.0 -2.0 3.0 -1.0 2.0 -1.0 2.0 -2.0 0.0 -2.0 0.0 -3.0 1.0 -3.0 M4.0 -1.0 L6.0 -1.0 6.0 0.0 4.0 0.0 4.0 -1.0 M-3.0 -19.0 L-2.0 -19.0 -2.0 -20.0 -3.0 -20.0 -3.0 -19.0 M-4.0 -20.0 L-3.0 -20.0 -3.0 -21.0 -6.0 -21.0 -6.0 -20.0 -5.0 -20.0 -5.0 -18.0 -4.0 -18.0 -4.0 -20.0" fill="#9b7733" fill-rule="evenodd" stroke="none"/>
    <path d="M0.0 -26.0 L0.0 -25.0 -1.0 -25.0 -1.0 -26.0 0.0 -26.0 M-7.0 -21.0 L-7.0 -22.0 -6.0 -22.0 -6.0 -21.0 -7.0 -21.0 M-4.0 -22.0 L-4.0 -23.0 -3.0 -23.0 -3.0 -22.0 -4.0 -22.0" fill="#b9a788" fill-rule="evenodd" stroke="none"/>
    <path d="M-1.0 -26.0 L-1.0 -28.0 0.0 -28.0 0.0 -26.0 -1.0 -26.0 M6.0 -23.0 L6.0 -25.0 7.0 -25.0 7.0 -23.0 6.0 -23.0 M-7.0 -23.0 L-7.0 -25.0 -6.0 -25.0 -6.0 -23.0 -7.0 -23.0" fill="#ffffff" fill-rule="evenodd" stroke="none"/>
    <path d="M7.0 -21.0 L7.0 -20.0 6.0 -20.0 5.0 -20.0 4.0 -20.0 2.0 -20.0 0.0 -20.0 0.0 -21.0 2.0 -21.0 5.0 -21.0 6.0 -21.0 7.0 -21.0 M1.0 -19.0 L1.0 -7.0 0.0 -7.0 0.0 -19.0 1.0 -19.0 M1.0 -24.0 L5.0 -24.0 5.0 -23.0 5.0 -22.0 4.0 -22.0 4.0 -23.0 1.0 -23.0 1.0 -24.0 M-1.0 -22.0 L-1.0 -21.0 -2.0 -21.0 -2.0 -22.0 -1.0 -22.0 M0.0 -2.0 L0.0 -1.0 -1.0 -1.0 -1.0 -2.0 0.0 -2.0 M-5.0 -20.0 L-6.0 -20.0 -6.0 -21.0 -3.0 -21.0 -3.0 -20.0 -4.0 -20.0 -5.0 -20.0" fill="#e9dab3" fill-rule="evenodd" stroke="none"/>
    <path d="M1.0 -7.0 L1.0 -3.0 0.0 -3.0 0.0 -2.0 2.0 -2.0 2.0 -1.0 3.0 -1.0 4.0 -1.0 4.0 0.0 2.0 0.0 2.0 -1.0 0.0 -1.0 0.0 -2.0 -1.0 -2.0 -1.0 -3.0 0.0 -3.0 0.0 -7.0 1.0 -7.0 M5.0 -21.0 L2.0 -21.0 2.0 -22.0 4.0 -22.0 5.0 -22.0 5.0 -21.0" fill="#d8c6a4" fill-rule="evenodd" stroke="none"/>
  </g>
</svg>
