<?xml version="1.0" encoding="UTF-8" standalone="no"?>
<svg xmlns:xlink="http://www.w3.org/1999/xlink" height="40.0px" width="22.0px" xmlns="http://www.w3.org/2000/svg">
  <g transform="matrix(1.0, 0.0, 0.0, 1.0, 22.0, 20.0)">
    <path d="M-19.0 -18.0 L-22.0 -18.0 -22.0 -19.0 -19.0 -19.0 -19.0 -18.0 M-19.0 19.0 L-22.0 19.0 -22.0 18.0 -19.0 18.0 -19.0 19.0 M-17.0 17.0 L-19.0 17.0 -19.0 16.0 -15.0 16.0 -15.0 14.0 -12.0 14.0 -12.0 12.0 -9.0 12.0 -9.0 11.0 -11.0 11.0 -11.0 10.0 -8.0 10.0 -8.0 8.0 -7.0 8.0 -7.0 3.0 -9.0 3.0 -9.0 2.0 -6.0 2.0 -6.0 -2.0 -9.0 -2.0 -9.0 -3.0 -7.0 -3.0 -7.0 -8.0 -8.0 -8.0 -8.0 -10.0 -11.0 -10.0 -11.0 -11.0 -9.0 -11.0 -9.0 -12.0 -12.0 -12.0 -12.0 -14.0 -15.0 -14.0 -15.0 -16.0 -19.0 -16.0 -19.0 -17.0 -17.0 -17.0 -15.0 -17.0 -15.0 -16.0 -13.0 -16.0 -13.0 -15.0 -11.0 -15.0 -11.0 -14.0 -10.0 -14.0 -10.0 -13.0 -9.0 -13.0 -9.0 -12.0 -8.0 -12.0 -8.0 -11.0 -7.0 -11.0 -7.0 -9.0 -6.0 -9.0 -6.0 -7.0 -5.0 -7.0 -5.0 -6.0 -5.0 -5.0 -4.0 -5.0 -4.0 -3.0 -3.0 -3.0 -3.0 3.0 -4.0 3.0 -4.0 7.0 -5.0 7.0 -5.0 9.0 -5.0 10.0 -6.0 10.0 -6.0 11.0 -7.0 11.0 -7.0 12.0 -8.0 12.0 -8.0 14.0 -9.0 14.0 -9.0 15.0 -10.0 15.0 -10.0 16.0 -11.0 16.0 -13.0 16.0 -13.0 17.0 -14.0 17.0 -14.0 18.0 -16.0 18.0 -16.0 17.0 -17.0 17.0 M-13.0 -10.0 L-14.0 -10.0 -14.0 -11.0 -13.0 -11.0 -13.0 -10.0 M-12.0 -2.0 L-12.0 -3.0 -11.0 -3.0 -11.0 -2.0 -12.0 -2.0 M-12.0 3.0 L-12.0 2.0 -11.0 2.0 -11.0 3.0 -12.0 3.0 M-14.0 11.0 L-14.0 10.0 -13.0 10.0 -13.0 11.0 -14.0 11.0" fill="#ffaf07" fill-rule="evenodd" stroke="none"/>
    <path d="M-19.0 -19.0 L-19.0 -20.0 -14.0 -20.0 -14.0 -19.0 -12.0 -19.0 -12.0 -18.0 -10.0 -18.0 -10.0 -17.0 -8.0 -17.0 -8.0 -16.0 -7.0 -16.0 -7.0 -15.0 -6.0 -15.0 -6.0 -14.0 -7.0 -14.0 -7.0 -15.0 -8.0 -15.0 -8.0 -16.0 -9.0 -16.0 -10.0 -16.0 -10.0 -17.0 -11.0 -17.0 -12.0 -17.0 -12.0 -18.0 -13.0 -18.0 -14.0 -18.0 -14.0 -19.0 -16.0 -19.0 -17.0 -19.0 -19.0 -19.0 M-5.0 -12.0 L-4.0 -12.0 -4.0 -11.0 -3.0 -11.0 -3.0 -10.0 -2.0 -10.0 -2.0 -8.0 -1.0 -8.0 -1.0 -5.0 -2.0 -5.0 -2.0 -8.0 -3.0 -8.0 -3.0 -10.0 -4.0 -10.0 -4.0 -11.0 -5.0 -11.0 -5.0 -12.0 M-3.0 10.0 L-3.0 11.0 -4.0 11.0 -4.0 12.0 -5.0 12.0 -5.0 14.0 -6.0 14.0 -6.0 15.0 -7.0 15.0 -7.0 16.0 -8.0 16.0 -8.0 17.0 -10.0 17.0 -10.0 18.0 -12.0 18.0 -12.0 19.0 -14.0 19.0 -14.0 20.0 -19.0 20.0 -19.0 19.0 -17.0 19.0 -16.0 19.0 -14.0 19.0 -14.0 18.0 -13.0 18.0 -12.0 18.0 -12.0 17.0 -11.0 17.0 -10.0 17.0 -10.0 16.0 -9.0 16.0 -8.0 16.0 -8.0 15.0 -7.0 15.0 -7.0 14.0 -6.0 14.0 -6.0 13.0 -6.0 12.0 -5.0 12.0 -5.0 11.0 -4.0 11.0 -4.0 10.0 -3.0 10.0" fill="#ffffff" fill-rule="evenodd" stroke="none"/>
    <path d="M-6.0 -14.0 L-5.0 -14.0 -5.0 -12.0 -6.0 -12.0 -6.0 -11.0 -7.0 -11.0 -7.0 -13.0 -6.0 -13.0 -6.0 -14.0 M-1.0 -5.0 L0.0 -5.0 0.0 5.0 -1.0 5.0 -1.0 8.0 -2.0 8.0 -2.0 10.0 -3.0 10.0 -3.0 8.0 -2.0 8.0 -2.0 6.0 -2.0 5.0 -1.0 5.0 -1.0 -5.0 M-10.0 -16.0 L-9.0 -16.0 -9.0 -15.0 -8.0 -15.0 -8.0 -14.0 -9.0 -14.0 -9.0 -15.0 -11.0 -15.0 -11.0 -16.0 -10.0 -16.0 M-9.0 16.0 L-10.0 16.0 -10.0 15.0 -9.0 15.0 -9.0 16.0 M-11.0 17.0 L-12.0 17.0 -13.0 17.0 -13.0 18.0 -14.0 18.0 -14.0 17.0 -13.0 17.0 -13.0 16.0 -11.0 16.0 -11.0 17.0 M-16.0 19.0 L-17.0 19.0 -17.0 18.0 -16.0 18.0 -16.0 19.0 M-5.0 -6.0 L-4.0 -6.0 -4.0 -5.0 -5.0 -5.0 -5.0 -6.0 M-5.0 9.0 L-4.0 9.0 -4.0 10.0 -5.0 10.0 -5.0 11.0 -6.0 11.0 -6.0 10.0 -5.0 10.0 -5.0 9.0 M-7.0 -13.0 L-8.0 -13.0 -8.0 -14.0 -7.0 -14.0 -7.0 -13.0 M-12.0 -17.0 L-12.0 -16.0 -13.0 -16.0 -13.0 -17.0 -12.0 -17.0 M-17.0 -19.0 L-16.0 -19.0 -16.0 -18.0 -17.0 -18.0 -17.0 -19.0 M-14.0 -18.0 L-13.0 -18.0 -13.0 -17.0 -14.0 -17.0 -14.0 -18.0 M-5.0 -11.0 L-5.0 -10.0 -4.0 -10.0 -4.0 -9.0 -5.0 -9.0 -5.0 -10.0 -6.0 -10.0 -6.0 -11.0 -5.0 -11.0" fill="#ffeca1" fill-rule="evenodd" stroke="none"/>
    <path d="M-19.0 -18.0 L-19.0 -19.0 -17.0 -19.0 -17.0 -18.0 -16.0 -18.0 -14.0 -18.0 -14.0 -17.0 -13.0 -17.0 -13.0 -16.0 -15.0 -16.0 -15.0 -17.0 -17.0 -17.0 -17.0 -18.0 -19.0 -18.0 M-19.0 18.0 L-17.0 18.0 -17.0 17.0 -16.0 17.0 -16.0 18.0 -17.0 18.0 -17.0 19.0 -19.0 19.0 -19.0 18.0 M-7.0 -13.0 L-7.0 -11.0 -6.0 -11.0 -6.0 -10.0 -5.0 -10.0 -5.0 -9.0 -4.0 -9.0 -4.0 -8.0 -3.0 -8.0 -3.0 -5.0 -2.0 -5.0 -2.0 5.0 -2.0 6.0 -3.0 6.0 -3.0 8.0 -4.0 8.0 -4.0 9.0 -5.0 9.0 -5.0 7.0 -4.0 7.0 -4.0 3.0 -3.0 3.0 -3.0 -3.0 -4.0 -3.0 -4.0 -5.0 -4.0 -6.0 -5.0 -6.0 -5.0 -7.0 -6.0 -7.0 -6.0 -9.0 -7.0 -9.0 -7.0 -11.0 -8.0 -11.0 -8.0 -12.0 -9.0 -12.0 -9.0 -13.0 -10.0 -13.0 -10.0 -14.0 -11.0 -14.0 -11.0 -15.0 -9.0 -15.0 -9.0 -14.0 -8.0 -14.0 -8.0 -13.0 -7.0 -13.0 M-6.0 12.0 L-6.0 13.0 -7.0 13.0 -7.0 14.0 -8.0 14.0 -8.0 15.0 -9.0 15.0 -9.0 14.0 -8.0 14.0 -8.0 12.0 -7.0 12.0 -7.0 11.0 -6.0 11.0 -6.0 12.0 M-11.0 -16.0 L-11.0 -15.0 -13.0 -15.0 -13.0 -16.0 -12.0 -16.0 -12.0 -17.0 -11.0 -17.0 -11.0 -16.0" fill="#ffd941" fill-rule="evenodd" stroke="none"/>
  </g>
</svg>
