<?xml version="1.0" encoding="UTF-8" standalone="no"?>
<svg xmlns:xlink="http://www.w3.org/1999/xlink" height="22.0px" width="14.0px" xmlns="http://www.w3.org/2000/svg">
  <g transform="matrix(1.0, 0.0, 0.0, 1.0, 7.0, 22.0)">
    <path d="M4.0 -19.0 L2.0 -19.0 2.0 -21.0 3.0 -21.0 3.0 -20.0 4.0 -20.0 4.0 -19.0 5.0 -19.0 5.0 -17.0 6.0 -17.0 6.0 -16.0 7.0 -16.0 7.0 -6.0 6.0 -6.0 6.0 -5.0 5.0 -5.0 5.0 -3.0 4.0 -3.0 4.0 -2.0 3.0 -2.0 3.0 -1.0 2.0 -1.0 2.0 0.0 -2.0 0.0 -2.0 -1.0 -3.0 -1.0 -3.0 -2.0 -4.0 -2.0 -4.0 -3.0 -5.0 -3.0 -5.0 -5.0 -6.0 -5.0 -6.0 -6.0 -7.0 -6.0 -7.0 -16.0 -6.0 -16.0 -6.0 -17.0 -5.0 -17.0 -5.0 -19.0 -4.0 -19.0 -4.0 -20.0 -3.0 -20.0 -3.0 -21.0 -2.0 -21.0 -2.0 -22.0 2.0 -22.0 2.0 -21.0 -2.0 -21.0 -2.0 -19.0 -4.0 -19.0 -4.0 -16.0 -6.0 -16.0 -6.0 -6.0 -4.0 -6.0 -4.0 -3.0 -2.0 -3.0 -2.0 -1.0 2.0 -1.0 2.0 -3.0 4.0 -3.0 4.0 -6.0 6.0 -6.0 6.0 -16.0 4.0 -16.0 4.0 -19.0" fill="#5f350d" fill-rule="evenodd" stroke="none"/>
    <path d="M2.0 -21.0 L2.0 -19.0 -1.0 -19.0 -2.0 -19.0 -2.0 -21.0 2.0 -21.0 M1.0 -3.0 L2.0 -3.0 2.0 -1.0 -2.0 -1.0 -2.0 -3.0 -1.0 -3.0 1.0 -3.0 M4.0 -6.0 L4.0 -16.0 6.0 -16.0 6.0 -6.0 4.0 -6.0 M-4.0 -6.0 L-6.0 -6.0 -6.0 -16.0 -4.0 -16.0 -4.0 -6.0" fill="#905923" fill-rule="evenodd" stroke="none"/>
    <path d="M2.0 -19.0 L2.0 -5.0 1.0 -5.0 1.0 -3.0 -1.0 -3.0 -1.0 -5.0 -2.0 -5.0 -2.0 -6.0 -4.0 -6.0 -4.0 -16.0 -2.0 -16.0 -2.0 -18.0 -1.0 -18.0 -1.0 -19.0 2.0 -19.0 M1.0 -6.0 L1.0 -14.0 -1.0 -14.0 -1.0 -6.0 1.0 -6.0" fill="#cd7f32" fill-rule="evenodd" stroke="none"/>
    <path d="M-2.0 -19.0 L-1.0 -19.0 -1.0 -18.0 -2.0 -18.0 -2.0 -16.0 -4.0 -16.0 -4.0 -19.0 -2.0 -19.0 M-2.0 -3.0 L-4.0 -3.0 -4.0 -6.0 -2.0 -6.0 -2.0 -5.0 -1.0 -5.0 -1.0 -3.0 -2.0 -3.0" fill="#d7995b" fill-rule="evenodd" stroke="none"/>
    <path d="M2.0 -19.0 L4.0 -19.0 4.0 -16.0 4.0 -6.0 4.0 -3.0 2.0 -3.0 1.0 -3.0 1.0 -5.0 2.0 -5.0 2.0 -19.0 M1.0 -6.0 L-1.0 -6.0 -1.0 -14.0 1.0 -14.0 1.0 -6.0" fill="#a46628" fill-rule="evenodd" stroke="none"/>
  </g>
</svg>
