<?xml version="1.0" encoding="UTF-8" standalone="no"?>
<svg xmlns:xlink="http://www.w3.org/1999/xlink" height="20.0px" width="18.0px" xmlns="http://www.w3.org/2000/svg">
  <g transform="matrix(1.0, 0.0, 0.0, 1.0, 9.0, 20.0)">
    <path d="M3.0 -19.0 L0.0 -19.0 -4.0 -19.0 -4.0 -20.0 3.0 -20.0 3.0 -19.0 4.0 -19.0 4.0 -18.0 6.0 -18.0 6.0 -17.0 7.0 -17.0 7.0 -15.0 8.0 -15.0 8.0 -14.0 9.0 -14.0 9.0 -6.0 8.0 -6.0 8.0 -5.0 7.0 -5.0 7.0 -3.0 6.0 -3.0 6.0 -2.0 4.0 -2.0 4.0 -1.0 3.0 -1.0 3.0 0.0 -4.0 0.0 -4.0 -1.0 -5.0 -1.0 -5.0 -2.0 -6.0 -2.0 -6.0 -3.0 -7.0 -3.0 -7.0 -5.0 -8.0 -5.0 -8.0 -6.0 -9.0 -6.0 -9.0 -15.0 -8.0 -15.0 -8.0 -16.0 -7.0 -16.0 -7.0 -17.0 -6.0 -17.0 -6.0 -18.0 -5.0 -18.0 -5.0 -19.0 -4.0 -19.0 -4.0 -18.0 -5.0 -18.0 -5.0 -17.0 -6.0 -17.0 -6.0 -16.0 -7.0 -16.0 -7.0 -15.0 -8.0 -15.0 -8.0 -6.0 -7.0 -6.0 -7.0 -5.0 -6.0 -5.0 -6.0 -3.0 -5.0 -3.0 -5.0 -2.0 -4.0 -2.0 -4.0 -1.0 0.0 -1.0 3.0 -1.0 3.0 -3.0 6.0 -3.0 6.0 -6.0 8.0 -6.0 8.0 -14.0 6.0 -14.0 6.0 -17.0 3.0 -17.0 3.0 -19.0" fill="#5f350d" fill-rule="evenodd" stroke="none"/>
    <path d="M0.0 -19.0 L3.0 -19.0 3.0 -17.0 0.0 -17.0 0.0 -19.0 M0.0 -1.0 L0.0 -3.0 3.0 -3.0 3.0 -5.0 5.0 -5.0 5.0 -6.0 6.0 -6.0 6.0 -14.0 5.0 -14.0 5.0 -15.0 3.0 -15.0 3.0 -17.0 6.0 -17.0 6.0 -14.0 8.0 -14.0 8.0 -6.0 6.0 -6.0 6.0 -3.0 3.0 -3.0 3.0 -1.0 0.0 -1.0 M-2.0 -8.0 L0.0 -8.0 0.0 -7.0 1.0 -7.0 1.0 -12.0 0.0 -12.0 0.0 -14.0 3.0 -14.0 3.0 -6.0 -2.0 -6.0 -2.0 -8.0" fill="#a46628" fill-rule="evenodd" stroke="none"/>
    <path d="M0.0 -17.0 L3.0 -17.0 3.0 -15.0 5.0 -15.0 5.0 -14.0 6.0 -14.0 6.0 -6.0 5.0 -6.0 5.0 -5.0 3.0 -5.0 3.0 -3.0 0.0 -3.0 -4.0 -3.0 -4.0 -5.0 -5.0 -5.0 -5.0 -8.0 -7.0 -8.0 -7.0 -14.0 -5.0 -14.0 -5.0 -16.0 -2.0 -16.0 -2.0 -17.0 0.0 -17.0 M-2.0 -8.0 L-2.0 -6.0 3.0 -6.0 3.0 -14.0 0.0 -14.0 0.0 -12.0 1.0 -12.0 1.0 -7.0 0.0 -7.0 0.0 -8.0 -2.0 -8.0 -2.0 -14.0 -4.0 -14.0 -4.0 -8.0 -2.0 -8.0" fill="#cd7f32" fill-rule="evenodd" stroke="none"/>
    <path d="M-4.0 -19.0 L0.0 -19.0 0.0 -17.0 -2.0 -17.0 -2.0 -16.0 -5.0 -16.0 -5.0 -14.0 -7.0 -14.0 -7.0 -8.0 -5.0 -8.0 -5.0 -5.0 -4.0 -5.0 -4.0 -3.0 0.0 -3.0 0.0 -1.0 -4.0 -1.0 -4.0 -2.0 -5.0 -2.0 -5.0 -3.0 -6.0 -3.0 -6.0 -5.0 -7.0 -5.0 -7.0 -6.0 -8.0 -6.0 -8.0 -15.0 -7.0 -15.0 -7.0 -16.0 -6.0 -16.0 -6.0 -17.0 -5.0 -17.0 -5.0 -18.0 -4.0 -18.0 -4.0 -19.0 M-2.0 -8.0 L-4.0 -8.0 -4.0 -14.0 -2.0 -14.0 -2.0 -8.0" fill="#d7995b" fill-rule="evenodd" stroke="none"/>
  </g>
</svg>
