<?xml version="1.0" encoding="UTF-8" standalone="no"?>
<svg xmlns:xlink="http://www.w3.org/1999/xlink" height="23.0px" width="4.0px" xmlns="http://www.w3.org/2000/svg">
  <g transform="matrix(1.0, 0.0, 0.0, 1.0, 2.0, 23.0)">
    <path d="M1.0 -21.0 L2.0 -21.0 2.0 -2.0 1.0 -2.0 1.0 0.0 -1.0 0.0 -1.0 -2.0 -2.0 -2.0 -2.0 -21.0 -1.0 -21.0 -1.0 -23.0 1.0 -23.0 1.0 -21.0 -1.0 -21.0 -1.0 -18.0 -1.0 -5.0 -1.0 -2.0 1.0 -2.0 1.0 -5.0 1.0 -18.0 1.0 -21.0" fill="#5f350d" fill-rule="evenodd" stroke="none"/>
    <path d="M1.0 -18.0 L1.0 -5.0 -1.0 -5.0 -1.0 -18.0 1.0 -18.0" fill="#cd7f32" fill-rule="evenodd" stroke="none"/>
    <path d="M1.0 -5.0 L1.0 -2.0 -1.0 -2.0 -1.0 -5.0 1.0 -5.0" fill="#a46628" fill-rule="evenodd" stroke="none"/>
    <path d="M1.0 -21.0 L1.0 -18.0 -1.0 -18.0 -1.0 -21.0 1.0 -21.0" fill="#d7995b" fill-rule="evenodd" stroke="none"/>
  </g>
</svg>
