<?xml version="1.0" encoding="UTF-8" standalone="no"?>
<svg xmlns:xlink="http://www.w3.org/1999/xlink" height="21.0px" width="13.0px" xmlns="http://www.w3.org/2000/svg">
  <g transform="matrix(1.0, 0.0, 0.0, 1.0, 6.5, 21.0)">
    <path d="M2.5 -19.0 L2.5 -20.0 4.5 -20.0 4.5 -19.0 2.5 -19.0 M-2.5 -20.0 L-2.5 -21.0 2.5 -21.0 2.5 -20.0 1.5 -20.0 -0.5 -20.0 -2.5 -20.0 -2.5 -19.0 -3.5 -19.0 -3.5 -17.0 -4.5 -17.0 -4.5 -15.0 -5.5 -15.0 -5.5 -6.0 -4.5 -6.0 -4.5 -4.0 -3.5 -4.0 -3.5 -2.0 -2.5 -2.0 -2.5 -1.0 2.5 -1.0 2.5 -2.0 4.5 -2.0 4.5 -6.0 5.5 -6.0 5.5 -15.0 4.5 -15.0 4.5 -19.0 5.5 -19.0 5.5 -15.0 6.5 -15.0 6.5 -6.0 5.5 -6.0 5.5 -2.0 4.5 -2.0 4.5 -1.0 2.5 -1.0 2.5 0.0 -2.5 0.0 -2.5 -1.0 -3.5 -1.0 -3.5 -2.0 -4.5 -2.0 -4.5 -4.0 -5.5 -4.0 -5.5 -6.0 -6.5 -6.0 -6.5 -15.0 -5.5 -15.0 -5.5 -17.0 -4.5 -17.0 -4.5 -19.0 -3.5 -19.0 -3.5 -20.0 -2.5 -20.0" fill="#5f350d" fill-rule="evenodd" stroke="none"/>
    <path d="M2.5 -19.0 L4.5 -19.0 4.5 -15.0 4.5 -6.0 4.5 -2.0 2.5 -2.0 1.5 -2.0 1.5 -6.0 2.5 -6.0 2.5 -17.0 1.5 -17.0 1.5 -19.0 2.5 -19.0 M-3.5 -17.0 L-2.5 -17.0 -2.5 -15.0 -2.5 -6.0 -0.5 -6.0 -0.5 -4.0 -2.5 -4.0 -2.5 -6.0 -3.5 -6.0 -3.5 -17.0" fill="#cd7f32" fill-rule="evenodd" stroke="none"/>
    <path d="M-2.5 -19.0 L-0.5 -19.0 -0.5 -15.0 -2.5 -15.0 -2.5 -17.0 -3.5 -17.0 -3.5 -19.0 -2.5 -19.0 M-2.5 -2.0 L-3.5 -2.0 -3.5 -4.0 -3.5 -6.0 -2.5 -6.0 -2.5 -4.0 -0.5 -4.0 -0.5 -2.0 -2.5 -2.0" fill="#d7995b" fill-rule="evenodd" stroke="none"/>
    <path d="M2.5 -20.0 L2.5 -19.0 1.5 -19.0 1.5 -20.0 2.5 -20.0 M-2.5 -20.0 L-0.5 -20.0 -0.5 -19.0 -2.5 -19.0 -2.5 -20.0 M1.5 -2.0 L2.5 -2.0 2.5 -1.0 -2.5 -1.0 -2.5 -2.0 -0.5 -2.0 1.5 -2.0 M4.5 -6.0 L4.5 -15.0 5.5 -15.0 5.5 -6.0 4.5 -6.0 M-3.5 -4.0 L-4.5 -4.0 -4.5 -6.0 -5.5 -6.0 -5.5 -15.0 -4.5 -15.0 -4.5 -17.0 -3.5 -17.0 -3.5 -6.0 -3.5 -4.0" fill="#a46628" fill-rule="evenodd" stroke="none"/>
    <path d="M-0.5 -20.0 L1.5 -20.0 1.5 -19.0 1.5 -17.0 2.5 -17.0 2.5 -6.0 1.5 -6.0 1.5 -2.0 -0.5 -2.0 -0.5 -4.0 -0.5 -6.0 -2.5 -6.0 -2.5 -15.0 -0.5 -15.0 -0.5 -19.0 -0.5 -20.0" fill="#ffffff" fill-rule="evenodd" stroke="none"/>
  </g>
</svg>
