<?xml version="1.0" encoding="UTF-8" standalone="no"?>
<svg xmlns:xlink="http://www.w3.org/1999/xlink" height="10.95px" width="12.6px" xmlns="http://www.w3.org/2000/svg">
  <g transform="matrix(1.0, 0.0, 0.0, 1.0, 164.6, 1.05)">
    <path d="M-152.85 6.1 L-153.2 7.85 Q-156.55 10.1 -160.2 8.15 L-162.35 6.55 -163.15 5.75 Q-163.75 4.85 -163.75 3.75 -163.8 1.55 -160.85 0.35 -159.25 -0.35 -158.5 -0.15 -157.9 0.0 -157.75 0.85 L-157.55 2.6 Q-157.45 3.75 -157.0 4.45 -156.05 5.8 -154.35 6.1 L-152.85 6.1" fill="#5da555" fill-rule="evenodd" stroke="none"/>
    <path d="M-152.85 6.1 L-154.35 6.1 Q-156.05 5.8 -157.0 4.45 -157.45 3.75 -157.55 2.6 L-157.75 0.85 Q-157.9 0.0 -158.5 -0.15 -159.25 -0.35 -160.85 0.35 -163.8 1.55 -163.75 3.75 -163.75 4.85 -163.15 5.75 L-162.35 6.55 -160.2 8.15 Q-156.55 10.1 -153.2 7.85" fill="none" stroke="#1b2b16" stroke-linecap="butt" stroke-linejoin="miter-clip" stroke-miterlimit="4.0" stroke-width="1.7000000000000002"/>
  </g>
</svg>
