<?xml version="1.0" encoding="UTF-8" standalone="no"?>
<svg xmlns:xlink="http://www.w3.org/1999/xlink" height="120.35px" width="140.75px" xmlns="http://www.w3.org/2000/svg">
  <g transform="matrix(1.0, 0.0, 0.0, 1.0, 1.15, 0.85)">
    <path d="M116.25 110.75 L122.25 110.2 Q122.0 114.4 118.9 116.85 L115.85 118.5 Q117.0 116.45 116.75 113.4 L116.25 110.75" fill="#ffffff" fill-rule="evenodd" stroke="none"/>
    <path d="M116.25 110.75 L116.75 113.4 Q117.0 116.45 115.85 118.5 L118.9 116.85 Q122.0 114.4 122.25 110.2 L116.25 110.75 Z" fill="none" stroke="#282425" stroke-linecap="round" stroke-linejoin="round" stroke-width="1.7000000000000002"/>
    <path d="M123.0 107.6 L129.0 107.05 Q128.75 111.25 125.7 113.7 L122.65 115.35 Q123.75 113.3 123.5 110.25 L123.0 107.6" fill="#ffffff" fill-rule="evenodd" stroke="none"/>
    <path d="M123.0 107.6 L123.5 110.25 Q123.75 113.3 122.65 115.35 L125.7 113.7 Q128.75 111.25 129.0 107.05 L123.0 107.6 Z" fill="none" stroke="#282425" stroke-linecap="round" stroke-linejoin="round" stroke-width="1.7000000000000002"/>
    <path d="M59.9 24.05 Q62.0 28.8 62.0 31.15 62.0 36.65 62.8 46.0 L53.1 49.7 52.35 48.5 Q51.45 47.95 50.7 46.7 49.1 44.15 49.6 40.5 50.2 36.35 50.1 29.25 50.0 22.5 49.35 19.05 48.65 15.3 51.3 7.5 54.1 -0.7 56.75 0.05 58.95 0.7 58.5 4.0 57.5 11.2 57.6 14.1 57.75 19.2 59.9 24.05" fill="#f2c962" fill-rule="evenodd" stroke="none"/>
    <path d="M59.9 24.05 Q62.0 28.8 62.0 31.15 62.0 36.65 62.8 46.0 L53.1 49.7 52.35 48.5 Q51.45 47.95 50.7 46.7 49.1 44.15 49.6 40.5 50.2 36.35 50.1 29.25 50.0 22.5 49.35 19.05 48.65 15.3 51.3 7.5 54.1 -0.7 56.75 0.05 58.95 0.7 58.5 4.0 57.5 11.2 57.6 14.1 57.75 19.2 59.9 24.05 Z" fill="none" stroke="#102106" stroke-linecap="butt" stroke-linejoin="miter-clip" stroke-miterlimit="4.0" stroke-width="1.7000000000000002"/>
    <path d="M54.4 6.8 L54.75 4.1 Q54.75 3.25 54.3 2.85 L55.05 1.8 Q55.85 0.85 56.35 0.85 57.55 1.2 57.7 1.95 57.85 2.7 57.45 5.25 56.6 10.45 56.7 14.1 56.8 17.65 57.7 20.75 58.2 22.55 59.45 25.25 L60.6 28.1 Q61.1 29.65 61.1 31.15 61.1 36.45 61.9 45.45 L58.8 46.6 Q58.1 37.5 58.1 32.65 58.1 31.2 57.6 29.65 L56.4 26.75 Q55.2 24.1 54.65 22.25 53.8 19.25 53.65 15.65 53.55 11.9 54.4 6.8" fill="#f5db9f" fill-rule="evenodd" stroke="none"/>
    <path d="M55.75 1.25 Q51.55 10.8 52.1 23.5 52.4 31.1 55.35 46.6 55.5 47.3 56.2 48.1 L53.3 49.2 52.75 48.3 52.7 48.2 52.6 48.15 Q51.75 47.6 51.05 46.4 49.65 44.05 50.1 40.7 50.7 36.45 50.55 29.55 50.45 22.8 49.8 19.4 49.35 16.7 50.95 10.8 52.65 4.7 54.7 2.2 L55.75 1.25" fill="#deb65a" fill-rule="evenodd" stroke="none"/>
    <path d="M61.7 36.05 L61.75 36.25 59.4 35.85 Q57.45 35.55 55.5 35.85 54.05 36.05 52.5 36.8 50.85 37.55 50.25 38.35 L50.35 37.3 Q55.25 33.65 61.7 36.05 M50.5 29.9 L50.5 29.1 Q53.5 25.9 56.75 25.9 58.8 25.9 60.7 26.95 L61.1 28.05 58.95 26.85 56.3 26.45 Q54.8 26.65 52.95 27.75 51.3 28.8 50.5 29.9 M53.1 13.4 Q55.35 13.8 57.25 15.35 L57.25 15.7 Q53.15 12.55 49.95 14.55 L50.05 13.95 Q51.4 13.15 53.1 13.4 M56.2 19.9 Q54.75 19.15 53.55 19.2 52.5 19.3 51.45 20.0 50.4 20.7 50.1 21.65 L50.0 20.7 Q51.6 18.6 53.9 18.75 56.05 18.8 58.15 20.55 L58.5 21.75 Q57.75 20.65 56.2 19.9 M57.5 8.0 Q55.2 6.2 52.05 6.65 L52.25 6.05 Q55.15 5.45 57.5 7.8 L57.5 8.0" fill="#765a25" fill-rule="evenodd" stroke="none"/>
    <path d="M24.1 26.45 L29.25 26.95 Q35.15 28.3 37.75 35.3 40.35 42.2 46.6 47.7 49.75 50.45 52.35 51.8 L39.15 69.15 Q30.4 64.65 26.9 57.25 24.95 53.05 24.55 46.85 24.4 43.75 20.6 40.9 14.4 36.8 9.45 33.1 2.7 28.05 0.75 22.55 -0.9 18.0 1.15 15.75 2.55 14.2 3.5 14.55 4.0 14.7 4.2 15.2 4.75 20.25 10.6 23.4 14.65 25.6 19.25 26.2 L24.1 26.45" fill="#f2c962" fill-rule="evenodd" stroke="none"/>
    <path d="M24.1 26.45 L19.25 26.2 Q14.65 25.6 10.6 23.4 4.75 20.25 4.2 15.2 4.0 14.7 3.5 14.55 2.55 14.2 1.15 15.75 -0.9 18.0 0.75 22.55 2.7 28.05 9.45 33.1 14.4 36.8 20.6 40.9 24.4 43.75 24.55 46.85 24.95 53.05 26.9 57.25 30.4 64.65 39.15 69.15 L52.35 51.8 Q49.75 50.45 46.6 47.7 40.35 42.2 37.75 35.3 35.15 28.3 29.25 26.95 L24.1 26.45 Z" fill="none" stroke="#102106" stroke-linecap="butt" stroke-linejoin="miter-clip" stroke-miterlimit="4.0" stroke-width="1.7000000000000002"/>
    <path d="M23.25 27.3 Q28.5 27.35 30.95 28.4 34.9 30.15 36.95 35.6 39.25 41.7 44.35 46.75 47.5 49.9 51.05 52.05 L49.05 54.7 Q45.45 52.45 42.35 49.3 37.45 44.35 35.2 38.4 33.15 33.0 29.2 31.25 26.8 30.2 21.5 30.1 L17.4 29.9 Q12.05 29.15 7.8 26.65 2.25 23.35 1.6 18.3 L1.4 18.15 1.05 18.3 Q1.2 17.05 1.8 16.3 2.7 15.35 3.15 15.35 L3.35 15.45 Q4.0 20.55 9.55 23.85 13.8 26.35 19.15 27.1 L23.25 27.3" fill="#f5db9f" fill-rule="evenodd" stroke="none"/>
    <path d="M36.5 59.7 Q37.8 63.1 41.55 65.3 L39.05 68.6 Q30.5 64.15 27.2 56.85 25.4 52.85 25.05 46.9 24.9 44.35 22.9 42.35 L17.15 38.05 9.8 32.9 Q4.85 29.2 2.5 25.1 1.0 22.5 0.75 20.15 0.5 17.55 1.65 16.25 L1.85 16.05 Q2.05 25.0 11.25 30.85 L19.7 35.55 Q25.0 38.45 27.95 40.95 31.55 44.55 36.5 59.7" fill="#deb65a" fill-rule="evenodd" stroke="none"/>
    <path d="M3.95 28.65 Q4.05 27.25 4.7 25.7 5.95 22.7 8.6 22.1 L7.6 22.95 Q6.45 24.05 5.8 25.15 5.2 26.1 4.9 27.5 L4.75 28.7 3.95 28.65" fill="#765a25" fill-rule="evenodd" stroke="none"/>
    <path d="M13.65 34.3 Q13.65 35.35 13.8 36.05 L12.95 36.2 12.85 34.3 Q12.8 31.75 13.75 29.75 15.1 26.95 18.15 25.9 16.95 26.65 15.8 28.05 13.5 30.9 13.65 34.3" fill="#765a25" fill-rule="evenodd" stroke="none"/>
    <path d="M23.95 33.2 Q22.55 34.35 21.25 36.35 L20.4 38.25 19.55 40.1 19.5 40.05 Q19.35 38.0 20.55 35.9 21.6 34.05 23.4 32.6 L27.5 29.4 Q29.5 28.1 31.1 28.1 L32.15 28.25 31.15 28.4 Q30.65 28.5 29.65 29.05 28.65 29.55 28.2 29.8 27.4 30.25 26.9 30.75 L23.95 33.2" fill="#765a25" fill-rule="evenodd" stroke="none"/>
    <path d="M35.65 38.25 Q32.8 38.25 30.6 39.45 28.0 40.8 26.0 43.7 L25.05 44.85 Q24.6 45.4 24.45 45.85 L24.55 44.95 25.0 43.75 26.2 42.05 Q28.0 39.95 30.25 38.7 32.2 37.65 35.2 37.65 L37.35 37.9 38.3 38.15 39.1 38.65 38.25 38.5 35.65 38.25" fill="#765a25" fill-rule="evenodd" stroke="none"/>
    <path d="M43.6 46.7 L41.1 46.85 Q39.05 47.35 35.1 49.95 32.5 51.6 30.65 54.2 L29.05 56.4 Q28.15 57.75 28.1 58.75 28.2 56.45 29.6 54.25 31.55 51.3 34.65 49.25 37.75 47.2 40.25 46.4 43.85 45.2 45.0 46.45 L43.6 46.7" fill="#765a25" fill-rule="evenodd" stroke="none"/>
    <path d="M102.8 67.9 L103.6 70.7 105.5 71.4 Q107.4 72.65 107.6 74.8 L109.15 74.8 Q110.9 74.95 111.7 75.5 113.0 76.4 113.2 78.5 L113.7 77.9 115.4 78.0 Q116.8 78.85 118.55 79.3 L122.4 79.4 126.5 78.2 127.5 77.05 Q128.75 76.05 129.85 76.9 131.5 78.3 132.0 81.3 L133.25 82.9 Q134.5 84.65 134.6 85.2 L135.15 87.95 Q135.65 90.35 136.4 91.9 L138.55 96.35 Q139.35 99.3 136.8 101.2 134.35 103.05 132.2 105.25 L129.2 108.5 Q126.9 110.8 122.9 110.8 121.9 110.8 119.75 111.95 117.8 113.0 117.0 112.8 L114.1 111.7 Q112.2 111.0 111.4 111.3 108.7 112.35 104.6 112.8 L100.85 112.85 Q98.45 112.85 95.4 113.9 L87.5 116.7 Q82.8 118.3 80.0 118.6 76.1 119.05 70.3 115.35 68.15 111.25 64.75 111.25 56.1 110.5 47.8 112.85 L47.5 112.3 Q41.65 105.8 38.8 100.45 33.7 90.7 36.2 76.0 38.95 59.85 49.85 51.55 59.05 44.55 71.1 44.7 80.8 44.85 86.75 47.45 91.35 49.45 94.5 53.4 L97.6 58.55 102.8 67.9" fill="#6ebd66" fill-rule="evenodd" stroke="none"/>
    <path d="M102.8 67.9 L97.6 58.55 94.5 53.4 Q91.35 49.45 86.75 47.45 80.8 44.85 71.1 44.7 59.05 44.55 49.85 51.55 38.95 59.85 36.2 76.0 33.7 90.7 38.8 100.45 41.65 105.8 47.5 112.3 L47.8 112.85 Q56.1 110.5 64.75 111.25 68.15 111.25 70.3 115.35 76.1 119.05 80.0 118.6 82.8 118.3 87.5 116.7 L95.4 113.9 Q98.45 112.85 100.85 112.85 L104.6 112.8 Q108.7 112.35 111.4 111.3 112.2 111.0 114.1 111.7 L117.0 112.8 Q117.8 113.0 119.75 111.95 121.9 110.8 122.9 110.8 126.9 110.8 129.2 108.5 L132.2 105.25 Q134.35 103.05 136.8 101.2 139.35 99.3 138.55 96.35 L136.4 91.9 Q135.65 90.35 135.15 87.95 L134.6 85.2 Q134.5 84.65 133.25 82.9 L132.0 81.3 Q131.5 78.3 129.85 76.9 128.75 76.05 127.5 77.05 L126.5 78.2 122.4 79.4 118.55 79.3 Q116.8 78.85 115.4 78.0 L113.7 77.9 113.2 78.5 Q113.0 76.4 111.7 75.5 110.9 74.95 109.15 74.8 L107.6 74.8 Q107.4 72.65 105.5 71.4 L103.6 70.7 102.8 67.9 Z" fill="none" stroke="#1b2b16" stroke-linecap="round" stroke-linejoin="round" stroke-width="1.7000000000000002"/>
    <path d="M108.3 75.65 Q110.4 75.65 111.2 76.2 112.1 76.85 112.3 78.35 112.4 78.8 112.85 79.1 L113.75 79.2 114.1 78.65 114.95 78.75 Q117.8 80.45 120.8 80.45 L122.6 80.25 126.85 79.0 127.1 78.9 127.25 78.65 Q128.15 77.35 128.8 77.35 129.0 77.35 129.25 77.6 130.7 78.75 131.15 81.45 L131.2 81.65 131.35 81.85 Q133.55 84.55 133.75 85.4 L133.9 86.1 Q134.65 90.25 135.65 92.3 L136.35 93.6 Q137.5 95.7 137.75 96.8 138.1 98.35 137.3 99.5 137.15 98.3 135.8 95.9 L135.1 94.6 Q134.1 92.55 133.35 88.4 L133.25 87.7 Q133.1 86.95 130.8 84.15 L130.65 83.95 130.6 83.75 Q130.15 81.05 128.75 79.85 L128.25 79.65 Q127.55 79.65 126.7 80.95 L126.55 81.2 126.3 81.3 122.1 82.55 120.25 82.75 Q117.25 82.75 114.4 81.05 113.8 80.65 113.45 81.25 L112.65 82.2 Q112.05 82.4 111.85 81.55 L111.7 80.25 Q111.3 78.95 110.7 78.5 109.85 77.95 107.75 77.95 L106.3 78.0 106.2 77.2 Q106.05 75.6 104.5 74.4 L102.8 73.85 102.35 73.7 101.5 70.6 96.35 61.35 93.25 56.25 Q90.3 52.5 86.05 50.6 80.2 48.0 70.55 47.85 L70.05 47.85 Q63.85 47.85 58.1 50.0 51.8 52.35 47.05 57.0 46.1 57.0 45.9 56.5 50.75 50.95 57.6 48.1 63.8 45.55 70.6 45.55 L71.1 45.55 Q80.75 45.7 86.6 48.3 90.85 50.2 93.8 53.95 L96.9 59.05 102.05 68.3 102.9 71.4 105.05 72.15 Q106.6 73.15 106.75 74.9 L106.85 75.75 108.3 75.65" fill="#7cd371" fill-rule="evenodd" stroke="none"/>
    <path d="M102.9 107.45 Q112.95 108.4 117.15 111.9 L115.5 111.35 Q113.1 110.35 112.0 110.35 L111.1 110.5 Q108.7 111.45 104.5 111.95 L101.2 111.95 Q98.5 111.95 95.15 113.1 L91.4 114.45 Q83.25 117.4 79.9 117.75 L79.25 117.8 Q76.7 117.8 73.15 115.95 L70.0 114.1 68.95 113.35 68.95 113.4 Q68.6 113.0 67.95 113.65 L66.25 115.45 Q63.3 118.3 59.05 117.65 50.05 116.2 48.65 112.6 L48.25 111.85 45.15 107.85 Q40.95 102.85 39.2 99.25 36.2 93.0 36.25 84.95 38.8 85.4 42.05 87.35 L47.15 90.75 54.85 98.1 62.5 105.25 Q71.8 112.8 81.55 111.8 83.7 113.2 86.45 111.15 89.15 109.15 88.45 107.7 94.7 106.65 102.9 107.45" fill="#65af5e" fill-rule="evenodd" stroke="none"/>
  </g>
</svg>
