<?xml version="1.0" encoding="UTF-8" standalone="no"?>
<svg xmlns:xlink="http://www.w3.org/1999/xlink" height="33.4px" width="18.9px" xmlns="http://www.w3.org/2000/svg">
  <g transform="matrix(1.0, 0.0, 0.0, 1.0, -0.05, 0.1)">
    <path d="M11.9 3.0 L12.15 4.15 12.2 4.25 12.25 4.3 Q14.6 7.35 14.8 8.05 L14.9 8.8 Q15.65 12.85 16.6 14.85 L17.3 16.15 Q18.7 18.65 18.9 19.9 19.15 22.1 17.15 23.65 14.15 25.9 11.0 29.35 L9.5 31.0 Q7.35 33.15 3.45 33.15 L2.5 33.3 Q0.25 26.7 0.05 19.2 -0.2 10.5 2.65 5.2 4.15 2.15 7.9 0.45 11.9 -1.35 11.9 3.0" fill="url(#gradient0)" fill-rule="evenodd" stroke="none"/>
  </g>
  <defs>
    <radialGradient cx="0" cy="0" gradientTransform="matrix(0.0474, 0.0, 0.0, -0.0474, 20.5, 18.6)" gradientUnits="userSpaceOnUse" id="gradient0" r="819.2" spreadMethod="pad">
      <stop offset="0.0" stop-color="#ffffff"/>
      <stop offset="1.0" stop-color="#125200"/>
    </radialGradient>
  </defs>
</svg>
