<?xml version="1.0" encoding="UTF-8" standalone="no"?>
<svg xmlns:xlink="http://www.w3.org/1999/xlink" height="88.75px" width="107.0px" xmlns="http://www.w3.org/2000/svg">
  <g transform="matrix(1.0, 0.0, 0.0, 1.0, -25.25, -29.6)">
    <path d="M38.7 100.45 Q35.55 100.1 32.4 99.1 26.1 97.05 26.1 93.65 26.1 90.25 30.35 87.5 32.5 86.15 34.6 85.45 L36.05 87.0 Q37.65 89.1 38.7 92.0 39.7 94.9 39.3 97.95 39.1 99.5 38.7 100.45" fill="#f8ef95" fill-rule="evenodd" stroke="none"/>
    <path d="M38.7 100.45 Q35.55 100.1 32.4 99.1 26.1 97.05 26.1 93.65 26.1 90.25 30.35 87.5 32.5 86.15 34.6 85.45 L36.05 87.0 Q37.65 89.1 38.7 92.0 39.7 94.9 39.3 97.95 39.1 99.5 38.7 100.45 Z" fill="none" stroke="#1b2b16" stroke-linecap="butt" stroke-linejoin="miter-clip" stroke-miterlimit="4.0" stroke-width="1.7000000000000002"/>
    <path d="M37.8 92.5 Q39.05 96.15 37.9 99.6 30.7 98.55 28.25 96.05 31.05 96.55 33.55 95.4 36.1 94.2 37.45 91.6 L37.8 92.5" fill="#e4d378" fill-rule="evenodd" stroke="none"/>
    <path d="M39.6 102.4 L44.4 106.8 Q49.05 111.5 48.0 112.85 46.55 114.8 41.05 116.1 35.15 117.5 32.6 115.6 30.1 113.7 29.95 112.45 29.85 111.45 31.3 110.5 32.95 109.4 39.6 102.4" fill="#f8ef95" fill-rule="evenodd" stroke="none"/>
    <path d="M39.6 102.4 Q32.95 109.4 31.3 110.5 29.85 111.45 29.95 112.45 30.1 113.7 32.6 115.6 35.15 117.5 41.05 116.1 46.55 114.8 48.0 112.85 49.05 111.5 44.4 106.8 L39.6 102.4 Z" fill="none" stroke="#1b2b16" stroke-linecap="butt" stroke-linejoin="miter-clip" stroke-miterlimit="4.0" stroke-width="1.7000000000000002"/>
    <path d="M39.15 103.75 L39.65 103.25 Q43.2 106.2 45.45 108.85 47.95 111.7 47.35 112.5 46.55 113.6 43.35 114.75 39.9 115.95 36.85 115.95 34.35 115.95 33.15 115.05 L32.65 114.65 37.5 114.9 Q39.9 114.25 41.35 111.95 42.7 109.7 41.85 107.55 41.35 106.4 39.15 103.75" fill="#e4d378" fill-rule="evenodd" stroke="none"/>
    <path d="M55.7 40.1 Q58.8 30.45 61.35 30.45 64.0 30.45 66.35 36.9 68.25 41.95 68.5 45.3 68.65 47.4 63.25 49.15 57.55 51.05 53.1 49.7 54.15 44.9 55.7 40.1" fill="#f8ef95" fill-rule="evenodd" stroke="none"/>
    <path d="M55.7 40.1 Q58.8 30.45 61.35 30.45 64.0 30.45 66.35 36.9 68.25 41.95 68.5 45.3 68.65 47.4 63.25 49.15 57.55 51.05 53.1 49.7 54.15 44.9 55.7 40.1 Z" fill="none" stroke="#1b2b16" stroke-linecap="butt" stroke-linejoin="miter-clip" stroke-miterlimit="4.0" stroke-width="1.7000000000000002"/>
    <path d="M57.3 49.55 L54.15 49.15 55.65 43.35 Q56.0 44.35 56.5 45.05 58.65 47.2 61.9 47.3 64.9 47.45 67.45 45.8 L67.05 46.35 Q65.9 47.6 63.15 48.55 60.2 49.55 57.3 49.55" fill="#e4d378" fill-rule="evenodd" stroke="none"/>
    <path d="M73.45 44.35 L78.15 38.4 Q83.15 32.65 84.65 33.9 86.1 35.2 84.7 41.1 L83.0 46.75 82.05 47.7 Q80.6 48.5 78.2 48.05 75.0 47.45 73.9 46.7 72.55 45.8 73.45 44.35" fill="#f8ef95" fill-rule="evenodd" stroke="none"/>
    <path d="M73.45 44.35 L78.15 38.4 Q83.15 32.65 84.65 33.9 86.1 35.2 84.7 41.1 L83.0 46.75 82.05 47.7 Q80.6 48.5 78.2 48.05 75.0 47.45 73.9 46.7 72.55 45.8 73.45 44.35 Z" fill="none" stroke="#1b2b16" stroke-linecap="butt" stroke-linejoin="miter-clip" stroke-miterlimit="4.0" stroke-width="1.7000000000000002"/>
    <path d="M75.7 42.7 Q77.45 44.95 80.5 44.95 L83.0 44.1 82.2 46.45 Q81.65 47.5 79.65 47.5 L78.3 47.4 Q74.4 46.6 74.05 45.7 73.85 45.3 74.25 44.65 L75.7 42.7" fill="#e4d378" fill-rule="evenodd" stroke="none"/>
    <path d="M86.95 47.7 L92.4 44.8 Q98.0 42.1 99.05 42.9 100.1 43.7 97.55 48.35 L94.8 52.8 Q92.9 53.2 90.95 52.8 87.05 51.9 86.95 47.7" fill="#f8ef95" fill-rule="evenodd" stroke="none"/>
    <path d="M86.95 47.7 L92.4 44.8 Q98.0 42.1 99.05 42.9 100.1 43.7 97.55 48.35 L94.8 52.8 Q92.9 53.2 90.95 52.8 87.05 51.9 86.95 47.7 Z" fill="none" stroke="#1b2b16" stroke-linecap="butt" stroke-linejoin="miter-clip" stroke-miterlimit="4.0" stroke-width="1.7000000000000002"/>
    <path d="M90.35 46.8 Q92.35 49.7 95.35 50.25 L94.2 52.05 92.7 52.2 Q88.15 52.2 87.9 48.1 L90.35 46.8" fill="#e4d378" fill-rule="evenodd" stroke="none"/>
    <path d="M73.45 76.15 Q73.45 63.15 82.8 63.15 88.0 63.15 93.05 67.35 98.05 71.45 98.9 76.25 L101.45 78.5 Q103.95 80.3 106.05 80.45 102.55 80.8 98.9 79.35 98.25 83.6 94.55 86.25 90.85 88.8 85.6 88.8 80.1 88.8 76.7 84.95 73.45 81.35 73.45 76.15" fill="#559d4e" fill-rule="evenodd" stroke="none"/>
    <path d="M98.05 75.75 Q98.05 80.4 94.65 83.35 91.3 86.2 86.2 86.2 81.35 86.2 78.3 82.55 75.45 79.15 75.45 74.2 75.45 61.95 83.75 61.95 88.7 61.95 93.4 66.5 98.05 71.0 98.05 75.75" fill="#ffffff" fill-rule="evenodd" stroke="none"/>
    <path d="M98.05 75.75 Q98.05 80.4 94.65 83.35 91.3 86.2 86.2 86.2 81.35 86.2 78.3 82.55 75.45 79.15 75.45 74.2 75.45 61.95 83.75 61.95 88.7 61.95 93.4 66.5 98.05 71.0 98.05 75.75 Z" fill="none" stroke="#2f3d27" stroke-linecap="butt" stroke-linejoin="miter-clip" stroke-miterlimit="4.0" stroke-width="1.3"/>
    <path d="M87.55 82.25 L91.65 82.55 Q93.85 82.4 96.0 80.75 94.6 83.0 92.1 84.25 89.5 85.55 86.2 85.55 81.5 85.55 78.65 82.0 76.1 78.8 76.1 74.2 76.1 64.0 81.95 62.8 80.75 63.5 80.2 66.35 79.75 68.55 79.75 71.5 79.75 76.3 81.2 78.7 82.95 81.75 87.55 82.25" fill="#c0cdd6" fill-rule="evenodd" stroke="none"/>
    <path d="M81.7 55.8 Q80.2 55.3 78.45 55.75 75.05 56.55 74.0 61.05 73.5 58.3 74.25 56.25 75.65 52.2 81.7 55.8" fill="#559d4e" fill-rule="evenodd" stroke="none"/>
    <path d="M108.9 109.6 Q112.45 110.25 115.25 112.25 114.55 111.85 113.5 111.7 L112.6 111.6 106.0 110.3 Q97.35 109.25 87.15 110.5 L88.35 109.05 98.9 108.65 108.9 109.6" fill="#2f3d27" fill-rule="evenodd" stroke="none"/>
    <path d="M88.3 104.65 L89.3 108.4 Q89.25 112.25 83.95 112.7 L81.55 112.25 80.3 111.75 83.2 111.85 Q85.35 111.5 86.55 110.3 87.65 109.25 88.1 106.85 L88.3 104.65" fill="#2f3d27" fill-rule="evenodd" stroke="none"/>
    <path d="M131.3 90.2 L130.95 91.8 Q130.7 92.55 130.45 92.5 131.05 92.6 131.7 92.1 132.6 91.85 132.05 93.0 131.5 94.2 130.9 94.4 129.7 94.75 128.75 93.55 128.0 92.6 127.7 91.25 127.35 89.75 127.75 88.55 128.15 87.35 129.05 87.15 130.4 86.85 131.0 87.9 131.45 88.75 131.3 90.2" fill="#2f3d27" fill-rule="evenodd" stroke="none"/>
    <path d="M95.5 77.55 Q95.5 78.85 94.75 79.8 94.0 80.75 93.0 80.75 92.0 80.75 91.25 79.8 90.55 78.85 90.55 77.55 90.55 76.25 91.25 75.35 92.0 74.4 93.0 74.4 94.0 74.4 94.75 75.35 95.5 76.3 95.5 77.55" fill="#2f3d27" fill-rule="evenodd" stroke="none"/>
    <path d="M95.15 76.5 Q95.15 77.05 94.8 77.4 94.5 77.75 94.0 77.75 93.5 77.75 93.2 77.4 92.85 77.05 92.85 76.5 92.85 76.0 93.2 75.6 93.5 75.25 94.0 75.25 94.5 75.25 94.8 75.6 95.15 76.0 95.15 76.5" fill="#ffffff" fill-rule="evenodd" stroke="none"/>
    <path d="M87.85 107.55 Q87.85 108.7 87.5 109.45 86.65 111.05 84.1 111.75 L79.5 111.5 77.85 110.5 Q81.9 111.4 85.3 109.55 87.0 108.65 87.85 107.55" fill="#5c9f55" fill-rule="evenodd" stroke="none"/>
  </g>
</svg>
