<?xml version="1.0" encoding="UTF-8" standalone="no"?>
<svg xmlns:xlink="http://www.w3.org/1999/xlink" height="78.75px" width="84.5px" xmlns="http://www.w3.org/2000/svg">
  <g transform="matrix(1.0, 0.0, 0.0, 1.0, -43.35, -30.95)">
    <path d="M81.95 104.0 L81.75 104.55 81.2 104.75 Q80.45 104.75 80.45 104.0 80.45 103.25 81.2 103.25 L81.75 103.5 81.95 104.0" fill="#ffffff" fill-rule="evenodd" stroke="none"/>
    <path d="M60.35 31.75 Q61.05 30.6 62.0 31.15 63.45 32.0 65.1 35.55 67.1 39.85 67.6 45.2 66.3 40.85 64.7 37.1 61.45 29.7 59.9 33.05 L60.35 31.75" fill="#ffffff" fill-rule="evenodd" stroke="none"/>
    <path d="M82.05 35.55 L83.05 34.9 84.5 34.95 Q85.1 35.95 82.2 46.95 83.95 36.95 83.35 36.25 L82.5 35.65 82.05 35.55" fill="#ffffff" fill-rule="evenodd" stroke="none"/>
    <path d="M96.25 44.2 L97.1 43.55 Q98.0 43.05 98.25 43.75 98.7 44.95 95.1 51.15 97.4 45.35 97.1 44.8 L96.55 44.3 96.25 44.2" fill="#ffffff" fill-rule="evenodd" stroke="none"/>
    <path d="M127.85 84.15 L127.55 84.75 126.5 84.45 Q125.35 84.5 124.8 86.3 124.2 88.1 125.05 89.6 125.5 90.4 126.05 90.8 L125.7 91.25 Q123.75 90.1 123.2 88.35 122.65 86.55 123.8 85.0 124.75 83.75 126.4 83.85 L127.85 84.15" fill="#2f3d27" fill-rule="evenodd" stroke="none"/>
    <path d="M105.15 80.5 L103.55 79.85 104.3 78.25 Q105.4 76.4 107.2 75.3 L106.1 76.95 Q105.05 78.9 105.15 80.5" fill="#559d4e" fill-rule="evenodd" stroke="none"/>
    <path d="M100.25 78.2 Q99.55 77.9 99.15 77.1 L98.9 76.4 Q100.2 73.1 101.9 71.9 102.75 71.35 103.35 71.4 101.45 72.55 100.65 75.5 100.25 76.95 100.25 78.2" fill="#559d4e" fill-rule="evenodd" stroke="none"/>
    <path d="M46.0 89.7 L45.85 91.95 Q46.05 94.4 48.05 95.5 50.0 96.6 51.7 93.7 L52.95 90.55 53.05 93.95 Q52.4 97.35 48.6 97.5 44.8 97.7 45.0 93.7 L46.0 89.7" fill="#5c9f55" fill-rule="evenodd" stroke="none"/>
    <path d="M51.5 95.5 L51.35 97.75 Q51.55 100.2 53.55 101.3 55.5 102.4 57.2 99.5 L58.45 96.35 58.55 99.75 Q57.9 103.15 54.1 103.3 50.3 103.5 50.55 99.5 L51.5 95.5" fill="#5c9f55" fill-rule="evenodd" stroke="none"/>
    <path d="M44.8 96.45 L44.35 98.25 Q44.2 100.25 45.65 101.35 47.1 102.5 48.85 100.4 L50.25 98.05 49.9 100.8 Q48.95 103.45 45.85 103.05 42.8 102.7 43.5 99.55 L44.8 96.45" fill="#5c9f55" fill-rule="evenodd" stroke="none"/>
    <path d="M49.15 101.05 L48.7 102.85 Q48.55 104.85 50.0 106.0 51.45 107.15 53.2 105.05 L54.6 102.7 54.25 105.4 Q53.25 108.05 50.2 107.7 47.15 107.35 47.85 104.15 L49.15 101.05" fill="#5c9f55" fill-rule="evenodd" stroke="none"/>
    <path d="M54.1 103.9 L54.4 105.7 Q55.05 107.6 56.85 108.05 58.65 108.5 59.4 105.85 L59.75 103.15 60.5 105.8 Q60.7 108.6 57.75 109.5 54.8 110.4 54.15 107.25 L54.1 103.9" fill="#5c9f55" fill-rule="evenodd" stroke="none"/>
    <path d="M49.4 84.45 L49.7 86.25 Q50.35 88.15 52.15 88.6 53.95 89.05 54.65 86.4 L55.0 83.7 55.8 86.35 Q56.0 89.15 53.05 90.05 50.1 91.0 49.45 87.8 L49.4 84.45" fill="#5c9f55" fill-rule="evenodd" stroke="none"/>
  </g>
</svg>
