<?xml version="1.0" encoding="UTF-8" standalone="no"?>
<svg xmlns:xlink="http://www.w3.org/1999/xlink" height="50.3px" width="51.9px" xmlns="http://www.w3.org/2000/svg">
  <g transform="matrix(1.0, 0.0, 0.0, 1.0, 1.0, 0.9)">
    <path d="M41.7 13.45 L43.35 19.0 Q44.35 22.4 43.8 24.7 43.35 26.4 41.55 28.7 39.25 31.6 38.8 32.5 36.5 29.8 35.05 27.05 33.2 23.45 33.9 21.5 L31.7 25.95 Q29.5 31.85 30.85 35.8 28.75 37.3 25.2 39.0 18.1 42.35 11.0 43.2 12.65 31.45 17.25 20.95 26.4 0.0 41.0 6.35 41.0 9.35 41.7 13.45 M34.2 20.9 L33.9 21.5 34.2 20.9" fill="url(#gradient0)" fill-rule="evenodd" stroke="none"/>
    <path d="M41.7 13.45 L43.35 19.0 Q44.35 22.4 43.8 24.7 43.35 26.4 41.55 28.7 39.25 31.6 38.8 32.5 36.5 29.8 35.05 27.05 33.2 23.45 33.9 21.5" fill="none" stroke="#1b2b16" stroke-linecap="butt" stroke-linejoin="miter-clip" stroke-miterlimit="4.0" stroke-width="1.7000000000000002"/>
    <path d="M33.9 21.5 L31.7 25.95 Q29.5 31.85 30.85 35.8 28.75 37.3 25.2 39.0 18.1 42.35 11.0 43.2 12.65 31.45 17.25 20.95 26.4 0.0 41.0 6.35 41.0 9.35 41.7 13.45 M33.9 21.5 L34.2 20.9" fill="none" stroke="#1b2b16" stroke-linecap="round" stroke-linejoin="miter-clip" stroke-miterlimit="4.0" stroke-width="1.7000000000000002"/>
    <path d="M40.65 14.0 Q37.2 13.2 33.35 16.6 29.75 19.8 29.55 22.65 29.15 28.95 24.95 33.95 L16.4 42.6 13.1 43.0 11.5 42.9 Q13.1 32.65 16.95 23.5 23.85 7.0 34.25 7.0 37.15 7.0 40.1 8.25 40.1 10.8 40.65 14.0" fill="url(#gradient1)" fill-rule="evenodd" stroke="none"/>
    <path d="M44.85 0.0 L41.55 8.35 Q40.55 10.0 39.0 10.45 L35.5 11.3 Q33.4 12.05 31.0 15.9 28.55 19.9 27.55 20.35 26.4 20.85 24.45 18.75 22.5 16.75 20.9 17.6 19.05 18.65 22.65 23.15 L24.8 25.15 Q26.2 26.45 26.4 27.55 26.7 29.1 25.05 30.15 23.0 31.25 22.2 31.9 20.3 33.5 18.95 36.25 L16.8 41.3 Q16.1 42.85 10.65 44.95 L3.05 47.6 Q1.15 48.3 0.4 47.05 L0.0 45.7 Q10.0 42.3 14.05 26.75 15.1 22.6 16.1 15.8 16.9 10.35 17.35 9.65 18.55 7.75 31.8 3.7 L44.85 0.0" fill="#6ebd66" fill-rule="evenodd" stroke="none"/>
    <path d="M44.85 0.0 L31.8 3.7 Q18.55 7.75 17.35 9.65 16.9 10.35 16.1 15.8 15.1 22.6 14.05 26.75 10.0 42.3 0.0 45.7 L0.4 47.05 Q1.15 48.3 3.05 47.6 L10.65 44.95 Q16.1 42.85 16.8 41.3 L18.95 36.25 Q20.3 33.5 22.2 31.9 23.0 31.25 25.05 30.15 26.7 29.1 26.4 27.55 26.2 26.45 24.8 25.15 L22.65 23.15 Q19.05 18.65 20.9 17.6 22.5 16.75 24.45 18.75 26.4 20.85 27.55 20.35 28.55 19.9 31.0 15.9 33.4 12.05 35.5 11.3 L39.0 10.45 Q40.55 10.0 41.55 8.35" fill="none" stroke="#1b2b16" stroke-linecap="butt" stroke-linejoin="miter-clip" stroke-miterlimit="4.0" stroke-width="1.7000000000000002"/>
    <path d="M50.9 0.3 Q48.25 1.8 42.5 2.95 38.1 3.85 29.65 6.85 21.05 9.9 19.9 11.05 18.9 12.05 17.65 19.5 L16.55 26.75 Q13.85 38.25 7.15 43.5 5.05 45.1 2.8 45.9 L1.0 46.4 Q10.2 43.3 14.8 27.2 16.2 22.25 17.15 16.0 L18.05 10.2 Q18.5 9.0 28.15 5.9 L41.2 1.85 Q45.85 0.25 50.9 0.3" fill="url(#gradient2)" fill-rule="evenodd" stroke="none"/>
    <path d="M40.65 8.15 L43.5 5.35 Q42.9 8.0 42.05 9.15 L40.65 8.15" fill="#1b2b16" fill-rule="evenodd" stroke="none"/>
    <path d="M44.75 0.9 L44.3 -0.75 48.8 -0.45 50.6 0.4 44.75 0.9" fill="#1b2b16" fill-rule="evenodd" stroke="none"/>
  </g>
  <defs>
    <linearGradient gradientTransform="matrix(-0.0096, -0.0282, -0.0282, 0.0096, 23.8, 18.4)" gradientUnits="userSpaceOnUse" id="gradient0" spreadMethod="pad" x1="-819.2" x2="819.2">
      <stop offset="0.0" stop-color="#b5ffae"/>
      <stop offset="0.20392156862745098" stop-color="#b0fba9"/>
      <stop offset="0.45098039215686275" stop-color="#a1ec9a"/>
      <stop offset="0.7137254901960784" stop-color="#89d382"/>
      <stop offset="0.9921568627450981" stop-color="#69b162"/>
      <stop offset="1.0" stop-color="#68b061"/>
    </linearGradient>
    <linearGradient gradientTransform="matrix(-0.0035, -0.0226, -0.0226, 0.0035, 23.65, 11.85)" gradientUnits="userSpaceOnUse" id="gradient1" spreadMethod="pad" x1="-819.2" x2="819.2">
      <stop offset="0.0" stop-color="#98e48f"/>
      <stop offset="0.43137254901960786" stop-color="#87c67f"/>
      <stop offset="1.0" stop-color="#6e9968"/>
    </linearGradient>
    <radialGradient cx="0" cy="0" gradientTransform="matrix(0.1252, 0.0, 0.0, -0.1252, 18.35, -2.4)" gradientUnits="userSpaceOnUse" id="gradient2" r="819.2" spreadMethod="pad">
      <stop offset="0.0" stop-color="#b4ffaa"/>
      <stop offset="0.0392156862745098" stop-color="#a8fb9f"/>
      <stop offset="0.12549019607843137" stop-color="#93e48a"/>
      <stop offset="0.23137254901960785" stop-color="#82d27a"/>
      <stop offset="0.3607843137254902" stop-color="#77c66e"/>
      <stop offset="0.5372549019607843" stop-color="#70bf68"/>
      <stop offset="1.0" stop-color="#6ebd66"/>
    </radialGradient>
  </defs>
</svg>
