<?xml version="1.0" encoding="UTF-8" standalone="no"?>
<svg xmlns:xlink="http://www.w3.org/1999/xlink" height="29.75px" width="80.85px" xmlns="http://www.w3.org/2000/svg">
  <g transform="matrix(1.0, 0.0, 0.0, 1.0, 0.0, 0.0)">
    <path d="M66.65 10.9 Q72.1 13.55 75.45 16.75 79.35 20.45 79.9 23.4 80.55 26.65 76.65 27.35 73.3 28.0 69.85 26.6 L67.05 25.1 Q65.85 26.95 63.5 28.05 58.8 30.25 52.9 26.6 51.05 25.3 48.35 21.5 47.5 21.75 42.0 24.2 37.45 26.25 33.5 26.8 21.25 28.55 4.5 17.9 18.15 -3.65 25.6 5.0 L50.95 6.25 Q54.55 6.65 61.9 8.85 L66.65 10.9" fill="#6ebd66" fill-rule="evenodd" stroke="none"/>
    <path d="M25.6 5.0 L50.95 6.25 Q54.55 6.65 61.9 8.85 L66.65 10.9 Q72.1 13.55 75.45 16.75 79.35 20.45 79.9 23.4 80.55 26.65 76.65 27.35 73.3 28.0 69.85 26.6 L67.05 25.1 Q65.85 26.95 63.5 28.05 58.8 30.25 52.9 26.6 51.05 25.3 48.35 21.5 47.5 21.75 42.0 24.2 37.45 26.25 33.5 26.8 21.25 28.55 4.5 17.9" fill="none" stroke="#1b2b16" stroke-linecap="butt" stroke-linejoin="miter-clip" stroke-miterlimit="4.0" stroke-width="1.7000000000000002"/>
    <path d="M77.8 20.6 Q79.35 23.05 79.0 24.7 78.6 26.45 75.9 26.9 72.65 27.45 69.35 26.1 L66.65 24.7 Q65.55 26.4 63.25 27.45 58.75 29.45 53.1 26.0 51.3 24.75 48.7 21.15 L42.45 23.65 Q37.9 25.55 33.9 26.0 21.55 27.55 5.35 17.45 L8.35 15.45 Q22.85 23.65 33.9 22.2 39.95 21.4 47.45 17.8 50.05 21.4 51.85 22.65 57.5 26.1 62.0 24.1 64.3 23.05 65.4 21.35 L68.05 22.75 Q71.4 24.1 74.6 23.55 77.8 23.05 77.8 20.6" fill="#65af5e" fill-rule="evenodd" stroke="none"/>
    <path d="M5.35 17.45 L4.2 18.7 Q3.2 18.0 2.15 16.7 0.1 14.1 0.0 11.3 2.8 14.9 5.35 17.45" fill="#1b2b16" fill-rule="evenodd" stroke="none"/>
    <path d="M25.6 4.1 L25.7 5.9 Q22.2 4.65 20.9 2.2 L20.3 0.0 Q21.4 1.9 23.6 3.2 24.7 3.85 25.6 4.1" fill="#1b2b16" fill-rule="evenodd" stroke="none"/>
    <path d="M66.95 24.15 Q65.95 23.35 65.3 22.4 64.05 20.8 64.7 19.35 66.2 15.85 70.05 15.6 72.2 15.55 74.15 16.65 75.9 17.75 77.35 19.65 L78.9 22.15 Q79.7 23.9 78.8 25.6 77.95 27.1 75.65 27.4 L71.8 27.1 Q69.85 26.7 68.5 25.5 L66.95 24.15" fill="url(#gradient0)" fill-rule="evenodd" stroke="none"/>
    <path d="M64.2 20.15 L66.0 22.9 Q66.9 24.9 65.9 26.65 64.95 28.25 62.3 28.55 L57.85 28.25 Q55.55 27.7 54.05 26.4 L52.25 24.95 50.3 23.0 Q48.85 21.2 49.55 19.65 51.2 15.85 55.7 15.7 58.15 15.55 60.4 16.85 62.55 18.1 64.2 20.15" fill="url(#gradient1)" fill-rule="evenodd" stroke="none"/>
    <path d="M19.65 17.4 L19.0 18.7 Q18.5 20.25 19.45 21.4 20.4 22.55 22.1 21.2 L23.65 19.65 Q23.5 20.8 22.9 21.75 21.65 23.65 19.3 22.8 16.95 21.95 18.05 19.6 L19.65 17.4" fill="#5c9f55" fill-rule="evenodd" stroke="none"/>
    <path d="M17.25 12.0 L16.6 13.35 Q16.1 14.9 17.05 16.0 18.0 17.15 19.7 15.8 L21.25 14.25 Q21.1 15.4 20.5 16.35 19.25 18.25 16.9 17.4 14.55 16.55 15.65 14.2 L17.25 12.0" fill="#5c9f55" fill-rule="evenodd" stroke="none"/>
    <path d="M25.15 17.7 L24.7 19.5 Q24.55 21.5 26.0 22.6 27.45 23.75 29.15 21.65 L30.6 19.3 30.25 22.05 Q29.25 24.7 26.2 24.3 23.15 23.95 23.85 20.8 L25.15 17.7" fill="#5c9f55" fill-rule="evenodd" stroke="none"/>
  </g>
  <defs>
    <radialGradient cx="0" cy="0" gradientTransform="matrix(-0.0036, 0.0187, 0.0195, 0.0038, 77.65, 25.3)" gradientUnits="userSpaceOnUse" id="gradient0" r="819.2" spreadMethod="pad">
      <stop offset="0.0" stop-color="#9dee93"/>
      <stop offset="0.12941176470588237" stop-color="#8dde84"/>
      <stop offset="0.3176470588235294" stop-color="#7ccb73"/>
      <stop offset="0.5215686274509804" stop-color="#71c069"/>
      <stop offset="0.7568627450980392" stop-color="#6ebd66"/>
    </radialGradient>
    <radialGradient cx="0" cy="0" gradientTransform="matrix(-0.0039, 0.0203, 0.0226, 0.0043, 64.55, 26.3)" gradientUnits="userSpaceOnUse" id="gradient1" r="819.2" spreadMethod="pad">
      <stop offset="0.0" stop-color="#9dee93"/>
      <stop offset="0.12941176470588237" stop-color="#8dde84"/>
      <stop offset="0.3176470588235294" stop-color="#7ccb73"/>
      <stop offset="0.5215686274509804" stop-color="#71c069"/>
      <stop offset="0.7568627450980392" stop-color="#6ebd66"/>
    </radialGradient>
  </defs>
</svg>
