<?xml version="1.0" encoding="UTF-8" standalone="no"?>
<svg xmlns:xlink="http://www.w3.org/1999/xlink" height="21.9px" width="24.0px" xmlns="http://www.w3.org/2000/svg">
  <g transform="matrix(1.0, 0.0, 0.0, 1.0, 0.9, 0.9)">
    <path d="M19.6 0.95 Q23.35 2.95 21.65 7.0 20.75 9.05 19.15 10.65 22.1 12.95 18.8 16.9 15.55 20.75 12.25 20.0 9.65 19.45 9.25 17.3 L9.4 15.3 Q7.9 16.8 6.05 17.55 2.35 19.05 0.65 15.3 -1.1 11.5 1.9 10.5 L5.25 10.2 Q4.1 9.2 3.45 7.75 2.2 4.85 4.8 2.8 7.0 1.0 9.3 2.4 10.45 3.1 11.15 4.15 L13.15 1.35 Q15.85 -1.1 19.6 0.95" fill="#ffffff" fill-rule="evenodd" stroke="none"/>
    <path d="M19.6 0.95 Q15.85 -1.1 13.15 1.35 L11.15 4.15 Q10.45 3.1 9.3 2.4 7.0 1.0 4.8 2.8 2.2 4.85 3.45 7.75 4.1 9.2 5.25 10.2 L1.9 10.5 Q-1.1 11.5 0.65 15.3 2.35 19.05 6.05 17.55 7.9 16.8 9.4 15.3 L9.25 17.3 Q9.65 19.45 12.25 20.0 15.55 20.75 18.8 16.9 22.1 12.95 19.15 10.65 20.75 9.05 21.65 7.0 23.35 2.95 19.6 0.95 Z" fill="none" stroke="#1b2b16" stroke-linecap="round" stroke-linejoin="round" stroke-width="1.8"/>
  </g>
</svg>
