<?xml version="1.0" encoding="UTF-8" standalone="no"?>
<svg xmlns:xlink="http://www.w3.org/1999/xlink" height="9.35px" width="10.2px" xmlns="http://www.w3.org/2000/svg">
  <g transform="matrix(1.0, 0.0, 0.0, 1.0, -16.75, -24.15)">
    <path d="M19.85 32.2 Q18.55 31.6 18.0 30.45 17.35 29.2 17.85 27.65 18.6 25.3 21.25 25.1 23.85 24.85 25.4 26.75 26.85 28.65 25.05 30.95 24.1 32.2 22.55 32.5 L19.85 32.2" fill="#ffffff" fill-rule="evenodd" stroke="none"/>
    <path d="M19.85 32.2 L22.55 32.5 Q24.1 32.2 25.05 30.95 26.85 28.65 25.4 26.75 23.85 24.85 21.25 25.1 18.6 25.3 17.85 27.65 17.35 29.2 18.0 30.45 18.55 31.6 19.85 32.2 Z" fill="none" stroke="#1b2b16" stroke-linecap="round" stroke-linejoin="round" stroke-width="1.8"/>
  </g>
</svg>
