<?xml version="1.0" encoding="UTF-8" standalone="no"?>
<svg xmlns:xlink="http://www.w3.org/1999/xlink" height="31.5px" width="36.1px" xmlns="http://www.w3.org/2000/svg">
  <g transform="matrix(1.0, 0.0, 0.0, 1.0, 0.85, 1.45)">
    <path d="M34.4 19.8 L33.3 25.45 Q22.75 32.45 11.25 26.3 7.7 24.35 4.45 21.35 L1.9 18.7 Q0.05 15.95 0.0 12.45 -0.1 5.45 9.1 1.65 14.25 -0.45 16.55 0.15 18.4 0.65 18.95 3.25 L19.5 8.8 Q19.9 12.5 21.35 14.6 24.3 18.95 29.65 19.8 32.35 20.25 34.4 19.8" fill="#5da555" fill-rule="evenodd" stroke="none"/>
    <path d="M34.4 19.8 Q32.35 20.25 29.65 19.8 24.3 18.95 21.35 14.6 19.9 12.5 19.5 8.8 L18.95 3.25 Q18.4 0.65 16.55 0.15 14.25 -0.45 9.1 1.65 -0.1 5.45 0.0 12.45 0.05 15.95 1.9 18.7 L4.45 21.35 Q7.7 24.35 11.25 26.3 22.75 32.45 33.3 25.45" fill="none" stroke="#1b2b16" stroke-linecap="butt" stroke-linejoin="miter-clip" stroke-miterlimit="4.0" stroke-width="1.7000000000000002"/>
  </g>
</svg>
