<?xml version="1.0" encoding="UTF-8" standalone="no"?>
<svg xmlns:xlink="http://www.w3.org/1999/xlink" height="31.85px" width="16.5px" xmlns="http://www.w3.org/2000/svg">
  <g transform="matrix(1.0, 0.0, 0.0, 1.0, -17.1, 1.8)">
    <path d="M32.75 19.8 L32.3 25.45 Q27.75 32.45 22.85 26.3 21.3 24.35 19.9 21.35 L18.8 18.7 Q18.05 15.95 18.0 12.45 17.95 5.45 21.9 1.65 24.1 -0.45 25.1 0.15 25.9 0.65 26.15 3.25 L26.35 8.8 Q26.55 12.5 27.15 14.6 28.4 18.95 30.7 19.8 31.85 20.25 32.75 19.8" fill="#5da555" fill-rule="evenodd" stroke="none"/>
    <path d="M32.75 19.8 Q31.85 20.25 30.7 19.8 28.4 18.95 27.15 14.6 26.55 12.5 26.35 8.8 L26.15 3.25 Q25.9 0.65 25.1 0.15 24.1 -0.45 21.9 1.65 17.95 5.45 18.0 12.45 18.05 15.95 18.8 18.7 L19.9 21.35 Q21.3 24.35 22.85 26.3 27.75 32.45 32.3 25.45" fill="none" stroke="#1b2b16" stroke-linecap="butt" stroke-linejoin="miter-clip" stroke-miterlimit="4.0" stroke-width="1.7000000000000002"/>
  </g>
</svg>
