<?xml version="1.0" encoding="UTF-8" standalone="no"?>
<svg xmlns:xlink="http://www.w3.org/1999/xlink" height="30.9px" width="25.95px" xmlns="http://www.w3.org/2000/svg">
  <g transform="matrix(1.0, 0.0, 0.0, 1.0, -8.45, 0.85)">
    <path d="M33.55 19.8 L32.75 25.45 Q25.35 32.45 17.25 26.3 14.75 24.35 12.5 21.35 L10.7 18.7 Q9.4 15.95 9.35 12.45 9.3 5.45 15.75 1.65 19.35 -0.45 21.0 0.15 22.3 0.65 22.7 3.25 L23.05 8.8 Q23.35 12.5 24.35 14.6 26.45 18.95 30.2 19.8 32.1 20.25 33.55 19.8" fill="#5da555" fill-rule="evenodd" stroke="none"/>
    <path d="M33.55 19.8 Q32.1 20.25 30.2 19.8 26.45 18.95 24.35 14.6 23.35 12.5 23.05 8.8 L22.7 3.25 Q22.3 0.65 21.0 0.15 19.35 -0.45 15.75 1.65 9.3 5.45 9.35 12.45 9.4 15.95 10.7 18.7 L12.5 21.35 Q14.75 24.35 17.25 26.3 25.35 32.45 32.75 25.45" fill="none" stroke="#1b2b16" stroke-linecap="butt" stroke-linejoin="miter-clip" stroke-miterlimit="4.0" stroke-width="1.7000000000000002"/>
  </g>
</svg>
