<?xml version="1.0" encoding="UTF-8" standalone="no"?>
<svg xmlns:xlink="http://www.w3.org/1999/xlink" height="53.5px" width="55.1px" xmlns="http://www.w3.org/2000/svg">
  <g transform="matrix(1.0, 0.0, 0.0, 1.0, -82.9, 3.35)">
    <path d="M129.15 25.7 L137.15 34.7 Q132.8 38.75 128.55 36.4 127.2 35.65 126.05 34.35 L125.15 33.2 123.65 41.2 Q122.15 40.35 120.1 39.65 115.95 38.25 113.15 39.2 110.35 40.15 109.2 44.25 108.65 46.35 108.65 48.2 103.1 42.95 98.65 40.7 95.75 39.25 91.3 41.85 85.65 45.05 84.65 45.2 L91.85 33.6 Q96.75 25.15 100.15 15.2 105.35 0.05 111.35 0.0 113.7 -0.05 115.35 2.3 116.95 4.55 117.15 7.7 117.45 12.7 123.35 19.7 126.3 23.2 129.15 25.7" fill="#6ebd66" fill-rule="evenodd" stroke="none"/>
    <path d="M129.15 25.7 Q126.3 23.2 123.35 19.7 117.45 12.7 117.15 7.7 116.95 4.55 115.35 2.3 113.7 -0.05 111.35 0.0 105.35 0.05 100.15 15.2 96.75 25.15 91.85 33.6 L84.65 45.2 Q85.65 45.05 91.3 41.85 95.75 39.25 98.65 40.7 103.1 42.95 108.65 48.2 108.65 46.35 109.2 44.25 110.35 40.15 113.15 39.2 115.95 38.25 120.1 39.65 122.15 40.35 123.65 41.2 L125.15 33.2 126.05 34.35 Q127.2 35.65 128.55 36.4 132.8 38.75 137.15 34.7" fill="none" stroke="#1b2b16" stroke-linecap="butt" stroke-linejoin="miter-clip" stroke-miterlimit="4.0" stroke-width="1.7000000000000002"/>
    <path d="M90.7 41.25 Q93.8 35.75 97.35 30.3 104.45 19.4 106.65 19.7 108.85 20.0 107.75 32.5 107.25 38.75 106.25 44.95 103.9 42.8 100.8 41.25 94.55 38.15 90.7 41.25" fill="#b5ffae" fill-rule="evenodd" stroke="none"/>
    <path d="M110.35 40.25 Q110.05 34.85 110.2 29.65 110.45 19.25 112.65 20.2 114.85 21.15 119.1 30.55 L122.9 39.75 Q120.7 38.65 118.05 38.15 112.7 37.2 110.35 40.25" fill="#b5ffae" fill-rule="evenodd" stroke="none"/>
    <path d="M118.5 14.55 Q117.65 12.45 116.4 10.2 113.95 5.65 111.9 4.7 109.85 3.75 105.55 9.4 L101.65 15.2 Q103.05 9.1 106.1 4.85 109.2 0.5 112.15 0.7 114.75 0.9 116.9 7.75 117.95 11.2 118.5 14.55" fill="#89e27e" fill-rule="evenodd" stroke="none"/>
    <path d="M95.3 33.4 L100.0 26.25 Q105.0 19.2 106.65 19.7 108.3 20.25 108.2 27.2 108.2 30.7 107.8 34.05 L107.2 29.2 Q106.35 24.25 105.3 24.05 104.2 23.8 100.55 27.45 97.7 30.35 95.3 33.4" fill="#9ec09a" fill-rule="evenodd" stroke="none"/>
    <path d="M110.35 40.25 Q110.0 35.05 110.15 29.95 110.35 19.7 112.65 20.2 114.95 20.75 116.0 23.1 L116.65 25.4 115.6 23.85 Q114.25 22.35 113.0 22.9 111.75 23.4 110.95 31.9 110.5 36.1 110.35 40.25" fill="#9ec09a" fill-rule="evenodd" stroke="none"/>
  </g>
</svg>
