<?xml version="1.0" encoding="UTF-8" standalone="no"?>
<svg xmlns:xlink="http://www.w3.org/1999/xlink" height="56.5px" width="24.05px" xmlns="http://www.w3.org/2000/svg">
  <g transform="matrix(1.0, 0.0, 0.0, 1.0, -113.95, -1.7)">
    <path d="M127.55 7.75 Q128.95 14.05 131.3 19.8 134.6 27.8 137.15 26.7 L134.2 36.2 135.25 36.15 Q135.65 37.0 132.35 41.7 129.2 46.15 128.4 42.9 L127.95 40.2 Q127.75 38.9 127.25 39.2 126.25 39.85 126.15 46.1 L126.2 52.2 125.15 46.45 Q123.8 40.7 122.45 40.7 121.15 40.7 118.2 47.8 116.7 51.3 115.5 54.85 114.95 46.35 114.85 36.25 114.7 16.0 117.25 7.85 119.0 2.2 122.8 2.55 126.5 2.95 127.55 7.75" fill="#6ebd66" fill-rule="evenodd" stroke="none"/>
    <path d="M134.2 36.2 L135.25 36.15 Q135.65 37.0 132.35 41.7 129.2 46.15 128.4 42.9 L127.95 40.2 Q127.75 38.9 127.25 39.2 126.25 39.85 126.15 46.1 L126.2 52.2 125.15 46.45 Q123.8 40.7 122.45 40.7 121.15 40.7 118.2 47.8 116.7 51.3 115.5 54.85 114.95 46.35 114.85 36.25 114.7 16.0 117.25 7.85 119.0 2.2 122.8 2.55 126.5 2.95 127.55 7.75 128.95 14.05 131.3 19.8 134.6 27.8 137.15 26.7" fill="none" stroke="#1b2b16" stroke-linecap="butt" stroke-linejoin="miter-clip" stroke-miterlimit="4.0" stroke-width="1.7000000000000002"/>
    <path d="M122.0 3.2 Q124.95 3.4 125.9 7.85 L126.7 9.55 127.55 11.4 Q125.65 8.65 123.1 8.75 120.2 8.8 118.9 12.95 116.0 22.3 116.9 48.55 L115.7 51.9 Q115.15 44.0 115.1 34.6 114.95 15.85 117.3 8.3 118.95 3.05 122.0 3.2" fill="#89e27e" fill-rule="evenodd" stroke="none"/>
    <path d="M123.05 19.4 Q124.2 19.8 124.05 30.15 L123.7 40.4 Q121.65 39.05 119.9 41.5 L118.55 44.2 120.1 31.55 Q121.9 18.95 123.05 19.4" fill="#b5ffae" fill-rule="evenodd" stroke="none"/>
    <path d="M128.9 39.05 Q128.35 37.5 127.6 37.7 L126.9 38.2 127.2 32.25 Q127.65 26.3 128.7 26.4 129.75 26.5 129.45 32.8 L128.9 39.05" fill="#b5ffae" fill-rule="evenodd" stroke="none"/>
  </g>
</svg>
