<?xml version="1.0" encoding="UTF-8" standalone="no"?>
<svg xmlns:xlink="http://www.w3.org/1999/xlink" height="56.55px" width="20.95px" xmlns="http://www.w3.org/2000/svg">
  <g transform="matrix(1.0, 0.0, 0.0, 1.0, -132.55, 3.1)">
    <path d="M145.8 -2.25 Q149.1 -2.6 150.6 3.05 152.8 11.2 152.65 31.45 152.6 41.55 152.1 50.05 L149.8 43.0 Q147.25 35.9 146.1 35.9 144.95 35.9 143.8 41.65 L142.85 47.4 142.95 41.3 Q142.85 35.05 141.95 34.4 141.55 34.1 141.35 35.4 L140.95 38.1 Q140.3 41.35 137.55 36.9 134.7 32.2 135.05 31.35 L135.95 31.4 133.4 21.9 Q135.6 23.0 138.45 15.0 140.5 9.25 141.7 2.95 142.6 -1.85 145.8 -2.25" fill="#6ebd66" fill-rule="evenodd" stroke="none"/>
    <path d="M135.95 31.4 L135.05 31.35 Q134.7 32.2 137.55 36.9 140.3 41.35 140.95 38.1 L141.35 35.4 Q141.55 34.1 141.95 34.4 142.85 35.05 142.95 41.3 L142.85 47.4 143.8 41.65 Q144.95 35.9 146.1 35.9 147.25 35.9 149.8 43.0 L152.1 50.05 Q152.6 41.55 152.65 31.45 152.8 11.2 150.6 3.05 149.1 -2.6 145.8 -2.25 142.6 -1.85 141.7 2.95 140.5 9.25 138.45 15.0 135.6 23.0 133.4 21.9" fill="none" stroke="#1b2b16" stroke-linecap="butt" stroke-linejoin="miter-clip" stroke-miterlimit="4.0" stroke-width="1.7000000000000002"/>
    <path d="M150.55 3.5 Q152.6 11.05 152.5 29.8 152.45 39.2 151.95 47.1 L150.9 43.75 Q151.8 17.8 149.15 8.15 148.05 4.0 145.55 3.95 143.3 3.85 141.7 6.6 L142.4 4.75 143.1 3.05 Q144.0 -1.4 146.5 -1.6 149.15 -1.75 150.55 3.5" fill="#89e27e" fill-rule="evenodd" stroke="none"/>
  </g>
</svg>
