<?xml version="1.0" encoding="UTF-8" standalone="no"?>
<svg xmlns:xlink="http://www.w3.org/1999/xlink" height="97.0px" width="166.0px" xmlns="http://www.w3.org/2000/svg">
  <g transform="matrix(1.0, 0.0, 0.0, 1.0, 83.0, 0.5)">
    <path d="M77.5 0.0 Q82.5 0.0 82.5 5.0 L82.5 91.0 Q82.5 96.0 77.5 96.0 L-77.5 96.0 Q-82.5 96.0 -82.5 91.0 L-82.5 5.0 Q-82.5 0.0 -77.5 0.0 L77.5 0.0" fill="#ffffff" fill-rule="evenodd" stroke="none"/>
    <path d="M77.5 0.0 L-77.5 0.0 Q-82.5 0.0 -82.5 5.0 L-82.5 91.0 Q-82.5 96.0 -77.5 96.0 L77.5 96.0 Q82.5 96.0 82.5 91.0 L82.5 5.0 Q82.5 0.0 77.5 0.0 Z" fill="none" stroke="#000000" stroke-linecap="round" stroke-linejoin="round" stroke-width="1.0"/>
  </g>
</svg>
