<?xml version="1.0" encoding="UTF-8" standalone="no"?>
<svg xmlns:xlink="http://www.w3.org/1999/xlink" height="14.0px" width="14.0px" xmlns="http://www.w3.org/2000/svg">
  <g transform="matrix(1.0, 0.0, 0.0, 1.0, 7.0, 7.0)">
    <path d="M4.0 -5.0 L4.0 -6.0 7.0 -6.0 7.0 -5.0 4.0 -5.0 M2.0 -4.0 L3.0 -4.0 3.0 -3.0 7.0 -3.0 7.0 -2.0 5.0 -2.0 5.0 0.0 7.0 0.0 7.0 1.0 2.0 1.0 2.0 3.0 7.0 3.0 7.0 4.0 5.0 4.0 5.0 6.0 7.0 6.0 7.0 7.0 -7.0 7.0 -7.0 6.0 -3.0 6.0 -3.0 4.0 -7.0 4.0 -7.0 3.0 -5.0 3.0 -5.0 1.0 -7.0 1.0 -7.0 -3.0 -4.0 -3.0 -4.0 -4.0 -3.0 -4.0 -3.0 -3.0 2.0 -3.0 2.0 -4.0 M2.0 -6.0 L2.0 -5.0 -2.0 -5.0 -2.0 -6.0 2.0 -6.0 M-7.0 -5.0 L-7.0 -6.0 -4.0 -6.0 -4.0 -5.0 -7.0 -5.0 M1.0 3.0 L1.0 1.0 -4.0 1.0 -4.0 3.0 1.0 3.0 M4.0 6.0 L4.0 4.0 -2.0 4.0 -2.0 6.0 4.0 6.0 M4.0 0.0 L4.0 -2.0 -1.0 -2.0 -1.0 0.0 4.0 0.0 M-2.0 -2.0 L-6.0 -2.0 -6.0 0.0 -2.0 0.0 -2.0 -2.0" fill="#7e7e7e" fill-rule="evenodd" stroke="none"/>
    <path d="M7.0 -6.0 L4.0 -6.0 4.0 -7.0 7.0 -7.0 7.0 -6.0 M4.0 -5.0 L4.0 -4.0 3.0 -4.0 2.0 -4.0 2.0 -5.0 4.0 -5.0 M-2.0 -5.0 L-2.0 -4.0 -3.0 -4.0 -4.0 -4.0 -4.0 -5.0 -2.0 -5.0 M-7.0 -6.0 L-7.0 -7.0 -4.0 -7.0 -4.0 -6.0 -7.0 -6.0 M-2.0 -6.0 L-2.0 -7.0 2.0 -7.0 2.0 -6.0 -2.0 -6.0" fill="#bbbbbb" fill-rule="evenodd" stroke="none"/>
    <path d="M4.0 -5.0 L7.0 -5.0 7.0 -3.0 3.0 -3.0 3.0 -4.0 4.0 -4.0 4.0 -5.0 M2.0 -5.0 L2.0 -4.0 2.0 -3.0 -3.0 -3.0 -3.0 -4.0 -2.0 -4.0 -2.0 -5.0 2.0 -5.0 M7.0 -2.0 L7.0 0.0 5.0 0.0 5.0 -2.0 7.0 -2.0 M7.0 1.0 L7.0 3.0 2.0 3.0 2.0 1.0 7.0 1.0 M7.0 4.0 L7.0 6.0 5.0 6.0 5.0 4.0 7.0 4.0 M-7.0 6.0 L-7.0 4.0 -3.0 4.0 -3.0 6.0 -7.0 6.0 M-7.0 3.0 L-7.0 1.0 -5.0 1.0 -5.0 3.0 -7.0 3.0 M-7.0 -3.0 L-7.0 -5.0 -4.0 -5.0 -4.0 -4.0 -4.0 -3.0 -7.0 -3.0 M4.0 6.0 L-2.0 6.0 -2.0 4.0 4.0 4.0 4.0 6.0 M1.0 3.0 L-4.0 3.0 -4.0 1.0 1.0 1.0 1.0 3.0 M4.0 0.0 L-1.0 0.0 -1.0 -2.0 4.0 -2.0 4.0 0.0 M-2.0 -2.0 L-2.0 0.0 -6.0 0.0 -6.0 -2.0 -2.0 -2.0" fill="#989898" fill-rule="evenodd" stroke="none"/>
  </g>
</svg>
