<?xml version="1.0" encoding="UTF-8" standalone="no"?>
<svg xmlns:xlink="http://www.w3.org/1999/xlink" height="22.85px" width="2.5px" xmlns="http://www.w3.org/2000/svg">
  <g transform="matrix(1.0, 0.0, 0.0, 1.0, 1.25, 21.55)">
    <path d="M1.1 -10.75 Q1.1 -6.25 0.75 -3.15 0.45 0.0 0.0 0.0 -0.4 0.0 -0.8 -3.15 L-1.1 -10.75 -0.8 -18.45 Q-0.4 -21.55 0.0 -21.55 0.45 -21.55 0.75 -18.45 1.1 -15.25 1.1 -10.75" fill="#000000" fill-rule="evenodd" stroke="none"/>
    <path d="M0.0 1.3 Q-0.55 1.3 -0.9 0.95 -1.25 0.6 -1.25 0.05 -1.25 -0.5 -0.9 -0.85 -0.55 -1.25 0.0 -1.25 0.55 -1.25 0.9 -0.85 1.25 -0.5 1.25 0.05 1.25 0.6 0.9 0.95 0.55 1.3 0.0 1.3" fill="#000000" fill-rule="evenodd" stroke="none"/>
  </g>
</svg>
